<?xml version="1.0" encoding="UTF-8"?>
<svg xmlns="http://www.w3.org/2000/svg" xmlns:xlink="http://www.w3.org/1999/xlink" width="1500pt" height="1500pt" viewBox="0 0 1500 1500" version="1.1">
<g id="surface1">
<path style=" stroke:none;fill-rule:nonzero;fill:rgb(100%,59.607843%,0%);fill-opacity:1;" d="M 742.5 15.820312 C 740.390625 42.773438 736.171875 60.703125 727.96875 77.226562 C 724.921875 83.4375 715.429688 99.023438 706.875 111.914062 C 689.53125 137.8125 685.78125 144.375 682.148438 156.445312 C 678.984375 166.523438 678.75 184.453125 681.445312 195 C 686.601562 214.804688 703.945312 233.671875 724.921875 242.578125 C 732.421875 245.742188 732.539062 245.742188 728.789062 246.5625 C 726.796875 246.914062 722.109375 247.265625 718.476562 247.265625 C 700.078125 247.265625 652.734375 254.765625 625.078125 262.03125 C 616.054688 264.375 607.734375 266.601562 606.445312 266.835938 C 604.101562 267.304688 604.101562 266.71875 604.101562 236.484375 C 603.984375 204.257812 602.460938 188.203125 596.367188 157.851562 C 595.078125 151.523438 594.257812 146.015625 594.492188 145.78125 C 594.960938 145.195312 609.609375 179.53125 628.945312 226.757812 C 635.039062 241.523438 640.429688 254.179688 641.015625 254.765625 C 642.421875 256.171875 656.132812 241.757812 660.820312 234.023438 C 667.851562 222.070312 670.546875 212.929688 671.25 198.75 C 671.953125 183.632812 670.546875 176.25 664.804688 164.179688 C 659.765625 153.515625 648.28125 141.210938 618.75 114.960938 C 579.023438 79.6875 563.554688 61.40625 552.773438 36.914062 C 551.601562 34.21875 550.898438 33.398438 551.25 35.15625 C 555.703125 58.242188 556.640625 66.445312 556.757812 81.09375 C 556.757812 99.609375 553.945312 114.257812 545.859375 137.109375 C 537.539062 160.898438 534.375 171.210938 532.617188 179.53125 C 527.34375 204.140625 534.140625 228.75 550.664062 244.921875 C 562.03125 256.054688 577.03125 263.4375 594.726562 266.484375 L 602.929688 267.890625 L 586.523438 273.515625 C 555.9375 284.0625 519.023438 301.054688 493.710938 316.171875 L 484.101562 322.03125 L 482.8125 315.351562 C 476.601562 284.53125 464.296875 250.078125 448.125 217.617188 C 444.609375 210.585938 442.148438 205.195312 442.734375 205.546875 C 444.023438 206.25 478.007812 249.960938 501.5625 281.015625 C 509.53125 291.445312 516.5625 299.882812 517.148438 299.648438 C 519.257812 298.945312 527.460938 284.179688 529.921875 276.5625 C 533.203125 266.015625 534.023438 246.914062 531.5625 236.484375 C 528.515625 223.125 523.125 213.75 513.28125 203.90625 C 502.851562 193.59375 495.234375 188.90625 455.859375 168.867188 C 412.03125 146.71875 399.609375 138.398438 382.265625 120.117188 L 371.953125 109.21875 L 377.460938 120.234375 C 384.84375 134.882812 389.648438 148.59375 392.695312 163.125 C 395.273438 176.132812 395.273438 170.390625 393.046875 240.820312 C 392.34375 260.273438 392.578125 262.851562 394.921875 271.523438 C 397.96875 282.890625 403.828125 293.320312 412.03125 302.226562 C 419.179688 309.960938 427.851562 315.46875 439.6875 319.6875 C 447.304688 322.382812 450 322.734375 465.351562 322.734375 L 482.34375 322.851562 L 466.875 333.398438 C 425.625 361.40625 388.476562 395.742188 356.601562 435.351562 C 343.476562 451.640625 321.796875 483.515625 311.71875 501.445312 C 305.742188 511.992188 305.390625 512.34375 303.632812 510.117188 C 286.40625 488.90625 256.40625 462.890625 223.710938 440.742188 C 217.617188 436.640625 212.226562 432.773438 211.640625 432.304688 C 209.765625 430.664062 265.195312 453.164062 316.171875 474.726562 C 319.570312 476.132812 322.734375 476.953125 323.203125 476.484375 C 323.671875 476.015625 323.90625 470.507812 323.90625 464.296875 C 323.554688 443.671875 315.585938 425.742188 300.351562 411.328125 C 290.859375 402.1875 279.140625 395.976562 267.539062 393.75 C 262.382812 392.695312 252.421875 392.460938 234.140625 393.046875 C 160.898438 395.039062 149.882812 395.15625 140.390625 393.867188 C 129.023438 392.226562 114.140625 388.476562 106.640625 385.3125 C 100.195312 382.5 101.132812 383.554688 112.5 390.9375 C 125.390625 399.257812 140.859375 412.617188 148.125 421.40625 C 156.914062 432.070312 165.585938 446.835938 177.890625 472.265625 C 183.75 484.21875 190.664062 497.226562 193.359375 501.210938 C 207.421875 522.421875 233.320312 535.898438 256.40625 533.789062 C 271.289062 532.5 283.828125 527.8125 297.304688 518.4375 C 301.40625 515.625 304.6875 513.632812 304.6875 513.867188 C 304.6875 514.21875 301.289062 521.25 297.1875 529.453125 C 284.296875 555.46875 272.226562 587.109375 264.257812 616.640625 C 261.914062 625.195312 259.804688 632.929688 259.570312 633.75 C 259.21875 634.804688 256.992188 633.867188 252.304688 630.703125 C 229.453125 615.234375 204.140625 603.046875 165.234375 588.75 C 155.859375 585.351562 149.53125 582.539062 151.171875 582.421875 C 155.273438 582.421875 258.28125 595.664062 264.726562 597.1875 C 267.421875 597.773438 267.421875 597.65625 266.71875 592.382812 C 262.617188 565.3125 239.296875 539.648438 212.578125 532.734375 C 195 528.164062 181.523438 530.625 131.015625 547.148438 C 84.960938 562.148438 75.820312 564.140625 50.625 564.140625 C 39.492188 564.257812 31.40625 564.609375 32.460938 565.078125 C 33.632812 565.429688 40.664062 568.007812 48.046875 570.703125 C 77.929688 581.601562 94.453125 593.671875 119.765625 623.4375 C 148.59375 657.1875 160.78125 666.445312 182.109375 670.898438 C 198.867188 674.296875 211.875 672.421875 227.460938 664.335938 C 237.304688 659.179688 249.375 648.984375 254.765625 641.132812 C 256.640625 638.4375 258.398438 636.445312 258.515625 636.679688 C 258.75 636.914062 257.929688 641.835938 256.640625 647.578125 C 250.664062 675.117188 246.09375 719.648438 246.09375 750.585938 L 246.09375 766.171875 L 235.429688 762.65625 C 209.0625 754.21875 180.351562 748.828125 146.367188 745.898438 C 134.53125 744.84375 124.6875 743.90625 124.570312 743.671875 C 124.21875 743.320312 169.804688 736.992188 210.9375 731.71875 C 228.632812 729.492188 243.398438 727.382812 243.75 727.03125 C 245.039062 725.742188 235.78125 710.625 229.453125 703.710938 C 213.28125 686.132812 190.546875 677.34375 166.992188 679.921875 C 152.695312 681.445312 138.984375 688.242188 106.054688 710.15625 C 60.46875 740.507812 39.492188 750.820312 14.53125 755.039062 L 5.273438 756.679688 L 15.820312 757.5 C 57.773438 760.78125 75.585938 767.578125 116.015625 795.820312 C 143.671875 815.15625 156.796875 820.429688 176.367188 820.429688 C 189.84375 820.3125 198.984375 818.320312 208.710938 813.164062 C 222.539062 805.78125 236.835938 789.375 243.164062 773.789062 L 245.742188 767.460938 L 246.5625 771.210938 C 246.914062 773.203125 247.265625 777.65625 247.265625 780.9375 C 247.265625 799.21875 254.53125 845.507812 261.5625 872.695312 C 264.140625 882.890625 266.484375 892.265625 266.835938 893.554688 C 267.304688 895.898438 266.71875 895.898438 236.484375 895.898438 C 203.789062 896.015625 191.601562 897.1875 161.484375 903.046875 C 153.046875 904.6875 146.015625 905.742188 145.78125 905.507812 C 145.195312 905.039062 176.953125 891.445312 223.242188 872.460938 C 240 865.546875 254.179688 859.453125 254.765625 858.984375 C 255.351562 858.398438 252.070312 854.296875 247.382812 849.726562 C 238.242188 840.703125 225.351562 833.4375 212.695312 830.273438 C 203.90625 828.046875 185.390625 828.046875 176.953125 830.273438 C 162.890625 834.023438 156.210938 838.476562 139.335938 855.351562 C 130.664062 864.140625 116.484375 879.140625 107.929688 888.867188 C 88.945312 910.429688 71.953125 926.25 58.007812 935.390625 C 47.929688 942.1875 36.445312 948.046875 33.75 948.046875 C 33.046875 948.046875 32.695312 948.28125 33.046875 948.632812 C 33.28125 948.984375 38.789062 948.046875 45.234375 946.640625 C 54.960938 944.414062 60.585938 944.0625 79.6875 943.945312 C 101.25 943.945312 103.242188 944.179688 115.429688 947.34375 C 122.578125 949.21875 136.171875 953.554688 145.664062 956.953125 C 172.734375 966.796875 180.117188 968.554688 195.703125 968.554688 C 210.46875 968.554688 217.382812 966.914062 230.273438 960.585938 C 247.851562 951.914062 262.265625 929.765625 266.484375 905.273438 L 267.890625 897.070312 L 273.515625 913.359375 C 284.0625 944.0625 300 978.867188 315.117188 1004.179688 L 322.03125 1015.898438 L 315.46875 1017.1875 C 285.46875 1023.28125 253.710938 1034.296875 221.71875 1049.882812 C 212.578125 1054.453125 205.078125 1057.851562 205.078125 1057.617188 C 205.078125 1056.914062 236.367188 1032.539062 271.054688 1006.054688 C 286.992188 993.867188 299.882812 983.4375 299.648438 982.851562 C 298.945312 980.742188 284.179688 972.539062 276.5625 970.078125 C 266.015625 966.796875 246.914062 965.976562 236.484375 968.4375 C 223.125 971.484375 213.75 976.875 203.90625 986.71875 C 193.59375 997.03125 189.257812 1004.179688 168.984375 1043.90625 C 146.484375 1088.203125 138.398438 1100.507812 120.234375 1117.617188 L 109.21875 1127.929688 L 121.757812 1121.835938 C 136.289062 1114.6875 156.09375 1108.125 169.101562 1106.132812 C 175.664062 1105.078125 184.804688 1104.960938 201.328125 1105.78125 C 213.984375 1106.25 233.90625 1106.71875 245.507812 1106.835938 C 270.585938 1106.835938 277.851562 1105.195312 291.914062 1095.9375 C 314.0625 1081.523438 324.257812 1060.078125 323.203125 1030.546875 L 322.734375 1017.421875 L 333.046875 1032.65625 C 351.796875 1060.195312 366.914062 1078.59375 391.171875 1103.203125 C 424.453125 1136.835938 460.078125 1164.492188 498.632812 1186.523438 C 505.078125 1190.15625 510.703125 1193.554688 511.171875 1194.023438 C 511.640625 1194.375 507.773438 1198.476562 502.617188 1202.929688 C 485.039062 1218.164062 464.0625 1242.65625 444.140625 1271.484375 C 431.25 1290.117188 430.429688 1291.171875 433.007812 1284.960938 C 434.0625 1282.382812 437.109375 1275 439.6875 1268.554688 C 442.148438 1262.109375 451.757812 1239.023438 460.78125 1217.226562 C 469.804688 1195.429688 476.835938 1177.265625 476.367188 1176.796875 C 474.84375 1175.15625 454.101562 1176.210938 446.484375 1178.203125 C 427.03125 1183.476562 407.460938 1199.296875 399.257812 1216.40625 C 392.929688 1229.648438 392.226562 1235.859375 393.046875 1265.859375 C 395.039062 1339.101562 395.15625 1350.117188 393.867188 1359.609375 C 392.226562 1370.859375 388.476562 1385.859375 385.429688 1393.007812 C 384.257812 1395.820312 383.4375 1398.046875 383.671875 1398.046875 C 383.90625 1398.046875 387.304688 1393.125 391.171875 1387.148438 C 411.210938 1356.679688 426.914062 1344.023438 469.6875 1323.398438 C 504.84375 1306.523438 516.914062 1296.914062 526.289062 1278.28125 C 534.84375 1261.171875 536.25 1245.234375 530.625 1227.1875 C 527.695312 1217.460938 525 1212.070312 518.4375 1202.695312 C 515.625 1198.59375 513.632812 1195.3125 513.984375 1195.3125 C 514.21875 1195.3125 519.84375 1198.007812 526.523438 1201.289062 C 541.992188 1209.140625 561.679688 1217.578125 579.375 1224.023438 C 593.90625 1229.179688 622.851562 1237.851562 630.820312 1239.257812 C 633.164062 1239.726562 635.15625 1240.3125 635.15625 1240.546875 C 635.15625 1240.78125 632.34375 1245.351562 628.828125 1250.625 C 613.476562 1274.296875 602.578125 1296.914062 588.75 1334.765625 C 585.351562 1344.140625 582.539062 1350.703125 582.421875 1349.414062 C 582.421875 1345.429688 595.78125 1241.71875 597.1875 1235.273438 C 597.773438 1232.578125 597.65625 1232.578125 592.148438 1233.398438 C 565.429688 1237.265625 539.648438 1260.820312 532.734375 1287.421875 C 528.164062 1305 530.625 1318.359375 547.148438 1368.867188 C 562.148438 1414.6875 564.140625 1424.0625 564.140625 1449.257812 C 564.257812 1460.390625 564.375 1469.53125 564.492188 1469.53125 C 564.492188 1469.53125 565.664062 1466.25 566.953125 1462.148438 C 572.8125 1443.867188 580.664062 1427.109375 589.335938 1415.039062 C 595.429688 1406.484375 609.375 1392.1875 623.4375 1380.234375 C 657.1875 1351.40625 666.445312 1339.21875 670.898438 1317.890625 C 674.296875 1301.132812 672.421875 1288.125 664.335938 1272.539062 C 659.179688 1262.695312 648.984375 1250.625 641.132812 1245.234375 C 638.4375 1243.359375 636.445312 1241.601562 636.679688 1241.484375 C 636.914062 1241.25 642.070312 1242.070312 648.164062 1243.359375 C 677.578125 1249.453125 705.234375 1252.5 739.570312 1253.554688 L 766.171875 1254.257812 L 763.242188 1262.578125 C 755.15625 1286.484375 748.828125 1319.179688 745.898438 1353.75 C 744.84375 1365.46875 743.90625 1375.3125 743.671875 1375.429688 C 743.320312 1375.78125 738.515625 1340.976562 732.304688 1293.164062 C 729.726562 1273.242188 727.265625 1256.601562 727.03125 1256.25 C 725.742188 1254.960938 710.625 1264.21875 703.710938 1270.546875 C 686.25 1286.484375 677.460938 1309.335938 679.804688 1332.421875 C 681.445312 1347.421875 686.484375 1357.617188 712.5 1397.460938 C 721.289062 1411.054688 730.429688 1425.234375 732.65625 1429.101562 C 744.140625 1448.4375 751.992188 1468.125 755.15625 1485.46875 C 756.09375 1490.507812 756.914062 1493.4375 756.914062 1491.796875 C 757.265625 1482.421875 759.726562 1461.5625 761.71875 1452.539062 C 766.054688 1431.445312 771.914062 1419.492188 794.179688 1386.5625 C 810.351562 1362.65625 813.164062 1357.617188 817.382812 1344.726562 C 822.890625 1328.320312 821.132812 1306.40625 813.164062 1291.289062 C 805.898438 1277.695312 788.320312 1262.226562 774.023438 1256.71875 C 769.453125 1255.078125 768.867188 1254.492188 770.625 1253.789062 C 771.914062 1253.320312 775.898438 1252.851562 779.648438 1252.851562 C 800.507812 1252.617188 843.164062 1245.9375 873.867188 1238.085938 C 885.234375 1235.15625 894.84375 1232.8125 895.195312 1232.8125 C 895.546875 1232.8125 895.664062 1243.125 895.546875 1255.78125 C 894.960938 1285.195312 897.421875 1311.09375 903.632812 1342.265625 C 904.921875 1348.59375 905.742188 1353.984375 905.507812 1354.21875 C 905.039062 1354.804688 890.390625 1320.46875 871.054688 1273.242188 C 864.960938 1258.359375 859.570312 1245.820312 858.984375 1245.234375 C 858.398438 1244.648438 854.414062 1247.929688 849.726562 1252.617188 C 835.664062 1266.796875 828.515625 1284.726562 828.515625 1305.46875 C 828.515625 1333.242188 836.132812 1344.726562 880.664062 1384.335938 C 920.390625 1419.726562 937.265625 1439.648438 946.992188 1462.5 C 948.28125 1465.429688 948.984375 1466.484375 948.75 1464.84375 C 944.296875 1441.875 943.242188 1433.4375 943.242188 1419.023438 C 943.242188 1410.234375 943.476562 1401.796875 943.828125 1400.273438 C 947.34375 1384.335938 951.796875 1368.75 956.953125 1354.453125 C 965.742188 1330.429688 968.085938 1320.820312 968.789062 1307.226562 C 969.492188 1293.515625 967.03125 1281.914062 960.585938 1269.726562 C 955.3125 1259.648438 943.710938 1248.515625 932.226562 1242.65625 C 921.09375 1236.914062 916.992188 1235.507812 905.625 1233.632812 L 897.070312 1232.109375 L 913.359375 1226.484375 C 944.0625 1215.9375 978.984375 1199.765625 1005.117188 1184.296875 C 1015.429688 1178.203125 1016.015625 1177.96875 1016.484375 1180.429688 C 1023.164062 1214.414062 1034.765625 1248.046875 1051.992188 1282.5 C 1055.625 1289.882812 1057.382812 1294.453125 1056.09375 1293.164062 C 1053.515625 1290.585938 1029.257812 1259.414062 1002.070312 1223.671875 C 992.109375 1210.664062 983.4375 1200.117188 982.851562 1200.351562 C 980.742188 1201.054688 972.539062 1215.820312 970.078125 1223.4375 C 966.796875 1233.984375 965.976562 1253.085938 968.4375 1263.515625 C 971.484375 1276.875 976.875 1286.25 986.71875 1296.09375 C 996.914062 1306.289062 1002.890625 1309.921875 1042.96875 1330.3125 C 1087.03125 1352.695312 1100.390625 1361.601562 1117.734375 1379.882812 L 1128.046875 1390.78125 L 1122.539062 1379.765625 C 1115.15625 1365.117188 1110.351562 1351.40625 1107.304688 1336.875 C 1104.726562 1323.867188 1104.726562 1329.609375 1106.953125 1259.179688 C 1107.65625 1239.726562 1107.421875 1237.148438 1105.078125 1228.476562 C 1101.796875 1216.171875 1095.820312 1205.976562 1086.210938 1196.132812 C 1072.265625 1182.070312 1054.570312 1175.976562 1030.429688 1176.796875 L 1017.421875 1177.265625 L 1030.546875 1168.359375 C 1094.765625 1125 1147.617188 1068.515625 1186.40625 1001.601562 L 1194.375 987.890625 L 1201.523438 995.742188 C 1221.445312 1018.007812 1248.28125 1040.742188 1278.867188 1061.015625 C 1284.492188 1064.765625 1289.0625 1067.929688 1289.0625 1068.164062 C 1289.0625 1068.75 1250.625 1053.164062 1210.78125 1036.523438 C 1192.617188 1028.90625 1177.265625 1023.164062 1176.796875 1023.515625 C 1176.328125 1023.984375 1176.09375 1029.492188 1176.09375 1035.703125 C 1176.445312 1056.328125 1184.414062 1074.257812 1199.648438 1088.671875 C 1209.140625 1097.8125 1220.859375 1104.023438 1232.460938 1106.25 C 1237.617188 1107.304688 1247.578125 1107.539062 1265.859375 1106.953125 C 1339.101562 1104.960938 1350.117188 1104.84375 1359.609375 1106.132812 C 1370.859375 1107.773438 1385.859375 1111.523438 1393.125 1114.570312 C 1395.820312 1115.742188 1398.046875 1116.5625 1398.046875 1116.328125 C 1398.046875 1116.09375 1393.710938 1113.164062 1388.4375 1109.648438 C 1357.617188 1089.609375 1343.554688 1072.5 1323.28125 1029.960938 C 1306.875 995.742188 1296.210938 982.265625 1278.515625 973.710938 C 1265.273438 967.382812 1261.40625 966.328125 1249.21875 966.328125 C 1231.875 966.210938 1218.164062 970.664062 1202.8125 981.328125 C 1198.710938 984.257812 1195.3125 986.367188 1195.3125 986.015625 C 1195.3125 985.78125 1198.125 979.804688 1201.640625 972.890625 C 1215.46875 945.234375 1231.054688 903.632812 1237.5 876.5625 C 1239.023438 870.46875 1240.3125 865.3125 1240.429688 865.078125 C 1240.664062 864.84375 1245.585938 867.890625 1251.679688 871.757812 C 1273.476562 885.9375 1306.875 901.640625 1338.28125 912.421875 C 1346.367188 915.234375 1351.640625 917.578125 1350 917.578125 C 1345.664062 917.578125 1248.867188 905.15625 1235.859375 902.929688 L 1232.578125 902.34375 L 1233.398438 907.617188 C 1235.625 922.5 1242.773438 935.976562 1255.078125 948.164062 C 1269.023438 962.109375 1285.3125 969.140625 1303.476562 969.140625 C 1315.664062 969.140625 1329.726562 965.625 1368.75 952.96875 C 1414.804688 937.851562 1424.179688 935.859375 1449.257812 935.859375 C 1460.273438 935.742188 1469.179688 935.625 1469.0625 935.507812 C 1468.945312 935.390625 1463.320312 933.28125 1456.640625 931.054688 C 1422.421875 919.21875 1404.84375 906.09375 1373.90625 869.53125 C 1351.054688 842.34375 1338.515625 833.4375 1317.890625 829.101562 C 1301.015625 825.703125 1288.125 827.578125 1272.304688 835.78125 C 1263.046875 840.585938 1250.039062 851.835938 1243.476562 860.742188 C 1240.898438 864.140625 1240.898438 864.140625 1241.484375 861.328125 C 1248.632812 830.625 1253.90625 783.632812 1253.90625 749.882812 L 1253.90625 733.828125 L 1264.570312 737.34375 C 1290.820312 745.664062 1319.53125 751.171875 1353.046875 754.101562 C 1364.53125 755.15625 1374.023438 756.09375 1374.257812 756.328125 C 1374.492188 756.445312 1367.929688 757.5 1359.609375 758.671875 C 1351.40625 759.84375 1337.578125 761.71875 1328.90625 762.890625 C 1320.234375 764.0625 1300.429688 766.757812 1285.078125 768.75 C 1269.609375 770.742188 1256.71875 772.617188 1256.367188 772.96875 C 1255.078125 774.140625 1263.867188 788.789062 1269.492188 795.234375 C 1288.945312 817.03125 1318.59375 825.820312 1344.84375 817.5 C 1354.6875 814.335938 1373.789062 803.4375 1398.984375 786.5625 C 1437.890625 760.429688 1460.976562 749.296875 1485.46875 744.84375 C 1490.507812 743.90625 1493.4375 743.085938 1491.796875 743.085938 C 1482.304688 742.734375 1461.5625 740.273438 1452.1875 738.28125 C 1431.914062 734.0625 1417.734375 726.914062 1384.921875 704.765625 C 1363.007812 689.882812 1357.5 686.835938 1344.609375 682.5 C 1328.203125 676.992188 1306.40625 678.75 1291.289062 686.835938 C 1277.460938 694.21875 1263.164062 710.390625 1256.953125 725.742188 C 1254.257812 732.539062 1254.257812 732.539062 1253.4375 728.789062 C 1253.085938 726.796875 1252.734375 722.34375 1252.734375 719.0625 C 1252.734375 700.78125 1245.46875 654.492188 1238.4375 627.304688 C 1235.859375 617.109375 1233.515625 607.734375 1233.164062 606.445312 C 1232.695312 604.101562 1233.28125 604.101562 1262.34375 604.101562 C 1280.15625 604.101562 1296.679688 603.515625 1303.710938 602.578125 C 1316.484375 600.820312 1339.6875 596.953125 1347.070312 595.3125 C 1354.921875 593.4375 1355.625 594.140625 1348.828125 597.1875 C 1340.976562 600.820312 1261.992188 633.632812 1251.914062 637.617188 C 1247.8125 639.140625 1244.53125 640.898438 1244.53125 641.367188 C 1244.53125 641.835938 1248.164062 645.9375 1252.734375 650.390625 C 1266.796875 664.335938 1284.84375 671.484375 1305.46875 671.484375 C 1318.242188 671.484375 1326.09375 669.609375 1337.109375 664.335938 C 1346.25 659.765625 1365 641.484375 1393.710938 609.257812 C 1422.421875 577.03125 1441.054688 562.03125 1466.015625 551.484375 C 1466.953125 551.132812 1466.367188 551.015625 1464.609375 551.367188 C 1430.742188 557.8125 1410.351562 558.398438 1389.492188 553.59375 C 1382.226562 551.953125 1370.273438 548.4375 1362.890625 545.859375 C 1339.101562 537.539062 1328.789062 534.375 1320.46875 532.617188 C 1287.890625 525.703125 1257.1875 539.648438 1242.539062 567.773438 C 1237.382812 577.851562 1235.625 583.242188 1233.398438 595.3125 L 1232.109375 602.929688 L 1228.828125 592.96875 C 1218.515625 562.148438 1200.234375 521.484375 1185 496.054688 C 1178.203125 484.6875 1177.96875 483.984375 1180.429688 483.515625 C 1214.414062 476.835938 1248.046875 465.234375 1282.5 448.007812 C 1289.882812 444.375 1294.453125 442.617188 1293.164062 443.90625 C 1290.46875 446.601562 1258.710938 471.210938 1223.671875 497.929688 C 1210.664062 507.890625 1200.117188 516.5625 1200.351562 517.148438 C 1201.054688 519.257812 1215.820312 527.460938 1223.4375 529.921875 C 1233.984375 533.203125 1253.085938 534.023438 1263.515625 531.5625 C 1274.765625 528.984375 1287.1875 522.304688 1295.273438 514.6875 C 1303.828125 506.484375 1311.5625 494.0625 1325.976562 465.351562 C 1354.21875 409.335938 1363.59375 395.625 1388.085938 374.648438 C 1390.78125 372.421875 1388.4375 373.242188 1378.710938 377.929688 C 1350 391.757812 1332.773438 395.507812 1301.953125 394.453125 C 1233.398438 392.109375 1238.90625 392.109375 1228.476562 394.921875 C 1216.171875 398.203125 1206.09375 404.179688 1196.132812 413.789062 C 1182.070312 427.734375 1175.976562 445.429688 1176.796875 469.570312 L 1177.265625 482.578125 L 1166.367188 466.523438 C 1138.945312 426.09375 1103.789062 388.125 1064.648438 356.601562 C 1048.242188 343.476562 1016.25 321.679688 998.671875 311.71875 L 987.773438 305.625 L 995.039062 298.945312 C 999.023438 295.3125 1003.242188 291.796875 1004.296875 290.976562 C 1007.8125 288.515625 1031.601562 261.328125 1040.390625 249.84375 C 1045.195312 243.632812 1053.046875 232.617188 1057.96875 225.585938 C 1062.773438 218.4375 1067.226562 212.226562 1067.8125 211.523438 C 1068.984375 210.234375 1055.507812 243.867188 1036.289062 289.804688 C 1028.90625 307.734375 1023.164062 322.734375 1023.632812 323.203125 C 1024.101562 323.671875 1029.492188 323.90625 1035.703125 323.90625 C 1056.328125 323.554688 1074.257812 315.585938 1088.671875 300.351562 C 1097.8125 290.859375 1104.023438 279.140625 1106.25 267.539062 C 1107.304688 262.382812 1107.539062 252.421875 1106.953125 234.140625 C 1104.960938 160.898438 1104.84375 149.882812 1106.132812 140.390625 C 1107.773438 129.023438 1111.523438 114.140625 1114.6875 106.640625 C 1117.5 99.960938 1116.445312 101.132812 1107.65625 114.257812 C 1087.734375 144.140625 1072.265625 156.445312 1028.4375 177.421875 C 1016.953125 182.929688 1004.0625 189.84375 999.609375 192.773438 C 977.578125 207.421875 964.21875 232.5 966.09375 255.703125 C 967.382812 271.054688 972.070312 283.59375 981.5625 297.304688 C 984.375 301.40625 986.367188 304.6875 986.132812 304.6875 C 985.78125 304.6875 979.21875 301.523438 971.601562 297.773438 C 945.351562 284.53125 916.40625 273.515625 885.351562 264.84375 C 875.742188 262.148438 867.070312 259.804688 866.367188 259.570312 C 865.3125 259.21875 867.070312 255.703125 871.171875 249.375 C 886.875 225.234375 900 197.34375 912.421875 161.71875 C 915.234375 153.632812 917.578125 148.359375 917.578125 150 C 917.578125 154.6875 905.15625 251.601562 902.929688 264.140625 L 902.34375 267.421875 L 907.96875 266.601562 C 934.570312 262.734375 960.46875 239.0625 967.265625 212.578125 C 971.835938 195.117188 969.492188 182.109375 952.96875 131.25 C 937.734375 84.726562 935.859375 75.703125 935.742188 50.742188 C 935.742188 39.726562 935.625 30.820312 935.507812 30.9375 C 935.390625 31.054688 933.398438 36.679688 931.054688 43.359375 C 919.21875 77.8125 906.679688 94.453125 867.1875 128.085938 C 843.28125 148.476562 833.085938 162.890625 829.21875 181.875 C 825.703125 199.101562 827.460938 211.757812 835.78125 227.695312 C 840.585938 236.953125 851.835938 249.960938 860.742188 256.523438 C 864.140625 259.101562 864.140625 259.101562 861.328125 258.515625 C 833.671875 252.070312 795.117188 247.5 761.015625 246.445312 L 733.945312 245.742188 L 737.34375 235.195312 C 745.78125 209.0625 751.171875 180.351562 754.101562 146.367188 C 755.15625 134.53125 756.09375 124.6875 756.328125 124.570312 C 756.679688 124.21875 761.484375 159.023438 767.695312 206.835938 C 770.273438 226.757812 772.617188 243.28125 772.851562 243.632812 C 774.023438 244.804688 789.023438 236.015625 795 230.625 C 817.382812 210.703125 826.171875 179.296875 816.914062 153.046875 C 813.984375 144.726562 803.671875 126.679688 789.84375 106.054688 C 759.609375 60.585938 749.179688 39.492188 744.960938 14.53125 L 743.320312 5.273438 Z M 742.5 15.820312 "/>
<path style=" stroke:none;fill-rule:nonzero;fill:rgb(100%,59.607843%,0%);fill-opacity:1;" d="M 1261.523438 227.460938 C 1250.039062 237.539062 1232.34375 249.492188 1222.148438 254.179688 C 1210.898438 259.21875 1192.382812 264.375 1170.117188 268.476562 C 1132.734375 275.390625 1119.492188 280.78125 1105.664062 294.726562 C 1095.46875 304.921875 1090.546875 313.359375 1087.265625 326.015625 C 1083.515625 341.132812 1085.390625 360.820312 1092.1875 376.640625 L 1094.414062 381.914062 L 1101.210938 378.867188 C 1124.53125 368.203125 1155 347.460938 1184.53125 322.03125 C 1191.09375 316.289062 1196.484375 311.953125 1196.484375 312.304688 C 1196.484375 313.125 1167.65625 351.210938 1141.757812 384.609375 C 1131.914062 397.265625 1123.828125 407.929688 1123.828125 408.28125 C 1123.828125 409.921875 1140.9375 414.023438 1150.195312 414.492188 C 1163.789062 415.195312 1175.390625 412.851562 1187.695312 406.757812 C 1205.507812 397.96875 1216.523438 385.078125 1222.96875 365.625 C 1226.601562 354.726562 1228.476562 346.875 1236.914062 306.445312 C 1244.882812 268.476562 1253.789062 244.453125 1266.09375 226.640625 C 1269.023438 222.539062 1271.25 219.140625 1271.132812 219.140625 C 1271.015625 219.140625 1266.679688 222.890625 1261.523438 227.460938 Z M 1261.523438 227.460938 "/>
<path style=" stroke:none;fill-rule:nonzero;fill:rgb(100%,59.607843%,0%);fill-opacity:1;" d="M 228.515625 239.648438 C 252.1875 267.773438 259.921875 284.765625 267.773438 326.71875 C 275.625 368.320312 280.429688 380.390625 295.429688 395.039062 C 313.125 412.265625 334.21875 418.242188 359.414062 412.96875 C 368.085938 411.210938 379.335938 407.34375 381.210938 405.585938 C 382.5 404.296875 370.3125 381.210938 360.117188 365.625 C 348.75 348.28125 337.5 333.398438 323.203125 316.757812 C 316.875 309.492188 312.070312 303.515625 312.421875 303.515625 C 313.125 303.515625 349.804688 331.289062 384.726562 358.242188 C 397.382812 368.085938 408.046875 376.171875 408.398438 376.171875 C 409.921875 376.171875 413.90625 358.945312 414.492188 349.804688 C 416.015625 324.257812 403.710938 298.59375 383.554688 285.234375 C 374.414062 279.257812 359.179688 274.21875 331.640625 268.359375 C 319.101562 265.78125 303.75 262.5 297.65625 261.210938 C 268.476562 254.882812 243.984375 245.507812 227.109375 234.140625 L 219.375 228.867188 Z M 228.515625 239.648438 "/>
<path style=" stroke:none;fill-rule:nonzero;fill:rgb(100%,59.607843%,0%);fill-opacity:1;" d="M 329.296875 1086.914062 C 316.40625 1089.84375 303.046875 1097.226562 293.554688 1106.71875 C 280.078125 1120.3125 276.328125 1130.273438 266.015625 1179.375 C 254.765625 1233.28125 247.96875 1252.96875 233.671875 1273.59375 L 228.515625 1280.976562 L 239.882812 1271.367188 C 268.007812 1247.578125 286.875 1239.257812 329.882812 1231.523438 C 367.5 1224.726562 380.507812 1219.335938 394.921875 1204.6875 C 405.117188 1194.375 410.507812 1184.648438 413.203125 1171.640625 C 416.25 1157.34375 414.140625 1138.007812 407.8125 1123.242188 L 405.585938 1117.96875 L 401.132812 1119.726562 C 380.625 1128.28125 340.898438 1155.46875 312.890625 1180.195312 C 307.734375 1184.648438 303.515625 1188.046875 303.515625 1187.695312 C 303.515625 1186.875 329.882812 1152.070312 358.242188 1115.273438 C 368.085938 1102.5 376.171875 1091.835938 376.171875 1091.601562 C 376.171875 1091.367188 372.65625 1089.960938 368.320312 1088.554688 C 358.007812 1085.273438 339.84375 1084.570312 329.296875 1086.914062 Z M 329.296875 1086.914062 "/>
<path style=" stroke:none;fill-rule:nonzero;fill:rgb(100%,59.607843%,0%);fill-opacity:1;" d="M 1144.921875 1085.976562 C 1138.476562 1087.148438 1128.398438 1089.960938 1123.359375 1092.1875 L 1118.085938 1094.414062 L 1119.84375 1098.867188 C 1128.28125 1119.257812 1152.421875 1154.882812 1177.96875 1184.414062 C 1183.710938 1191.09375 1188.046875 1196.484375 1187.695312 1196.484375 C 1186.875 1196.484375 1148.789062 1167.65625 1115.390625 1141.757812 C 1102.734375 1131.914062 1092.070312 1123.828125 1091.71875 1123.828125 C 1090.078125 1123.828125 1085.976562 1140.9375 1085.507812 1150.195312 C 1084.335938 1171.640625 1091.835938 1191.679688 1106.71875 1206.445312 C 1121.132812 1220.742188 1128.867188 1223.4375 1193.554688 1237.03125 C 1231.523438 1244.882812 1255.546875 1253.671875 1273.476562 1266.210938 L 1281.210938 1271.71875 L 1276.054688 1265.742188 C 1248.515625 1233.75 1240.546875 1216.992188 1231.640625 1170.9375 C 1223.789062 1129.921875 1219.570312 1119.726562 1204.453125 1104.84375 C 1194.375 1094.882812 1185.703125 1089.960938 1172.929688 1086.914062 C 1165.898438 1085.273438 1151.71875 1084.804688 1144.921875 1085.976562 Z M 1144.921875 1085.976562 "/>
</g>
</svg>
