<?xml version="1.0" encoding="UTF-8"?>
<svg xmlns="http://www.w3.org/2000/svg" xmlns:xlink="http://www.w3.org/1999/xlink" width="750pt" height="750pt" viewBox="0 0 750 750" version="1.1">
<g id="surface1">
<path style=" stroke:none;fill-rule:nonzero;fill:rgb(61.176471%,15.294118%,69.019608%);fill-opacity:1;" d="M 367.148438 0.878906 C 360.703125 2.519531 356.308594 5.097656 351.210938 10.195312 C 347.8125 13.59375 345.9375 16.054688 344.648438 18.808594 C 340.957031 26.601562 341.015625 24.902344 341.015625 83.378906 C 341.015625 125.390625 340.839844 136.582031 340.3125 136.757812 C 339.902344 136.875 335.097656 137.753906 329.589844 138.75 C 317.988281 140.917969 305.332031 144.257812 294.84375 148.007812 C 290.742188 149.53125 286.875 150.820312 286.230469 150.9375 C 285.234375 151.171875 284.121094 149.589844 279.433594 141.386719 C 276.328125 135.9375 264.492188 115.3125 253.066406 95.507812 C 234.433594 63.164062 231.914062 59.121094 228.515625 55.664062 C 218.203125 45.351562 202.734375 42.832031 189.316406 49.335938 C 183.925781 51.972656 176.601562 59.296875 174.140625 64.511719 C 170.332031 72.480469 169.570312 81.210938 171.972656 89.53125 C 172.734375 92.285156 180.292969 105.878906 199.628906 139.335938 C 214.21875 164.648438 226.171875 185.507812 226.113281 185.683594 C 226.113281 185.859375 224.0625 187.617188 221.601562 189.550781 C 215.742188 194.121094 194.121094 215.742188 189.550781 221.601562 C 187.207031 224.589844 185.742188 225.996094 185.15625 225.820312 C 184.6875 225.644531 164.121094 213.867188 139.453125 199.628906 C 114.84375 185.449219 92.929688 173.144531 90.820312 172.324219 C 85.488281 170.273438 75.527344 170.15625 69.433594 172.089844 C 45.234375 179.707031 37.792969 210.9375 55.957031 228.75 C 59.121094 231.855469 65.449219 235.722656 105.585938 258.867188 L 151.640625 285.410156 L 149.296875 291.269531 C 144.902344 302.753906 140.507812 318.984375 138.105469 332.988281 L 136.757812 340.722656 L 81.679688 341.015625 L 26.660156 341.308594 L 23.027344 342.65625 C 12.890625 346.464844 4.980469 354.609375 1.699219 364.570312 C 0.585938 367.96875 0.292969 370.078125 0.292969 375 C 0.292969 382.851562 1.757812 387.832031 5.917969 393.984375 C 10.195312 400.429688 15.292969 404.296875 23.4375 407.460938 C 26.601562 408.691406 27.304688 408.691406 81.679688 408.984375 L 136.757812 409.277344 L 138.105469 417.011719 C 140.507812 430.957031 145.253906 448.359375 149.648438 459.492188 C 150.761719 462.363281 151.464844 464.765625 151.289062 464.882812 C 151.054688 465 130.429688 476.894531 105.46875 491.308594 C 80.507812 505.722656 58.828125 518.554688 57.304688 519.84375 C 53.496094 523.007812 48.925781 530.039062 47.34375 535.136719 C 45.46875 540.996094 45.46875 549.960938 47.285156 555.761719 C 50.390625 565.722656 58.769531 574.277344 68.730469 577.734375 C 75.996094 580.253906 86.015625 579.902344 92.929688 576.855469 C 94.628906 576.09375 116.25 563.847656 140.917969 549.609375 L 185.742188 523.710938 L 187.089844 525.351562 C 194.472656 534.84375 212.929688 553.59375 221.660156 560.449219 C 224.121094 562.382812 226.113281 564.140625 226.113281 564.316406 C 226.171875 564.550781 214.21875 585.410156 199.570312 610.78125 C 170.097656 661.816406 170.800781 660.351562 170.800781 670.605469 C 170.800781 682.558594 176.25 692.460938 186.503906 699.082031 C 192.011719 702.65625 197.050781 704.003906 204.785156 704.003906 C 214.628906 704.003906 221.777344 701.074219 228.515625 694.335938 C 232.617188 690.234375 230.625 693.574219 269.003906 626.835938 C 277.851562 611.425781 285.292969 598.886719 285.527344 598.828125 C 285.820312 598.828125 289.21875 600 293.144531 601.40625 C 306.152344 606.152344 320.449219 609.84375 334.394531 612.246094 L 340.722656 613.300781 L 341.308594 722.753906 L 342.890625 727.089844 C 347.753906 740.390625 359.296875 749.0625 373.242188 749.882812 C 386.25 750.585938 399.082031 743.378906 405.058594 732.011719 C 409.101562 724.335938 408.984375 726.328125 408.984375 666.972656 L 408.984375 613.476562 L 410.332031 613.183594 C 411.035156 613.066406 413.320312 612.65625 415.429688 612.304688 C 427.617188 610.3125 442.207031 606.503906 455.15625 602.050781 C 460.429688 600.234375 464.824219 598.828125 464.941406 598.945312 C 465 599.003906 476.660156 619.160156 490.78125 643.652344 C 504.902344 668.144531 517.675781 689.765625 519.140625 691.699219 C 522.539062 696.152344 529.335938 700.839844 535.078125 702.65625 C 540.703125 704.414062 550.605469 704.53125 555.46875 702.890625 C 567.246094 698.90625 575.625 690 578.613281 678.222656 C 580.3125 671.542969 579.375 661.816406 576.503906 656.074219 C 575.566406 654.199219 548.554688 607.265625 525.175781 566.835938 L 523.828125 564.433594 L 530.917969 558.398438 C 539.941406 550.722656 550.722656 540 558.398438 530.917969 C 563.90625 524.414062 564.492188 523.886719 565.664062 524.53125 C 566.308594 524.882812 586.757812 536.660156 611.074219 550.664062 C 635.390625 564.726562 657.011719 576.855469 659.121094 577.617188 C 664.335938 579.550781 672.597656 580.019531 677.929688 578.671875 C 688.125 576.09375 696.445312 569.53125 700.722656 560.566406 C 701.953125 557.929688 703.300781 554.355469 703.652344 552.65625 C 705.9375 541.464844 702.421875 529.453125 694.394531 521.542969 C 690.820312 518.027344 686.542969 515.390625 644.824219 491.367188 C 619.6875 476.894531 599.003906 465 598.886719 464.882812 C 598.769531 464.765625 599.882812 461.308594 601.347656 457.207031 C 606.152344 443.90625 609.785156 430.078125 612.011719 417.1875 C 612.539062 414.140625 613.066406 411.035156 613.242188 410.273438 L 613.476562 408.984375 L 666.972656 408.984375 C 725.449219 408.984375 723.339844 409.101562 730.957031 405.527344 C 738.574219 401.953125 745.429688 394.160156 748.300781 385.722656 C 750.292969 379.980469 750.292969 370.019531 748.300781 364.277344 C 745.429688 355.78125 738.925781 348.457031 730.957031 344.53125 C 723.574219 340.898438 725.566406 341.015625 666.972656 341.015625 L 613.476562 341.015625 L 613.242188 339.667969 C 613.125 338.964844 612.128906 333.867188 611.132812 328.417969 C 609.023438 317.226562 605.390625 303.984375 601.40625 292.792969 C 599.882812 288.691406 598.769531 285.234375 598.886719 285.117188 C 599.003906 285 619.6875 273.105469 644.824219 258.632812 C 686.425781 234.667969 690.820312 231.972656 694.335938 228.515625 C 698.261719 224.589844 700.957031 220.136719 702.890625 214.453125 C 704.589844 209.472656 704.414062 199.042969 702.597656 193.769531 C 698.789062 182.695312 689.53125 174.257812 677.929688 171.328125 C 673.183594 170.15625 664.980469 170.449219 660.058594 172.03125 C 657.949219 172.675781 638.378906 183.632812 610.546875 199.6875 L 564.550781 226.230469 L 563.085938 224.53125 C 562.265625 223.59375 559.511719 220.371094 556.933594 217.324219 C 551.015625 210.351562 539.824219 199.160156 532.675781 193.066406 C 529.628906 190.488281 526.40625 187.734375 525.46875 186.914062 L 523.828125 185.449219 L 549.375 141.210938 C 563.4375 116.894531 575.683594 95.390625 576.5625 93.457031 C 581.074219 83.613281 580.136719 70.78125 574.277344 61.640625 C 567.949219 51.914062 558.808594 46.582031 547.265625 45.878906 C 537.304688 45.292969 528.28125 48.75 521.542969 55.664062 C 518.085938 59.179688 515.097656 64.101562 491.660156 104.765625 C 477.304688 129.667969 465.410156 150.292969 465.175781 150.644531 C 464.941406 151.113281 461.601562 150.175781 454.570312 147.773438 C 442.910156 143.730469 429.199219 140.15625 418.066406 138.28125 C 413.90625 137.578125 410.097656 136.875 409.746094 136.757812 C 409.160156 136.582031 408.984375 125.332031 408.984375 83.085938 C 408.984375 24.609375 409.042969 25.78125 405.527344 18.867188 C 401.601562 11.074219 393.75 4.277344 385.664062 1.699219 C 380.566406 0.0585938 371.894531 -0.292969 367.148438 0.878906 Z M 399.316406 210 C 418.710938 213.164062 434.765625 218.378906 451.347656 226.933594 C 481.875 242.519531 507.1875 267.832031 523.007812 298.476562 C 535.664062 323.027344 541.464844 347.050781 541.464844 375 C 541.464844 402.949219 535.78125 426.621094 523.066406 451.464844 C 507.480469 481.875 482.167969 507.1875 451.523438 523.007812 C 434.707031 531.679688 418.710938 536.835938 398.730469 540.058594 C 389.472656 541.582031 360.527344 541.582031 351.269531 540.058594 C 336.796875 537.714844 324.433594 534.316406 312.246094 529.394531 C 255.9375 506.484375 216.503906 454.628906 209.53125 394.335938 C 208.359375 384.199219 208.300781 365.917969 209.472656 356.015625 C 212.929688 326.425781 223.828125 298.945312 241.40625 275.449219 C 268.59375 239.121094 308.027344 215.976562 353.320312 209.707031 C 363.515625 208.300781 390 208.476562 399.316406 210 Z M 399.316406 210 "/>
<path style=" stroke:none;fill-rule:nonzero;fill:rgb(61.176471%,15.294118%,69.019608%);fill-opacity:1;" d="M 358.59375 251.074219 C 331.640625 254.824219 307.382812 266.601562 288.046875 285.292969 C 256.816406 315.527344 243.691406 359.589844 253.125 402.773438 C 254.941406 411.152344 258.515625 421.054688 262.734375 429.785156 C 281.191406 467.519531 317.285156 493.476562 358.769531 498.925781 C 369.433594 500.273438 386.660156 499.980469 395.097656 498.28125 C 396.679688 497.929688 396.503906 497.753906 391.582031 494.414062 C 361.054688 473.613281 338.613281 438.925781 331.699219 401.953125 C 329.003906 387.363281 328.59375 367.207031 330.761719 353.320312 C 337.03125 313.359375 359.296875 277.910156 392.34375 255.058594 C 396.5625 252.1875 396.679688 252.070312 395.097656 251.71875 C 387.011719 250.078125 368.261719 249.726562 358.59375 251.074219 Z M 358.59375 251.074219 "/>
</g>
</svg>
