<?xml version="1.0" encoding="UTF-8"?>
<svg xmlns="http://www.w3.org/2000/svg" xmlns:xlink="http://www.w3.org/1999/xlink" width="900pt" height="1004pt" viewBox="0 0 900 1004" version="1.1">
<g id="surface1">
<path style=" stroke:none;fill-rule:nonzero;fill:rgb(12.941176%,58.823529%,95.294118%);fill-opacity:1;" d="M 432.179688 98.832031 C 376.125 103.851562 326.117188 117.8125 277.519531 142.128906 C 260.015625 150.914062 249.964844 156.640625 235.914062 165.894531 C 165.726562 212.171875 109.832031 281.042969 79.054688 359.242188 C 64.691406 395.71875 55.976562 432.035156 51.65625 473.761719 C 50.324219 486.863281 50.324219 535.179688 51.65625 548.277344 C 56.210938 592.359375 66.179688 632.363281 82.039062 670.25 C 120.664062 762.726562 191.714844 838.183594 281.445312 882.03125 C 311.355469 896.617188 341.425781 907.207031 373.691406 914.425781 C 423.070312 925.484375 476.300781 927.289062 525.996094 919.679688 C 626.011719 904.304688 716.765625 853.085938 781.296875 775.589844 C 830.207031 716.996094 861.925781 645.777344 872.914062 570.242188 C 878.332031 533.375 878.332031 489.058594 872.992188 452.347656 C 861.765625 375.558594 830.679688 305.4375 782.160156 247.46875 C 712.132812 163.777344 615.726562 112.007812 507.152344 99.929688 C 493.886719 98.4375 444.738281 97.734375 432.179688 98.832031 Z M 432.179688 98.832031 "/>
</g>
</svg>
