<?xml version="1.0" encoding="UTF-8"?>
<svg xmlns="http://www.w3.org/2000/svg" xmlns:xlink="http://www.w3.org/1999/xlink" width="700pt" height="700pt" viewBox="0 0 700 700" version="1.1">
<g id="surface1">
<path style=" stroke:none;fill-rule:nonzero;fill:rgb(29.803922%,68.627451%,31.372549%);fill-opacity:1;" d="M 333.320312 0.328125 C 331.84375 0.4375 327.03125 0.765625 322.65625 1.09375 C 259.382812 5.742188 197.09375 28.601562 144.976562 66.390625 C 114.1875 88.648438 86.953125 116.101562 64.804688 147.164062 C 15.367188 216.453125 -7 301.820312 1.96875 386.640625 C 9.570312 458.71875 38.71875 525.382812 86.625 580.507812 C 93.789062 588.710938 110.304688 605.226562 119.109375 612.9375 C 198.078125 682.226562 302.914062 712.25 406.875 695.351562 C 464.570312 685.945312 519.476562 661.773438 566.125 625.242188 C 586.359375 609.382812 607.195312 588.65625 623.820312 567.929688 C 720.890625 446.523438 725.59375 273.765625 635.195312 147.164062 C 586.578125 79.078125 515.539062 30.515625 435.039062 10.445312 C 417.15625 5.960938 400.859375 3.226562 380.898438 1.3125 C 372.695312 0.546875 339.554688 -0.164062 333.320312 0.328125 Z M 345.625 30.296875 L 345.625 41.453125 L 341.6875 41.78125 C 331.1875 42.546875 318.664062 43.257812 318.5 43.09375 C 318.28125 42.820312 315.984375 21.21875 316.203125 21.054688 C 316.367188 20.890625 330.203125 20.015625 343.875 19.25 L 345.625 19.140625 Z M 373.515625 20.289062 C 378.765625 20.617188 383.25 21.054688 383.414062 21.21875 C 383.6875 21.546875 381.828125 42.710938 381.445312 43.09375 C 381.335938 43.257812 368.539062 42.492188 358.367188 41.78125 L 354.375 41.453125 L 354.375 19.085938 L 359.1875 19.414062 C 361.8125 19.578125 368.265625 19.960938 373.515625 20.289062 Z M 315.875 32.265625 C 316.476562 38.117188 316.859375 43.09375 316.695312 43.257812 C 316.53125 43.421875 313.03125 44.023438 308.984375 44.515625 C 304.9375 45.007812 298.320312 46.046875 294.273438 46.8125 C 290.226562 47.578125 286.78125 47.960938 286.5625 47.742188 C 286.015625 47.085938 281.96875 26.851562 282.296875 26.523438 C 282.734375 26.03125 295.421875 23.734375 302.96875 22.695312 C 306.742188 22.203125 310.1875 21.710938 310.625 21.601562 C 311.0625 21.492188 312.210938 21.492188 313.085938 21.492188 L 314.726562 21.601562 Z M 398.945312 22.96875 C 406.820312 24.117188 417.265625 26.085938 417.648438 26.46875 C 417.921875 26.742188 413.710938 47.46875 413.273438 47.90625 C 413.164062 48.015625 409.71875 47.523438 405.726562 46.8125 C 401.679688 46.046875 395.0625 45.007812 391.015625 44.515625 C 386.96875 44.023438 383.46875 43.421875 383.304688 43.257812 C 383.085938 43.09375 383.359375 38.5 383.960938 33.085938 C 384.507812 27.671875 384.945312 22.804688 384.945312 22.203125 C 385 21.054688 386.148438 21.109375 398.945312 22.96875 Z M 280.820312 28 C 281.695312 31.828125 284.921875 47.414062 284.921875 47.90625 C 284.921875 48.234375 281.148438 49.4375 276.609375 50.585938 C 272.015625 51.679688 265.34375 53.484375 261.789062 54.578125 C 258.289062 55.617188 255.28125 56.382812 255.226562 56.273438 C 255.171875 56.164062 253.640625 51.625 251.890625 46.210938 C 250.140625 40.796875 248.554688 36.09375 248.445312 35.765625 C 248.226562 35.109375 257.195312 32.320312 270.429688 28.929688 C 280.21875 26.46875 280.4375 26.46875 280.820312 28 Z M 430.390625 29.203125 C 440.890625 31.882812 450.460938 34.671875 451.007812 35.21875 C 451.390625 35.546875 445.320312 55.179688 444.609375 55.945312 C 444.390625 56.164062 441.4375 55.5625 437.992188 54.523438 C 434.546875 53.484375 427.984375 51.679688 423.445312 50.53125 C 418.578125 49.382812 415.078125 48.234375 415.078125 47.851562 C 415.078125 47.03125 418.796875 28.4375 419.179688 27.453125 C 419.507812 26.46875 419.890625 26.578125 430.390625 29.203125 Z M 250.414062 45.992188 C 252.273438 51.570312 253.75 56.382812 253.75 56.65625 C 253.75 56.929688 251.945312 57.75 249.757812 58.40625 C 247.625 59.117188 241.171875 61.578125 235.484375 63.820312 C 229.851562 66.0625 225.09375 67.8125 225.039062 67.703125 C 224.875 67.539062 219.625 55.78125 217.054688 49.929688 L 216.070312 47.632812 L 218.640625 46.429688 C 224.492188 43.804688 246.695312 35.4375 246.96875 35.765625 C 247.023438 35.765625 248.554688 40.414062 250.414062 45.992188 Z M 471.132812 42.273438 C 475.34375 43.914062 479.9375 45.828125 481.304688 46.429688 L 483.875 47.578125 L 479.5 57.257812 C 477.09375 62.617188 475.015625 67.15625 474.796875 67.375 C 474.578125 67.59375 469.984375 65.953125 464.570312 63.820312 C 459.15625 61.632812 452.8125 59.28125 450.460938 58.515625 C 448.164062 57.75 446.25 56.875 446.25 56.601562 C 446.25 56.164062 451.71875 38.445312 452.539062 36.257812 C 452.8125 35.492188 458.828125 37.460938 471.132812 42.273438 Z M 373.515625 43.257812 C 403.757812 45.445312 435.640625 52.828125 465.117188 64.585938 C 475.453125 68.6875 496.835938 79.242188 506.132812 84.820312 C 529.59375 98.820312 548.132812 113.3125 567.4375 132.5625 C 591.609375 156.734375 609.328125 181.179688 624.476562 211.09375 C 654.390625 270.101562 664.34375 336.164062 653.242188 402.171875 C 636.945312 499.078125 573.34375 583.570312 484.257812 626.773438 C 432.304688 651.929688 375.429688 661.9375 317.84375 655.976562 C 214.101562 645.203125 122.171875 581.765625 75.25 488.359375 C 25.59375 389.648438 32.484375 272.617188 93.296875 180.414062 C 104.617188 163.1875 116.921875 148.257812 132.5625 132.5625 C 157.5 107.679688 181.835938 90.125 213.28125 74.484375 C 253.039062 54.632812 292.960938 44.570312 340.15625 42.4375 C 346.28125 42.164062 364.492188 42.601562 373.515625 43.257812 Z M 219.296875 58.242188 C 221.8125 63.820312 223.726562 68.46875 223.617188 68.578125 C 223.507812 68.6875 220.335938 70.273438 216.5625 72.078125 C 212.789062 73.828125 207.429688 76.5625 204.640625 78.09375 L 199.609375 80.828125 L 196.984375 76.398438 C 188.34375 61.742188 188.34375 61.742188 189.546875 60.867188 C 190.421875 60.210938 214.210938 48.125 214.648438 48.125 C 214.703125 48.125 216.835938 52.664062 219.296875 58.242188 Z M 499.351562 55.015625 C 504.929688 57.859375 509.90625 60.484375 510.453125 60.867188 C 511.382812 61.578125 511.109375 62.234375 506.132812 70.875 C 503.179688 75.960938 500.71875 80.226562 500.609375 80.335938 C 500.335938 80.664062 476.382812 68.6875 476.328125 68.25 C 476.328125 68.03125 477.859375 64.476562 479.664062 60.320312 C 481.523438 56.164062 483.492188 51.734375 484.039062 50.476562 L 485.023438 48.179688 L 487.101562 49 C 488.25 49.492188 493.773438 52.171875 499.351562 55.015625 Z M 184.734375 72.515625 C 186.648438 75.796875 189.054688 80.007812 190.09375 81.867188 L 192.007812 85.203125 L 186.101562 88.867188 C 182.875 90.890625 177.789062 94.28125 174.78125 96.359375 C 171.828125 98.4375 169.203125 99.96875 168.984375 99.695312 C 167.835938 98.4375 156.40625 82.523438 156.40625 82.140625 C 156.460938 81.265625 179.757812 66.007812 180.6875 66.335938 C 181.015625 66.445312 182.820312 69.234375 184.734375 72.515625 Z M 526.421875 70.328125 C 531.671875 73.664062 542.609375 81.046875 543.539062 81.8125 C 543.703125 81.976562 532.382812 98.054688 531.015625 99.695312 C 530.796875 99.96875 528.171875 98.4375 525.21875 96.359375 C 522.210938 94.28125 517.125 90.890625 513.898438 88.867188 C 510.671875 86.84375 508.046875 84.984375 508.15625 84.710938 C 508.8125 82.796875 518.820312 66.171875 519.3125 66.171875 C 519.640625 66.171875 522.867188 68.03125 526.421875 70.328125 Z M 161.546875 91.875 C 165.046875 96.6875 167.890625 100.734375 167.890625 100.84375 C 167.890625 101.007812 165.757812 102.757812 163.132812 104.835938 C 157.007812 109.539062 146.453125 118.34375 145.523438 119.4375 C 145.085938 119.929688 144.59375 120.3125 144.375 120.3125 C 143.828125 120.3125 129.609375 104.453125 129.609375 103.851562 C 129.609375 102.976562 153.726562 83.125 154.820312 83.125 C 155.039062 83.125 158.046875 87.0625 161.546875 91.875 Z M 552.617188 88.703125 C 560.273438 94.664062 570.390625 103.25 570.390625 103.742188 C 570.390625 103.960938 560.273438 115.554688 556.664062 119.4375 C 555.734375 120.476562 555.625 120.367188 551.6875 116.976562 C 546.710938 112.546875 542.992188 109.539062 536.921875 104.835938 C 534.242188 102.757812 532.109375 100.953125 532.109375 100.789062 C 532.109375 100.078125 544.46875 83.179688 544.960938 83.179688 C 545.289062 83.125 548.734375 85.640625 552.617188 88.703125 Z M 135.1875 112.492188 C 138.90625 116.648438 142.132812 120.367188 142.351562 120.695312 C 142.625 121.132812 138.960938 125.234375 131.960938 132.234375 L 121.132812 143.117188 L 113.257812 135.953125 C 108.882812 131.960938 105.273438 128.460938 105.164062 128.1875 C 104.945312 127.585938 127.148438 105 127.96875 105 C 128.1875 105 131.414062 108.390625 135.1875 112.492188 Z M 583.734375 116.265625 C 589.914062 122.5 595 127.75 595 127.914062 C 595 128.296875 580.5625 141.640625 579.304688 142.351562 C 578.8125 142.679688 575.367188 139.5625 567.765625 131.960938 L 556.9375 121.132812 L 564.101562 113.09375 C 567.984375 108.664062 571.484375 105 571.8125 105 C 572.195312 105 577.5 110.085938 583.734375 116.265625 Z M 111.835938 136.5 C 116.046875 140.273438 119.710938 143.554688 119.984375 143.828125 C 120.203125 144.101562 118.78125 146.179688 116.8125 148.421875 C 112.382812 153.507812 102.210938 166.25 101.882812 167.179688 C 101.71875 167.5625 101.335938 167.890625 101.0625 167.890625 C 100.460938 167.890625 83.835938 155.96875 83.34375 155.257812 C 82.796875 154.328125 102.539062 129.609375 103.796875 129.609375 C 104.015625 129.609375 107.625 132.726562 111.835938 136.5 Z M 602 135.898438 C 604.789062 139.234375 609.328125 144.8125 612.0625 148.367188 C 616.164062 153.78125 616.875 154.984375 616.273438 155.53125 C 614.578125 157.0625 599.375 167.890625 598.882812 167.890625 C 598.609375 167.890625 598.28125 167.5625 598.117188 167.179688 C 597.789062 166.25 587.617188 153.507812 583.1875 148.421875 L 579.523438 144.210938 L 584.390625 139.78125 C 587.070312 137.375 590.625 134.09375 592.265625 132.507812 C 593.90625 130.921875 595.65625 129.664062 596.09375 129.773438 C 596.53125 129.828125 599.15625 132.617188 602 135.898438 Z M 90.726562 162.53125 C 95.429688 165.867188 99.476562 168.765625 99.695312 168.984375 C 99.96875 169.203125 98.4375 171.828125 96.414062 174.78125 C 94.335938 177.789062 90.945312 182.820312 88.921875 186.046875 C 86.84375 189.328125 85.09375 191.953125 84.984375 191.953125 C 84.765625 191.953125 66.664062 181.5625 66.226562 181.234375 C 66.117188 181.125 66.28125 180.359375 66.664062 179.539062 C 67.484375 177.734375 81.59375 156.40625 81.976562 156.40625 C 82.085938 156.40625 86.023438 159.140625 90.726562 162.53125 Z M 625.460938 167.179688 C 633.5 179.375 634.101562 180.414062 633.445312 181.015625 C 633.226562 181.289062 629.070312 183.75 624.257812 186.484375 C 619.445312 189.273438 615.34375 191.625 615.179688 191.734375 C 614.960938 191.84375 613.101562 189.328125 611.078125 186.046875 C 609.054688 182.820312 605.664062 177.789062 603.585938 174.78125 C 601.5625 171.828125 599.976562 169.257812 600.140625 169.09375 C 601.234375 168.054688 617.257812 156.460938 617.695312 156.460938 C 618.023438 156.40625 621.523438 161.273438 625.460938 167.179688 Z M 70.984375 193.921875 C 76.015625 196.820312 80.28125 199.28125 80.5 199.390625 C 80.664062 199.5 79.296875 202.507812 77.382812 206.007812 C 75.46875 209.5625 72.734375 214.976562 71.3125 218.039062 C 69.890625 221.15625 68.578125 223.671875 68.359375 223.671875 C 67.8125 223.671875 49.054688 215.414062 48.5625 214.976562 C 47.90625 214.429688 60.703125 188.671875 61.632812 188.671875 C 61.742188 188.671875 65.953125 191.023438 70.984375 193.921875 Z M 645.203125 201.140625 C 648.59375 207.867188 651.328125 213.71875 651.21875 214.210938 C 651.109375 214.867188 635.90625 222.195312 632.242188 223.398438 C 631.476562 223.617188 630.765625 222.578125 628.6875 218.09375 C 627.265625 214.976562 624.53125 209.507812 622.5625 205.898438 C 620.59375 202.289062 619.226562 199.28125 619.445312 199.171875 C 619.664062 199.117188 623.820312 196.710938 628.632812 193.867188 C 633.445312 191.078125 637.765625 188.78125 638.203125 188.835938 C 638.695312 188.890625 641.59375 194.085938 645.203125 201.140625 Z M 67.703125 225.09375 C 67.8125 225.148438 66.0625 229.851562 63.820312 235.539062 C 61.578125 241.171875 59.171875 247.625 58.460938 249.757812 C 57.75 251.945312 56.875 253.75 56.546875 253.75 C 56.21875 253.75 51.351562 252.273438 45.773438 250.46875 L 35.601562 247.1875 L 38.0625 240.1875 C 40.523438 233.242188 44.351562 223.453125 46.484375 218.640625 L 47.578125 216.125 L 57.585938 220.554688 C 63.054688 222.960938 67.648438 225.039062 67.703125 225.09375 Z M 654.9375 221.976562 C 657.835938 228.757812 663.90625 245.21875 663.90625 246.3125 C 663.90625 246.859375 660.625 248.171875 653.898438 250.414062 C 648.429688 252.273438 643.671875 253.75 643.398438 253.75 C 643.070312 253.75 642.25 251.945312 641.539062 249.757812 C 640.828125 247.625 638.421875 241.171875 636.179688 235.429688 C 633.9375 229.742188 632.296875 224.984375 632.570312 224.875 C 632.789062 224.820312 637.21875 222.796875 642.304688 220.390625 C 647.445312 218.039062 651.820312 216.179688 652.039062 216.234375 C 652.3125 216.289062 653.625 218.859375 654.9375 221.976562 Z M 667.078125 256.046875 C 670.140625 266.492188 673.585938 280.546875 673.09375 280.546875 C 672.984375 280.546875 668.335938 281.53125 662.8125 282.734375 C 657.289062 283.9375 652.421875 284.921875 652.09375 284.921875 C 651.765625 284.921875 650.617188 281.3125 649.46875 276.71875 C 648.375 272.234375 646.570312 265.671875 645.53125 262.171875 C 644.492188 258.671875 643.78125 255.664062 643.945312 255.445312 C 644.21875 255.171875 663.578125 248.445312 664.507812 248.335938 C 664.671875 248.28125 665.875 251.78125 667.078125 256.046875 Z M 45.882812 251.890625 C 51.1875 253.585938 55.726562 255.171875 55.945312 255.390625 C 56.21875 255.609375 55.507812 258.726562 54.414062 262.28125 C 53.320312 265.890625 51.570312 272.453125 50.476562 276.992188 C 49.382812 281.476562 48.453125 285.25 48.453125 285.25 C 48.34375 285.46875 27.398438 280.765625 27.070312 280.4375 C 26.140625 279.5625 34.453125 248.828125 35.65625 248.828125 C 35.984375 248.828125 40.578125 250.195312 45.882812 251.890625 Z M 674.789062 287.765625 C 676.484375 296.570312 678.835938 313.25 678.507812 314.125 C 678.289062 314.671875 665.4375 316.367188 657.398438 316.859375 C 656.796875 316.914062 656.359375 315.21875 655.648438 309.585938 C 655.101562 305.59375 654.007812 298.8125 653.242188 294.601562 C 652.476562 290.390625 652.039062 286.78125 652.257812 286.5625 C 652.476562 286.398438 657.125 285.304688 662.539062 284.15625 C 667.953125 283.007812 672.492188 281.96875 672.601562 281.859375 C 673.367188 281.148438 673.75 282.242188 674.789062 287.765625 Z M 37.625 284.375 C 43.203125 285.578125 47.851562 286.671875 47.960938 286.78125 C 48.070312 286.890625 47.523438 290.390625 46.757812 294.546875 C 45.992188 298.703125 44.953125 305.320312 44.460938 309.203125 C 43.96875 313.140625 43.421875 316.53125 43.257812 316.75 C 42.929688 317.078125 21.820312 315.109375 21.382812 314.671875 C 20.945312 314.234375 24.117188 292.523438 25.703125 285.03125 C 26.085938 283.5 26.578125 282.1875 26.90625 282.1875 C 27.179688 282.1875 31.992188 283.171875 37.625 284.375 Z M 33.359375 317.515625 C 38.609375 318.007812 43.039062 318.5 43.148438 318.609375 C 43.257812 318.664062 43.039062 322 42.710938 325.992188 C 42.382812 329.929688 42.109375 334.851562 42.109375 336.875 C 42.109375 338.898438 41.945312 341.6875 41.78125 343.109375 L 41.398438 345.625 L 19.25 345.625 L 19.46875 340.8125 C 19.960938 330.3125 20.890625 316.914062 21.109375 316.53125 C 21.273438 316.257812 21.929688 316.203125 22.585938 316.367188 C 23.242188 316.476562 28.109375 317.023438 33.359375 317.515625 Z M 679.21875 317.515625 C 679.21875 318.28125 679.4375 322.382812 679.710938 326.648438 C 680.039062 330.914062 680.367188 336.929688 680.53125 339.992188 L 680.804688 345.625 L 658.601562 345.625 L 658.21875 343.109375 C 658.054688 341.6875 657.890625 338.898438 657.890625 336.875 C 657.890625 334.851562 657.617188 329.929688 657.289062 325.992188 C 656.960938 322 656.742188 318.664062 656.851562 318.554688 C 657.070312 318.390625 675.117188 316.257812 677.742188 316.148438 C 679 316.09375 679.21875 316.3125 679.21875 317.515625 Z M 41.78125 356.890625 C 41.945312 358.3125 42.109375 361.101562 42.109375 363.125 C 42.109375 365.148438 42.382812 370.070312 42.710938 374.007812 C 43.039062 378 43.257812 381.335938 43.148438 381.445312 C 42.875 381.664062 21.273438 384.015625 21.054688 383.796875 C 20.890625 383.632812 19.90625 368.375 19.46875 359.132812 L 19.25 354.375 L 41.398438 354.375 Z M 680.585938 359.132812 C 679.65625 375.320312 679.109375 383.140625 678.78125 383.414062 C 678.5625 383.578125 673.53125 383.25 667.515625 382.648438 L 656.632812 381.5 L 657.015625 377.945312 C 657.179688 375.921875 657.453125 371.382812 657.617188 367.773438 C 657.78125 364.164062 658.054688 359.679688 658.21875 357.765625 L 658.546875 354.375 L 680.859375 354.375 Z M 44.40625 390.46875 C 44.898438 394.460938 45.992188 401.1875 46.757812 405.398438 C 47.523438 409.609375 47.960938 413.21875 47.742188 413.4375 C 47.085938 413.984375 26.851562 418.03125 26.46875 417.703125 C 25.648438 416.882812 21 387.351562 21.492188 385.929688 C 21.601562 385.492188 25.320312 384.890625 32.046875 384.125 C 37.734375 383.46875 42.601562 382.976562 42.929688 383.085938 C 43.203125 383.140625 43.859375 386.421875 44.40625 390.46875 Z M 669.375 384.234375 C 674.351562 384.726562 678.507812 385.21875 678.617188 385.328125 C 679.164062 385.875 674.351562 416.882812 673.53125 417.648438 C 673.3125 417.921875 652.421875 413.601562 652.039062 413.21875 C 651.929688 413.109375 652.476562 409.71875 653.1875 405.617188 C 653.953125 401.515625 654.992188 395.007812 655.484375 391.179688 C 656.578125 382.265625 656.414062 382.703125 658.546875 383.03125 C 659.53125 383.195312 664.398438 383.742188 669.375 384.234375 Z M 50.585938 423.390625 C 51.734375 427.984375 53.484375 434.546875 54.523438 437.992188 C 55.5625 441.382812 56.21875 444.390625 55.945312 444.609375 C 55.398438 445.15625 36.859375 451.171875 35.820312 451.171875 C 35.328125 451.171875 34.5625 449.476562 33.6875 446.632812 C 31.554688 439.796875 26.632812 420 26.960938 419.617188 C 27.34375 419.289062 45.664062 415.242188 47.359375 415.132812 C 48.453125 415.078125 48.726562 415.84375 50.585938 423.390625 Z M 661.0625 416.71875 C 665.164062 417.59375 669.484375 418.46875 670.632812 418.6875 C 671.78125 418.851562 672.875 419.34375 672.984375 419.671875 C 673.421875 420.820312 665.765625 450.023438 664.78125 451.007812 C 664.453125 451.335938 644.765625 445.210938 644.054688 444.609375 C 643.78125 444.390625 644.4375 441.382812 645.476562 437.992188 C 646.515625 434.546875 648.265625 427.984375 649.414062 423.390625 C 651.164062 416.226562 651.601562 415.078125 652.53125 415.078125 C 653.132812 415.078125 656.960938 415.789062 661.0625 416.71875 Z M 654.609375 449.585938 C 659.585938 451.117188 663.796875 452.539062 664.015625 452.757812 C 664.726562 453.414062 653.242188 483.4375 652.203125 483.4375 C 651.601562 483.4375 633.117188 475.289062 632.570312 474.742188 C 632.351562 474.523438 633.5 471.1875 635.140625 467.25 C 636.726562 463.367188 639.078125 457.242188 640.335938 453.632812 C 641.59375 450.023438 642.742188 446.742188 642.851562 446.414062 C 643.015625 445.921875 643.453125 445.867188 644.328125 446.25 C 645.039062 446.523438 649.632812 448 654.609375 449.585938 Z M 58.460938 450.242188 C 59.171875 452.375 61.578125 458.828125 63.820312 464.460938 C 66.0625 470.148438 67.8125 474.851562 67.703125 474.90625 C 67.15625 475.289062 48.835938 483.382812 48.234375 483.546875 C 47.359375 483.765625 44.515625 477.257812 39.320312 463.203125 C 36.804688 456.3125 35.820312 453.03125 36.257812 452.8125 C 39.210938 451.71875 55.671875 446.359375 56.328125 446.304688 C 56.875 446.25 57.585938 447.5625 58.460938 450.242188 Z M 72.296875 483.820312 C 74.320312 487.976562 77.054688 493.390625 78.421875 495.851562 L 80.882812 500.390625 L 75.851562 503.289062 C 61.359375 511.765625 61.742188 511.601562 60.867188 510.453125 C 59.828125 509.085938 48.070312 485.515625 48.289062 485.242188 C 48.671875 484.914062 67.59375 476.382812 68.085938 476.382812 C 68.414062 476.328125 70.328125 479.71875 72.296875 483.820312 Z M 641.703125 480.484375 C 646.84375 482.78125 651.21875 484.804688 651.492188 485.023438 C 651.875 485.40625 640.828125 508.210938 639.1875 510.398438 C 638.476562 511.382812 637.875 511.109375 628.796875 505.859375 L 619.171875 500.335938 L 621.632812 495.851562 C 622.945312 493.390625 625.679688 487.976562 627.703125 483.820312 C 629.671875 479.71875 631.53125 476.328125 631.804688 476.328125 C 632.078125 476.328125 636.507812 478.1875 641.703125 480.484375 Z M 92.53125 519.257812 C 96.523438 525.273438 99.804688 530.359375 99.804688 530.578125 C 99.804688 531.015625 82.742188 543.59375 82.140625 543.59375 C 81.921875 543.59375 78.75 539.109375 75.140625 533.585938 C 66.445312 520.460938 65.898438 519.585938 66.554688 518.929688 C 67.429688 518.054688 84.4375 508.15625 84.875 508.265625 C 85.09375 508.265625 88.539062 513.242188 92.53125 519.257812 Z M 624.421875 513.296875 C 629.453125 516.195312 633.664062 518.710938 633.828125 518.820312 C 634.210938 519.203125 632.023438 522.8125 625.132812 533.203125 C 621.632812 538.453125 618.625 542.992188 618.40625 543.265625 C 618.1875 543.59375 605.992188 535.335938 600.085938 530.796875 C 599.921875 530.6875 614.90625 508.046875 615.125 508.046875 C 615.234375 508.046875 619.445312 510.398438 624.421875 513.296875 Z M 610.148438 539.65625 C 613.8125 542.28125 616.820312 544.632812 616.875 544.851562 C 616.875 545.835938 598.226562 569.132812 596.585938 570.117188 C 596.148438 570.390625 592.101562 567 580.289062 556.390625 C 579.6875 555.84375 580.179688 555.023438 583.078125 551.6875 C 587.125 547.039062 594.398438 538.015625 597.132812 534.1875 L 598.992188 531.5625 L 601.234375 533.257812 C 602.492188 534.1875 606.484375 537.03125 610.148438 539.65625 Z M 103.085938 534.460938 C 105.492188 537.851562 112.820312 547.039062 116.921875 551.6875 L 120.476562 555.734375 L 119.164062 556.992188 C 114.953125 561.039062 104.289062 570.390625 103.90625 570.390625 C 102.867188 570.390625 83.398438 546.4375 83.398438 545.179688 C 83.398438 544.578125 100.078125 532.164062 100.898438 532.164062 C 101.226562 532.164062 102.15625 533.148438 103.085938 534.460938 Z M 591.882812 568.476562 C 593.578125 570.0625 595 571.539062 595 571.867188 C 595 572.632812 572.742188 594.726562 571.976562 594.726562 C 571.648438 594.726562 568.09375 591.171875 564.15625 586.796875 L 556.882812 578.867188 L 578.867188 556.882812 L 583.789062 561.257812 C 586.46875 563.664062 590.132812 566.945312 591.882812 568.476562 Z M 132.34375 568.039062 L 143.117188 578.867188 L 135.953125 586.796875 C 132.015625 591.171875 128.515625 594.726562 128.078125 594.726562 C 127.367188 594.726562 105 572.6875 105 571.976562 C 105 571.539062 120.75 557.265625 121.1875 557.265625 C 121.351562 557.265625 126.382812 562.132812 132.34375 568.039062 Z M 148.53125 583.242188 C 152.414062 586.6875 164.71875 596.53125 167.234375 598.28125 C 168.382812 599.101562 168.328125 599.210938 161.984375 607.960938 C 158.484375 612.828125 155.367188 616.820312 155.148438 616.820312 C 153.890625 616.929688 129.882812 597.351562 129.882812 596.257812 C 129.882812 595.765625 143.828125 579.6875 144.265625 579.6875 C 144.375 579.6875 146.289062 581.273438 148.53125 583.242188 Z M 563.28125 587.835938 C 567.164062 592.210938 570.390625 595.929688 570.390625 596.148438 C 570.390625 596.96875 547.039062 616.109375 545.289062 616.765625 C 544.742188 616.929688 532.109375 599.8125 532.109375 598.9375 C 532.109375 598.664062 532.4375 598.28125 532.820312 598.117188 C 533.804688 597.734375 549.226562 585.375 552.617188 582.257812 C 554.148438 580.890625 555.515625 579.796875 555.734375 579.851562 C 556.007812 579.90625 559.34375 583.515625 563.28125 587.835938 Z M 180.46875 607.25 C 186.320312 611.132812 191.351562 614.46875 191.570312 614.6875 C 191.898438 614.960938 182.65625 631.914062 181.179688 633.828125 C 180.796875 634.265625 177.078125 632.023438 166.796875 625.1875 C 161.21875 621.46875 156.570312 618.351562 156.515625 618.242188 C 156.242188 617.96875 169.203125 599.921875 169.53125 600.085938 C 169.695312 600.140625 174.617188 603.367188 180.46875 607.25 Z M 537.25 608.890625 C 540.75 613.648438 543.59375 617.695312 543.59375 617.914062 C 543.59375 618.242188 525.875 630.109375 521.5 632.734375 C 519.421875 633.992188 519.367188 633.992188 518.601562 632.953125 C 517.617188 631.640625 508.648438 616.054688 508.484375 615.34375 C 508.320312 614.796875 529.8125 600.03125 530.578125 600.140625 C 530.796875 600.195312 533.804688 604.078125 537.25 608.890625 Z M 216.179688 627.648438 C 220.28125 629.671875 223.671875 631.476562 223.671875 631.75 C 223.671875 632.296875 215.46875 650.945312 214.976562 651.492188 C 214.59375 651.875 191.625 640.71875 189.546875 639.132812 C 188.507812 638.367188 188.617188 638.148438 191.898438 632.40625 C 193.8125 629.125 196.328125 624.804688 197.476562 622.78125 L 199.609375 619.117188 L 204.148438 621.578125 C 206.609375 622.945312 212.023438 625.679688 216.179688 627.648438 Z M 506.1875 628.960938 C 511.21875 637.765625 511.492188 638.367188 510.5625 639.078125 C 509.25 640.007812 492.40625 648.59375 488.25 650.398438 L 485.1875 651.765625 L 480.648438 641.703125 C 478.1875 636.125 476.273438 631.53125 476.382812 631.421875 C 476.492188 631.3125 481.304688 628.90625 487.101562 626.0625 C 492.84375 623.164062 498.148438 620.429688 498.804688 619.992188 C 499.460938 619.5 500.226562 619.226562 500.445312 619.335938 C 500.664062 619.5 503.234375 623.820312 506.1875 628.960938 Z M 234.773438 635.90625 C 239.585938 637.820312 245.820312 640.226562 248.71875 641.210938 C 251.671875 642.25 253.96875 643.234375 253.96875 643.507812 C 253.859375 643.945312 247.953125 662.429688 247.460938 663.742188 C 247.296875 664.234375 245.546875 663.851562 241.0625 662.265625 C 230.617188 658.546875 216.5625 652.75 216.5625 652.148438 C 216.5625 651.601562 224.328125 633.9375 225.09375 632.625 C 225.257812 632.351562 225.585938 632.1875 225.75 632.296875 C 225.96875 632.40625 230.015625 634.046875 234.773438 635.90625 Z M 479.226562 641.867188 C 481.578125 647.226562 483.546875 651.820312 483.546875 652.09375 C 483.546875 652.96875 455.820312 663.90625 453.632812 663.90625 C 453.140625 663.90625 451.773438 660.460938 449.585938 653.898438 C 447.726562 648.429688 446.25 643.671875 446.25 643.398438 C 446.25 643.070312 448.382812 642.140625 451.0625 641.265625 C 453.6875 640.390625 459.867188 638.039062 464.84375 636.015625 C 469.820312 633.992188 474.140625 632.296875 474.414062 632.242188 C 474.742188 632.242188 476.875 636.5625 479.226562 641.867188 Z M 261.351562 645.257812 C 265.671875 646.625 276.664062 649.46875 283.445312 651 C 284.320312 651.21875 284.921875 651.710938 284.921875 652.257812 C 284.921875 653.789062 280.929688 672.382812 280.492188 672.875 C 279.726562 673.75 248.828125 665.492188 248.828125 664.453125 C 248.828125 663.46875 255.445312 643.671875 255.773438 643.671875 C 255.9375 643.671875 258.453125 644.382812 261.351562 645.257812 Z M 448.109375 653.789062 C 449.914062 659.3125 451.390625 664.070312 451.390625 664.289062 C 451.445312 664.507812 449.367188 665.382812 446.796875 666.257812 C 440.835938 668.171875 420 673.421875 419.671875 673.039062 C 419.289062 672.65625 414.914062 651.820312 415.1875 651.546875 C 415.351562 651.4375 419.835938 650.234375 425.25 648.867188 C 430.609375 647.554688 436.898438 645.859375 439.140625 645.09375 C 441.382812 644.382812 443.625 643.78125 444.0625 643.726562 C 444.664062 643.726562 445.757812 646.460938 448.109375 653.789062 Z M 299.578125 654.0625 C 304.773438 654.9375 310.898438 655.8125 313.140625 656.03125 L 317.296875 656.414062 L 316.96875 658.65625 C 316.804688 659.914062 316.257812 664.835938 315.765625 669.648438 C 315.273438 674.460938 314.78125 678.507812 314.726562 678.617188 C 314.179688 679.164062 283.117188 674.296875 282.351562 673.53125 C 282.078125 673.3125 283.71875 665 285.851562 655.484375 L 286.671875 651.765625 L 288.421875 652.148438 C 289.351562 652.3125 294.382812 653.1875 299.578125 654.0625 Z M 415.734375 661.71875 C 416.828125 666.96875 417.757812 671.835938 417.8125 672.492188 C 417.8125 673.476562 417.375 673.75 414.96875 674.242188 C 402.882812 676.648438 386.148438 679 385.546875 678.289062 C 384.835938 677.46875 382.976562 656.6875 383.578125 656.523438 C 383.90625 656.414062 388.117188 655.8125 392.929688 655.15625 C 397.742188 654.5 403.921875 653.515625 406.601562 652.96875 C 409.335938 652.421875 412.015625 652.039062 412.617188 652.039062 C 413.546875 652.148438 413.929688 653.40625 415.734375 661.71875 Z M 335.78125 657.890625 C 341.03125 658.164062 345.40625 658.4375 345.515625 658.4375 C 345.570312 658.4375 345.625 663.46875 345.625 669.648438 L 345.625 680.804688 L 340.867188 680.53125 C 325.71875 679.710938 316.859375 679.054688 316.585938 678.78125 C 316.367188 678.5625 316.75 673.53125 317.351562 667.515625 L 318.5 656.6875 L 322.382812 657.015625 C 324.460938 657.179688 330.53125 657.617188 335.78125 657.890625 Z M 381.71875 657.179688 C 381.71875 657.453125 382.210938 662.15625 382.8125 667.734375 C 383.414062 673.3125 383.90625 678.125 383.90625 678.453125 C 383.90625 679 381.390625 679.21875 358.640625 680.585938 L 354.375 680.804688 L 354.375 658.546875 L 358.367188 658.21875 C 363.78125 657.78125 376.578125 657.015625 379.421875 656.90625 C 380.679688 656.851562 381.71875 656.960938 381.71875 657.179688 Z M 381.71875 657.179688 "/>
<path style=" stroke:none;fill-rule:nonzero;fill:rgb(29.803922%,68.627451%,31.372549%);fill-opacity:1;" d="M 316.09375 54.414062 C 316.09375 54.960938 316.640625 55.234375 317.734375 55.234375 C 319.046875 55.234375 319.375 55.507812 319.8125 56.984375 C 320.085938 57.96875 323.585938 71.96875 327.523438 88.046875 L 334.796875 117.304688 L 324.515625 160.507812 L 321.398438 160.671875 C 319.101562 160.78125 318.28125 161.054688 318.28125 161.601562 C 318.28125 162.257812 319.484375 162.421875 324.84375 162.421875 C 330.203125 162.421875 331.40625 162.257812 331.40625 161.601562 C 331.40625 161.054688 330.585938 160.78125 328.507812 160.671875 L 325.554688 160.507812 L 330.3125 140.65625 C 332.9375 129.773438 335.179688 120.695312 335.34375 120.585938 C 335.507812 120.421875 337.804688 129.117188 340.429688 139.835938 C 343.109375 150.609375 345.351562 159.742188 345.515625 160.070312 C 345.679688 160.5625 345.1875 160.78125 344.039062 160.78125 C 342.890625 160.78125 342.34375 161.054688 342.34375 161.601562 C 342.34375 162.3125 343.328125 162.421875 349.015625 162.3125 C 353.5 162.203125 355.742188 161.929688 355.851562 161.492188 C 356.015625 161.109375 355.359375 160.78125 354.320312 160.671875 L 352.515625 160.507812 L 345.789062 133.710938 C 342.125 118.945312 339.0625 106.367188 339.0625 105.710938 C 339.0625 105.054688 341.140625 95.703125 343.710938 84.929688 C 346.28125 74.15625 348.90625 63.054688 349.5625 60.265625 L 350.765625 55.234375 L 360.390625 55.234375 L 360.390625 160.78125 L 358.75 160.78125 C 357.65625 160.78125 357.109375 161.054688 357.109375 161.601562 C 357.109375 162.3125 358.96875 162.421875 370.507812 162.421875 C 382.046875 162.421875 383.90625 162.3125 383.90625 161.601562 C 383.90625 161.054688 383.359375 160.78125 382.265625 160.78125 L 380.625 160.78125 L 380.625 55.234375 L 382.265625 55.234375 C 383.359375 55.234375 383.90625 54.960938 383.90625 54.414062 C 383.90625 53.703125 381.28125 53.59375 363.671875 53.59375 C 346.0625 53.59375 343.4375 53.703125 343.4375 54.414062 C 343.4375 55.070312 344.148438 55.234375 346.5 55.234375 C 349.398438 55.234375 349.5625 55.289062 349.289062 56.4375 C 348.960938 57.75 339.171875 98.601562 338.515625 101.445312 L 338.132812 103.085938 L 337.53125 100.898438 C 337.203125 99.695312 334.46875 88.921875 331.515625 77 L 326.101562 55.289062 L 327.742188 55.125 C 328.671875 55.015625 329.492188 54.632812 329.65625 54.25 C 329.820312 53.757812 328.234375 53.59375 322.984375 53.59375 C 317.242188 53.59375 316.09375 53.703125 316.09375 54.414062 Z M 374.0625 108.007812 L 374.0625 160.78125 L 366.953125 160.78125 L 366.953125 55.234375 L 374.0625 55.234375 Z M 374.0625 108.007812 "/>
<path style=" stroke:none;fill-rule:nonzero;fill:rgb(29.803922%,68.627451%,31.372549%);fill-opacity:1;" d="M 422.1875 67.648438 C 420.875 71.695312 414.96875 82.414062 411.523438 87.0625 C 409.554688 89.632812 405.289062 94.28125 402.007812 97.289062 C 394.789062 104.015625 393.53125 106.3125 393.476562 112.65625 C 393.476562 116.046875 393.75 117.304688 395.007812 119.875 C 396.703125 123.320312 400.476562 127.039062 403.375 128.078125 C 404.414062 128.460938 405.234375 128.953125 405.234375 129.226562 C 405.234375 129.9375 393.695312 175.21875 393.421875 175.492188 C 393.3125 175.601562 389.976562 175.054688 385.984375 174.289062 C 374.882812 172.046875 366.625 171.117188 354.921875 170.789062 C 306.523438 169.367188 260.367188 187.304688 225.695312 220.9375 C 211.421875 234.773438 201.742188 247.351562 192.554688 264.03125 C 173.46875 298.648438 166.523438 340.046875 173.140625 379.53125 C 181.125 427.21875 207.648438 469.21875 247.460938 497.164062 C 264.140625 508.921875 284.867188 518.4375 304.882812 523.632812 C 365.09375 539.164062 429.351562 522.484375 473.703125 479.71875 C 491.476562 462.601562 504.4375 444.226562 514.0625 422.515625 C 517.234375 415.351562 521.882812 402.117188 523.414062 396.046875 C 524.015625 393.53125 524.234375 393.257812 525.21875 393.53125 C 526.257812 393.859375 526.3125 393.804688 525.4375 393.148438 C 524.507812 392.4375 524.507812 392 525.820312 385.546875 C 532 353.828125 529.867188 321.125 519.695312 291.8125 C 510.125 264.304688 495.6875 241.71875 474.578125 221.210938 C 454.671875 201.851562 432.523438 188.398438 406.054688 179.648438 C 401.296875 178.0625 397.25 176.53125 397.140625 176.203125 C 397.085938 175.929688 399.546875 165.484375 402.773438 153.015625 C 405.945312 140.546875 408.515625 130.15625 408.515625 129.992188 C 408.515625 129.773438 409.445312 129.609375 410.59375 129.609375 C 416.773438 129.609375 422.679688 125.835938 425.523438 120.039062 C 427.929688 115.0625 427.929688 111.617188 425.523438 103.960938 C 424.539062 100.84375 423.335938 96.304688 422.898438 93.84375 C 421.96875 88.539062 421.859375 75.796875 422.679688 70.054688 C 423.390625 65.515625 423.171875 64.53125 422.1875 67.648438 Z M 363.945312 171.71875 C 374.664062 172.648438 391.671875 175.492188 392.820312 176.585938 C 393.09375 176.859375 390.90625 186.375 388.007812 197.75 C 385.109375 209.125 380.789062 226.078125 378.4375 235.429688 C 376.085938 244.726562 370.125 268.132812 365.257812 287.382812 C 360.390625 306.632812 355.140625 327.359375 353.609375 333.429688 L 350.820312 344.476562 L 348.195312 345.84375 L 345.570312 347.15625 L 339.71875 345.679688 C 329.382812 343 318.773438 340.539062 318.609375 340.757812 C 318.5 340.867188 318.28125 341.632812 318.117188 342.398438 L 317.789062 343.765625 L 329.929688 346.71875 C 345.898438 350.546875 345.625 350.492188 345.625 351.421875 C 345.625 351.859375 346.226562 352.789062 346.9375 353.5 L 348.304688 354.703125 L 344.804688 368.210938 L 341.359375 381.71875 L 342.726562 382.046875 C 343.4375 382.265625 344.257812 382.210938 344.53125 381.9375 C 344.75 381.664062 345.789062 378.164062 346.773438 374.171875 L 348.578125 366.953125 L 350.492188 366.84375 L 352.460938 366.789062 L 350.710938 366.570312 C 349.726562 366.460938 348.90625 366.242188 348.90625 366.078125 C 348.90625 365.914062 349.5625 363.234375 350.328125 360.117188 C 352.242188 352.460938 352.625 352.1875 359.460938 353.882812 C 362.25 354.539062 364.710938 355.195312 365.039062 355.359375 C 365.3125 355.523438 366.023438 355.742188 366.679688 355.796875 C 367.773438 355.90625 373.734375 357.328125 417.539062 368.046875 C 429.570312 371 444.226562 374.554688 450.132812 376.03125 L 460.90625 378.65625 L 461.179688 381.71875 C 461.671875 385.984375 463.257812 389.484375 466.046875 392.273438 C 471.460938 397.632812 477.476562 398.617188 486.773438 395.554688 C 495.414062 392.710938 501.375 391.945312 512.09375 392.273438 C 517.234375 392.382812 521.882812 392.710938 522.429688 392.929688 C 523.578125 393.421875 523.578125 393.476562 521.0625 401.953125 C 508.921875 443.1875 479.335938 481.085938 441.765625 503.453125 C 385.054688 537.195312 315.164062 537.25 258.5625 503.617188 C 203 470.640625 169.3125 409.390625 171.335938 345.078125 C 172.210938 317.679688 178.226562 293.726562 190.3125 269.882812 C 195.835938 258.835938 200.265625 251.671875 207.046875 242.648438 C 237.507812 202.015625 284.375 176.09375 334.960938 171.773438 C 342.78125 171.117188 356.289062 171.117188 363.945312 171.71875 Z M 411.796875 182.21875 C 420.984375 185.609375 436.953125 193.375 444.882812 198.40625 C 467.851562 212.953125 487.101562 232.203125 501.648438 255.226562 C 506.625 263.15625 514.445312 279.125 517.835938 288.257812 C 522.429688 300.726562 525.984375 315.875 527.84375 330.859375 C 528.882812 339.445312 528.71875 362.195312 527.570312 371.382812 C 526.585938 379.039062 524.234375 391.398438 523.6875 392 C 523.195312 392.4375 517.78125 390.140625 512.53125 387.296875 C 505.640625 383.46875 499.40625 378.492188 493.335938 371.929688 C 486.664062 364.820312 484.367188 363.507812 478.132812 363.507812 C 471.40625 363.507812 465.390625 367.28125 462.820312 373.078125 C 462.328125 374.226562 461.617188 375.15625 461.234375 375.15625 C 460.851562 375.15625 452.976562 373.296875 443.734375 371.054688 C 407.3125 362.140625 394.570312 359.023438 381.171875 355.742188 L 367.226562 352.351562 L 366.570312 347.539062 L 366.515625 349.890625 C 366.40625 351.859375 366.242188 352.1875 365.476562 351.96875 C 364.929688 351.804688 362.304688 351.148438 359.679688 350.492188 C 353.390625 348.960938 353.28125 348.742188 354.921875 341.6875 C 356.5625 334.796875 356.5625 334.796875 358.859375 336.21875 C 361.265625 337.695312 362.742188 339.335938 364.4375 342.34375 C 365.203125 343.710938 365.859375 344.53125 365.859375 344.203125 C 365.859375 342.398438 361.757812 337.53125 358.203125 335.179688 L 356.890625 334.304688 L 357.765625 330.804688 C 358.914062 326.046875 375.921875 258.726562 380.625 240.351562 C 389.265625 206.445312 396.484375 177.84375 396.484375 177.570312 C 396.484375 177.078125 404.140625 179.375 411.796875 182.21875 Z M 411.796875 182.21875 "/>
<path style=" stroke:none;fill-rule:nonzero;fill:rgb(29.803922%,68.627451%,31.372549%);fill-opacity:1;" d="M 348.796875 333.429688 C 349.453125 333.539062 350.546875 333.539062 351.257812 333.429688 C 351.914062 333.320312 351.367188 333.210938 350 333.210938 C 348.632812 333.210938 348.085938 333.320312 348.796875 333.429688 Z M 348.796875 333.429688 "/>
<path style=" stroke:none;fill-rule:nonzero;fill:rgb(29.803922%,68.627451%,31.372549%);fill-opacity:1;" d="M 340.921875 335.890625 C 338.351562 337.640625 334.6875 341.851562 334.6875 343.054688 C 334.6875 343.382812 335.398438 342.5625 336.21875 341.195312 C 338.078125 338.351562 339.0625 337.421875 342.34375 335.5625 C 343.710938 334.796875 344.53125 334.140625 344.203125 334.140625 C 343.820312 334.140625 342.398438 334.960938 340.921875 335.890625 Z M 340.921875 335.890625 "/>
<path style=" stroke:none;fill-rule:nonzero;fill:rgb(29.803922%,68.627451%,31.372549%);fill-opacity:1;" d="M 333.210938 350.273438 C 333.210938 351.476562 333.320312 351.914062 333.429688 351.203125 C 333.539062 350.546875 333.539062 349.5625 333.429688 349.015625 C 333.265625 348.523438 333.15625 349.070312 333.210938 350.273438 Z M 333.210938 350.273438 "/>
<path style=" stroke:none;fill-rule:nonzero;fill:rgb(29.803922%,68.627451%,31.372549%);fill-opacity:1;" d="M 334.6875 356.890625 C 334.6875 357.710938 337.53125 361.539062 338.84375 362.578125 C 339.390625 363.015625 339.226562 362.632812 338.460938 361.757812 C 337.640625 360.828125 336.492188 359.242188 335.835938 358.203125 C 335.234375 357.164062 334.6875 356.5625 334.6875 356.890625 Z M 334.6875 356.890625 "/>
<path style=" stroke:none;fill-rule:nonzero;fill:rgb(29.803922%,68.627451%,31.372549%);fill-opacity:1;" d="M 364.328125 357.875 C 364 358.585938 362.960938 360.117188 361.976562 361.265625 C 360.445312 363.070312 360.390625 363.179688 361.648438 362.03125 C 363.34375 360.554688 365.585938 357.21875 365.203125 356.78125 C 365.039062 356.671875 364.65625 357.164062 364.328125 357.875 Z M 364.328125 357.875 "/>
<path style=" stroke:none;fill-rule:nonzero;fill:rgb(29.803922%,68.627451%,31.372549%);fill-opacity:1;" d="M 342.179688 364.820312 C 342.5625 365.203125 343 365.367188 343.164062 365.203125 C 343.328125 365.039062 343.054688 364.710938 342.507812 364.546875 C 341.742188 364.21875 341.6875 364.273438 342.179688 364.820312 Z M 342.179688 364.820312 "/>
<path style=" stroke:none;fill-rule:nonzero;fill:rgb(29.803922%,68.627451%,31.372549%);fill-opacity:1;" d="M 357.109375 364.765625 C 356.617188 365.09375 356.5625 365.3125 356.945312 365.3125 C 357.273438 365.3125 357.765625 365.039062 357.929688 364.765625 C 358.367188 364.109375 358.148438 364.109375 357.109375 364.765625 Z M 357.109375 364.765625 "/>
<path style=" stroke:none;fill-rule:nonzero;fill:rgb(29.803922%,68.627451%,31.372549%);fill-opacity:1;" d="M 214.101562 86.1875 C 208.085938 89.6875 202.945312 92.695312 202.671875 92.96875 C 202.453125 93.242188 202.398438 93.679688 202.5625 94.007812 C 202.835938 94.390625 203.710938 94.117188 205.078125 93.242188 C 206.28125 92.476562 207.429688 91.875 207.703125 91.875 C 208.03125 91.875 214.15625 111.726562 221.210938 135.898438 C 221.976562 138.632812 221.921875 138.523438 206.445312 122.773438 C 197.859375 114.023438 190.148438 106.09375 189.328125 105.054688 L 187.851562 103.195312 L 189.109375 102.375 C 190.421875 101.5 190.695312 100.625 189.601562 100.625 C 189.054688 100.625 179.101562 106.203125 178.335938 106.914062 C 178.28125 107.023438 178.335938 107.351562 178.554688 107.679688 C 178.773438 108.117188 179.375 108.007812 180.359375 107.515625 L 181.890625 106.75 L 203.984375 129.664062 L 226.132812 152.632812 L 232.585938 174.070312 C 237.507812 190.53125 238.875 195.617188 238.328125 195.945312 C 237.945312 196.164062 236.6875 196.929688 235.59375 197.585938 C 234.28125 198.351562 233.679688 199.007812 233.953125 199.445312 C 234.226562 199.9375 236.03125 199.171875 239.96875 196.820312 C 245.054688 193.867188 246.585938 192.5 244.945312 192.5 C 244.617188 192.5 243.359375 193.046875 242.210938 193.703125 C 241.0625 194.359375 240.023438 194.796875 239.914062 194.632812 C 239.804688 194.523438 237.179688 185.773438 234.0625 175.273438 C 231 164.71875 228.320312 155.75 228.15625 155.3125 C 227.882812 154.601562 232.367188 159.085938 252.65625 180.085938 L 257.304688 184.898438 L 255.992188 185.882812 C 255.28125 186.429688 254.84375 187.140625 255.0625 187.46875 C 255.390625 188.015625 257.960938 186.648438 266.273438 181.617188 C 266.710938 181.34375 266.875 180.851562 266.601562 180.523438 C 266.328125 180.03125 265.890625 180.085938 264.851562 180.796875 C 263.484375 181.671875 263.429688 181.617188 261.953125 180.140625 C 261.132812 179.265625 252.273438 170.132812 242.265625 159.796875 L 224.054688 141.039062 L 217.273438 118.507812 C 213.554688 106.09375 210.164062 94.828125 209.78125 93.460938 L 209.015625 90.945312 L 213.0625 88.59375 C 215.414062 87.226562 217.382812 86.460938 217.65625 86.734375 C 217.875 87.007812 229.796875 107.515625 244.125 132.34375 L 270.15625 177.460938 L 268.789062 178.28125 C 267.3125 179.15625 266.875 180.796875 268.242188 180.25 C 268.679688 180.085938 271.414062 178.554688 274.3125 176.859375 C 277.757812 174.835938 279.34375 173.578125 279.015625 173.25 C 278.6875 172.921875 278.03125 172.921875 277.265625 173.359375 C 276.609375 173.742188 275.84375 173.796875 275.625 173.523438 C 275.351562 173.304688 263.8125 153.398438 249.921875 129.335938 C 236.03125 105.273438 224.328125 84.984375 223.835938 84.273438 C 222.960938 82.90625 222.960938 82.90625 225.3125 81.484375 C 225.859375 81.15625 225.96875 80.828125 225.585938 80.445312 C 225.203125 80.0625 221.484375 81.921875 214.101562 86.1875 Z M 214.101562 86.1875 "/>
<path style=" stroke:none;fill-rule:nonzero;fill:rgb(29.803922%,68.627451%,31.372549%);fill-opacity:1;" d="M 491.3125 90.289062 C 491.09375 90.671875 491.148438 91.054688 491.476562 91.164062 C 491.804688 91.273438 492.460938 91.65625 492.953125 92.039062 C 493.828125 92.640625 491.367188 97.125 468.234375 137.265625 C 454.070312 161.765625 442.203125 182.328125 441.765625 182.875 C 441.054688 183.859375 440.945312 183.859375 439.578125 182.984375 C 438.375 182.21875 438.15625 182.164062 437.882812 182.875 C 437.445312 183.914062 448.765625 190.585938 449.367188 189.65625 C 449.53125 189.273438 449.203125 188.671875 448.546875 188.234375 C 447.890625 187.796875 447.34375 187.195312 447.34375 186.976562 C 447.34375 186.703125 459.046875 166.140625 473.375 141.3125 C 493.390625 106.695312 499.679688 96.25 500.335938 96.414062 C 500.828125 96.578125 501.648438 96.851562 502.195312 97.070312 C 502.796875 97.34375 503.125 97.234375 503.125 96.742188 C 503.125 96.304688 500.71875 94.609375 497.820312 92.96875 C 491.367188 89.304688 491.804688 89.46875 491.3125 90.289062 Z M 491.3125 90.289062 "/>
<path style=" stroke:none;fill-rule:nonzero;fill:rgb(29.803922%,68.627451%,31.372549%);fill-opacity:1;" d="M 100.40625 189.546875 C 97.015625 195.289062 96.742188 196.054688 97.78125 196.054688 C 98.164062 196.054688 99.039062 195.070312 99.695312 193.921875 C 100.351562 192.773438 101.117188 191.789062 101.335938 191.84375 C 101.773438 191.898438 136.71875 224.765625 136.71875 225.09375 C 136.71875 225.148438 135.898438 224.984375 134.96875 224.710938 C 133.984375 224.4375 123.59375 221.484375 111.835938 218.148438 C 100.132812 214.8125 90.289062 211.859375 90.070312 211.640625 C 89.796875 211.421875 89.90625 210.710938 90.289062 210.054688 C 90.835938 209.234375 90.835938 208.742188 90.398438 208.304688 C 89.960938 207.867188 88.921875 209.34375 86.460938 213.609375 C 83.945312 217.984375 83.234375 219.570312 83.78125 219.898438 C 84.21875 220.171875 84.710938 219.898438 85.203125 218.96875 C 85.75 217.929688 86.242188 217.65625 87.117188 217.875 C 87.773438 218.039062 101.609375 221.976562 117.796875 226.625 C 139.5625 232.914062 147.65625 235.429688 148.695312 236.359375 C 151.265625 238.710938 179.921875 265.890625 179.921875 266.054688 C 179.921875 266.109375 179.265625 267.367188 178.5 268.734375 C 177.515625 270.484375 177.242188 271.523438 177.570312 271.851562 C 177.953125 272.234375 179.265625 270.429688 181.5625 266.601562 C 183.914062 262.554688 184.789062 260.585938 184.40625 260.203125 C 183.96875 259.765625 183.367188 260.367188 182.273438 262.171875 C 181.453125 263.539062 180.578125 264.632812 180.359375 264.578125 C 179.703125 264.304688 150.390625 236.25 150.773438 236.25 C 151.429688 236.25 189.984375 247.296875 190.3125 247.570312 C 190.421875 247.679688 190.203125 248.28125 189.820312 248.9375 C 189.328125 249.703125 189.273438 250.195312 189.710938 250.632812 C 190.039062 250.960938 190.367188 251.125 190.476562 250.960938 C 191.132812 250.25 196.875 239.914062 196.875 239.476562 C 196.875 238.492188 195.289062 238.984375 194.960938 240.078125 C 194.796875 240.679688 194.25 241.171875 193.867188 241.171875 C 193.429688 241.171875 181.015625 237.726562 166.25 233.570312 L 139.398438 225.96875 L 129.171875 216.179688 C 123.539062 210.820312 115.0625 202.78125 110.359375 198.296875 L 101.71875 190.203125 L 103.085938 187.90625 C 103.851562 186.59375 104.453125 185.28125 104.453125 184.953125 C 104.453125 183.3125 103.195312 184.734375 100.40625 189.546875 Z M 100.40625 189.546875 "/>
<path style=" stroke:none;fill-rule:nonzero;fill:rgb(29.803922%,68.627451%,31.372549%);fill-opacity:1;" d="M 599.210938 191.1875 C 599.046875 191.351562 599.265625 192.117188 599.757812 192.828125 C 600.25 193.59375 600.46875 194.304688 600.304688 194.523438 C 600.085938 194.6875 579.578125 206.609375 554.695312 220.992188 L 509.414062 247.132812 L 508.59375 245.765625 C 507.828125 244.5625 506.40625 243.960938 506.40625 244.890625 C 506.40625 245.765625 519.421875 267.640625 520.078125 267.859375 C 520.789062 268.132812 520.679688 267.257812 519.859375 265.234375 C 519.585938 264.578125 530.140625 258.289062 565.03125 238.109375 L 610.585938 211.804688 L 611.40625 213.117188 C 612.171875 214.320312 613.59375 214.867188 613.59375 213.9375 C 613.59375 213.226562 600.632812 191.1875 600.085938 191.023438 C 599.8125 190.914062 599.429688 190.96875 599.210938 191.1875 Z M 605.773438 203.109375 L 607.46875 206.0625 L 561.804688 232.476562 C 525.929688 253.148438 516.03125 258.671875 515.59375 258.070312 C 514.007812 255.664062 512.914062 253.039062 513.40625 252.546875 C 513.898438 252.054688 603.257812 200.265625 603.75 200.210938 C 603.914062 200.210938 604.789062 201.523438 605.773438 203.109375 Z M 605.773438 203.109375 "/>
<path style=" stroke:none;fill-rule:nonzero;fill:rgb(29.803922%,68.627451%,31.372549%);fill-opacity:1;" d="M 53.59375 329.492188 C 53.59375 334.796875 53.757812 336.382812 54.304688 336.21875 C 54.6875 336.054688 55.015625 334.796875 55.125 333.15625 C 55.234375 331.570312 55.398438 330.3125 55.507812 330.3125 C 55.617188 330.3125 60.484375 331.460938 66.28125 332.828125 C 92.640625 339.117188 98.820312 340.59375 100.515625 340.976562 C 101.5 341.195312 102.210938 341.46875 102.101562 341.632812 C 101.9375 341.796875 91.328125 344.53125 78.53125 347.8125 L 55.289062 353.71875 L 55.125 352.023438 C 54.851562 349.179688 53.757812 349.671875 53.484375 352.789062 C 52.992188 357.929688 53.703125 377.398438 54.359375 377.179688 C 54.6875 377.070312 55.015625 376.195312 55.125 375.265625 L 55.289062 373.515625 L 160.179688 373.515625 L 160.34375 375.265625 C 160.453125 376.195312 160.835938 377.070312 161.21875 377.234375 C 161.710938 377.398438 161.875 375.8125 161.875 370.507812 C 161.875 365.203125 161.710938 363.617188 161.21875 363.78125 C 160.835938 363.945312 160.453125 364.710938 160.34375 365.476562 L 160.179688 366.953125 L 55.234375 366.953125 L 55.234375 360.445312 L 57.3125 359.898438 C 58.40625 359.570312 72.296875 356.125 88.15625 352.132812 L 117.03125 344.96875 L 138.742188 350.109375 L 160.507812 355.304688 L 160.671875 358.367188 C 160.78125 360.664062 161.054688 361.484375 161.601562 361.484375 C 162.257812 361.484375 162.421875 360.28125 162.421875 354.921875 C 162.421875 349.453125 162.3125 348.359375 161.601562 348.359375 C 161 348.359375 160.78125 349.015625 160.78125 351.09375 C 160.78125 353.445312 160.617188 353.828125 159.742188 353.828125 C 159.140625 353.828125 152.6875 352.351562 145.359375 350.601562 C 138.085938 348.851562 129.71875 346.828125 126.875 346.171875 C 124.03125 345.460938 121.351562 344.75 120.914062 344.53125 C 120.367188 344.257812 158.867188 334.140625 160.507812 334.140625 C 160.671875 334.140625 160.78125 334.851562 160.78125 335.78125 C 160.78125 336.875 161.054688 337.421875 161.601562 337.421875 C 162.3125 337.421875 162.421875 336.4375 162.3125 330.75 C 162.203125 326.265625 161.929688 324.023438 161.492188 323.914062 C 161.109375 323.75 160.78125 324.40625 160.671875 325.445312 L 160.507812 327.195312 L 133.710938 333.921875 C 119 337.640625 106.367188 340.703125 105.65625 340.703125 C 105 340.703125 96.25 338.734375 86.242188 336.382812 C 76.289062 334.03125 65.1875 331.40625 61.6875 330.585938 L 55.289062 329.054688 L 55.125 326.046875 C 55.015625 324.242188 54.6875 322.929688 54.304688 322.765625 C 53.757812 322.601562 53.59375 324.1875 53.59375 329.492188 Z M 53.59375 329.492188 "/>
<path style=" stroke:none;fill-rule:nonzero;fill:rgb(29.803922%,68.627451%,31.372549%);fill-opacity:1;" d="M 537.742188 349.835938 C 537.796875 365.257812 538.015625 369.90625 538.5625 370.125 C 539 370.234375 539.21875 369.742188 539.21875 368.648438 L 539.21875 366.953125 L 644.765625 366.953125 L 644.765625 368.59375 C 644.765625 369.6875 645.039062 370.234375 645.585938 370.234375 C 646.296875 370.234375 646.40625 367.609375 646.40625 350 C 646.40625 332.390625 646.296875 329.765625 645.585938 329.765625 C 645.039062 329.765625 644.765625 330.3125 644.765625 331.40625 L 644.765625 333.046875 L 539.21875 333.046875 L 539.21875 331.40625 C 539.21875 330.3125 538.945312 329.765625 538.398438 329.765625 C 537.6875 329.765625 537.632812 332.390625 537.742188 349.835938 Z M 644.765625 343.164062 L 644.765625 346.71875 L 539.21875 346.71875 L 539.21875 343.546875 C 539.21875 341.796875 539.382812 340.15625 539.601562 339.992188 C 539.765625 339.773438 563.554688 339.609375 592.375 339.609375 L 644.765625 339.609375 Z M 644.765625 356.835938 L 644.765625 360.390625 L 592.15625 360.28125 L 539.492188 360.117188 L 539.328125 356.671875 L 539.164062 353.28125 L 644.765625 353.28125 Z M 644.765625 356.835938 "/>
<path style=" stroke:none;fill-rule:nonzero;fill:rgb(29.803922%,68.627451%,31.372549%);fill-opacity:1;" d="M 524.015625 424.210938 C 509.25 449.640625 499.296875 467.03125 499.296875 467.304688 C 499.296875 468.070312 500.992188 467.46875 501.484375 466.484375 C 501.8125 465.882812 502.25 465.390625 502.523438 465.390625 C 502.90625 465.390625 592.757812 517.125 593.304688 517.671875 C 593.46875 517.835938 593.304688 518.4375 592.921875 518.984375 C 592.539062 519.585938 592.265625 520.296875 592.265625 520.625 C 592.265625 522.921875 595.273438 518.21875 606.867188 498.039062 C 616.4375 481.46875 619.992188 474.851562 619.554688 474.414062 C 619.117188 474.03125 618.84375 474.03125 618.679688 474.46875 C 618.570312 474.796875 618.1875 475.507812 617.804688 476.054688 C 617.148438 476.875 612.992188 474.632812 572.25 451.117188 C 547.640625 436.953125 527.132812 424.976562 526.75 424.648438 C 526.148438 424.101562 526.148438 423.71875 526.640625 422.734375 C 527.078125 421.914062 527.078125 421.3125 526.75 420.984375 C 526.367188 420.601562 525.492188 421.695312 524.015625 424.210938 Z M 567.929688 456.09375 C 592.59375 470.3125 612.992188 482.125 613.265625 482.398438 C 613.757812 482.835938 610.96875 488.359375 610.257812 488.359375 C 609.875 488.359375 524.015625 438.976562 520.242188 436.625 L 519.039062 435.859375 L 520.789062 432.90625 C 521.773438 431.265625 522.648438 430.007812 522.8125 430.117188 C 522.976562 430.171875 543.265625 441.875 567.929688 456.09375 Z M 560.382812 467.359375 C 584.71875 481.359375 605.117188 493.171875 605.828125 493.664062 L 607.085938 494.429688 L 605.445312 497.273438 C 604.515625 498.859375 603.53125 500.0625 603.257812 500.007812 C 602.65625 499.84375 513.460938 448.4375 512.804688 447.890625 C 512.53125 447.617188 512.695312 446.796875 513.1875 446.03125 C 513.679688 445.265625 514.445312 444.007812 514.882812 443.242188 C 515.375 442.476562 515.867188 441.875 515.976562 441.875 C 516.140625 441.875 536.101562 453.359375 560.382812 467.359375 Z M 555.515625 480.101562 L 600.359375 506.023438 L 598.773438 508.8125 C 597.898438 510.34375 596.96875 511.601562 596.640625 511.601562 C 595.65625 511.601562 505.914062 459.648438 505.859375 459.046875 C 505.859375 458.773438 506.625 457.351562 507.5 455.929688 C 508.648438 454.070312 509.359375 453.414062 509.851562 453.742188 C 510.289062 453.960938 530.796875 465.828125 555.515625 480.101562 Z M 555.515625 480.101562 "/>
<path style=" stroke:none;fill-rule:nonzero;fill:rgb(29.803922%,68.627451%,31.372549%);fill-opacity:1;" d="M 167.34375 424.921875 C 160.507812 427 156.515625 428.203125 124.960938 437.5 C 115.664062 440.234375 99.75 444.9375 89.6875 447.945312 C 79.625 450.953125 70.984375 453.523438 70.492188 453.6875 C 69.78125 453.851562 69.34375 453.25 68.578125 451.171875 C 68.03125 449.695312 67.265625 448.4375 66.882812 448.4375 C 66.5 448.4375 66.171875 448.65625 66.171875 448.929688 C 66.171875 450.078125 70.492188 460.742188 71.039062 460.90625 C 71.859375 461.179688 71.804688 459.703125 70.820312 457.351562 C 70.382812 456.257812 70.054688 455.273438 70.164062 455.164062 C 70.273438 455.109375 76.617188 453.140625 84.273438 450.84375 C 91.929688 448.601562 106.3125 444.28125 116.210938 441.328125 C 126.164062 438.375 141.039062 433.945312 149.296875 431.484375 C 157.554688 429.023438 165.046875 426.835938 165.921875 426.507812 C 166.796875 426.234375 167.5625 426.070312 167.671875 426.179688 C 167.835938 426.34375 95.15625 496.78125 94.554688 497 C 94.335938 497.109375 94.007812 496.671875 93.789062 496.070312 C 93.460938 494.921875 91.875 494.429688 91.875 495.414062 C 91.875 495.6875 92.695312 497.328125 93.679688 499.132812 C 96.742188 504.492188 118.234375 541.679688 118.453125 541.898438 C 118.507812 541.953125 118.835938 541.898438 119.164062 541.679688 C 119.601562 541.460938 119.492188 540.859375 118.945312 539.765625 L 118.125 538.234375 L 156.296875 516.195312 C 177.242188 504.109375 197.75 492.296875 201.796875 489.890625 L 209.179688 485.625 L 210.273438 486.992188 C 211.53125 488.46875 212.1875 488.742188 212.1875 487.648438 C 212.1875 487.320312 207.757812 479.335938 202.398438 470.039062 C 193.703125 455 191.351562 451.5 191.84375 454.234375 C 191.898438 454.671875 192.007812 455.382812 192.117188 455.875 C 192.171875 456.476562 178.9375 464.351562 146.835938 482.890625 C 121.898438 497.328125 101.335938 508.921875 101.117188 508.703125 C 100.953125 508.484375 100.132812 507.171875 99.367188 505.804688 L 97.945312 503.289062 L 107.078125 494.320312 C 112.109375 489.34375 129.9375 472.0625 146.726562 455.875 C 163.515625 439.6875 177.132812 426.289062 177.078125 426.070312 C 176.96875 425.90625 176.53125 425.085938 176.148438 424.210938 C 175.710938 423.390625 175.109375 422.734375 174.78125 422.789062 C 174.453125 422.789062 171.117188 423.773438 167.34375 424.921875 Z M 197.695312 465.0625 C 198.570312 466.703125 199.171875 468.179688 199.0625 468.289062 C 198.625 468.726562 109.59375 520.023438 108.773438 520.351562 C 107.953125 520.679688 104.78125 516.03125 105.164062 514.992188 C 105.273438 514.554688 194.851562 462.382812 195.78125 462.164062 C 195.945312 462.109375 196.820312 463.421875 197.695312 465.0625 Z M 204.53125 476.929688 C 205.460938 478.460938 206.171875 479.773438 206.0625 479.882812 C 205.953125 479.9375 185.992188 491.53125 161.601562 505.585938 C 137.265625 519.640625 116.757812 531.453125 116.101562 531.890625 C 114.953125 532.601562 114.789062 532.546875 113.203125 529.8125 C 112.328125 528.226562 111.5625 526.804688 111.5625 526.640625 C 111.5625 526.476562 115.335938 524.234375 119.929688 521.609375 C 124.46875 518.984375 144.867188 507.226562 165.15625 495.523438 C 185.445312 483.765625 202.234375 474.140625 202.453125 474.140625 C 202.617188 474.140625 203.546875 475.398438 204.53125 476.929688 Z M 204.53125 476.929688 "/>
<path style=" stroke:none;fill-rule:nonzero;fill:rgb(29.803922%,68.627451%,31.372549%);fill-opacity:1;" d="M 211.257812 534.679688 C 195.070312 551.796875 178.007812 569.734375 173.414062 574.65625 L 164.992188 583.515625 L 162.640625 581.601562 C 161.109375 580.34375 160.179688 579.90625 159.90625 580.289062 C 159.742188 580.617188 160.015625 581.328125 160.5625 581.820312 C 161.164062 582.367188 163.242188 584.335938 165.320312 586.25 C 167.945312 588.710938 169.203125 589.53125 169.585938 589.148438 C 170.023438 588.710938 169.53125 587.945312 167.945312 586.46875 L 165.757812 584.335938 L 200.867188 547.3125 C 220.171875 526.96875 235.976562 510.34375 236.03125 510.398438 C 236.195312 510.507812 208.304688 608.289062 208.085938 608.5625 C 207.976562 608.671875 207.429688 608.453125 206.773438 608.015625 C 206.007812 607.523438 205.460938 607.523438 205.078125 607.90625 C 204.695312 608.289062 209.726562 611.460938 221.59375 618.296875 C 230.945312 623.65625 238.984375 628.140625 239.367188 628.25 C 240.679688 628.578125 240.078125 626.882812 238.65625 626.226562 L 237.289062 625.625 L 238.328125 623.820312 C 238.929688 622.890625 250.796875 602.382812 264.6875 578.320312 C 278.578125 554.257812 290.007812 534.515625 290.117188 534.351562 C 290.28125 534.242188 290.992188 534.570312 291.703125 535.0625 C 292.632812 535.664062 293.179688 535.71875 293.453125 535.335938 C 293.617188 535.007812 293.5625 534.570312 293.34375 534.296875 C 292.632812 533.695312 271.6875 521.664062 271.085938 521.554688 C 269.882812 521.335938 270.210938 522.8125 271.46875 523.46875 L 272.835938 524.179688 L 246.585938 569.570312 C 230.179688 597.953125 220.0625 614.960938 219.570312 614.90625 C 219.132812 614.851562 217.710938 614.195312 216.398438 613.429688 L 213.992188 612.007812 L 220.664062 588.601562 C 224.382812 575.75 231.109375 552.289062 235.648438 536.484375 C 240.242188 520.679688 244.015625 507.335938 244.070312 506.789062 C 244.125 506.242188 243.46875 505.367188 242.484375 504.765625 L 240.734375 503.671875 Z M 281.585938 529.15625 C 282.953125 529.976562 284.210938 530.6875 284.320312 530.796875 C 284.375 530.851562 272.617188 551.523438 258.125 576.625 L 231.765625 622.289062 L 229.195312 620.867188 C 227.828125 620.101562 226.460938 619.28125 226.242188 619.0625 C 225.914062 618.789062 272.398438 537.25 277.59375 528.9375 C 278.578125 527.40625 278.578125 527.40625 281.585938 529.15625 Z M 281.585938 529.15625 "/>
<path style=" stroke:none;fill-rule:nonzero;fill:rgb(29.803922%,68.627451%,31.372549%);fill-opacity:1;" d="M 441.984375 513.570312 C 440.835938 514.335938 440.289062 515.046875 440.453125 515.648438 C 440.5625 516.140625 441.328125 518.601562 442.09375 521.171875 C 442.804688 523.742188 446.960938 537.632812 451.226562 552.070312 C 457.734375 574.21875 470.148438 615.890625 471.1875 619.226562 C 471.40625 619.992188 470.859375 620.429688 468.671875 621.359375 C 467.140625 621.960938 465.992188 622.726562 466.046875 623 C 466.320312 623.820312 466.757812 623.710938 473.046875 621.25 C 477.148438 619.664062 478.898438 618.679688 478.679688 618.1875 C 478.460938 617.640625 477.859375 617.695312 475.671875 618.570312 C 474.140625 619.171875 472.773438 619.554688 472.664062 619.390625 C 472.335938 619.0625 470.257812 612.226562 451.992188 550.703125 C 449.09375 540.914062 445.976562 530.632812 445.101562 527.789062 C 444.226562 524.945312 443.625 522.539062 443.734375 522.429688 C 443.84375 522.320312 458.390625 537.195312 476.054688 555.460938 C 493.773438 573.726562 509.6875 590.242188 511.492188 592.101562 L 514.773438 595.492188 L 513.351562 596.148438 C 512.53125 596.53125 512.09375 597.078125 512.257812 597.570312 C 512.476562 598.117188 513.515625 597.789062 516.742188 596.039062 C 522.757812 592.757812 524.671875 591.335938 523.90625 590.898438 C 523.523438 590.679688 522.648438 590.84375 521.9375 591.226562 C 520.296875 592.046875 524.835938 596.53125 481.25 551.25 C 463.75 533.039062 448.109375 516.90625 446.578125 515.320312 L 443.789062 512.476562 Z M 441.984375 513.570312 "/>
<path style=" stroke:none;fill-rule:nonzero;fill:rgb(29.803922%,68.627451%,31.372549%);fill-opacity:1;" d="M 338.84375 538.507812 C 338.570312 539.382812 335.5625 551.960938 324.570312 597.734375 C 322.601562 605.992188 319.484375 619.0625 317.679688 626.71875 C 315.875 634.375 314.179688 641.59375 313.851562 642.6875 L 313.359375 644.710938 L 310.460938 644.601562 C 304.992188 644.382812 307.179688 645.585938 313.851562 646.460938 C 318.9375 647.117188 320.46875 647.117188 320.46875 646.625 C 320.46875 645.804688 319.210938 645.3125 316.96875 645.3125 C 315.984375 645.3125 315.054688 645.203125 314.890625 645.039062 C 314.726562 644.875 315.109375 642.46875 315.765625 639.679688 C 316.476562 636.890625 321.78125 614.632812 327.578125 590.132812 C 334.632812 560.765625 338.351562 546 338.625 546.65625 C 339.007812 547.640625 363.125 643.890625 363.125 644.492188 C 363.125 644.65625 362.523438 644.765625 361.757812 644.765625 C 360.882812 644.765625 360.390625 645.09375 360.390625 645.585938 C 360.390625 646.296875 362.25 646.40625 373.789062 646.40625 C 385.328125 646.40625 387.1875 646.296875 387.1875 645.585938 C 387.1875 645.039062 386.585938 644.765625 385.273438 644.765625 L 383.359375 644.765625 L 383.46875 592.101562 L 383.632812 539.492188 L 385.4375 539.328125 C 386.53125 539.21875 387.1875 538.890625 387.023438 538.507812 C 386.75 537.578125 373.953125 537.578125 373.679688 538.507812 C 373.515625 539 374.007812 539.21875 375.101562 539.21875 L 376.796875 539.21875 L 376.796875 644.820312 L 373.40625 644.65625 L 369.960938 644.492188 L 356.617188 591.007812 L 343.328125 537.578125 L 341.25 537.578125 C 339.71875 537.578125 339.0625 537.851562 338.84375 538.507812 Z M 338.84375 538.507812 "/>
</g>
</svg>
