<?xml version="1.0" encoding="UTF-8"?>
<svg xmlns="http://www.w3.org/2000/svg" xmlns:xlink="http://www.w3.org/1999/xlink" width="800pt" height="800pt" viewBox="0 0 800 800" version="1.1">
<g id="surface1">
<path style=" stroke:none;fill-rule:nonzero;fill:rgb(100%,59.607843%,0%);fill-opacity:1;" d="M 380.625 127.875 C 347.625 130.75 324.25 135.875 298.4375 146.0625 C 238.75 169.5625 184.0625 220.25 154.625 279.375 C 140.9375 306.9375 133 334.3125 128.9375 368.4375 C 127.375 381.8125 127.375 418.1875 128.9375 431.5625 C 132.125 458.125 137.3125 479.25 146.0625 501.5625 C 169.5625 561.25 220.25 615.9375 279.375 645.375 C 306.9375 659.0625 334.3125 667 368.4375 671.0625 C 381.8125 672.625 418.1875 672.625 431.5625 671.0625 C 472.1875 666.1875 506 655 538.125 635.8125 C 573.5625 614.5625 607.125 582.125 630.125 546.8125 C 653.75 510.625 666.3125 474.5625 671.375 428.4375 C 672.625 416.8125 672.4375 380.3125 671.0625 368.4375 C 667.9375 342 662.6875 320.75 653.9375 298.4375 C 630.4375 238.75 579.75 184.0625 520.625 154.625 C 493.25 141 465.5 133 432.1875 129.0625 C 423.875 128.0625 387.9375 127.25 380.625 127.875 Z M 378.8125 203.4375 C 372.25 216.8125 366.875 228.3125 366.875 229.0625 C 366.875 231.75 370.8125 249.6875 371.5 250.125 C 371.875 250.375 374.9375 250.625 378.3125 250.625 L 384.375 250.625 L 384.375 397.5625 L 375.625 413.0625 C 370.8125 421.5625 366.875 429.0625 366.875 429.75 C 366.875 430.625 369.5625 432.625 376.5625 437 L 386.1875 443.125 L 400.1875 443.125 C 410.1875 443.125 414.3125 442.9375 414.875 442.375 C 415.4375 441.8125 415.625 436.625 415.625 422.8125 L 415.625 403.9375 L 435.625 369.3125 C 446.625 350.25 455.9375 334.625 456.25 334.5 C 456.5625 334.375 459.125 335.5625 461.9375 337.125 C 464.75 338.6875 467.375 340 467.75 340 C 468.8125 340 478.75 331.3125 478.75 330.4375 C 478.75 329.625 479.75 312.625 480.3125 304.0625 C 481.625 282.6875 482.5625 264.1875 482.375 261.5625 C 482.25 259.25 481.9375 258.375 481.125 258.25 C 480.5625 258.125 466.625 266.9375 450.125 277.75 L 420.1875 297.5 L 418.875 304.1875 C 417.9375 308.75 417.6875 311.0625 418.125 311.5625 C 418.5 312 421 313.625 423.75 315.25 C 426.5 316.8125 428.75 318.375 428.75 318.6875 C 428.75 319.125 416.625 340.3125 415.875 341.1875 C 415.75 341.3125 415.625 321 415.625 296.0625 L 415.625 250.625 L 421.75 250.625 C 425.0625 250.625 428.125 250.375 428.5 250.125 C 429.1875 249.6875 433.125 231.75 433.125 229.0625 C 433.125 228.3125 427.8125 216.8125 421.25 203.5625 C 414.75 190.25 409.375 179.3125 409.375 179.25 C 409.375 179 413.75 179.25 423.125 180.0625 C 446.9375 182.0625 475.3125 189.75 494.375 199.375 C 498.0625 201.25 498.1875 201.375 497.3125 202.6875 C 492.125 210.75 479.25 236.4375 479.75 237.6875 C 480.1875 238.75 498.75 249.625 500.25 249.625 C 501.6875 249.6875 510.75 236.75 518.25 224.0625 C 520.6875 219.9375 522.8125 216.4375 522.875 216.3125 C 523.25 215.9375 529.1875 220.0625 535.25 224.9375 C 549.5 236.3125 562.875 249.5625 574.0625 263.4375 C 578.8125 269.375 583.75 276.1875 583.75 276.875 C 583.75 277.0625 581.875 278.3125 579.5625 279.625 C 573.3125 283.1875 550.6875 298.3125 550.375 299.125 C 550 300.0625 561.25 319.875 562.375 320.3125 C 562.8125 320.4375 568.6875 317.8125 575.5 314.4375 C 586.625 308.875 590.5625 306.8125 596.6875 303 L 598.6875 301.8125 L 600.625 305.625 C 607.9375 320.125 615.1875 343.3125 618.0625 361.5625 C 619.3125 369.4375 620.625 381.125 620.625 384.125 L 620.625 385.625 L 612.0625 385.625 C 602.9375 385.6875 581.125 387.125 580 387.8125 C 579.125 388.3125 579.125 411.6875 580 412.1875 C 581.125 412.875 602.9375 414.3125 612.0625 414.375 L 620.625 414.375 L 620.625 415.875 C 620.625 418.875 619.3125 430.5625 618.0625 438.4375 C 615.1875 456.625 607.9375 479.875 600.625 494.3125 L 598.75 498.0625 L 593.3125 494.875 C 585.1875 490.125 563.0625 479.3125 562 479.5 C 560.8125 479.75 549.125 499.6875 549.6875 500.5625 C 550.375 501.6875 570.8125 515.3125 577.375 519 C 580.875 521 583.75 522.8125 583.75 523.0625 C 583.75 523.8125 579 530.4375 574.0625 536.5625 C 563.0625 550.1875 549.8125 563.4375 535.9375 574.5625 C 530.375 579 523.75 583.75 523.125 583.75 C 522.875 583.75 520.875 580.5625 518.625 576.6875 C 514.375 569.375 501.6875 550.3125 500.5625 549.6875 C 499.8125 549.1875 480.1875 560.5625 479.6875 561.75 C 479.375 562.625 489.75 583.8125 494.9375 592.6875 C 496.6875 595.75 498.125 598.3125 498.125 598.5 C 498.125 598.9375 490.625 602.5 483.875 605.3125 C 465.5625 612.8125 444.625 617.875 423.8125 620 C 420.25 620.3125 416.6875 620.625 415.875 620.625 L 414.375 620.625 L 414.375 612 C 414.375 602.8125 412.875 581.125 412.1875 580.0625 C 411.625 579.125 388.375 579.125 387.8125 580.0625 C 387.125 581.125 385.625 602.8125 385.625 612 L 385.625 620.625 L 384.125 620.625 C 381.125 620.625 369.4375 619.3125 361.5625 618.0625 C 343.375 615.1875 320.125 607.9375 305.6875 600.625 L 301.9375 598.75 L 306.125 591.375 C 311.875 581.5625 320.875 562.8125 320.4375 561.75 C 320 560.5625 300.1875 549.1875 299.375 549.6875 C 298.3125 550.3125 285.625 569.4375 281.375 576.6875 C 279.125 580.5625 277.125 583.75 276.875 583.75 C 276.25 583.75 269.625 579 264.0625 574.5625 C 250.1875 563.4375 236.9375 550.1875 225.9375 536.5625 C 221 530.4375 216.25 523.8125 216.25 523.0625 C 216.25 522.8125 219.125 521 222.6875 519 C 229.1875 515.3125 249.625 501.6875 250.3125 500.5625 C 250.875 499.6875 239.1875 479.75 238 479.5 C 236.9375 479.3125 214.8125 490.125 206.6875 494.875 L 201.25 498.0625 L 199.375 494.3125 C 192.0625 479.875 184.8125 456.625 181.9375 438.4375 C 180.6875 430.5625 179.375 418.875 179.375 415.875 L 179.375 414.375 L 187.6875 414.375 C 196.625 414.375 218.25 412.875 219.3125 412.1875 C 220.25 411.625 220.25 388.375 219.3125 387.8125 C 218.25 387.125 196.625 385.625 187.6875 385.625 L 179.375 385.625 L 179.375 384.125 C 179.375 381.125 180.6875 369.4375 181.9375 361.5625 C 184.8125 343.3125 192.0625 320.125 199.375 305.625 C 201.5625 301.3125 200.4375 301.1875 209.375 306.5 C 212.3125 308.1875 219.875 312.125 226.25 315.1875 C 237.625 320.6875 237.8125 320.75 238.8125 319.4375 C 241.0625 316.6875 250.125 299.9375 249.8125 299.125 C 249.375 298.0625 231.3125 285.875 222.8125 280.9375 C 219.375 278.9375 216.4375 277.1875 216.3125 277.125 C 215.9375 276.75 220.0625 270.8125 224.9375 264.75 C 236.3125 250.5 249.5625 237.125 263.4375 225.9375 C 269.375 221.1875 276.1875 216.25 276.875 216.25 C 277.0625 216.25 278.3125 218.125 279.625 220.4375 C 283.1875 226.6875 298.3125 249.3125 299.125 249.625 C 300.0625 250 319.875 238.75 320.25 237.6875 C 320.75 236.375 307.875 210.75 302.6875 202.6875 C 301.8125 201.375 301.9375 201.25 305.625 199.375 C 324.6875 189.75 352.875 182.125 376.875 180 C 384.875 179.3125 390.1875 179 390.5 179.125 C 390.625 179.1875 385.3125 190.125 378.8125 203.4375 Z M 378.8125 203.4375 "/>
</g>
</svg>
