<?xml version="1.0" encoding="UTF-8"?>
<svg xmlns="http://www.w3.org/2000/svg" xmlns:xlink="http://www.w3.org/1999/xlink" width="1000pt" height="951pt" viewBox="0 0 1000 951" version="1.1">
<g id="surface1">
<path style=" stroke:none;fill-rule:nonzero;fill:rgb(47.45098%,33.333333%,28.235294%);fill-opacity:1;" d="M 497.96875 10.316406 C 496.171875 21.960938 496.171875 40.5625 498.046875 51.191406 C 499.375 58.851562 499.6875 60.023438 500.3125 59.320312 C 500.46875 59.164062 501.25 55.492188 501.953125 51.191406 C 503.828125 40.640625 503.828125 22.039062 501.953125 10.316406 C 501.25 5.550781 500.3125 1.5625 500 1.5625 C 499.6875 1.5625 498.75 5.550781 497.96875 10.316406 Z M 497.96875 10.316406 "/>
<path style=" stroke:none;fill-rule:nonzero;fill:rgb(47.45098%,33.333333%,28.235294%);fill-opacity:1;" d="M 495.546875 79.09375 C 488.984375 89.175781 483.4375 104.964844 482.421875 116.0625 C 481.640625 125.675781 483.75 142.554688 486.71875 150.449219 C 487.421875 152.324219 487.5 152.324219 493.046875 146.933594 C 496.09375 143.886719 499.21875 141.460938 500 141.460938 C 500.78125 141.460938 503.90625 143.886719 506.953125 146.933594 C 512.5 152.324219 512.578125 152.324219 513.28125 150.449219 C 516.171875 142.789062 518.28125 125.753906 517.5 116.0625 C 516.953125 109.261719 514.140625 99.179688 510.546875 90.738281 C 507.578125 83.703125 501.328125 73.464844 500 73.464844 C 499.53125 73.464844 497.578125 75.96875 495.546875 79.09375 Z M 500.9375 123.171875 C 501.25 130.050781 500.78125 137.554688 500 137.554688 C 499.609375 137.554688 499.21875 135.445312 499.0625 132.941406 C 498.75 126.378906 499.21875 118.015625 500 118.015625 C 500.390625 118.015625 500.78125 120.359375 500.9375 123.171875 Z M 500.9375 123.171875 "/>
<path style=" stroke:none;fill-rule:nonzero;fill:rgb(47.45098%,33.333333%,28.235294%);fill-opacity:1;" d="M 494.375 150.761719 C 477.265625 168.894531 467.109375 194.0625 464.84375 224.074219 C 464.140625 232.90625 465 253.617188 466.015625 254.710938 C 466.71875 255.414062 485.078125 247.597656 492.65625 243.378906 L 500 239.3125 L 507.34375 243.378906 C 515 247.597656 533.28125 255.335938 533.984375 254.710938 C 534.140625 254.476562 534.6875 249.550781 535.078125 243.769531 C 537.65625 208.363281 526.796875 173.585938 506.484375 151.621094 C 499.921875 144.511719 500.15625 144.511719 494.375 150.761719 Z M 503.125 171.550781 C 508.28125 179.054688 513.28125 193.042969 513.28125 200 C 513.28125 212.660156 500.3125 219.304688 491.328125 211.253906 C 486.40625 206.800781 485.625 201.484375 488.28125 191.011719 C 490.625 181.867188 497.65625 168.035156 500 168.035156 C 500.390625 168.035156 501.796875 169.597656 503.125 171.550781 Z M 503.125 171.550781 "/>
<path style=" stroke:none;fill-rule:nonzero;fill:rgb(47.45098%,33.333333%,28.235294%);fill-opacity:1;" d="M 492.109375 249.082031 C 484.921875 256.429688 475.78125 266.824219 475.78125 267.761719 C 475.78125 268.464844 487.109375 273.3125 493.671875 275.421875 L 500 277.453125 L 506.328125 275.421875 C 512.890625 273.3125 524.21875 268.464844 524.21875 267.761719 C 524.21875 266.355469 501.328125 241.5 500 241.5 C 499.765625 241.5 496.171875 244.941406 492.109375 249.082031 Z M 492.109375 249.082031 "/>
<path style=" stroke:none;fill-rule:nonzero;fill:rgb(47.45098%,33.333333%,28.235294%);fill-opacity:1;" d="M 297.109375 258.851562 C 298.046875 286.050781 307.109375 305.980469 324.375 319.109375 C 333.75 326.144531 333.203125 326.144531 336.25 319.5 C 340.234375 310.980469 340.3125 310.667969 337.5 309.496094 C 328.984375 305.980469 320.625 295.039062 315.9375 281.203125 C 313.984375 275.265625 312.8125 268.855469 313.671875 268.855469 C 314.765625 268.855469 321.328125 272.921875 325.78125 276.28125 C 335.9375 284.097656 342.890625 294.101562 344.21875 302.855469 C 344.53125 304.964844 345.234375 306.683594 345.9375 306.917969 C 347.03125 307.386719 360.078125 305.980469 360.703125 305.355469 C 361.171875 304.808594 356.953125 292.066406 354.84375 288.003906 C 348.046875 274.40625 335.9375 262.761719 320.703125 255.023438 C 315.46875 252.363281 299.296875 246.191406 297.5 246.191406 C 296.875 246.191406 296.796875 249.941406 297.109375 258.851562 Z M 297.109375 258.851562 "/>
<path style=" stroke:none;fill-rule:nonzero;fill:rgb(47.45098%,33.333333%,28.235294%);fill-opacity:1;" d="M 692.96875 249.238281 C 669.609375 257.679688 653.984375 270.339844 645.15625 288.003906 C 643.046875 292.066406 638.828125 304.808594 639.296875 305.355469 C 639.921875 305.902344 652.96875 307.386719 654.0625 306.996094 C 654.6875 306.683594 655.546875 304.496094 656.09375 301.679688 C 657.65625 293.164062 665.234375 282.925781 675.546875 275.265625 C 680.546875 271.667969 685.234375 268.855469 686.40625 268.855469 C 687.265625 268.855469 685.9375 275.5 684.0625 281.203125 C 679.375 295.039062 671.015625 305.980469 662.5 309.496094 C 659.6875 310.667969 659.765625 310.980469 663.75 319.5 L 666.328125 325.207031 L 668.671875 324.035156 C 673.828125 321.296875 682.8125 313.25 687.34375 307.230469 C 698.125 292.929688 703.125 276.359375 703.125 255.101562 C 703.125 248.457031 702.890625 246.191406 702.1875 246.269531 C 701.640625 246.269531 697.5 247.597656 692.96875 249.238281 Z M 692.96875 249.238281 "/>
<path style=" stroke:none;fill-rule:nonzero;fill:rgb(47.45098%,33.333333%,28.235294%);fill-opacity:1;" d="M 361.875 259.554688 C 355 260.179688 342.5 262.996094 341.875 264.089844 C 341.71875 264.324219 344.140625 267.292969 347.421875 270.652344 L 353.203125 276.75 L 359.453125 275.890625 C 370.3125 274.40625 382.265625 277.0625 387.03125 282.0625 C 389.765625 284.957031 390.390625 289.019531 388.75 293.398438 C 385 303.167969 371.25 309.730469 352.1875 310.824219 L 343.828125 311.292969 L 342.578125 315.28125 C 339.0625 325.988281 333.359375 335.523438 326.640625 341.777344 C 321.796875 346.308594 318.28125 347.871094 312.8125 348.027344 C 308.046875 348.105469 305.234375 346.542969 302.8125 342.324219 C 299.765625 337.085938 301.328125 324.113281 306.328125 313.640625 C 308.28125 309.574219 308.515625 308.402344 307.734375 307.464844 C 307.1875 306.839844 305.3125 303.480469 303.515625 300.039062 L 300.234375 293.789062 L 298.125 296.601562 C 289.53125 307.855469 282.109375 329.972656 279.609375 351.542969 C 278.671875 359.828125 278.90625 387.105469 279.84375 388.121094 C 281.484375 389.683594 306.5625 377.960938 317.96875 370.378906 C 331.875 361.078125 345.78125 345.214844 352.34375 331.222656 L 354.765625 326.066406 L 358.828125 325.519531 C 365.859375 324.660156 378.828125 321.21875 385 318.5625 C 403.28125 310.746094 420.9375 296.054688 436.5625 275.734375 C 437.5 274.5625 437.109375 274.171875 433.4375 272.292969 C 415.859375 263.386719 383.28125 257.601562 361.875 259.554688 Z M 361.875 259.554688 "/>
<path style=" stroke:none;fill-rule:nonzero;fill:rgb(47.45098%,33.333333%,28.235294%);fill-opacity:1;" d="M 617.96875 259.476562 C 600.15625 260.882812 578.515625 266.277344 566.5625 272.292969 L 562.421875 274.40625 L 564.0625 276.75 C 567.65625 281.75 579.6875 294.570312 586.015625 299.960938 C 602.03125 313.875 618.203125 321.765625 637.1875 324.816406 L 645.15625 326.144531 L 648.359375 332.554688 C 655.46875 346.933594 668.046875 361 682.421875 370.613281 C 693.4375 378.039062 718.59375 389.683594 720.15625 388.121094 C 721.09375 387.105469 721.328125 359.828125 720.390625 351.542969 C 717.890625 329.972656 710.46875 307.855469 701.875 296.601562 L 699.765625 293.789062 L 696.484375 300.039062 C 694.6875 303.480469 692.8125 306.839844 692.265625 307.464844 C 691.484375 308.402344 691.71875 309.574219 693.671875 313.640625 C 698.671875 324.113281 700.234375 337.085938 697.1875 342.324219 C 694.765625 346.542969 691.953125 348.105469 687.1875 348.027344 C 681.71875 347.871094 678.203125 346.308594 673.359375 341.777344 C 666.640625 335.523438 660.9375 325.988281 657.421875 315.28125 L 656.171875 311.292969 L 647.8125 310.824219 C 628.75 309.730469 615 303.167969 611.25 293.398438 C 609.609375 289.019531 610.234375 284.957031 612.96875 282.0625 C 617.734375 277.0625 629.6875 274.40625 640.546875 275.890625 L 646.796875 276.75 L 652.578125 270.652344 C 655.859375 267.292969 658.28125 264.324219 658.125 264.089844 C 657.03125 262.289062 632.734375 258.226562 626.5625 258.851562 C 625.9375 258.851562 622.03125 259.164062 617.96875 259.476562 Z M 617.96875 259.476562 "/>
<path style=" stroke:none;fill-rule:nonzero;fill:rgb(47.45098%,33.333333%,28.235294%);fill-opacity:1;" d="M 319.53125 279.40625 C 319.921875 280.96875 321.09375 284.097656 322.1875 286.441406 L 324.296875 290.582031 L 327.34375 288.550781 C 329.0625 287.457031 330.46875 286.363281 330.46875 286.050781 C 330.46875 285.035156 320.546875 276.671875 319.375 276.671875 C 319.140625 276.671875 319.21875 277.921875 319.53125 279.40625 Z M 319.53125 279.40625 "/>
<path style=" stroke:none;fill-rule:nonzero;fill:rgb(47.45098%,33.333333%,28.235294%);fill-opacity:1;" d="M 677.734375 278.390625 C 674.84375 280.421875 669.53125 285.425781 669.53125 286.050781 C 669.53125 286.363281 670.9375 287.457031 672.65625 288.550781 L 675.703125 290.582031 L 677.8125 286.441406 C 679.921875 282.0625 681.484375 276.671875 680.546875 276.671875 C 680.3125 276.671875 679.0625 277.453125 677.734375 278.390625 Z M 677.734375 278.390625 "/>
<path style=" stroke:none;fill-rule:nonzero;fill:rgb(47.45098%,33.333333%,28.235294%);fill-opacity:1;" d="M 477.890625 278.9375 C 475.390625 279.328125 473.28125 279.71875 473.125 279.875 C 472.734375 280.34375 477.8125 292.773438 482.03125 301.367188 C 485.9375 309.417969 493.28125 320.90625 497.578125 325.910156 L 500 328.644531 L 502.421875 325.910156 C 509.453125 317.859375 518.359375 302.152344 524.453125 286.832031 C 527.109375 280.265625 527.109375 280.1875 525.46875 279.484375 C 523.359375 278.546875 483.828125 278.15625 477.890625 278.9375 Z M 477.890625 278.9375 "/>
<path style=" stroke:none;fill-rule:nonzero;fill:rgb(47.45098%,33.333333%,28.235294%);fill-opacity:1;" d="M 437.34375 291.050781 C 409.296875 302.464844 389.921875 318.328125 378.203125 339.273438 L 375.78125 343.652344 L 381.171875 344.199219 C 384.21875 344.511719 387.734375 345.058594 388.984375 345.449219 C 391.25 346.074219 391.484375 345.917969 395 340.992188 C 399.0625 335.289062 406.40625 329.503906 411.171875 328.175781 C 417.421875 326.535156 424.0625 330.519531 425.859375 337.085938 C 427.8125 344.199219 423.671875 359.4375 417.109375 369.519531 C 412.34375 376.789062 407.1875 382.105469 399.53125 387.496094 C 386.328125 396.875 376.09375 400.390625 361.71875 400.46875 C 350.15625 400.46875 345.078125 399.0625 341.171875 394.765625 C 336.328125 389.371094 336.40625 383.746094 341.40625 378.039062 C 344.765625 374.289062 352.96875 369.519531 358.671875 368.113281 L 362.34375 367.175781 L 363.203125 361.628906 C 363.671875 358.5 364.296875 354.984375 364.609375 353.734375 L 365.078125 351.464844 L 361.25 352.09375 C 355.3125 352.953125 343.203125 357.015625 336.328125 360.453125 C 322.34375 367.488281 308.28125 379.132812 296.015625 393.75 C 292.65625 397.8125 289.84375 401.410156 289.84375 401.722656 C 289.84375 402.269531 293.28125 403.910156 301.953125 407.425781 C 304.140625 408.285156 309.21875 410.003906 313.28125 411.179688 L 320.703125 413.367188 L 308.515625 413.289062 C 301.796875 413.289062 294.296875 413.523438 291.875 413.835938 C 286.796875 414.460938 286.796875 413.757812 291.09375 424.230469 C 297.03125 438.609375 305.078125 452.601562 312.578125 461.277344 C 314.6875 463.699219 316.40625 465.808594 316.40625 466.042969 C 316.40625 466.199219 314.375 466.824219 311.953125 467.371094 C 304.6875 468.933594 294.765625 472.6875 285.78125 477.140625 C 276.484375 481.832031 263.28125 489.800781 263.28125 490.742188 C 263.28125 492.382812 277.5 503.949219 285.390625 508.714844 C 287.03125 509.730469 288.203125 510.671875 288.046875 510.828125 C 287.890625 510.984375 285.546875 510.28125 282.890625 509.183594 C 277.734375 507.074219 261.09375 502.542969 258.515625 502.542969 C 257.1875 502.542969 257.03125 503.089844 257.03125 507.074219 C 257.03125 512.625 258.828125 527.472656 260.546875 535.367188 C 264.296875 553.5 273.046875 571.085938 283.984375 582.652344 C 287.1875 586.089844 288.515625 587.027344 288.828125 586.167969 C 289.140625 585.542969 290.703125 582.417969 292.34375 579.210938 C 293.984375 576.007812 295.3125 573.351562 295.3125 573.273438 C 295.3125 573.195312 294.21875 571.710938 292.890625 570.070312 C 291.5625 568.347656 289.453125 564.988281 288.203125 562.566406 C 282.265625 550.765625 283.828125 542.167969 292.65625 538.804688 C 297.1875 537.085938 302.34375 538.101562 309.453125 542.246094 C 316.171875 546.074219 327.03125 557.015625 331.09375 563.972656 C 335.15625 570.695312 339.453125 583.355469 340.703125 591.796875 C 343.359375 609.773438 335.859375 632.59375 326.015625 636.65625 C 319.921875 639.238281 314.0625 637.203125 310.546875 631.265625 C 308.046875 626.886719 306.09375 617.664062 306.40625 611.726562 C 306.640625 607.347656 306.5625 607.269531 304.296875 606.488281 C 303.046875 606.019531 299.921875 604.457031 297.34375 602.972656 C 294.84375 601.410156 292.578125 600.394531 292.34375 600.628906 C 292.109375 600.863281 291.71875 606.410156 291.5625 612.976562 C 291.09375 631.96875 294.6875 647.363281 303.90625 665.496094 C 308.59375 674.796875 316.171875 686.988281 317.1875 686.988281 C 318.828125 686.988281 331.875 670.890625 337.265625 662.292969 C 337.734375 661.433594 336.875 664.167969 335.390625 668.230469 C 332.5 676.046875 328.90625 689.179688 328.90625 691.992188 C 328.90625 693.632812 329.0625 693.632812 337.34375 693.085938 C 354.21875 691.992188 368.359375 689.101562 380.15625 684.332031 L 386.5625 681.832031 L 386.171875 690.820312 C 385.703125 700.121094 386.71875 711.6875 388.75 722.160156 C 390.78125 732.398438 393.125 740.136719 394.140625 740.136719 C 395.46875 740.136719 407.578125 732.476562 413.28125 727.941406 C 421.171875 721.691406 421.5625 721.535156 417.8125 726.222656 C 411.5625 733.882812 403.125 747.167969 403.125 749.28125 C 403.125 750.21875 418.59375 754.125 428.90625 755.84375 C 436.328125 757.171875 458.203125 757.171875 464.84375 755.84375 C 472.03125 754.515625 481.796875 751.46875 487.96875 748.65625 L 493.28125 746.308594 L 487.578125 740.605469 L 481.875 734.820312 L 478.59375 736.226562 C 473.984375 738.261719 465.390625 739.589844 460.78125 739.042969 C 453.203125 738.027344 449.21875 734.585938 448.59375 728.492188 C 448.125 723.175781 448.671875 721.378906 452.421875 716.765625 C 458.359375 709.1875 468.828125 702.699219 481.015625 699.027344 C 487.1875 697.148438 489.140625 696.914062 500 696.914062 C 510.859375 696.914062 512.8125 697.148438 518.984375 699.027344 C 531.171875 702.699219 541.640625 709.1875 547.578125 716.765625 C 551.328125 721.378906 551.875 723.175781 551.40625 728.492188 C 550.78125 734.585938 546.796875 738.027344 539.21875 739.042969 C 534.609375 739.589844 526.015625 738.261719 521.40625 736.226562 L 518.125 734.820312 L 512.421875 740.605469 L 506.71875 746.308594 L 511.796875 748.65625 C 517.65625 751.3125 527.96875 754.515625 535.15625 755.84375 C 541.796875 757.171875 563.671875 757.171875 571.09375 755.84375 C 581.40625 754.125 596.875 750.21875 596.875 749.28125 C 596.875 747.167969 588.4375 733.882812 582.1875 726.222656 C 578.4375 721.535156 578.828125 721.691406 586.71875 727.941406 C 592.421875 732.398438 604.53125 740.136719 605.859375 740.136719 C 606.953125 740.136719 608.671875 734.585938 610.859375 723.722656 C 613.28125 711.84375 614.296875 700.589844 613.828125 690.820312 L 613.4375 681.832031 L 619.84375 684.332031 C 631.640625 689.101562 645.78125 691.992188 662.734375 693.085938 C 670.9375 693.632812 671.09375 693.632812 671.09375 691.992188 C 671.09375 689.179688 667.5 676.046875 664.609375 668.230469 C 663.125 664.167969 662.265625 661.433594 662.734375 662.292969 C 667.8125 670.5 681.171875 686.988281 682.8125 686.988281 C 683.828125 686.988281 691.328125 674.875 696.09375 665.496094 C 705.3125 647.363281 708.90625 631.96875 708.4375 612.976562 C 708.28125 606.410156 707.890625 600.863281 707.65625 600.628906 C 707.421875 600.394531 705.15625 601.410156 702.65625 602.972656 C 700.078125 604.457031 697.03125 606.019531 695.703125 606.488281 C 693.4375 607.269531 693.359375 607.347656 693.59375 611.726562 C 694.140625 621.574219 690.078125 633.0625 684.921875 636.265625 C 681.953125 638.0625 676.640625 638.21875 673.515625 636.65625 C 663.75 631.578125 656.640625 608.988281 659.296875 591.640625 C 660.546875 583.667969 665 570.382812 668.59375 564.285156 C 672.34375 557.71875 684.0625 545.917969 690.546875 542.246094 C 697.65625 538.101562 702.8125 537.085938 707.34375 538.804688 C 716.171875 542.167969 717.734375 550.765625 711.796875 562.566406 C 710.546875 564.988281 708.4375 568.347656 707.109375 570.070312 C 705.78125 571.710938 704.6875 573.195312 704.6875 573.273438 C 704.6875 573.351562 706.015625 576.007812 707.65625 579.210938 C 709.296875 582.417969 710.859375 585.542969 711.171875 586.167969 C 711.484375 587.027344 712.8125 586.089844 716.015625 582.652344 C 726.875 571.164062 735 554.90625 739.140625 536.539062 C 741.015625 528.410156 742.890625 513.5625 742.96875 506.996094 C 742.96875 503.089844 742.8125 502.542969 741.484375 502.542969 C 738.90625 502.542969 722.265625 507.074219 717.109375 509.183594 C 714.453125 510.28125 712.109375 510.984375 711.953125 510.828125 C 711.796875 510.671875 712.96875 509.730469 714.609375 508.714844 C 722.5 503.949219 736.71875 492.382812 736.71875 490.742188 C 736.71875 489.800781 723.515625 481.832031 714.21875 477.140625 C 705.234375 472.6875 695.3125 468.933594 688.125 467.371094 C 685.625 466.824219 683.59375 466.199219 683.59375 466.042969 C 683.59375 465.808594 685.3125 463.699219 687.421875 461.277344 C 692.265625 455.648438 698.90625 445.410156 703.046875 437.125 C 705.703125 431.8125 712.5 415.710938 712.5 414.695312 C 712.5 413.992188 702.578125 413.289062 691.484375 413.289062 L 679.296875 413.289062 L 685.546875 411.570312 C 693.59375 409.300781 708.59375 403.441406 710.078125 402.035156 C 710.78125 401.332031 702.8125 392.03125 693.75 382.964844 C 683.4375 372.570312 674.375 365.847656 663.671875 360.453125 C 656.796875 357.015625 644.6875 352.953125 638.75 352.09375 L 634.921875 351.464844 L 635.390625 353.734375 C 635.703125 354.984375 636.328125 358.5 636.796875 361.628906 L 637.65625 367.175781 L 641.328125 368.113281 C 650.859375 370.535156 661.09375 378.429688 662.1875 384.292969 C 663.359375 390.386719 659.140625 396.5625 652.265625 398.90625 C 646.875 400.625 637.96875 401.253906 630.9375 400.234375 C 610.546875 397.34375 590.78125 383.824219 580.703125 365.925781 C 574.140625 354.28125 571.875 339.664062 575.625 333.570312 C 578.046875 329.660156 583.28125 327.160156 587.578125 327.863281 C 592.34375 328.722656 599.765625 334.195312 604.53125 340.367188 C 606.796875 343.417969 609.0625 345.761719 609.609375 345.605469 C 610.078125 345.449219 613.59375 344.902344 617.421875 344.433594 L 624.296875 343.496094 L 620.390625 337.007812 C 610.078125 319.734375 596.25 307.464844 575.46875 296.992188 C 565.78125 292.066406 553.4375 287.066406 552.8125 287.691406 C 552.03125 288.472656 550.78125 309.417969 551.171875 314.8125 L 551.5625 320.828125 L 549.609375 313.875 C 547.03125 304.652344 541.40625 290.660156 540.078125 290.191406 C 537.265625 289.097656 513.28125 312.859375 505.546875 324.347656 C 502.8125 328.410156 500.3125 331.769531 500 331.769531 C 499.6875 331.769531 497.1875 328.410156 494.453125 324.347656 C 486.71875 312.859375 462.734375 289.097656 459.921875 290.191406 C 458.515625 290.738281 452.890625 305.042969 450.46875 313.875 L 448.671875 320.828125 L 448.75 311.058594 C 448.828125 298.789062 447.8125 287.613281 446.640625 287.613281 C 446.09375 287.613281 441.953125 289.175781 437.34375 291.050781 Z M 481.875 339.664062 C 487.96875 343.261719 492.890625 352.328125 495.390625 364.597656 C 497.34375 374.132812 496.09375 400.234375 493.359375 407.347656 C 492.96875 408.285156 493.671875 408.675781 496.40625 408.988281 C 501.71875 409.769531 507.265625 408.832031 506.640625 407.347656 C 503.90625 400.234375 502.65625 373.976562 504.53125 364.597656 C 506.953125 352.953125 512.03125 343.261719 517.421875 339.976562 C 528.90625 332.867188 537.34375 339.976562 538.75 357.796875 C 538.984375 361.078125 538.828125 366.082031 538.359375 368.816406 L 537.578125 373.820312 L 543.515625 379.367188 C 546.71875 382.417969 549.6875 384.996094 550 385.152344 C 551.015625 385.542969 553.90625 374.132812 554.765625 366.160156 C 555.234375 361.863281 555.46875 354.4375 555.15625 349.746094 L 554.765625 341.148438 L 556.71875 347.714844 C 563.984375 372.335938 576.40625 390.308594 593.984375 402.035156 C 608.984375 411.960938 625.390625 416.492188 647.265625 416.648438 C 655.625 416.726562 657.578125 416.882812 655.46875 417.429688 C 647.265625 419.617188 639.140625 422.433594 633.90625 424.777344 C 628.203125 427.433594 617.96875 433.6875 617.96875 434.546875 C 617.96875 434.78125 619.609375 435.796875 621.71875 436.8125 C 623.75 437.75 627.03125 439.625 628.984375 440.878906 L 632.578125 443.144531 L 638.359375 440.484375 C 641.5625 439 647.109375 437.125 650.703125 436.421875 C 666.484375 433.296875 674.609375 439.78125 671.09375 452.679688 C 668.4375 462.214844 652.5 473.3125 633.984375 478.625 C 628.046875 480.34375 613.671875 483.003906 610.3125 483.003906 C 609.609375 483.003906 609.453125 483.785156 609.84375 485.894531 C 610.46875 489.800781 612.96875 495.507812 613.984375 495.507812 C 614.375 495.507812 616.875 494.257812 619.453125 492.773438 C 625.3125 489.332031 637.734375 484.332031 645.859375 482.066406 C 650.625 480.816406 654.296875 480.421875 662.5 480.34375 C 671.953125 480.265625 673.4375 480.421875 676.953125 482.066406 C 688.90625 487.613281 691.015625 498.085938 681.640625 505.199219 C 676.09375 509.496094 663.359375 514.265625 657.65625 514.265625 C 656.40625 514.265625 655.46875 514.65625 655.46875 515.28125 C 655.46875 515.828125 654.0625 519.265625 652.34375 522.863281 C 650.15625 527.238281 649.375 529.582031 649.921875 530.132812 C 651.015625 531.226562 665 529.660156 672.96875 527.550781 C 676.40625 526.613281 682.1875 524.738281 685.859375 523.253906 C 689.53125 521.847656 691.71875 521.222656 690.625 521.925781 C 673.125 533.804688 660 547.480469 652.8125 561.160156 C 649.21875 568.035156 645.625 579.367188 644.453125 587.105469 C 642.5 600.785156 644.921875 621.027344 650.3125 635.796875 C 652.421875 641.582031 652.5 643.378906 650.46875 639.394531 C 648.515625 635.640625 637.96875 622.042969 634.21875 618.523438 C 632.421875 616.726562 629.140625 613.992188 626.953125 612.351562 L 623.125 609.460938 L 621.40625 617.898438 L 619.765625 626.417969 L 624.375 631.421875 C 629.765625 637.359375 634.921875 647.285156 635.546875 652.992188 C 636.71875 663.230469 626.40625 668.78125 614.53125 664.246094 C 602.34375 659.714844 587.5 643.613281 578.59375 625.324219 C 576.71875 621.417969 575 617.820312 574.84375 617.273438 C 574.453125 616.101562 570.234375 618.367188 566.40625 621.886719 L 563.28125 624.621094 L 569.296875 630.25 C 595 654.242188 604.296875 686.050781 587.96875 694.570312 C 583.59375 696.835938 576.875 694.101562 570.078125 687.222656 C 565.859375 683.003906 561.25 676.515625 560.078125 672.921875 C 559.375 670.890625 558.828125 670.578125 556.40625 670.5 C 554.765625 670.5 550.9375 670.03125 547.734375 669.484375 L 542.03125 668.464844 L 542.421875 671.046875 C 543.4375 677.375 551.71875 691.835938 560.546875 702.777344 L 564.140625 707.308594 L 557.1875 701.996094 C 544.84375 692.773438 531.40625 686.207031 518.203125 682.925781 C 508.4375 680.582031 491.5625 680.582031 481.796875 682.925781 C 468.59375 686.207031 455.15625 692.773438 442.8125 701.996094 L 435.859375 707.308594 L 439.453125 702.777344 C 447.890625 692.382812 456.5625 677.21875 457.578125 670.96875 L 457.96875 668.464844 L 452.265625 669.484375 C 449.0625 670.03125 445.234375 670.5 443.59375 670.5 C 441.171875 670.578125 440.625 670.890625 439.921875 672.921875 C 438.75 676.515625 434.140625 683.003906 429.921875 687.222656 C 423.125 694.101562 416.40625 696.835938 412.03125 694.570312 C 401.484375 689.101562 401.171875 672.6875 411.171875 654.789062 C 415.3125 647.363281 423.90625 636.578125 430.703125 630.25 L 436.71875 624.621094 L 433.59375 621.886719 C 429.765625 618.367188 425.546875 616.101562 425.15625 617.273438 C 425 617.820312 423.28125 621.417969 421.40625 625.324219 C 412.265625 644.082031 396.171875 661.121094 384.140625 664.714844 C 378.59375 666.355469 374.375 666.199219 370.3125 664.167969 C 365.625 661.824219 363.828125 658.304688 364.453125 652.992188 C 365.078125 647.285156 370.234375 637.359375 375.625 631.421875 L 380.234375 626.417969 L 378.59375 617.898438 L 376.875 609.460938 L 373.046875 612.351562 C 370.859375 613.992188 367.578125 616.726562 365.78125 618.523438 C 362.03125 622.042969 351.484375 635.640625 349.53125 639.394531 C 347.5 643.378906 347.578125 641.582031 349.6875 635.796875 C 355.078125 621.027344 357.5 600.785156 355.546875 587.105469 C 351.796875 561.628906 336.875 540.605469 309.375 521.925781 C 308.28125 521.222656 310.46875 521.847656 314.140625 523.253906 C 317.8125 524.738281 323.59375 526.613281 327.03125 527.550781 C 335 529.660156 348.984375 531.226562 350.078125 530.132812 C 350.625 529.582031 349.84375 527.238281 347.65625 522.863281 C 345.9375 519.265625 344.53125 515.828125 344.53125 515.28125 C 344.53125 514.65625 343.59375 514.265625 342.34375 514.265625 C 336.640625 514.265625 323.90625 509.496094 318.359375 505.199219 C 308.984375 498.085938 311.09375 487.613281 323.046875 482.066406 C 326.5625 480.421875 328.046875 480.265625 337.5 480.34375 C 345.703125 480.421875 349.375 480.816406 354.140625 482.066406 C 362.265625 484.332031 374.6875 489.332031 380.546875 492.773438 C 383.125 494.257812 385.625 495.507812 386.015625 495.507812 C 387.03125 495.507812 389.53125 489.800781 390.15625 485.894531 C 390.546875 483.785156 390.390625 483.003906 389.6875 483.003906 C 386.328125 483.003906 371.953125 480.34375 366.015625 478.625 C 347.5 473.3125 331.5625 462.214844 328.90625 452.679688 C 327.03125 445.800781 328.75 439.78125 333.4375 437.359375 C 339.453125 434.234375 351.09375 435.5625 361.640625 440.484375 L 367.421875 443.144531 L 371.015625 440.878906 C 372.96875 439.625 376.25 437.75 378.359375 436.8125 C 380.390625 435.796875 382.03125 434.78125 382.03125 434.546875 C 382.03125 433.6875 371.796875 427.433594 366.09375 424.777344 C 360.859375 422.433594 352.734375 419.617188 344.53125 417.429688 C 342.421875 416.882812 344.375 416.726562 352.734375 416.648438 C 374.609375 416.492188 391.015625 412.039062 406.015625 402.035156 C 423.359375 390.542969 436.40625 371.554688 443.125 348.183594 L 444.921875 341.933594 L 444.921875 354.828125 C 445 361.941406 445.390625 369.832031 445.9375 372.414062 C 447.1875 378.820312 449.296875 385.386719 450 385.152344 C 450.3125 384.996094 453.28125 382.417969 456.484375 379.367188 L 462.421875 373.820312 L 461.640625 368.816406 C 460 359.203125 462.03125 347.167969 466.171875 341.617188 C 470.078125 336.539062 475.3125 335.914062 481.875 339.664062 Z M 481.875 339.664062 "/>
<path style=" stroke:none;fill-rule:nonzero;fill:rgb(47.45098%,33.333333%,28.235294%);fill-opacity:1;" d="M 481.640625 368.738281 C 457.421875 377.101562 441.640625 396.484375 431.640625 430.402344 C 431.40625 431.03125 428.203125 431.265625 421.25 431.34375 C 401.328125 431.34375 386.5625 435.328125 372.96875 444.316406 C 365.9375 449.003906 357.109375 457.835938 353.359375 464.011719 L 350.859375 468.074219 L 355.3125 470.105469 C 357.734375 471.28125 361.09375 472.6875 362.734375 473.3125 L 365.625 474.328125 L 367.5 470.578125 C 369.765625 466.199219 377.109375 459.164062 383.046875 455.726562 C 392.265625 450.410156 404.53125 447.050781 414.296875 447.050781 C 421.484375 447.050781 436.5625 449.550781 442.578125 451.664062 C 445.078125 452.601562 447.265625 453.304688 447.265625 453.304688 C 447.34375 453.304688 447.34375 450.410156 447.34375 446.816406 C 447.34375 436.03125 450.46875 421.027344 454.296875 413.289062 C 458.359375 405.238281 461.328125 401.253906 467.96875 394.6875 C 474.53125 388.199219 481.25 384.136719 487.734375 382.886719 C 492.8125 381.871094 493.125 381.242188 492.109375 373.820312 C 491.796875 370.847656 491.484375 368.035156 491.40625 367.488281 C 491.40625 366.082031 488.515625 366.394531 481.640625 368.738281 Z M 481.640625 368.738281 "/>
<path style=" stroke:none;fill-rule:nonzero;fill:rgb(47.45098%,33.333333%,28.235294%);fill-opacity:1;" d="M 508.59375 367.488281 C 508.515625 368.035156 508.203125 370.847656 507.890625 373.820312 C 506.875 381.242188 507.1875 381.871094 512.265625 382.886719 C 519.140625 384.214844 525.46875 388.121094 532.8125 395.46875 C 541.796875 404.457031 547.96875 415.320312 549.921875 425.324219 C 552.265625 437.59375 552.65625 440.957031 552.65625 446.816406 C 552.65625 450.410156 552.65625 453.304688 552.734375 453.304688 C 552.734375 453.304688 554.921875 452.601562 557.421875 451.664062 C 563.4375 449.550781 578.515625 447.050781 585.703125 447.050781 C 595.46875 447.050781 607.734375 450.410156 616.953125 455.726562 C 622.890625 459.164062 630.234375 466.199219 632.5 470.578125 L 634.375 474.328125 L 637.265625 473.3125 C 638.90625 472.6875 642.265625 471.28125 644.6875 470.105469 L 649.140625 468.074219 L 646.640625 464.011719 C 643.359375 458.617188 635.078125 449.941406 629.21875 445.800781 C 615.625 436.109375 599.453125 431.421875 579.0625 431.34375 C 571.875 431.265625 568.59375 431.03125 568.359375 430.402344 C 558.28125 396.25 542.109375 376.476562 517.65625 368.582031 C 510.859375 366.316406 508.59375 366.082031 508.59375 367.488281 Z M 508.59375 367.488281 "/>
<path style=" stroke:none;fill-rule:nonzero;fill:rgb(47.45098%,33.333333%,28.235294%);fill-opacity:1;" d="M 419.21875 396.015625 C 413.515625 401.566406 413.125 402.113281 413.515625 404.535156 C 413.984375 407.503906 413.59375 407.738281 411.015625 405.863281 C 409.375 404.769531 408.90625 404.769531 407.5 405.707031 C 406.640625 406.253906 403.046875 408.207031 399.6875 410.003906 L 393.515625 413.289062 L 396.953125 415.789062 C 398.828125 417.195312 403.59375 419.851562 407.421875 421.808594 C 414.84375 425.402344 429.375 430.402344 430.234375 429.621094 C 431.015625 428.761719 430.625 409.300781 429.6875 403.988281 C 428.828125 398.75 426.71875 391.5625 425.859375 390.621094 C 425.625 390.308594 422.65625 392.734375 419.21875 396.015625 Z M 419.21875 396.015625 "/>
<path style=" stroke:none;fill-rule:nonzero;fill:rgb(47.45098%,33.333333%,28.235294%);fill-opacity:1;" d="M 573.4375 392.03125 C 571.40625 397.265625 570.234375 403.441406 569.609375 411.882812 C 568.90625 421.730469 569.296875 429.855469 570.46875 429.855469 C 570.9375 429.855469 574.921875 428.683594 579.296875 427.199219 C 588.28125 424.152344 597.8125 419.539062 603.046875 415.789062 L 606.484375 413.289062 L 600.3125 410.003906 C 596.953125 408.207031 593.359375 406.253906 592.5 405.707031 C 591.09375 404.769531 590.625 404.769531 588.984375 405.863281 C 586.40625 407.738281 586.171875 407.582031 586.25 404.222656 C 586.328125 401.566406 585.78125 400.78125 580.3125 395.546875 L 574.296875 389.761719 Z M 573.4375 392.03125 "/>
<path style=" stroke:none;fill-rule:nonzero;fill:rgb(47.45098%,33.333333%,28.235294%);fill-opacity:1;" d="M 468.671875 399.140625 C 465.078125 402.972656 462.5 406.722656 462.5 408.207031 C 462.5 409.613281 471.796875 418.523438 476.953125 422.042969 C 483.828125 426.808594 488.203125 427.902344 500 427.902344 C 511.796875 427.902344 516.171875 426.808594 523.046875 422.042969 C 528.203125 418.523438 537.5 409.613281 537.5 408.207031 C 537.5 406.019531 528.75 395.15625 527.890625 396.328125 C 527.8125 396.484375 526.71875 398.125 525.546875 399.921875 C 523.203125 403.675781 518.4375 407.113281 512.421875 409.691406 C 506.40625 412.195312 493.671875 412.195312 487.5 409.691406 C 481.640625 407.347656 476.171875 403.207031 474.0625 399.375 C 473.046875 397.65625 472.109375 396.25 471.875 396.25 C 471.640625 396.25 470.15625 397.578125 468.671875 399.140625 Z M 468.671875 399.140625 "/>
<path style=" stroke:none;fill-rule:nonzero;fill:rgb(47.45098%,33.333333%,28.235294%);fill-opacity:1;" d="M 481.015625 433.921875 L 478.203125 438.0625 L 479.609375 442.753906 L 481.09375 447.441406 L 487.96875 448.769531 C 498.359375 450.722656 497.65625 450.960938 496.328125 445.566406 C 495.15625 441.035156 495.15625 440.878906 497.265625 437.359375 C 498.4375 435.40625 499.6875 433.765625 500 433.765625 C 500.3125 433.765625 501.5625 435.40625 502.734375 437.359375 C 504.84375 440.878906 504.84375 441.035156 503.671875 445.566406 C 502.34375 450.960938 501.640625 450.722656 512.03125 448.769531 L 518.90625 447.441406 L 520.390625 442.753906 L 521.796875 438.0625 L 518.984375 433.921875 C 516.71875 430.714844 515.703125 429.855469 514.453125 430.167969 C 508.125 431.734375 499.53125 432.203125 493.59375 431.421875 C 490 430.953125 486.40625 430.402344 485.546875 430.167969 C 484.296875 429.855469 483.28125 430.714844 481.015625 433.921875 Z M 481.015625 433.921875 "/>
<path style=" stroke:none;fill-rule:nonzero;fill:rgb(47.45098%,33.333333%,28.235294%);fill-opacity:1;" d="M 471.09375 453.148438 C 468.75 453.929688 463.515625 456.273438 459.609375 458.304688 C 453.671875 461.355469 451.25 463.230469 446.171875 468.621094 C 436.71875 478.546875 432.8125 487.691406 432.8125 499.492188 C 432.8125 503.480469 432.5 504.574219 430.234375 507.386719 C 422.5 517.546875 420.46875 528.957031 423.59375 545.136719 C 425.3125 554.203125 432.5 567.253906 438.828125 572.882812 C 442.65625 576.164062 453.90625 582.261719 456.25 582.261719 C 457.03125 582.261719 459.375 584.449219 461.71875 587.339844 C 466.40625 593.359375 473.359375 598.75 479.375 600.941406 C 484.140625 602.738281 495.46875 604.925781 500 604.925781 C 504.53125 604.925781 515.859375 602.738281 520.625 600.941406 C 526.640625 598.75 533.59375 593.359375 538.28125 587.339844 C 540.625 584.449219 542.96875 582.261719 543.75 582.261719 C 546.09375 582.261719 557.34375 576.164062 561.171875 572.882812 C 567.5 567.253906 574.6875 554.203125 576.40625 545.136719 C 579.53125 528.957031 577.5 517.546875 569.765625 507.386719 C 567.5 504.574219 567.1875 503.480469 567.1875 499.492188 C 567.1875 487.691406 563.28125 478.546875 553.828125 468.621094 C 548.59375 463.074219 546.40625 461.433594 540 458.148438 C 529.140625 452.601562 524.765625 451.429688 515.703125 451.976562 C 511.5625 452.210938 506.328125 452.992188 504.140625 453.695312 C 500.15625 455.023438 499.84375 455.023438 495.9375 453.695312 C 489.6875 451.664062 476.5625 451.351562 471.09375 453.148438 Z M 494.6875 470.417969 L 500 472.140625 L 505.625 470.339844 C 513.75 467.761719 526.796875 467.761719 532.34375 470.339844 C 544.140625 475.734375 550.78125 487.457031 550.78125 502.699219 C 550.78125 508.636719 550.859375 508.871094 554.609375 514.421875 C 556.71875 517.546875 559.21875 522.003906 560.078125 524.269531 C 567.578125 543.339844 558.359375 560.300781 536.640625 567.410156 C 531.953125 568.972656 531.25 569.519531 527.8125 574.132812 C 523.671875 579.683594 518.28125 584.371094 512.1875 587.574219 C 508.59375 589.453125 507.34375 589.6875 500 589.6875 C 492.65625 589.6875 491.40625 589.453125 487.8125 587.574219 C 481.71875 584.371094 476.328125 579.683594 472.1875 574.132812 C 468.75 569.519531 468.046875 568.972656 463.359375 567.410156 C 441.640625 560.300781 432.421875 543.339844 439.921875 524.269531 C 440.78125 522.003906 443.203125 517.625 445.234375 514.578125 L 448.984375 509.027344 L 449.453125 500.902344 C 449.921875 491.289062 451.796875 485.113281 456.09375 479.5625 C 459.53125 475.03125 465.15625 470.96875 470.234375 469.324219 C 475.3125 467.683594 487.8125 468.230469 494.6875 470.417969 Z M 494.6875 470.417969 "/>
<path style=" stroke:none;fill-rule:nonzero;fill:rgb(47.45098%,33.333333%,28.235294%);fill-opacity:1;" d="M 482.5 476.90625 C 482.1875 480.03125 481.25 485.738281 480.390625 489.566406 L 478.75 496.523438 L 472.1875 495.976562 C 468.671875 495.742188 463.203125 494.960938 460.078125 494.335938 C 456.953125 493.632812 453.90625 493.320312 453.359375 493.554688 C 452.5 493.789062 452.34375 495.664062 452.5 501.136719 L 452.734375 508.402344 L 457.421875 509.339844 C 464.84375 510.828125 479.84375 511.921875 485.078125 511.375 L 489.84375 510.90625 L 492.578125 502.230469 C 494.0625 497.460938 496.015625 489.644531 496.796875 484.957031 C 498.28125 476.4375 498.28125 476.359375 496.71875 475.03125 C 494.921875 473.46875 488.203125 471.28125 485.15625 471.28125 C 483.125 471.28125 483.046875 471.4375 482.5 476.90625 Z M 482.5 476.90625 "/>
<path style=" stroke:none;fill-rule:nonzero;fill:rgb(47.45098%,33.333333%,28.235294%);fill-opacity:1;" d="M 507.96875 472.765625 C 501.5625 474.953125 501.484375 475.03125 503.203125 484.957031 C 503.984375 489.644531 505.859375 497.460938 507.421875 502.230469 L 510.15625 510.90625 L 514.921875 511.453125 C 520.15625 511.921875 535.234375 510.828125 542.578125 509.339844 L 547.265625 508.402344 L 547.5 501.136719 C 547.65625 495.664062 547.5 493.789062 546.640625 493.554688 C 546.09375 493.320312 543.046875 493.632812 539.921875 494.335938 C 536.796875 494.960938 531.328125 495.742188 527.8125 495.976562 L 521.25 496.523438 L 519.609375 489.566406 C 518.75 485.738281 517.8125 480.03125 517.5 476.90625 L 516.953125 471.28125 L 514.53125 471.28125 C 513.203125 471.359375 510.234375 471.984375 507.96875 472.765625 Z M 507.96875 472.765625 "/>
<path style=" stroke:none;fill-rule:nonzero;fill:rgb(47.45098%,33.333333%,28.235294%);fill-opacity:1;" d="M 498.90625 497.695312 C 498.671875 498.164062 497.265625 501.839844 495.859375 505.980469 L 493.203125 513.484375 L 496.015625 512.9375 C 499.53125 512.3125 500.46875 512.3125 503.984375 512.9375 L 506.796875 513.484375 L 503.984375 505.511719 C 501.328125 498.085938 500 495.976562 498.90625 497.695312 Z M 498.90625 497.695312 "/>
<path style=" stroke:none;fill-rule:nonzero;fill:rgb(47.45098%,33.333333%,28.235294%);fill-opacity:1;" d="M 449.21875 514.5 C 446.796875 517 442.96875 522.941406 442.96875 524.269531 C 442.96875 524.660156 445.234375 525.910156 447.96875 527.082031 C 450.703125 528.253906 455.859375 530.992188 459.296875 533.101562 L 465.546875 537.007812 L 463.984375 541.074219 C 463.125 543.339844 460.625 548.417969 458.515625 552.484375 C 456.40625 556.546875 454.6875 560.066406 454.6875 560.378906 C 454.6875 561.316406 464.609375 565.066406 467.109375 565.066406 C 469.21875 565.066406 469.6875 564.519531 473.359375 557.015625 C 475.546875 552.640625 478.59375 545.058594 480.234375 540.136719 L 483.125 531.304688 L 481.25 529.738281 C 476.5625 526.066406 464.6875 518.484375 458.4375 515.359375 L 451.71875 512 Z M 449.21875 514.5 "/>
<path style=" stroke:none;fill-rule:nonzero;fill:rgb(47.45098%,33.333333%,28.235294%);fill-opacity:1;" d="M 540.234375 516.0625 C 533.28125 519.734375 524.140625 525.519531 518.75 529.816406 L 516.875 531.304688 L 519.765625 540.136719 C 521.40625 545.058594 524.453125 552.640625 526.640625 557.015625 C 530.3125 564.519531 530.78125 565.066406 532.890625 565.066406 C 535.390625 565.066406 545.3125 561.316406 545.3125 560.378906 C 545.3125 560.066406 543.59375 556.546875 541.484375 552.484375 C 539.375 548.417969 536.875 543.339844 536.015625 541.074219 L 534.453125 537.007812 L 540.703125 533.101562 C 544.140625 530.992188 549.296875 528.253906 552.03125 527.082031 C 554.765625 525.910156 557.03125 524.582031 557.03125 524.113281 C 556.953125 523.097656 554.21875 518.484375 551.953125 515.75 C 548.59375 511.765625 548.59375 511.765625 540.234375 516.0625 Z M 540.234375 516.0625 "/>
<path style=" stroke:none;fill-rule:nonzero;fill:rgb(47.45098%,33.333333%,28.235294%);fill-opacity:1;" d="M 473.203125 516.375 C 472.109375 517.390625 472.734375 518.640625 474.921875 519.96875 C 476.171875 520.675781 479.140625 522.863281 481.484375 524.816406 C 483.828125 526.691406 485.9375 528.019531 486.25 527.785156 C 486.484375 527.472656 486.71875 526.300781 486.71875 525.050781 C 486.71875 523.800781 487.421875 521.457031 488.28125 519.734375 C 489.140625 518.015625 489.84375 516.453125 489.84375 516.21875 C 489.84375 515.671875 473.828125 515.75 473.203125 516.375 Z M 473.203125 516.375 "/>
<path style=" stroke:none;fill-rule:nonzero;fill:rgb(47.45098%,33.333333%,28.235294%);fill-opacity:1;" d="M 510.15625 516.21875 C 510.15625 516.453125 510.859375 518.015625 511.71875 519.734375 C 512.578125 521.457031 513.28125 523.800781 513.28125 525.050781 C 513.28125 526.300781 513.515625 527.472656 513.75 527.785156 C 514.0625 528.019531 516.171875 526.691406 518.515625 524.816406 C 520.859375 522.863281 523.828125 520.675781 525.078125 519.96875 C 526.328125 519.1875 527.265625 518.09375 527.1875 517.390625 C 526.953125 516.453125 525.3125 516.140625 518.515625 515.984375 C 513.90625 515.90625 510.15625 515.984375 510.15625 516.21875 Z M 510.15625 516.21875 "/>
<path style=" stroke:none;fill-rule:nonzero;fill:rgb(47.45098%,33.333333%,28.235294%);fill-opacity:1;" d="M 486.71875 533.335938 C 486.71875 533.960938 485.703125 537.476562 484.453125 541.152344 C 482.578125 546.699219 482.34375 547.949219 483.28125 548.652344 C 484.0625 549.355469 485.78125 548.496094 491.015625 544.746094 C 494.6875 542.089844 497.65625 539.742188 497.65625 539.585938 C 497.65625 539.429688 496.328125 538.648438 494.765625 537.789062 C 493.125 537.007812 490.9375 535.367188 489.921875 534.273438 C 487.8125 532.007812 486.71875 531.695312 486.71875 533.335938 Z M 486.71875 533.335938 "/>
<path style=" stroke:none;fill-rule:nonzero;fill:rgb(47.45098%,33.333333%,28.235294%);fill-opacity:1;" d="M 510.078125 534.273438 C 509.0625 535.367188 506.875 537.007812 505.3125 537.789062 C 503.671875 538.648438 502.34375 539.429688 502.34375 539.585938 C 502.34375 539.742188 505.3125 542.089844 508.984375 544.746094 C 514.21875 548.496094 515.9375 549.355469 516.71875 548.652344 C 517.65625 547.949219 517.421875 546.699219 515.546875 541.152344 C 514.296875 537.476562 513.28125 533.960938 513.28125 533.335938 C 513.28125 531.695312 512.1875 532.007812 510.078125 534.273438 Z M 510.078125 534.273438 "/>
<path style=" stroke:none;fill-rule:nonzero;fill:rgb(47.45098%,33.333333%,28.235294%);fill-opacity:1;" d="M 492.8125 548.652344 C 489.140625 551.3125 482.890625 556.546875 478.90625 560.378906 L 471.796875 567.332031 L 473.359375 570.304688 C 474.21875 571.945312 476.25 574.757812 477.890625 576.632812 L 480.859375 579.996094 L 489.609375 571.398438 C 495 566.082031 499.0625 562.722656 500 562.722656 C 500.9375 562.722656 505 566.082031 510.390625 571.398438 L 519.140625 579.996094 L 522.109375 576.632812 C 523.75 574.757812 525.78125 571.945312 526.640625 570.304688 L 528.203125 567.332031 L 521.09375 560.457031 C 514.6875 554.203125 503.59375 545.449219 500.703125 544.355469 C 500 544.121094 496.875 545.761719 492.8125 548.652344 Z M 492.8125 548.652344 "/>
<path style=" stroke:none;fill-rule:nonzero;fill:rgb(47.45098%,33.333333%,28.235294%);fill-opacity:1;" d="M 393.515625 455.179688 C 390.546875 456.117188 387.578125 457.523438 386.875 458.226562 C 385.703125 459.398438 385.78125 459.632812 387.265625 461.277344 C 394.375 469.011719 395.390625 485.347656 389.453125 495.898438 C 384.6875 504.496094 377.8125 510.28125 370.703125 511.765625 L 367.890625 512.3125 L 369.84375 516.21875 C 370.9375 518.328125 372.890625 521.378906 374.140625 522.863281 L 376.484375 525.597656 L 383.984375 521.769531 C 393.59375 516.921875 400.3125 510.828125 404.140625 503.558594 C 409.453125 493.320312 411.09375 483.472656 409.0625 474.171875 C 407.8125 468.464844 401.171875 454.085938 399.609375 453.539062 C 399.140625 453.460938 396.40625 454.164062 393.515625 455.179688 Z M 393.515625 455.179688 "/>
<path style=" stroke:none;fill-rule:nonzero;fill:rgb(47.45098%,33.333333%,28.235294%);fill-opacity:1;" d="M 597.03125 458.929688 C 591.953125 468.152344 590.3125 473.703125 590.3125 481.832031 C 590.3125 489.957031 591.796875 495.742188 595.859375 503.480469 C 599.921875 511.21875 605.546875 516.375 615.3125 521.378906 L 623.515625 525.597656 L 625.859375 522.863281 C 627.109375 521.378906 629.0625 518.328125 630.15625 516.21875 L 632.109375 512.3125 L 629.296875 511.765625 C 618.828125 509.574219 608.75 497.695312 607.03125 485.503906 C 605.703125 476.046875 607.578125 467.449219 612.109375 462.058594 C 614.6875 458.929688 614.140625 457.914062 608.359375 455.804688 C 600.078125 452.757812 600.46875 452.601562 597.03125 458.929688 Z M 597.03125 458.929688 "/>
<path style=" stroke:none;fill-rule:nonzero;fill:rgb(47.45098%,33.333333%,28.235294%);fill-opacity:1;" d="M 418.203125 479.484375 C 413.828125 480.816406 413.28125 481.207031 413.28125 483.003906 C 413.28125 488.238281 410.703125 497.539062 407.5 504.183594 L 403.984375 511.296875 L 406.875 515.515625 L 409.765625 519.65625 L 414.84375 519.734375 L 419.921875 519.734375 L 423.59375 512.390625 L 427.265625 505.042969 L 424.375 504.574219 C 422.8125 504.339844 420.625 504.105469 419.53125 504.105469 C 418.203125 504.027344 416.640625 502.933594 414.609375 500.589844 L 411.640625 497.148438 L 413.828125 496.601562 C 415 496.367188 417.03125 495.820312 418.203125 495.507812 C 420 494.882812 421.09375 495.195312 424.21875 497.148438 C 426.328125 498.476562 428.4375 499.335938 428.828125 499.101562 C 429.21875 498.867188 429.765625 496.367188 430.078125 493.554688 C 430.390625 490.664062 430.859375 487.378906 431.25 486.207031 C 431.796875 484.097656 431.5625 483.785156 427.421875 480.972656 L 423.046875 477.921875 Z M 418.203125 479.484375 "/>
<path style=" stroke:none;fill-rule:nonzero;fill:rgb(47.45098%,33.333333%,28.235294%);fill-opacity:1;" d="M 572.5 480.894531 C 570.234375 482.535156 568.4375 484.332031 568.59375 484.722656 C 568.75 485.191406 569.21875 488.394531 569.6875 491.914062 C 570.15625 495.351562 570.78125 498.554688 571.171875 498.945312 C 571.484375 499.335938 573.515625 498.554688 575.703125 497.226562 C 578.90625 495.195312 580 494.882812 581.796875 495.507812 C 582.96875 495.820312 585 496.367188 586.171875 496.601562 L 588.359375 497.148438 L 585.390625 500.589844 C 583.359375 502.933594 581.796875 504.027344 580.46875 504.105469 C 579.375 504.105469 577.1875 504.339844 575.625 504.574219 L 572.734375 505.042969 L 576.40625 512.390625 L 580.078125 519.734375 L 585.15625 519.734375 L 590.234375 519.65625 L 593.125 515.515625 L 596.015625 511.296875 L 592.5 504.183594 C 589.296875 497.539062 586.71875 488.238281 586.71875 483.003906 C 586.71875 481.285156 586.09375 480.816406 581.71875 479.484375 L 576.71875 477.921875 Z M 572.5 480.894531 "/>
<path style=" stroke:none;fill-rule:nonzero;fill:rgb(47.45098%,33.333333%,28.235294%);fill-opacity:1;" d="M 345.234375 489.410156 C 345 506.527344 348.125 518.40625 356.328125 531.070312 C 361.328125 538.726562 373.90625 551.46875 382.5 557.484375 L 388.828125 561.863281 L 386.328125 569.519531 C 382.03125 582.339844 380.859375 589.136719 380.9375 601.800781 C 380.9375 615.007812 382.5 622.355469 387.5 632.671875 C 390.625 639.160156 398.046875 649.710938 399.21875 649.320312 C 400.078125 649.007812 409.375 638.453125 409.375 637.828125 C 409.375 637.515625 407.96875 635.953125 406.328125 634.3125 C 402.578125 630.640625 398.90625 622.824219 397.265625 615.242188 C 395.546875 606.957031 395.703125 594.140625 397.65625 586.480469 C 399.53125 579.132812 406.484375 564.753906 411.328125 558.1875 L 414.765625 553.421875 L 410.390625 552.171875 C 405.546875 550.765625 390.390625 543.339844 385.390625 539.980469 C 378.515625 535.210938 369.921875 525.050781 365.625 516.609375 C 361.640625 508.636719 360 502.074219 360.3125 494.726562 L 360.546875 488.082031 L 355.46875 486.753906 C 352.65625 486.050781 349.21875 485.425781 347.890625 485.425781 L 345.3125 485.347656 Z M 345.234375 489.410156 "/>
<path style=" stroke:none;fill-rule:nonzero;fill:rgb(47.45098%,33.333333%,28.235294%);fill-opacity:1;" d="M 644.53125 486.753906 L 639.453125 488.082031 L 639.6875 494.726562 C 639.921875 500.195312 639.609375 502.464844 637.96875 507.621094 C 634.53125 518.40625 626.796875 529.738281 617.65625 537.554688 C 613.046875 541.386719 596.09375 550.296875 589.609375 552.171875 L 585.15625 553.421875 L 588.359375 557.640625 C 592.421875 563.035156 599.453125 576.789062 601.5625 583.589844 C 603.984375 591.09375 604.609375 606.175781 602.8125 614.695312 C 601.171875 622.746094 597.5 630.5625 593.671875 634.3125 C 592.03125 635.953125 590.625 637.515625 590.625 637.828125 C 590.625 638.453125 599.921875 649.007812 600.78125 649.320312 C 601.953125 649.710938 609.375 639.160156 612.5 632.671875 C 617.5 622.433594 619.0625 615.007812 619.0625 602.191406 C 619.0625 589.765625 617.734375 581.636719 613.75 569.597656 L 611.171875 561.941406 L 617.890625 557.09375 C 635.234375 544.433594 646.015625 530.757812 651.640625 514.265625 C 653.828125 507.699219 654.21875 505.589844 654.53125 496.054688 L 654.921875 485.347656 L 652.265625 485.425781 C 650.78125 485.425781 647.34375 486.050781 644.53125 486.753906 Z M 644.53125 486.753906 "/>
<path style=" stroke:none;fill-rule:nonzero;fill:rgb(47.45098%,33.333333%,28.235294%);fill-opacity:1;" d="M 348.4375 554.828125 C 348.4375 555.21875 349.84375 558.5 351.5625 562.019531 C 353.28125 565.613281 354.6875 568.972656 354.6875 569.519531 C 354.6875 570.148438 355.703125 570.539062 357.421875 570.539062 C 360.625 570.539062 360.78125 570.929688 358.515625 573.351562 C 356.953125 574.992188 356.953125 575.226562 358.125 580.933594 C 358.828125 584.214844 359.375 587.496094 359.375 588.277344 C 359.375 589.058594 359.6875 590.15625 360.078125 590.78125 C 361.640625 593.203125 373.125 582.496094 382.578125 569.757812 C 385.234375 566.082031 387.5 562.878906 387.5 562.566406 C 387.5 561.628906 370.78125 556.546875 363.59375 555.296875 C 356.015625 553.96875 348.4375 553.734375 348.4375 554.828125 Z M 348.4375 554.828125 "/>
<path style=" stroke:none;fill-rule:nonzero;fill:rgb(47.45098%,33.333333%,28.235294%);fill-opacity:1;" d="M 635.78125 555.375 C 629.0625 556.546875 612.5 561.707031 612.5 562.566406 C 612.5 563.503906 622.1875 576.164062 626.40625 580.777344 C 628.59375 583.199219 632.421875 586.636719 634.765625 588.511719 C 638.359375 591.25 639.296875 591.71875 639.921875 590.78125 C 640.3125 590.15625 640.625 589.058594 640.625 588.277344 C 640.625 587.496094 641.171875 584.214844 641.875 580.933594 C 643.046875 575.226562 643.046875 574.992188 641.484375 573.351562 C 639.21875 570.929688 639.375 570.539062 642.578125 570.539062 C 644.296875 570.539062 645.3125 570.148438 645.3125 569.519531 C 645.3125 568.972656 646.71875 565.613281 648.4375 562.019531 C 650.15625 558.5 651.5625 555.21875 651.5625 554.828125 C 651.5625 553.8125 642.8125 554.125 635.78125 555.375 Z M 635.78125 555.375 "/>
<path style=" stroke:none;fill-rule:nonzero;fill:rgb(47.45098%,33.333333%,28.235294%);fill-opacity:1;" d="M 434.609375 580.855469 L 430.46875 584.058594 L 430.46875 589.292969 C 430.46875 594.21875 430.625 594.609375 432.34375 595.078125 C 437.265625 596.328125 446.09375 602.035156 451.171875 607.269531 L 456.484375 612.820312 L 461.25 611.179688 L 466.015625 609.617188 L 467.65625 604.847656 L 469.375 600.082031 L 457.8125 588.199219 L 455.78125 592.890625 C 453.90625 597.1875 453.515625 597.65625 449.53125 599.21875 L 445.3125 600.863281 L 445.78125 596.484375 C 446.171875 592.5 446.5625 591.71875 449.6875 588.902344 C 451.5625 587.183594 453.125 585.542969 453.125 585.308594 C 453.125 585.074219 450.3125 583.511719 446.875 581.949219 C 443.4375 580.308594 440.390625 578.664062 440.15625 578.273438 C 439.53125 577.179688 438.984375 577.492188 434.609375 580.855469 Z M 434.609375 580.855469 "/>
<path style=" stroke:none;fill-rule:nonzero;fill:rgb(47.45098%,33.333333%,28.235294%);fill-opacity:1;" d="M 554.296875 581.167969 C 550.859375 583.042969 547.734375 584.683594 547.265625 584.917969 C 546.875 585.074219 548.125 586.792969 550.15625 588.667969 C 553.4375 591.71875 553.828125 592.421875 554.21875 596.484375 L 554.6875 600.863281 L 550.46875 599.21875 C 546.484375 597.65625 546.09375 597.1875 544.21875 592.890625 L 542.1875 588.199219 L 530.625 600.082031 L 532.34375 604.847656 L 533.984375 609.617188 L 538.75 611.179688 L 543.515625 612.820312 L 548.828125 607.269531 C 553.90625 602.035156 562.734375 596.328125 567.65625 595.078125 C 569.375 594.609375 569.53125 594.21875 569.53125 589.292969 L 569.53125 584.058594 L 565.234375 580.777344 C 562.8125 579.054688 560.78125 577.648438 560.703125 577.648438 C 560.625 577.726562 557.734375 579.289062 554.296875 581.167969 Z M 554.296875 581.167969 "/>
<path style=" stroke:none;fill-rule:nonzero;fill:rgb(47.45098%,33.333333%,28.235294%);fill-opacity:1;" d="M 407.03125 597.1875 C 399.0625 598.671875 399.765625 597.8125 400.15625 606.175781 C 400.390625 610.242188 400.703125 613.757812 400.9375 613.914062 C 401.171875 614.148438 402.421875 613.757812 403.828125 613.054688 C 412.96875 608.519531 429.0625 612.742188 437.578125 621.964844 C 443.828125 628.683594 446.40625 634.390625 446.484375 641.503906 L 446.484375 647.207031 L 450 646.738281 C 451.953125 646.425781 455.3125 645.566406 457.421875 644.863281 L 461.328125 643.457031 L 461.09375 639.628906 C 460.625 633.140625 458.671875 625.089844 456.25 619.855469 C 451.796875 610.398438 439.375 600.316406 428.59375 597.421875 C 424.21875 596.25 412.578125 596.09375 407.03125 597.1875 Z M 407.03125 597.1875 "/>
<path style=" stroke:none;fill-rule:nonzero;fill:rgb(47.45098%,33.333333%,28.235294%);fill-opacity:1;" d="M 571.015625 597.421875 C 560.46875 600.394531 548.125 610.554688 543.75 619.933594 C 541.25 625.246094 539.375 633.0625 538.90625 639.628906 L 538.671875 643.457031 L 542.578125 644.863281 C 544.765625 645.566406 548.046875 646.425781 550 646.738281 L 553.515625 647.207031 L 553.515625 641.503906 C 553.59375 634.390625 556.171875 628.683594 562.421875 621.964844 C 570.9375 612.742188 587.03125 608.519531 596.171875 613.054688 C 597.578125 613.757812 598.828125 614.148438 599.0625 613.914062 C 599.296875 613.757812 599.609375 610.242188 599.84375 606.175781 C 600.234375 597.890625 600.859375 598.59375 592.65625 597.1875 C 586.484375 596.09375 575.546875 596.25 571.015625 597.421875 Z M 571.015625 597.421875 "/>
<path style=" stroke:none;fill-rule:nonzero;fill:rgb(47.45098%,33.333333%,28.235294%);fill-opacity:1;" d="M 496.953125 619.699219 C 492.890625 626.027344 477.8125 640.097656 471.484375 643.378906 C 455.46875 651.742188 436.484375 653.851562 425.546875 648.378906 L 421.640625 646.503906 L 420.234375 648.144531 C 419.453125 649.085938 417.578125 652.210938 416.015625 655.101562 L 413.28125 660.261719 L 417.5 661.902344 C 426.953125 665.417969 431.328125 666.199219 442.1875 666.199219 C 450.546875 666.199219 454.0625 665.808594 459.140625 664.480469 C 471.5625 661.121094 483.671875 655.023438 494.375 646.816406 L 500 642.441406 L 505.625 646.816406 C 516.328125 655.023438 528.4375 661.121094 540.859375 664.480469 C 545.9375 665.808594 549.453125 666.199219 557.8125 666.199219 C 568.671875 666.199219 571.171875 665.730469 581.09375 662.292969 L 586.71875 660.261719 L 583.984375 655.023438 C 582.421875 652.210938 580.546875 649.085938 579.765625 648.144531 L 578.359375 646.503906 L 574.453125 648.378906 C 563.515625 653.851562 544.53125 651.742188 528.515625 643.378906 C 522.265625 640.097656 507.03125 625.949219 502.96875 619.621094 C 501.640625 617.585938 500.234375 615.867188 499.921875 615.867188 C 499.609375 615.867188 498.28125 617.585938 496.953125 619.699219 Z M 496.953125 619.699219 "/>
<path style=" stroke:none;fill-rule:nonzero;fill:rgb(47.45098%,33.333333%,28.235294%);fill-opacity:1;" d="M 495.3125 649.867188 C 489.453125 657.835938 483.984375 667.527344 481.953125 673.46875 C 481.09375 676.203125 480.46875 678.628906 480.703125 678.863281 C 480.859375 679.097656 483.28125 678.863281 486.015625 678.390625 C 488.75 678 492.5 677.609375 494.21875 677.609375 C 497.109375 677.609375 497.578125 677.296875 498.4375 675.265625 C 498.984375 673.9375 499.6875 672.921875 500 672.921875 C 500.3125 672.921875 501.015625 673.9375 501.5625 675.265625 C 502.421875 677.296875 502.890625 677.609375 505.78125 677.609375 C 507.5 677.609375 511.25 678 513.984375 678.390625 C 516.71875 678.863281 519.140625 679.097656 519.375 678.863281 C 520.15625 678 515.390625 666.433594 511.640625 660.261719 C 507.8125 653.929688 500.78125 644.082031 500 644.003906 C 499.765625 644.003906 497.65625 646.660156 495.3125 649.867188 Z M 495.3125 649.867188 "/>
<path style=" stroke:none;fill-rule:nonzero;fill:rgb(47.45098%,33.333333%,28.235294%);fill-opacity:1;" d="M 369.21875 350.292969 C 366.015625 359.125 365.46875 369.285156 367.65625 376.789062 C 368.90625 381.164062 373.203125 389.839844 375.625 392.96875 L 376.953125 394.6875 L 381.328125 393.203125 C 383.75 392.421875 386.796875 391.167969 388.125 390.464844 L 390.625 389.214844 L 387.890625 385.621094 C 384.53125 381.320312 382.8125 375.617188 382.8125 369.207031 L 382.8125 364.285156 L 387.1875 365.769531 C 389.609375 366.628906 392.734375 368.035156 394.140625 368.894531 C 396.71875 370.457031 401.171875 375.148438 402.8125 377.960938 C 403.671875 379.367188 403.828125 379.367188 405.859375 377.492188 C 407.03125 376.398438 409.21875 373.898438 410.703125 371.867188 L 413.4375 368.113281 L 411.015625 365.066406 C 406.875 359.828125 399.6875 353.734375 395 351.464844 C 389.53125 348.808594 381.796875 347.011719 375.234375 347.011719 L 370.46875 347.011719 Z M 369.21875 350.292969 "/>
<path style=" stroke:none;fill-rule:nonzero;fill:rgb(47.45098%,33.333333%,28.235294%);fill-opacity:1;" d="M 614.375 348.183594 C 605 350.214844 596.015625 356.234375 588.984375 365.066406 L 586.5625 368.113281 L 589.296875 371.867188 C 590.78125 373.898438 592.96875 376.398438 594.140625 377.492188 C 596.171875 379.367188 596.328125 379.367188 597.1875 377.960938 C 598.828125 375.148438 603.28125 370.457031 605.859375 368.894531 C 607.265625 368.035156 610.390625 366.628906 612.8125 365.769531 L 617.1875 364.285156 L 617.1875 369.363281 C 617.1875 375.460938 615 382.105469 611.71875 386.246094 L 609.375 389.136719 L 611.796875 390.464844 C 613.203125 391.167969 616.25 392.421875 618.671875 393.203125 L 623.046875 394.6875 L 624.375 392.96875 C 626.796875 389.839844 631.09375 381.164062 632.34375 376.789062 C 634.53125 369.285156 633.984375 359.125 630.78125 350.292969 L 629.53125 347.011719 L 624.375 347.089844 C 621.484375 347.089844 616.953125 347.636719 614.375 348.183594 Z M 614.375 348.183594 "/>
<path style=" stroke:none;fill-rule:nonzero;fill:rgb(47.45098%,33.333333%,28.235294%);fill-opacity:1;" d="M 3.125 365.066406 C 15 372.648438 37.03125 379.914062 53.515625 381.714844 C 57.1875 382.105469 57.34375 382.105469 55.859375 380.929688 C 52.890625 378.664062 38.515625 372.101562 31.328125 369.675781 C 23.90625 367.253906 12.34375 364.753906 4.6875 363.816406 L 0.390625 363.347656 Z M 3.125 365.066406 "/>
<path style=" stroke:none;fill-rule:nonzero;fill:rgb(47.45098%,33.333333%,28.235294%);fill-opacity:1;" d="M 987.890625 364.910156 C 977.8125 366.707031 967.578125 369.675781 959.296875 373.195312 C 952.421875 376.164062 942.65625 381.320312 943.125 381.792969 C 943.671875 382.417969 956.328125 380.460938 963.4375 378.664062 C 974.375 375.929688 988.75 370.066406 997.03125 364.988281 C 999.53125 363.503906 999.53125 363.425781 997.65625 363.503906 C 996.5625 363.503906 992.1875 364.207031 987.890625 364.910156 Z M 987.890625 364.910156 "/>
<path style=" stroke:none;fill-rule:nonzero;fill:rgb(47.45098%,33.333333%,28.235294%);fill-opacity:1;" d="M 90.625 381.085938 C 81.796875 382.183594 71.09375 384.527344 69.609375 385.777344 C 68.90625 386.402344 75.546875 394.296875 81.25 399.609375 C 90.46875 408.363281 98.984375 413.757812 108.28125 416.882812 C 117.265625 419.929688 125.15625 421.652344 133.203125 422.355469 C 141.015625 423.058594 141.328125 422.589844 137.890625 415.945312 C 133.515625 407.347656 133.671875 406.722656 140.625 402.738281 C 143.828125 400.9375 147.03125 399.140625 147.65625 398.75 C 148.59375 398.203125 147.578125 397.1875 143.203125 394.375 C 136.25 389.917969 129.53125 386.871094 119.6875 383.746094 C 113.359375 381.714844 110.546875 381.242188 102.734375 381.007812 C 97.578125 380.851562 92.109375 380.929688 90.625 381.085938 Z M 117.65625 400.546875 C 122.8125 401.722656 131.71875 405.394531 131.09375 406.019531 C 130.390625 406.722656 118.984375 403.441406 115.078125 401.410156 C 110.703125 399.140625 111.09375 398.984375 117.65625 400.546875 Z M 117.65625 400.546875 "/>
<path style=" stroke:none;fill-rule:nonzero;fill:rgb(47.45098%,33.333333%,28.235294%);fill-opacity:1;" d="M 890.234375 381.085938 C 886.171875 381.714844 873.046875 386.011719 867.65625 388.433594 C 861.875 391.011719 851.5625 397.421875 851.640625 398.359375 C 851.640625 398.75 854.53125 400.390625 857.96875 402.113281 C 861.484375 403.832031 864.6875 405.863281 865.078125 406.566406 C 865.703125 407.503906 865.078125 409.457031 862.578125 414.695312 C 860.078125 419.929688 859.53125 421.652344 860.3125 422.199219 C 862.8125 423.839844 879.53125 421.027344 891.71875 416.882812 C 901.015625 413.757812 909.53125 408.363281 918.75 399.609375 C 924.453125 394.296875 931.09375 386.402344 930.390625 385.777344 C 929.6875 385.152344 921.796875 382.964844 917.578125 382.183594 C 912.421875 381.242188 893.984375 380.539062 890.234375 381.085938 Z M 884.921875 401.410156 C 881.015625 403.441406 869.609375 406.722656 868.90625 406.019531 C 868.28125 405.472656 877.109375 401.722656 881.953125 400.546875 C 888.359375 398.984375 889.140625 399.21875 884.921875 401.410156 Z M 884.921875 401.410156 "/>
<path style=" stroke:none;fill-rule:nonzero;fill:rgb(47.45098%,33.333333%,28.235294%);fill-opacity:1;" d="M 174.609375 395.78125 C 161.875 397.734375 154.296875 400 144.375 404.925781 C 138.671875 407.816406 138.359375 408.050781 139.0625 409.847656 C 143.90625 422.746094 157.96875 439.3125 173.515625 450.410156 C 182.265625 456.664062 199.84375 465.652344 210 468.933594 C 218.203125 471.671875 231.25 474.71875 231.875 474.015625 C 232.578125 473.3125 230.546875 451.820312 228.984375 444.394531 L 227.578125 437.4375 L 235.546875 429.542969 C 243.4375 421.730469 252.34375 411.414062 252.34375 410.082031 C 252.34375 409.066406 241.875 404.535156 232.1875 401.410156 C 214.765625 395.78125 190.46875 393.4375 174.609375 395.78125 Z M 192.578125 412.273438 C 197.96875 413.679688 200.46875 415.242188 202.96875 418.914062 C 206.5625 424.308594 204.296875 433.53125 198.515625 436.734375 C 190.859375 441.035156 179.53125 436.8125 167.890625 425.246094 C 164.21875 421.574219 160.703125 417.742188 160.234375 416.726562 C 159.375 415.164062 159.53125 414.929688 161.484375 414.148438 C 169.296875 411.097656 184.453125 410.238281 192.578125 412.273438 Z M 192.578125 412.273438 "/>
<path style=" stroke:none;fill-rule:nonzero;fill:rgb(47.45098%,33.333333%,28.235294%);fill-opacity:1;" d="M 795.3125 395.546875 C 785 396.796875 776.40625 398.671875 767.578125 401.488281 C 758.046875 404.535156 747.65625 409.066406 747.65625 410.160156 C 747.65625 411.492188 760.15625 425.792969 766.25 431.5 L 772.421875 437.28125 L 771.015625 444.316406 C 769.453125 451.820312 767.421875 473.3125 768.125 474.015625 C 768.75 474.71875 781.796875 471.671875 790 468.933594 C 800.15625 465.652344 817.734375 456.664062 826.484375 450.410156 C 842.03125 439.3125 856.09375 422.746094 860.9375 409.847656 C 861.640625 408.050781 861.328125 407.816406 855.625 404.925781 C 842.5 398.4375 830.3125 395.625 812.890625 395.078125 C 806.484375 394.921875 798.515625 395.078125 795.3125 395.546875 Z M 831.25 412.195312 C 834.0625 412.820312 837.34375 413.679688 838.515625 414.148438 C 840.46875 414.929688 840.625 415.164062 839.765625 416.726562 C 839.296875 417.742188 835.78125 421.574219 832.109375 425.246094 C 826.875 430.402344 823.90625 432.671875 818.75 435.25 C 812.734375 438.296875 811.640625 438.53125 807.421875 438.296875 C 801.796875 437.984375 799.140625 436.265625 796.875 431.734375 C 793.828125 425.558594 795.390625 418.835938 800.78125 414.929688 C 805.625 411.335938 820.9375 410.003906 831.25 412.195312 Z M 831.25 412.195312 "/>
<path style=" stroke:none;fill-rule:nonzero;fill:rgb(47.45098%,33.333333%,28.235294%);fill-opacity:1;" d="M 253.90625 425.949219 C 245.703125 429.386719 230.625 436.8125 230 437.828125 C 229.0625 439.234375 245.78125 468.933594 247.5 468.933594 C 248.359375 468.933594 257.578125 457.992188 261.25 452.679688 L 264.296875 448.222656 L 263.75 437.671875 C 263.203125 426.886719 262.65625 422.824219 261.796875 422.902344 C 261.5625 422.902344 257.96875 424.308594 253.90625 425.949219 Z M 253.90625 425.949219 "/>
<path style=" stroke:none;fill-rule:nonzero;fill:rgb(47.45098%,33.333333%,28.235294%);fill-opacity:1;" d="M 737.1875 424.933594 C 736.953125 426.183594 736.5625 431.890625 736.25 437.671875 L 735.703125 448.222656 L 738.75 452.679688 C 742.34375 457.992188 751.640625 468.933594 752.5 468.933594 C 753.515625 468.933594 760 458.382812 765.46875 447.910156 C 771.40625 436.65625 771.953125 438.21875 759.765625 432.203125 C 753.515625 429.152344 738.828125 422.824219 737.890625 422.824219 C 737.734375 422.824219 737.5 423.761719 737.1875 424.933594 Z M 737.1875 424.933594 "/>
<path style=" stroke:none;fill-rule:nonzero;fill:rgb(47.45098%,33.333333%,28.235294%);fill-opacity:1;" d="M 271.484375 430.167969 C 266.953125 440.09375 257.8125 469.558594 257.8125 474.328125 C 257.8125 475.265625 259.375 475.34375 267.03125 474.953125 C 282.03125 474.171875 299.0625 470.65625 309.609375 466.199219 C 312.5 465.027344 312.5 464.949219 311.328125 462.761719 C 309.21875 458.539062 300.9375 448.222656 294.765625 441.972656 C 288.671875 435.71875 275.703125 424.386719 274.6875 424.386719 C 274.375 424.386719 272.96875 426.964844 271.484375 430.167969 Z M 271.484375 430.167969 "/>
<path style=" stroke:none;fill-rule:nonzero;fill:rgb(47.45098%,33.333333%,28.235294%);fill-opacity:1;" d="M 717.578125 430.402344 C 705.546875 440.640625 692.578125 455.179688 688.671875 462.761719 C 687.5 464.949219 687.5 465.027344 690.390625 466.199219 C 700.9375 470.65625 717.96875 474.171875 733.046875 474.953125 C 740.625 475.34375 742.1875 475.265625 742.1875 474.328125 C 742.109375 467.214844 727.578125 424.308594 725.234375 424.386719 C 724.921875 424.386719 721.484375 427.121094 717.578125 430.402344 Z M 717.578125 430.402344 "/>
<path style=" stroke:none;fill-rule:nonzero;fill:rgb(47.45098%,33.333333%,28.235294%);fill-opacity:1;" d="M 236.71875 512.46875 C 222.8125 527.550781 208.4375 555.375 203.828125 576.007812 C 202.578125 581.792969 201.71875 595.546875 202.65625 595.546875 C 202.890625 595.546875 205.9375 594.140625 209.453125 592.421875 C 213.046875 590.703125 216.328125 589.292969 216.71875 589.292969 C 217.1875 589.292969 218.125 586.324219 218.828125 582.652344 C 221.953125 566.550781 231.40625 554.90625 239.453125 557.171875 C 243.828125 558.34375 247.34375 561.472656 249.6875 566.394531 C 253.4375 574.054688 253.203125 589.453125 249.140625 602.660156 L 247.65625 607.660156 L 249.375 609.066406 C 250.390625 609.851562 253.203125 612.117188 255.703125 614.148438 C 261.40625 618.757812 268.671875 627.667969 271.5625 633.609375 C 275.625 641.816406 274.140625 652.523438 268.515625 655.492188 C 262.109375 658.777344 249.296875 654.398438 239.6875 645.644531 L 234.609375 640.957031 L 229.21875 641.972656 C 226.25 642.597656 222.5 643.300781 220.859375 643.613281 L 217.890625 644.082031 L 219.296875 646.582031 C 220.078125 647.910156 223.671875 652.054688 227.34375 655.726562 C 238.4375 666.902344 258.515625 679.175781 276.640625 685.816406 C 284.0625 688.554688 298.203125 692.460938 300.625 692.460938 C 303.203125 692.460938 300.078125 664.949219 295.703125 649.867188 C 291.40625 634.78125 280.546875 616.648438 269.765625 606.332031 L 265.078125 601.957031 L 266.171875 596.953125 C 268.125 588.667969 267.8125 569.441406 265.703125 559.59375 C 262.578125 545.136719 255.46875 528.722656 245.546875 513.25 L 241.640625 507.152344 Z M 236.71875 512.46875 "/>
<path style=" stroke:none;fill-rule:nonzero;fill:rgb(47.45098%,33.333333%,28.235294%);fill-opacity:1;" d="M 754.0625 513.796875 C 735.15625 544.199219 728.59375 571.398438 733.90625 596.953125 L 734.921875 601.957031 L 730.234375 606.332031 C 719.453125 616.648438 708.59375 634.78125 704.296875 649.867188 C 701.5625 659.402344 699.296875 672.84375 698.671875 683.550781 C 698.28125 691.210938 698.359375 692.460938 699.375 692.460938 C 701.796875 692.460938 715.9375 688.554688 723.359375 685.816406 C 741.484375 679.175781 761.5625 666.902344 772.65625 655.726562 C 776.328125 652.054688 779.921875 647.910156 780.703125 646.582031 L 782.109375 644.082031 L 779.140625 643.613281 C 777.5 643.300781 773.75 642.597656 770.78125 641.972656 L 765.390625 640.957031 L 760.3125 645.644531 C 750.703125 654.398438 737.890625 658.777344 731.484375 655.492188 C 728.046875 653.695312 726.171875 649.320312 726.171875 643.222656 C 726.171875 639.003906 726.640625 637.203125 728.671875 633.0625 C 732.8125 624.777344 737.421875 619.699219 750.625 609.066406 L 752.34375 607.660156 L 750.859375 602.738281 C 748.359375 594.609375 747.421875 587.652344 747.734375 579.132812 C 748.046875 572.101562 748.359375 570.304688 750.234375 566.394531 C 752.65625 561.472656 756.171875 558.34375 760.546875 557.171875 C 768.59375 554.90625 778.046875 566.550781 781.171875 582.652344 C 781.875 586.324219 782.8125 589.292969 783.28125 589.292969 C 783.671875 589.292969 786.953125 590.703125 790.546875 592.421875 C 794.0625 594.140625 797.109375 595.546875 797.34375 595.546875 C 798.28125 595.546875 797.421875 581.792969 796.171875 576.007812 C 791.484375 555.21875 776.953125 527.160156 763.203125 512.46875 L 758.203125 507.152344 Z M 754.0625 513.796875 "/>
<path style=" stroke:none;fill-rule:nonzero;fill:rgb(47.45098%,33.333333%,28.235294%);fill-opacity:1;" d="M 316.25 562.253906 C 306.875 566.316406 300.9375 571.320312 295.78125 579.367188 C 293.984375 582.261719 290.625 591.25 290.625 593.125 C 290.625 595 299.296875 600.863281 305.859375 603.363281 C 312.109375 605.785156 325.15625 606.019531 332.734375 603.753906 L 337.734375 602.347656 L 337.265625 595.703125 C 336.953125 592.03125 336.484375 588.746094 336.09375 588.355469 C 335.703125 587.964844 334.0625 588.277344 332.34375 588.980469 C 327.34375 591.09375 315.859375 590.46875 311.796875 587.808594 C 308.984375 586.011719 319.6875 575.304688 326.015625 573.585938 C 327.8125 573.117188 329.765625 572.570312 330.3125 572.414062 C 331.015625 572.179688 330.9375 571.398438 329.765625 569.207031 C 327.890625 565.457031 323.59375 559.59375 322.8125 559.59375 C 322.5 559.59375 319.53125 560.769531 316.25 562.253906 Z M 316.25 562.253906 "/>
<path style=" stroke:none;fill-rule:nonzero;fill:rgb(47.45098%,33.333333%,28.235294%);fill-opacity:1;" d="M 674.21875 562.878906 C 670.390625 568.113281 668.515625 572.101562 669.6875 572.414062 C 670.234375 572.570312 672.1875 573.117188 673.984375 573.585938 C 680.3125 575.304688 691.015625 586.011719 688.203125 587.808594 C 684.140625 590.46875 672.65625 591.09375 667.65625 588.980469 C 665.9375 588.277344 664.296875 587.964844 663.90625 588.355469 C 663.515625 588.746094 663.046875 592.03125 662.734375 595.703125 L 662.265625 602.347656 L 667.265625 603.753906 C 674.84375 606.019531 687.890625 605.785156 694.140625 603.363281 C 700.703125 600.863281 709.375 595 709.375 593.125 C 709.375 590.9375 705.859375 582.105469 703.4375 578.273438 C 699.6875 572.335938 693.4375 566.863281 686.484375 563.582031 C 676.796875 558.96875 677.03125 558.96875 674.21875 562.878906 Z M 674.21875 562.878906 "/>
<path style=" stroke:none;fill-rule:nonzero;fill:rgb(47.45098%,33.333333%,28.235294%);fill-opacity:1;" d="M 230.859375 590.078125 C 214.765625 592.34375 202.109375 598.59375 189.0625 610.867188 C 183.046875 616.648438 171.875 630.328125 171.875 632.125 C 171.875 633.21875 184.296875 637.203125 193.359375 639.003906 C 198.046875 639.941406 203.75 640.410156 210.546875 640.332031 C 222.578125 640.253906 232.109375 638.140625 241.484375 633.453125 C 246.953125 630.71875 257.8125 623.136719 257.8125 622.121094 C 257.8125 621.808594 255.78125 619.855469 253.359375 617.742188 C 245.546875 611.101562 246.5625 611.335938 242.5 615.085938 C 235.078125 621.886719 225.3125 624.855469 209.609375 624.855469 C 203.515625 624.855469 198.28125 624.542969 197.96875 624.230469 C 196.5625 622.824219 209.6875 613.132812 218.28125 609.222656 C 225.859375 605.707031 231.09375 604.691406 238.046875 605.082031 C 243.75 605.472656 243.90625 605.472656 244.6875 603.441406 C 245.46875 601.410156 247.65625 590.625 247.421875 590.3125 C 246.796875 589.6875 234.6875 589.53125 230.859375 590.078125 Z M 230.859375 590.078125 "/>
<path style=" stroke:none;fill-rule:nonzero;fill:rgb(47.45098%,33.333333%,28.235294%);fill-opacity:1;" d="M 755.234375 589.84375 C 752.734375 590.15625 752.421875 590.390625 752.734375 591.875 C 752.890625 592.8125 753.4375 595.390625 753.828125 597.5 C 755.390625 605.628906 755.3125 605.550781 761.953125 605.082031 C 769.375 604.613281 774.375 605.785156 783.203125 610.007812 C 789.609375 613.132812 802.34375 622.199219 802.34375 623.761719 C 802.34375 624.777344 793.75 625.480469 786.015625 625.011719 C 773.4375 624.230469 763.828125 620.871094 757.5 615.085938 C 753.4375 611.335938 754.453125 611.101562 746.71875 617.742188 C 744.21875 619.855469 742.1875 621.808594 742.1875 622.121094 C 742.1875 623.292969 753.28125 630.875 759.375 633.765625 C 777.34375 642.363281 797.421875 642.832031 820.9375 635.328125 C 824.84375 634 828.125 632.59375 828.125 632.125 C 828.125 630.328125 816.953125 616.648438 810.9375 610.867188 C 800 600.628906 789.21875 594.453125 777.109375 591.640625 C 770.390625 590.078125 760.234375 589.214844 755.234375 589.84375 Z M 755.234375 589.84375 "/>
<path style=" stroke:none;fill-rule:nonzero;fill:rgb(47.45098%,33.333333%,28.235294%);fill-opacity:1;" d="M 215.78125 614.695312 C 210.703125 617.585938 207.8125 619.777344 207.8125 620.714844 C 207.8125 621.574219 220.703125 621.183594 221.5625 620.324219 C 222.03125 619.933594 220.15625 612.742188 219.53125 612.742188 C 219.296875 612.742188 217.65625 613.601562 215.78125 614.695312 Z M 215.78125 614.695312 "/>
<path style=" stroke:none;fill-rule:nonzero;fill:rgb(47.45098%,33.333333%,28.235294%);fill-opacity:1;" d="M 779.6875 614.070312 C 779.6875 614.851562 779.140625 616.414062 778.59375 617.585938 C 777.8125 618.992188 777.734375 619.933594 778.28125 620.246094 C 779.765625 621.183594 792.1875 621.574219 792.1875 620.714844 C 792.1875 619.777344 787.1875 616.179688 783.046875 613.992188 C 779.921875 612.429688 779.6875 612.429688 779.6875 614.070312 Z M 779.6875 614.070312 "/>
<path style=" stroke:none;fill-rule:nonzero;fill:rgb(47.45098%,33.333333%,28.235294%);fill-opacity:1;" d="M 373.4375 688.160156 C 363.359375 691.523438 350.46875 697.851562 340.625 704.261719 L 333.28125 709.03125 L 338.203125 713.484375 C 350.703125 724.503906 375.78125 741.308594 377.34375 739.667969 C 378.359375 738.574219 381.875 723.410156 383.203125 714.734375 C 383.828125 710.4375 384.375 702.074219 384.375 696.132812 C 384.375 686.441406 384.21875 685.425781 383.046875 685.425781 C 382.265625 685.425781 377.96875 686.675781 373.4375 688.160156 Z M 373.4375 688.160156 "/>
<path style=" stroke:none;fill-rule:nonzero;fill:rgb(47.45098%,33.333333%,28.235294%);fill-opacity:1;" d="M 615.625 696.523438 C 615.625 702.777344 616.171875 710.984375 616.796875 715.125 C 618.4375 724.972656 621.796875 739.199219 622.734375 739.824219 C 624.6875 740.996094 649.765625 724.113281 661.796875 713.484375 L 666.71875 709.03125 L 659.765625 704.496094 C 649.765625 697.929688 636.953125 691.679688 626.796875 688.316406 C 622.03125 686.753906 617.578125 685.425781 616.875 685.425781 C 615.78125 685.425781 615.625 686.910156 615.625 696.523438 Z M 615.625 696.523438 "/>
<path style=" stroke:none;fill-rule:nonzero;fill:rgb(47.45098%,33.333333%,28.235294%);fill-opacity:1;" d="M 482.421875 702.542969 C 478.125 703.792969 477.734375 704.105469 477.5 706.371094 C 477.03125 711.140625 479.53125 722.316406 482.34375 728.019531 C 485.15625 733.648438 491.328125 740.527344 497.109375 744.433594 L 500 746.464844 L 502.96875 744.433594 C 508.671875 740.527344 514.84375 733.648438 517.65625 728.019531 C 520.46875 722.316406 522.96875 711.140625 522.5 706.371094 C 522.265625 704.105469 521.953125 703.871094 517.1875 702.464844 C 514.375 701.683594 511.171875 701.058594 510 701.058594 C 508.046875 701.058594 507.96875 701.214844 508.359375 704.105469 C 508.59375 705.824219 508.203125 709.03125 507.421875 711.6875 C 506.09375 716.375 501.40625 724.503906 500 724.503906 C 498.59375 724.503906 493.90625 716.375 492.578125 711.6875 C 491.796875 709.03125 491.40625 705.824219 491.640625 704.105469 C 492.03125 701.136719 491.953125 701.058594 489.609375 701.136719 C 488.203125 701.136719 485 701.761719 482.421875 702.542969 Z M 482.421875 702.542969 "/>
<path style=" stroke:none;fill-rule:nonzero;fill:rgb(47.45098%,33.333333%,28.235294%);fill-opacity:1;" d="M 328.90625 725.050781 C 328.90625 730.601562 330.625 744.511719 332.109375 751.703125 L 332.96875 755.921875 L 336.953125 755.375 C 347.265625 754.125 366.09375 749.984375 367.5 748.65625 C 367.8125 748.34375 367.03125 746.152344 365.703125 743.730469 C 362.734375 738.652344 354.921875 727.472656 353.59375 726.691406 C 352.421875 725.832031 341.09375 722.394531 336.328125 721.378906 C 334.21875 720.988281 331.640625 720.441406 330.703125 720.207031 C 328.984375 719.816406 328.90625 719.972656 328.90625 725.050781 Z M 328.90625 725.050781 "/>
<path style=" stroke:none;fill-rule:nonzero;fill:rgb(47.45098%,33.333333%,28.235294%);fill-opacity:1;" d="M 665 721.066406 C 659.375 722.316406 647.65625 725.832031 646.40625 726.691406 C 645.078125 727.472656 637.265625 738.652344 634.296875 743.730469 C 632.96875 746.152344 632.1875 748.34375 632.5 748.65625 C 633.90625 749.984375 652.734375 754.125 663.046875 755.375 L 667.03125 755.921875 L 667.890625 751.703125 C 670.3125 739.746094 672.03125 719.738281 670.625 719.894531 C 670.234375 719.972656 667.734375 720.441406 665 721.066406 Z M 665 721.066406 "/>
<path style=" stroke:none;fill-rule:nonzero;fill:rgb(47.45098%,33.333333%,28.235294%);fill-opacity:1;" d="M 307.03125 731.695312 C 292.34375 748.734375 281.171875 770.851562 276.484375 792.109375 C 274.375 801.332031 273.75 819.777344 275.15625 827.28125 L 276.171875 832.75 L 279.296875 832.984375 C 283.4375 833.296875 296.171875 830.015625 303.984375 826.574219 C 323.4375 818.214844 341.796875 803.285156 355.859375 784.527344 C 361.5625 776.945312 368.515625 765.457031 367.890625 764.753906 C 366.484375 763.425781 340.390625 758.113281 335.078125 758.113281 L 332.03125 758.113281 L 328.125 750.0625 C 323.90625 741.308594 314.296875 725.285156 313.28125 725.285156 C 312.890625 725.285156 310.078125 728.179688 307.03125 731.695312 Z M 316.484375 777.257812 C 320.46875 779.839844 322.03125 782.417969 322.5 786.949219 C 322.96875 792.03125 321.015625 795.625 314.21875 802.035156 C 310.234375 805.785156 306.484375 808.289062 300.78125 811.179688 C 296.40625 813.367188 291.953125 815.164062 290.859375 815.164062 L 288.90625 815.164062 L 289.453125 808.445312 C 290.15625 799.847656 292.34375 792.03125 295.78125 785.386719 C 298.984375 779.292969 301.09375 777.179688 305.234375 775.617188 C 309.0625 774.210938 312.734375 774.757812 316.484375 777.257812 Z M 316.484375 777.257812 "/>
<path style=" stroke:none;fill-rule:nonzero;fill:rgb(47.45098%,33.333333%,28.235294%);fill-opacity:1;" d="M 681.5625 732.476562 C 679.0625 736.460938 674.921875 743.886719 672.421875 748.890625 L 667.890625 758.113281 L 664.921875 758.113281 C 659.609375 758.113281 633.515625 763.425781 632.109375 764.753906 C 631.484375 765.457031 638.4375 776.945312 644.140625 784.527344 C 658.203125 803.285156 676.5625 818.214844 696.015625 826.574219 C 703.828125 830.015625 716.5625 833.296875 720.703125 832.984375 L 723.828125 832.75 L 724.765625 827.671875 C 725.9375 821.261719 726.015625 807.429688 724.921875 800.082031 C 721.25 775.773438 710.15625 752.015625 692.96875 731.851562 C 689.921875 728.257812 687.109375 725.285156 686.71875 725.285156 C 686.328125 725.285156 683.984375 728.570312 681.5625 732.476562 Z M 693.90625 775.304688 C 698.125 776.476562 701.015625 779.292969 704.140625 785.230469 C 707.65625 792.03125 709.84375 799.847656 710.546875 808.445312 L 711.09375 815.164062 L 709.140625 815.164062 C 708.046875 815.164062 703.59375 813.367188 699.21875 811.179688 C 690.46875 806.800781 681.5625 799.222656 678.828125 793.90625 C 676.015625 788.359375 677.421875 781.792969 682.1875 778.199219 C 686.875 774.601562 689.21875 774.054688 693.90625 775.304688 Z M 693.90625 775.304688 "/>
<path style=" stroke:none;fill-rule:nonzero;fill:rgb(47.45098%,33.333333%,28.235294%);fill-opacity:1;" d="M 437.109375 758.972656 C 427.109375 759.832031 413.671875 762.488281 404.921875 765.222656 L 402.421875 766.003906 L 405.9375 772.023438 C 417.1875 791.171875 438.125 812.429688 456.09375 822.902344 C 461.40625 826.027344 468.90625 829.3125 472.96875 830.328125 C 474.84375 830.796875 475.15625 830.640625 474.6875 829.546875 C 474.453125 828.84375 473.75 824.933594 473.28125 820.871094 L 472.34375 813.445312 L 468.359375 811.492188 C 463.359375 808.992188 455.546875 802.738281 452.8125 799.144531 C 445.78125 789.921875 446.5625 782.574219 454.921875 778.277344 C 464.140625 773.585938 478.90625 777.023438 494.609375 787.496094 L 500 791.09375 L 505.390625 787.496094 C 512.34375 782.886719 521.015625 778.824219 527.34375 777.179688 C 541.796875 773.507812 554.375 780.542969 551.640625 790.703125 C 549.765625 797.660156 540.9375 806.800781 531.640625 811.492188 L 527.734375 813.445312 L 526.71875 821.027344 C 526.09375 825.246094 525.46875 829.15625 525.234375 829.78125 C 524.6875 831.109375 527.1875 830.640625 533.984375 827.828125 C 550.15625 821.261719 571.25 803.675781 585.3125 784.917969 C 592.265625 775.695312 597.34375 766.863281 596.40625 765.925781 C 596.015625 765.535156 592.1875 764.363281 587.890625 763.269531 C 555.859375 755.296875 529.84375 757.25 506.640625 769.289062 L 500 772.726562 L 493.359375 769.289062 C 481.796875 763.269531 471.796875 760.378906 457.890625 758.972656 C 449.0625 758.035156 447.5 758.035156 437.109375 758.972656 Z M 437.109375 758.972656 "/>
<path style=" stroke:none;fill-rule:nonzero;fill:rgb(47.45098%,33.333333%,28.235294%);fill-opacity:1;" d="M 481.40625 789.921875 C 478.203125 797.582031 477.03125 804.144531 477.03125 814.773438 C 477.03125 827.515625 479.296875 836.578125 485.546875 849.164062 C 489.296875 856.664062 498.90625 871.4375 500 871.4375 C 500.703125 871.4375 508.671875 859.792969 512.1875 853.695312 C 516.328125 846.347656 519.609375 837.910156 521.5625 829.625 C 523.671875 820.636719 523.4375 806.722656 521.171875 798.128906 C 519.453125 791.40625 517.265625 786.246094 516.328125 786.246094 C 515.46875 786.246094 506.015625 791.71875 504.53125 793.046875 C 503.28125 794.140625 503.28125 794.453125 505.078125 798.050781 C 509.921875 807.585938 508.828125 824.464844 502.578125 838.769531 C 501.484375 841.269531 500.3125 843.300781 500 843.300781 C 499.6875 843.300781 498.515625 841.269531 497.421875 838.769531 C 491.171875 824.464844 490.078125 807.585938 494.921875 798.050781 C 496.71875 794.453125 496.71875 794.140625 495.46875 793.046875 C 493.90625 791.640625 484.53125 786.246094 483.59375 786.246094 C 483.28125 786.246094 482.265625 787.890625 481.40625 789.921875 Z M 481.40625 789.921875 "/>
<path style=" stroke:none;fill-rule:nonzero;fill:rgb(47.45098%,33.333333%,28.235294%);fill-opacity:1;" d="M 496.40625 821.964844 C 497.34375 827.203125 499.21875 833.140625 500 833.140625 C 500.78125 833.140625 502.65625 827.203125 503.59375 821.964844 L 504.0625 819.074219 L 495.9375 819.074219 Z M 496.40625 821.964844 "/>
<path style=" stroke:none;fill-rule:nonzero;fill:rgb(47.45098%,33.333333%,28.235294%);fill-opacity:1;" d="M 266.171875 823.449219 C 258.515625 829 246.640625 843.066406 242.421875 851.507812 C 238.28125 859.714844 234.53125 874.171875 233.828125 884.488281 C 233.28125 893.007812 233.203125 893.007812 241.40625 889.570312 C 254.921875 883.941406 267.1875 875.1875 274.453125 865.964844 C 281.5625 856.980469 287.578125 846.035156 290.234375 837.128906 C 290.78125 835.328125 290.703125 835.25 287.8125 835.796875 C 286.09375 836.03125 282.265625 836.5 279.21875 836.734375 L 273.59375 837.285156 L 272.34375 831.734375 C 271.640625 828.6875 271.09375 825.167969 271.09375 823.839844 C 271.09375 822.589844 270.859375 821.339844 270.46875 821.105469 C 270.15625 820.949219 268.203125 821.964844 266.171875 823.449219 Z M 270.078125 843.769531 C 267.34375 848.304688 261.015625 856.117188 260.46875 855.570312 C 259.53125 854.632812 270.390625 839.394531 271.953125 839.394531 C 272.265625 839.394531 271.484375 841.347656 270.078125 843.769531 Z M 270.078125 843.769531 "/>
<path style=" stroke:none;fill-rule:nonzero;fill:rgb(47.45098%,33.333333%,28.235294%);fill-opacity:1;" d="M 729.375 821.183594 C 729.140625 821.496094 728.90625 822.667969 728.90625 823.917969 C 728.90625 825.167969 728.359375 828.6875 727.65625 831.734375 L 726.40625 837.285156 L 720.78125 836.734375 C 717.734375 836.5 713.90625 836.03125 712.1875 835.796875 C 709.296875 835.25 709.21875 835.328125 709.765625 837.128906 C 712.421875 846.035156 718.4375 856.980469 725.546875 865.964844 C 732.8125 875.1875 745.078125 883.941406 758.59375 889.570312 C 766.796875 893.007812 766.71875 893.007812 766.171875 884.488281 C 765.625 876.671875 762.890625 864.792969 759.6875 856.273438 C 755.546875 845.488281 743.515625 830.328125 733.125 822.980469 C 731.328125 821.730469 729.6875 820.949219 729.375 821.183594 Z M 732.578125 844.238281 C 736.71875 849.554688 740.078125 855.023438 739.53125 855.570312 C 739.375 855.726562 737.734375 854.164062 735.859375 851.976562 C 732.109375 847.601562 727.03125 839.394531 728.046875 839.394531 C 728.4375 839.394531 730.46875 841.582031 732.578125 844.238281 Z M 732.578125 844.238281 "/>
<path style=" stroke:none;fill-rule:nonzero;fill:rgb(47.45098%,33.333333%,28.235294%);fill-opacity:1;" d="M 217.5 910.75 C 213.203125 915.28125 207.5 922.082031 204.84375 925.910156 C 200.46875 932.320312 191.40625 948.5 191.40625 949.90625 C 191.40625 951 197.109375 945.683594 203.359375 938.730469 C 206.71875 935.054688 211.875 928.492188 214.765625 924.191406 C 220.3125 915.828125 226.09375 904.808594 225.625 903.402344 C 225.46875 902.933594 221.796875 906.214844 217.5 910.75 Z M 217.5 910.75 "/>
<path style=" stroke:none;fill-rule:nonzero;fill:rgb(47.45098%,33.333333%,28.235294%);fill-opacity:1;" d="M 774.21875 903.480469 C 774.21875 905.433594 780.9375 918.019531 785.9375 925.285156 C 792.5 934.898438 808.59375 952.328125 808.59375 949.90625 C 808.59375 948.265625 799.140625 931.773438 794.53125 925.207031 C 788.984375 917.238281 774.296875 901.605469 774.21875 903.480469 Z M 774.21875 903.480469 "/>
</g>
</svg>
