<?xml version="1.0" encoding="UTF-8"?>
<svg xmlns="http://www.w3.org/2000/svg" xmlns:xlink="http://www.w3.org/1999/xlink" width="499pt" height="489pt" viewBox="0 0 499 489" version="1.1">
<g id="surface1">
<path style=" stroke:none;fill-rule:nonzero;fill:rgb(100%,59.607843%,0%);fill-opacity:1;" d="M 270.160156 34.058594 C 266.457031 39.175781 262.015625 54.40625 260.609375 66.867188 C 259.285156 78.894531 258.777344 99.792969 259.636719 107.601562 C 260.726562 117.25 264.507812 125.882812 268.054688 126.78125 C 268.601562 126.9375 269.8125 126.9375 270.785156 126.78125 C 272.382812 126.585938 272.5 126.625 272.734375 127.5625 C 273.085938 128.851562 272.773438 132.09375 271.683594 138.847656 C 271.136719 142.285156 270.824219 146.113281 270.824219 149.199219 C 270.824219 153.574219 270.902344 154.394531 271.878906 157.011719 C 273.980469 162.636719 276.398438 166.230469 278.816406 167.128906 C 282.363281 168.453125 290.433594 153.496094 299.398438 129.085938 C 300.101562 127.132812 301.117188 124.789062 301.660156 123.851562 C 302.558594 122.328125 302.714844 122.210938 303.140625 122.835938 C 303.414062 123.1875 303.765625 124.242188 303.882812 125.101562 C 304.234375 127.210938 305.128906 128.890625 307.390625 131.9375 C 309.261719 134.398438 312.226562 136.585938 313.199219 136.195312 C 313.511719 136.078125 314.058594 136.195312 314.410156 136.46875 C 314.953125 136.859375 314.992188 137.171875 314.605469 138.496094 C 314.371094 139.316406 313.511719 141.035156 312.734375 142.246094 C 304.742188 154.550781 300.101562 163.261719 299.398438 167.441406 C 298.972656 170.015625 299.011719 170.328125 299.828125 171.890625 C 301.777344 175.796875 306.886719 179.351562 308.796875 178.179688 C 309.183594 177.90625 309.730469 177.710938 310.003906 177.710938 C 311.835938 177.632812 321.347656 169.039062 330.859375 158.847656 C 334.835938 154.589844 338.890625 150.566406 339.867188 149.902344 L 341.621094 148.691406 L 341.386719 151.816406 C 341.152344 154.941406 341.152344 155.019531 342.4375 156.699219 C 343.140625 157.597656 344.816406 159.160156 346.179688 160.136719 C 347.546875 161.113281 349.066406 162.246094 349.613281 162.714844 L 350.625 163.535156 L 349.847656 164.863281 C 349.417969 165.566406 347.3125 167.480469 345.207031 169.078125 C 331.757812 179.15625 322.710938 187.320312 321.035156 190.835938 C 320.101562 192.789062 320.101562 193.023438 320.609375 194.078125 C 321.464844 195.679688 323.21875 197.046875 326.457031 198.609375 C 329.886719 200.246094 332.03125 200.597656 335.109375 199.972656 C 338.265625 199.308594 345.402344 196.460938 353.898438 192.359375 C 361.386719 188.765625 363.761719 188.101562 364.035156 189.585938 C 364.113281 189.976562 363.957031 190.71875 363.722656 191.226562 C 362.59375 193.296875 366.53125 196.070312 375.148438 199.386719 C 380.488281 201.417969 380.136719 201.691406 367.621094 205.207031 C 360.175781 207.316406 350.585938 210.363281 341.308594 213.644531 C 332.457031 216.730469 328.132812 217.980469 327 217.746094 C 325.871094 217.472656 325.675781 217.238281 321.386719 209.972656 C 313.121094 195.914062 300.960938 185.5625 283.804688 178.023438 C 279.714844 176.1875 272.8125 174.234375 266.222656 172.984375 C 260.726562 171.96875 248.175781 171.539062 242.171875 172.203125 C 230.554688 173.453125 218.429688 177.4375 208.371094 183.257812 C 194.023438 191.578125 181.863281 205.558594 176.328125 220.089844 C 174.609375 224.542969 172.816406 230.007812 172.542969 231.570312 C 171.648438 236.6875 171.453125 251.6875 172.273438 255.632812 C 174.105469 264.847656 175.117188 268.011719 178.429688 274.964844 C 182.097656 282.582031 186.304688 288.480469 192.621094 294.84375 C 205.992188 308.28125 223.339844 316.210938 243.808594 318.320312 C 248.175781 318.75 248.992188 319.023438 249.851562 320.039062 C 250.242188 320.507812 250.164062 320.933594 249.34375 322.300781 C 247.003906 326.324219 245.757812 331.949219 244.355469 345.074219 C 243.183594 355.8125 243.066406 382.023438 244.160156 389.988281 C 245.09375 396.628906 246.808594 404.792969 248.5625 410.613281 C 250.046875 415.648438 250.398438 416.507812 252.269531 419.242188 C 253.203125 420.648438 253.671875 421.039062 254.527344 421.039062 C 258.386719 421.039062 261.820312 411.199219 263.730469 394.871094 C 266.691406 368.9375 263.769531 336.167969 257.257812 323.238281 C 255.777344 320.3125 255.699219 320.078125 256.359375 319.609375 C 257.375 318.867188 259.246094 318.398438 263.925781 317.734375 C 285.523438 314.53125 303.53125 304.0625 317.605469 286.488281 C 320.453125 282.933594 324.429688 275.628906 326.457031 270.238281 C 327.742188 266.800781 328.910156 264.886719 329.925781 264.574219 C 332.496094 263.753906 337.175781 264.417969 354.289062 268.128906 C 371.25 271.761719 374.328125 272.269531 381.65625 272.503906 C 387.230469 272.660156 389.023438 272.582031 395.300781 271.683594 C 408.207031 269.808594 415.339844 267.972656 419.550781 265.433594 C 421.851562 264.066406 423.175781 262.152344 422.824219 260.707031 C 422.550781 259.695312 419.589844 257.507812 416.742188 256.296875 C 411.675781 254.148438 399.628906 250.828125 392.417969 249.578125 C 383.136719 248.015625 366.257812 248.132812 347.9375 249.96875 C 337.449219 251.023438 333.746094 251.023438 332.378906 249.929688 C 331.40625 249.148438 331.367188 248.953125 331.367188 245.359375 C 331.328125 242.078125 331.054688 239.382812 329.925781 231.296875 C 329.652344 229.304688 330.394531 228.253906 332.304688 227.902344 C 332.964844 227.746094 337.214844 228.214844 341.699219 228.917969 C 349.144531 230.085938 350.742188 230.203125 359.242188 230.242188 C 365.128906 230.242188 368.871094 230.4375 369.339844 230.710938 C 370.039062 231.101562 369.960938 231.21875 368.441406 232.859375 C 366.960938 234.460938 366.84375 234.8125 366.84375 236.726562 C 366.84375 239.34375 367.464844 240.320312 369.921875 241.570312 C 372.496094 242.859375 379.046875 244.773438 384.113281 245.671875 C 391.675781 247.039062 398.03125 247.351562 414.988281 247.117188 C 428.125 246.960938 432.023438 246.765625 436.820312 246.101562 C 448.476562 244.5 458.066406 242.117188 461.066406 240.085938 C 464.65625 237.625 464.148438 234.460938 459.78125 232.117188 C 453.972656 228.996094 440.992188 226.574219 427.074219 225.949219 C 424.304688 225.792969 420.875 225.636719 419.472656 225.558594 C 418.070312 225.480469 413.15625 225.402344 408.554688 225.402344 C 403.722656 225.363281 399.941406 225.167969 399.589844 224.972656 C 398.652344 224.347656 400.214844 223.371094 406.414062 220.636719 C 412.960938 217.746094 414.792969 216.730469 417.171875 214.699219 C 418.847656 213.253906 418.964844 213.058594 418.652344 211.964844 C 418.457031 211.300781 417.875 210.285156 417.289062 209.699219 C 414.441406 206.691406 405.125 203.449219 393.9375 201.535156 C 391.441406 201.105469 388.984375 200.636719 388.402344 200.519531 L 387.386719 200.246094 L 388.285156 199.503906 C 388.753906 199.113281 391.714844 197.984375 394.871094 197.007812 C 411.832031 191.695312 417.054688 189.703125 426.488281 184.9375 C 434.792969 180.71875 440.601562 176.929688 442.902344 174.15625 C 444.5 172.242188 444.65625 171.929688 444.34375 170.796875 C 443.835938 168.882812 440.289062 165.957031 435.652344 163.652344 C 429.335938 160.488281 425.59375 160.371094 415.847656 163.105469 C 409.53125 164.824219 405.789062 166.269531 397.25 170.210938 C 393.507812 171.929688 389.492188 173.726562 388.363281 174.15625 C 386.375 174.9375 384.386719 175.25 384.386719 174.742188 C 384.386719 174.3125 386.140625 172.085938 388.753906 169.15625 C 390.234375 167.519531 391.792969 165.449219 392.222656 164.550781 C 392.652344 163.613281 393.195312 162.753906 393.429688 162.636719 C 394.015625 162.285156 393.507812 160.332031 392.378906 158.652344 C 391.167969 156.894531 386.921875 153.417969 384.347656 152.128906 C 382.242188 151.035156 379.941406 150.878906 375.925781 151.582031 C 373.003906 152.089844 372.105469 151.894531 372.652344 150.839844 C 373.160156 149.902344 378.304688 144.902344 382.046875 141.738281 C 386.84375 137.675781 395.730469 128.578125 399.199219 124.203125 C 401.03125 121.898438 403.019531 118.851562 403.800781 117.210938 C 405.046875 114.515625 405.085938 114.203125 404.65625 112.757812 C 404.035156 110.648438 402.785156 108.734375 400.214844 105.925781 C 397.210938 102.722656 395.808594 102.097656 393 102.722656 C 390.273438 103.308594 387.894531 104.519531 383.527344 107.484375 C 376.980469 111.898438 372.027344 116.273438 360.566406 127.796875 C 354.210938 134.203125 348.832031 139.433594 348.597656 139.433594 C 348.050781 139.433594 348.597656 137.832031 351.210938 131.976562 C 353.707031 126.3125 354.5625 122.71875 353.9375 120.765625 C 352.730469 116.859375 348.441406 111.15625 345.910156 109.984375 C 344.386719 109.320312 344.347656 109.320312 342.164062 110.296875 C 340.957031 110.804688 338.851562 112.054688 337.527344 112.992188 C 335.226562 114.632812 332.847656 116 332.34375 116 C 332.226562 116 332.148438 115.609375 332.148438 115.101562 C 332.148438 114.242188 332.691406 113.226562 339.125 101.355469 C 344.464844 91.472656 347.625 83.308594 348.011719 78.308594 C 348.207031 75.96875 348.050781 75.109375 347.039062 72.023438 C 344.738281 65.148438 342.242188 60.773438 339.945312 59.679688 C 338.695312 59.09375 338.65625 59.09375 336.394531 60.578125 C 332.964844 62.882812 327.3125 69.835938 322.75 77.410156 C 320.257812 81.511719 313.746094 94.792969 311.09375 101.160156 C 306.730469 111.625 305.636719 114.125 304.9375 115.023438 C 304.195312 115.960938 304.195312 115.921875 303.960938 110.804688 C 303.375 97.683594 298.855469 83.074219 294.722656 80.847656 C 293.511719 80.183594 290.121094 83.972656 286.769531 89.714844 C 283.804688 94.792969 282.480469 96.472656 281.933594 95.925781 C 281.777344 95.769531 281.664062 88.933594 281.625 80.730469 C 281.585938 69.835938 281.390625 64.171875 280.921875 59.679688 C 279.441406 45.347656 277.101562 35.972656 274.292969 33.003906 C 273.554688 32.261719 272.734375 31.636719 272.460938 31.675781 C 272.148438 31.675781 271.136719 32.769531 270.160156 34.058594 Z M 270.160156 34.058594 "/>
<path style=" stroke:none;fill-rule:nonzero;fill:rgb(100%,59.607843%,0%);fill-opacity:1;" d="M 204.511719 34.410156 C 201.160156 37.339844 197.378906 47.296875 196.675781 55.070312 C 196.089844 61.4375 197.691406 72.492188 201.199219 86.238281 C 203.539062 95.457031 204.082031 98.621094 203.5 99.011719 C 202.992188 99.324219 201.589844 97.722656 197.066406 91.785156 C 194.882812 88.894531 192.660156 86.160156 192.152344 85.730469 C 190.398438 84.246094 188.722656 83.191406 188.101562 83.191406 C 185.917969 83.191406 183.109375 86.394531 180.417969 91.980469 C 178.820312 95.378906 178.742188 95.652344 178.742188 99.207031 C 178.742188 101.238281 178.898438 104.558594 179.09375 106.511719 C 179.367188 109.554688 179.328125 110.140625 178.859375 110.140625 C 178.082031 110.140625 177.261719 108.929688 171.453125 99.285156 C 162.722656 84.753906 158.667969 79.285156 151.066406 71.671875 C 146.347656 66.945312 143.191406 64.914062 141.242188 65.421875 C 138.902344 66.007812 134.496094 70.8125 132.898438 74.523438 C 131.496094 77.722656 133.054688 83.894531 137.535156 92.800781 C 140.578125 98.855469 143.65625 103.816406 149.894531 112.679688 C 155.976562 121.3125 157.808594 124.359375 157.144531 124.789062 C 156.949219 124.867188 154.808594 123.734375 152.390625 122.210938 C 147.011719 118.890625 142.878906 116.820312 141.046875 116.546875 C 140.148438 116.390625 139.175781 116.546875 138.199219 117.015625 C 136.171875 117.953125 132.351562 121.585938 131.105469 123.734375 C 130.128906 125.375 130.089844 125.570312 130.519531 127.835938 C 130.832031 129.398438 131.960938 132.210938 133.792969 135.804688 C 135.316406 138.847656 136.484375 141.503906 136.328125 141.660156 C 135.742188 142.246094 132.46875 140.058594 125.140625 134.164062 C 116.445312 127.171875 111.535156 123.773438 105.453125 120.375 C 98.941406 116.742188 95.511719 115.492188 92.003906 115.453125 C 89.234375 115.414062 88.960938 115.492188 86.742188 116.9375 C 83.738281 118.851562 80.777344 121.703125 80.074219 123.304688 C 79.566406 124.476562 79.605469 124.75 80.699219 127.054688 C 82.84375 131.585938 93.015625 142.089844 101.125 148.183594 C 103.503906 149.980469 108.53125 153.496094 112.273438 156.035156 C 120.382812 161.542969 124.359375 164.472656 124.359375 164.902344 C 124.359375 165.253906 122.058594 164.980469 118.902344 164.238281 C 114.535156 163.183594 111.222656 162.792969 108.375 162.949219 C 105.921875 163.066406 104.90625 163.339844 102.101562 164.707031 C 98.085938 166.660156 95.082031 168.960938 94.265625 170.679688 C 93.640625 171.929688 93.679688 172.046875 94.652344 173.570312 C 95.199219 174.46875 97.460938 177.007812 99.644531 179.273438 C 101.828125 181.539062 103.816406 183.804688 104.089844 184.3125 L 104.554688 185.25 L 102.605469 184.976562 C 101.554688 184.859375 97.617188 183.765625 93.914062 182.554688 C 76.292969 176.96875 65.84375 175.523438 58.28125 177.632812 C 50.40625 179.859375 44.949219 182.59375 43.546875 185.015625 L 42.804688 186.304688 L 44.128906 187.90625 C 45.808594 190.015625 49.898438 192.671875 56.488281 196.03125 C 66.390625 201.066406 74.617188 203.996094 86.546875 206.769531 C 103.074219 210.558594 110.792969 211.222656 116.5625 209.386719 C 121.164062 207.902344 125.335938 206.027344 127.363281 204.542969 C 129.429688 203.019531 130.871094 200.988281 130.207031 200.558594 C 129.894531 200.363281 129.933594 200.089844 130.285156 199.699219 C 131.027344 198.800781 133.25 199.230469 139.371094 201.535156 C 146.738281 204.269531 153.558594 206.183594 156.875 206.457031 C 160.265625 206.730469 162.644531 205.949219 166.96875 203.136719 C 170.050781 201.105469 171.921875 199.074219 171.921875 197.710938 C 171.921875 196.34375 169.660156 193.453125 166.929688 191.226562 C 162.292969 187.476562 155.78125 182.984375 150.675781 180.015625 C 137.457031 172.28125 135.664062 171.148438 135.664062 170.25 C 135.664062 169.859375 138.003906 169.078125 138.433594 169.351562 C 138.941406 169.625 143.578125 167.050781 145.722656 165.292969 C 147.75 163.652344 149.699219 160.917969 149.699219 159.746094 C 149.699219 159.316406 149.972656 158.847656 150.285156 158.730469 C 151.414062 158.300781 153.285156 159.472656 157.066406 163.027344 C 167.28125 172.671875 174.570312 178.21875 179.171875 179.898438 C 181.511719 180.757812 181.550781 180.757812 183.1875 180.054688 C 185.175781 179.15625 188.605469 175.601562 190.050781 172.945312 C 190.90625 171.382812 191.0625 170.71875 190.867188 169.390625 C 190.242188 165.175781 185.253906 157.597656 174.105469 143.925781 C 171.6875 140.996094 170.441406 138.300781 171.179688 137.832031 C 171.492188 137.636719 172.273438 137.558594 172.933594 137.675781 C 175.3125 138.105469 178.742188 134.359375 182.019531 127.835938 C 182.679688 126.507812 183.382812 125.296875 183.65625 125.179688 C 184.589844 124.59375 186.226562 127.171875 191.21875 137.09375 C 199.210938 152.910156 203.808594 160.175781 207.515625 162.753906 C 209.308594 164.003906 209.386719 164.042969 210.515625 163.457031 C 212.230469 162.558594 214.140625 159.394531 216.011719 154.472656 C 219.054688 146.425781 218.976562 143.925781 215.582031 132.015625 C 214.492188 128.265625 213.554688 124.398438 213.515625 123.421875 C 213.441406 121.859375 213.515625 121.664062 214.335938 121.546875 C 214.882812 121.46875 215.621094 121.742188 216.167969 122.25 L 217.027344 123.070312 L 218.273438 122.015625 C 218.976562 121.429688 219.910156 120.179688 220.417969 119.164062 C 223.03125 114.046875 225.5625 102.253906 226.304688 91.980469 C 226.734375 85.925781 224.746094 72.84375 221.820312 62.335938 C 217.53125 47.0625 210.4375 33.199219 206.851562 33.199219 C 206.304688 33.199219 205.253906 33.707031 204.511719 34.410156 Z M 204.511719 34.410156 "/>
<path style=" stroke:none;fill-rule:nonzero;fill:rgb(100%,59.607843%,0%);fill-opacity:1;" d="M 238.78125 66.007812 C 235.660156 67.296875 233.242188 74.757812 231.332031 89.050781 C 230.359375 96.355469 230.359375 112.679688 231.332031 120.882812 C 232.855469 133.890625 236.519531 154.355469 238.117188 159.160156 C 239.089844 162.011719 240.960938 164.785156 241.9375 164.824219 C 245.171875 164.863281 248.488281 155.097656 250.4375 139.628906 C 253.320312 117.015625 251.644531 87.136719 246.769531 73.703125 C 244.355469 67.101562 241.859375 64.71875 238.78125 66.007812 Z M 238.78125 66.007812 "/>
<path style=" stroke:none;fill-rule:nonzero;fill:rgb(100%,59.607843%,0%);fill-opacity:1;" d="M 102.140625 215.402344 C 89.351562 216.691406 79.644531 218.800781 74.460938 221.378906 C 72.042969 222.550781 71.417969 223.097656 70.796875 224.347656 L 70.054688 225.871094 L 71.574219 227.199219 C 74.851562 230.046875 80.96875 232.3125 93.367188 235.320312 C 107.519531 238.796875 116.171875 239.695312 128.765625 239.03125 C 143.890625 238.25 160.03125 235.476562 165.332031 232.78125 C 166.8125 232 168.800781 229.8125 168.800781 228.917969 C 168.800781 228.253906 166.929688 226.652344 164.902344 225.597656 C 160.8125 223.449219 136.523438 217.550781 124.554688 215.753906 C 118.746094 214.894531 108.765625 214.738281 102.140625 215.402344 Z M 102.140625 215.402344 "/>
<path style=" stroke:none;fill-rule:nonzero;fill:rgb(100%,59.607843%,0%);fill-opacity:1;" d="M 69.234375 241.023438 C 54.578125 241.609375 42.0625 243.835938 34.113281 247.3125 C 30.875 248.71875 30.097656 249.34375 29.355469 251.0625 C 27.328125 255.90625 36.683594 259.886719 55.746094 262.308594 C 63 263.246094 79.917969 263.441406 89.15625 262.699219 C 97.96875 261.996094 103.308594 261.878906 103.308594 262.425781 C 103.308594 262.777344 99.957031 264.300781 91.222656 267.933594 C 84.285156 270.824219 79.214844 273.558594 77.109375 275.511719 L 75.277344 277.191406 L 75.941406 278.519531 C 76.917969 280.433594 79.761719 282.113281 85.140625 283.910156 C 91.027344 285.863281 98.085938 287.308594 104.671875 287.894531 C 110.285156 288.363281 111.339844 288.675781 109.976562 289.378906 C 109.507812 289.652344 104.167969 291.484375 98.125 293.476562 C 81.28125 299.0625 73.445312 302.382812 64.714844 307.617188 C 58.203125 311.484375 54.03125 314.648438 52.160156 317.148438 L 50.640625 319.179688 L 51.382812 320.585938 C 52.941406 323.628906 61.167969 327.847656 66.78125 328.472656 C 73.523438 329.253906 85.84375 325.894531 99.214844 319.6875 C 111.261719 314.0625 115.394531 312.539062 115.394531 313.671875 C 115.394531 313.867188 112.820312 316.757812 109.664062 320 C 103.660156 326.207031 101.828125 328.824219 102.296875 330.582031 C 102.839844 332.847656 107.441406 336.480469 111.964844 338.277344 C 114.886719 339.410156 117.695312 339.019531 125.957031 336.246094 C 129.777344 334.957031 133.015625 333.941406 133.171875 333.941406 C 133.871094 333.941406 130.597656 336.832031 121.4375 344.292969 C 106.15625 356.75 102.605469 360.148438 96.679688 368.117188 C 93.679688 372.179688 92.316406 374.484375 91.613281 376.789062 C 91.144531 378.273438 91.183594 378.664062 91.808594 380.03125 C 92.742188 382.136719 96.953125 386.082031 99.488281 387.253906 L 101.554688 388.191406 L 104.089844 387.488281 C 109.078125 386.121094 116.875 381.515625 123.386719 376.085938 C 125.335938 374.445312 129.699219 370.5 133.132812 367.296875 C 144.398438 356.789062 145.996094 355.421875 147.128906 355.421875 C 147.632812 355.421875 147.050781 357.257812 144.789062 362.53125 C 143.617188 365.265625 142.488281 368.664062 142.214844 370.148438 C 141.785156 372.804688 141.785156 372.882812 142.878906 374.914062 C 144.398438 377.648438 147.710938 381.046875 149.816406 381.984375 L 151.570312 382.761719 L 153.675781 381.828125 C 154.808594 381.320312 158.003906 379.210938 160.734375 377.140625 C 163.5 375.070312 165.996094 373.390625 166.308594 373.390625 C 167.710938 373.390625 166.230469 376.867188 160.617188 386.667969 C 152.3125 401.160156 148.53125 411.121094 148.53125 418.5 C 148.53125 421.273438 148.6875 421.976562 149.855469 424.359375 C 151.84375 428.5 154.378906 431.703125 156.445312 432.71875 L 158.199219 433.578125 L 160.5 432.015625 C 163.148438 430.257812 165.371094 427.914062 169.425781 422.523438 C 175.820312 414.125 180.378906 406.082031 186.152344 393.308594 C 190.085938 384.597656 192.152344 380.617188 192.503906 381.007812 C 192.621094 381.085938 192.738281 384.675781 192.738281 388.894531 C 192.816406 396.316406 192.855469 396.746094 193.910156 399.753906 C 196.207031 406.277344 199.5625 411.238281 202.054688 411.902344 C 202.953125 412.097656 203.382812 411.980469 204.082031 411.238281 C 204.589844 410.730469 205.488281 409.871094 206.070312 409.324219 C 207.046875 408.425781 208.644531 406.121094 213.632812 398.230469 C 215.464844 395.339844 216.207031 394.480469 216.792969 394.480469 C 217.414062 394.480469 217.183594 398.699219 216.167969 405.613281 C 214.6875 415.726562 214.296875 422.210938 214.53125 431.585938 C 214.726562 438.460938 214.921875 440.804688 215.738281 444.472656 C 218.234375 456.113281 221.976562 461.855469 226.109375 460.449219 C 229.460938 459.277344 234.609375 445.917969 236.402344 433.929688 C 237.453125 426.78125 237.921875 416.742188 237.6875 406.199219 C 237.140625 384.519531 233.710938 368 229.226562 365.578125 C 228.644531 365.265625 228.410156 365.34375 228.097656 365.929688 C 227.550781 366.945312 226.1875 366.554688 225.875 365.304688 C 225.71875 364.757812 225.71875 363.078125 225.875 361.554688 C 226.617188 353.195312 226.617188 349.839844 225.71875 345.308594 C 224.785156 340.230469 222.5625 332.691406 221.351562 330.269531 C 220.496094 328.511719 219.289062 327.027344 218.234375 326.480469 C 217.261719 325.972656 214.492188 328.667969 212.269531 332.183594 C 209.425781 336.753906 204.082031 348.199219 201.355469 355.617188 C 199.949219 359.484375 198.15625 364.367188 197.378906 366.476562 C 195.898438 370.5 194.921875 372.140625 194.257812 371.710938 C 194.023438 371.554688 193.363281 370.109375 192.777344 368.429688 C 190.320312 361.359375 185.996094 354.914062 183.851562 355.148438 C 183.226562 355.1875 182.992188 354.992188 182.914062 354.171875 C 182.757812 352.882812 183.226562 351.945312 187.59375 344.957031 C 192.386719 337.261719 195.507812 331.167969 196.441406 327.613281 C 197.183594 324.878906 197.222656 324.410156 196.714844 323.003906 C 195.390625 319.179688 190.984375 313.554688 188.878906 313.007812 C 188.101562 312.8125 187.164062 313.085938 185.253906 314.0625 C 183.226562 315.078125 181.316406 316.640625 176.675781 321.207031 C 173.402344 324.410156 169.191406 328.824219 167.320312 330.972656 C 162.835938 336.167969 159.796875 339.214844 158.785156 339.488281 C 158.121094 339.683594 157.730469 339.332031 156.679688 337.691406 C 154.769531 334.761719 152.507812 332.457031 149.933594 330.738281 C 147.945312 329.449219 147.320312 329.253906 145.371094 329.253906 C 144.125 329.253906 143.035156 329.097656 142.917969 328.902344 C 142.527344 328.316406 146.152344 325.152344 151.453125 321.402344 C 161.667969 314.179688 172.507812 304.414062 174.609375 300.507812 C 175.703125 298.476562 175.703125 298.4375 175.039062 296.953125 C 174.222656 295.078125 171.804688 292.96875 168.21875 290.9375 C 165.605469 289.457031 165.371094 289.378906 162.761719 289.535156 C 159.09375 289.769531 154.300781 291.601562 144.085938 296.679688 C 139.601562 298.90625 135.546875 300.742188 135.082031 300.742188 C 133.910156 300.742188 133.09375 299.765625 133.675781 299.023438 C 134.300781 298.28125 132.234375 295.546875 129.894531 294.0625 C 127.558594 292.578125 122.410156 290.121094 119.878906 289.261719 C 116.640625 288.207031 116.523438 288.011719 118.707031 287.074219 C 119.722656 286.644531 123.699219 285.394531 127.441406 284.339844 C 135.9375 281.996094 144.710938 279.144531 153.480469 275.902344 C 162.527344 272.582031 165.800781 271.019531 167.671875 269.144531 C 169.152344 267.621094 169.191406 267.503906 168.644531 266.488281 C 167.554688 264.339844 165.605469 263.207031 159.835938 261.371094 C 149.816406 258.171875 144.59375 257.625 129.933594 258.328125 C 121.359375 258.71875 121.007812 258.601562 124.4375 256.21875 C 128.609375 253.367188 129.195312 251.921875 127.246094 249.578125 C 123.738281 245.4375 108.726562 241.84375 92.003906 241.179688 C 80.386719 240.75 76.800781 240.710938 69.234375 241.023438 Z M 69.234375 241.023438 "/>
<path style=" stroke:none;fill-rule:nonzero;fill:rgb(100%,59.607843%,0%);fill-opacity:1;" d="M 384.386719 276.214844 C 381.460938 276.488281 373.742188 279.027344 370.703125 280.667969 C 369.570312 281.292969 368.207031 282.386719 367.738281 283.089844 C 366.882812 284.417969 366.882812 284.417969 367.621094 285.433594 C 368.011719 286.019531 368.480469 286.957031 368.636719 287.542969 C 368.871094 288.558594 368.792969 288.636719 367.660156 288.636719 C 367 288.636719 363.605469 287.621094 360.097656 286.371094 C 354.40625 284.300781 351.132812 283.207031 343.648438 280.980469 C 342.050781 280.511719 340.0625 280.277344 337.410156 280.277344 C 334.097656 280.277344 333.082031 280.472656 330.585938 281.371094 C 325.871094 283.128906 324.117188 284.222656 323.375 285.902344 C 322.75 287.308594 322.75 287.425781 323.492188 288.871094 C 323.921875 289.730469 325.050781 291.132812 325.988281 291.992188 C 329.417969 295.3125 339.4375 302.109375 349.691406 308.164062 C 359.746094 314.0625 363.605469 316.796875 363.101562 317.617188 C 362.984375 317.773438 361.734375 317.929688 360.292969 317.929688 C 358.148438 317.929688 357.253906 318.164062 355.382812 319.101562 C 352.339844 320.664062 349.378906 322.964844 347.9375 324.917969 C 347.273438 325.777344 346.53125 326.519531 346.257812 326.519531 C 345.167969 326.519531 343.296875 325.152344 338.113281 320.625 C 331.679688 315 324.429688 309.296875 321.191406 307.304688 C 319.867188 306.523438 317.917969 305.664062 316.785156 305.390625 C 314.953125 305 314.605469 305.039062 313.082031 305.820312 C 310.902344 306.914062 308.171875 309.453125 306.964844 311.523438 C 306.066406 313.046875 306.027344 313.320312 306.457031 315.078125 C 306.730469 316.09375 307.351562 317.773438 307.820312 318.789062 C 309.300781 321.753906 315.421875 330.660156 319.164062 335.269531 C 324.855469 342.339844 325.949219 343.824219 326.726562 345.464844 C 327.390625 346.949219 327.390625 347.027344 326.726562 347.261719 C 326.378906 347.417969 325.246094 347.339844 324.273438 347.144531 C 322.632812 346.753906 322.324219 346.792969 320.722656 347.730469 C 318.96875 348.785156 316.632812 351.167969 314.644531 353.9375 C 314.097656 354.757812 313.316406 355.421875 312.964844 355.421875 C 311.953125 355.421875 310.238281 352.84375 307.195312 346.832031 C 302.753906 338.082031 294.605469 325.113281 291.5625 321.910156 C 290.902344 321.207031 289.652344 320.195312 288.796875 319.648438 L 287.277344 318.671875 L 285.832031 319.414062 C 282.910156 320.898438 279.324219 327.027344 278.894531 331.285156 C 278.621094 334.332031 279.867188 340.816406 282.480469 349.839844 C 285.871094 361.476562 286.300781 363.625 285.289062 363.625 C 285.015625 363.625 283.882812 362.960938 282.792969 362.101562 C 280.84375 360.65625 280.765625 360.617188 279.324219 361.085938 C 277.257812 361.828125 275.851562 363.3125 274.097656 366.710938 C 271.449219 371.90625 270.824219 374.40625 270.824219 380.421875 C 270.863281 389.832031 272.578125 402.761719 275.660156 416.46875 C 277.648438 425.21875 279.75 431.9375 282.636719 438.421875 C 285.210938 444.277344 285.714844 445.175781 288.054688 447.871094 C 289.769531 449.863281 289.808594 449.863281 290.902344 449.316406 C 296.007812 446.660156 301.15625 418.695312 298.855469 405.769531 C 298.542969 404.167969 297.257812 398.777344 295.96875 393.855469 C 293.203125 383.269531 292.890625 381.828125 293.628906 382.058594 C 293.902344 382.175781 295.851562 384.753906 297.957031 387.878906 C 302.988281 395.222656 304.507812 397.097656 306.886719 398.894531 C 308.71875 400.300781 308.914062 400.378906 310.003906 399.910156 C 310.628906 399.675781 311.5625 398.894531 312.109375 398.191406 C 314.292969 395.300781 317.644531 385.574219 318.464844 379.796875 C 318.929688 376.710938 319.203125 375.734375 319.710938 375.734375 C 320.453125 375.734375 322.167969 378.234375 327.195312 386.589844 C 333.667969 397.410156 336.824219 402.175781 340.527344 406.785156 C 344.582031 411.785156 350 416.898438 352.613281 418.1875 L 354.796875 419.28125 L 356.238281 418.5 C 358.109375 417.484375 361.347656 412.601562 362.984375 408.347656 C 364.035156 405.652344 364.191406 404.871094 363.996094 402.839844 C 363.683594 399.558594 362.515625 396.394531 359.398438 390.105469 C 355.65625 382.722656 354.71875 381.320312 343.492188 366.398438 C 341.113281 363.273438 339.164062 360.226562 339.164062 359.601562 C 339.164062 358.976562 340.101562 359.484375 345.167969 362.84375 C 353.003906 368.039062 355.734375 369.210938 357.875 368.3125 C 360.410156 367.257812 365.285156 361.28125 366.257812 358 C 366.726562 356.515625 366.648438 356.046875 365.441406 352.335938 C 364.699219 350.113281 364.113281 347.964844 364.113281 347.574219 C 364.113281 346.871094 364.191406 346.871094 365.480469 347.378906 C 366.960938 348.003906 371.871094 351.710938 377.5625 356.4375 C 385.476562 363.039062 397.132812 369.640625 403.058594 370.890625 L 405.945312 371.476562 L 408.089844 370.421875 C 410.933594 369.015625 415.652344 364.289062 416.546875 361.90625 L 417.25 360.109375 L 415.925781 357.492188 C 414.871094 355.34375 413.546875 353.742188 409.140625 349.332031 C 401.851562 341.988281 400.058594 340.660156 380.878906 327.964844 C 376.472656 325.035156 372.457031 322.300781 371.910156 321.832031 L 370.9375 321.011719 L 372.300781 321.246094 C 373.042969 321.363281 375.847656 321.988281 378.539062 322.613281 C 385.046875 324.136719 388.207031 324.332031 390.703125 323.394531 C 395.300781 321.636719 401.109375 317.109375 401.929688 314.609375 C 402.320312 313.4375 402.242188 313.125 401.070312 311.445312 C 399.628906 309.257812 397.132812 306.796875 393.15625 303.59375 C 391.636719 302.34375 390 300.820312 389.453125 300.195312 L 388.519531 299.0625 L 390.078125 299.296875 C 392.105469 299.609375 396.238281 300.976562 402.320312 303.28125 C 415.652344 308.359375 426.566406 310.898438 432.921875 310.390625 C 439.277344 309.921875 449.917969 304.882812 451.632812 301.484375 C 452.570312 299.726562 452.335938 299.023438 450.191406 296.953125 C 444.265625 291.367188 427.074219 283.988281 410.738281 280.042969 C 398.617188 277.113281 389.0625 275.707031 384.386719 276.214844 Z M 384.386719 276.214844 "/>
</g>
</svg>
