<?xml version="1.0" encoding="UTF-8"?>
<svg xmlns="http://www.w3.org/2000/svg" xmlns:xlink="http://www.w3.org/1999/xlink" width="400pt" height="374pt" viewBox="0 0 400 374" version="1.1">
<g id="surface1">
<path style=" stroke:none;fill-rule:nonzero;fill:rgb(12.941176%,58.823529%,95.294118%);fill-opacity:1;" d="M 241.375 64.105469 C 240.90625 64.792969 240.40625 65.355469 240.25 65.355469 C 239.84375 65.355469 237.65625 68.890625 233.75 75.832031 C 230.5625 81.523438 227.78125 85.871094 226.21875 87.527344 C 225.4375 88.371094 224.5625 88.371094 223.71875 87.527344 C 223.09375 86.902344 223.09375 86.714844 223.3125 77.582031 C 223.53125 67.734375 223.40625 66.199219 222.1875 65.824219 C 221.34375 65.574219 220.34375 66.167969 219.96875 67.167969 C 219.78125 67.640625 219 70.765625 218.25 74.113281 C 216.71875 80.835938 216.03125 83.179688 215.59375 83.179688 C 215.4375 83.179688 215.3125 82.648438 215.3125 81.992188 C 215.3125 80.492188 214.84375 78.863281 214.1875 78.144531 C 213.71875 77.644531 213.625 77.613281 212.96875 78.050781 C 212.5625 78.300781 212.09375 78.898438 211.90625 79.367188 C 211.71875 79.835938 210.78125 84.273438 209.875 89.214844 C 208.9375 94.15625 208 98.441406 207.78125 98.691406 C 206.84375 99.816406 205.15625 98.410156 204.78125 96.1875 C 204.6875 95.53125 204.78125 93.625 205 91.9375 C 205.5625 87.621094 205.53125 87.496094 201.78125 84.273438 C 200.4375 83.117188 200.4375 83.179688 197.15625 67.296875 C 196.96875 66.261719 196.46875 65.230469 195.96875 64.667969 L 195.125 63.730469 L 194.65625 64.449219 C 193.8125 65.761719 193.75 66.605469 194.21875 72.546875 C 194.75 79.148438 194.8125 83.492188 194.40625 83.492188 C 194.25 83.492188 193.8125 82.960938 193.4375 82.304688 C 193.0625 81.679688 192.5625 81.023438 192.3125 80.898438 C 192.0625 80.773438 191.875 80.367188 191.875 80.023438 C 191.875 79.679688 191.75 79.492188 191.5625 79.585938 C 191.40625 79.679688 191.25 80.117188 191.25 80.523438 C 191.25 80.929688 191.125 81.367188 190.9375 81.460938 C 190.75 81.585938 190.625 83.117188 190.625 85.058594 C 190.625 90.625 190.09375 90.121094 186.40625 81.179688 C 181.5 69.234375 179 64.136719 177.8125 63.480469 C 177.03125 63.042969 175.6875 63.386719 175.3125 64.105469 C 174.90625 64.886719 174.90625 66.761719 175.375 70.390625 C 175.71875 73.363281 175.71875 73.394531 174.9375 74.457031 C 174.5 75.050781 174.0625 75.769531 173.96875 76.050781 C 173.875 76.332031 174.5625 81.117188 175.5 86.683594 C 176.46875 92.25 177.34375 98.035156 177.5 99.597656 C 177.65625 101.128906 177.90625 103.195312 178.0625 104.132812 C 178.40625 106.476562 178.15625 107.382812 177.125 107.507812 C 176.4375 107.601562 176.1875 107.414062 175.6875 106.414062 C 174.9375 104.945312 174.34375 102.160156 174.4375 100.628906 C 174.5 99.972656 174.5625 99.441406 174.59375 99.441406 C 174.59375 99.441406 175.1875 100.347656 175.90625 101.441406 C 178.09375 104.914062 177.875 104.007812 175.59375 100.003906 C 174.375 97.878906 173.1875 95.65625 172.96875 95.03125 C 172.46875 93.625 171.21875 91.625 170.46875 91 C 170.15625 90.75 169.6875 90.152344 169.40625 89.714844 C 168.9375 88.933594 168.90625 88.996094 168.8125 91.75 C 168.78125 93.28125 168.625 94.6875 168.46875 94.84375 C 168.3125 95 167.84375 95.0625 167.40625 94.96875 C 166.34375 94.6875 165.5 92.9375 162.09375 84.117188 C 157.5625 72.265625 156.34375 69.546875 155.03125 68.265625 L 153.90625 67.167969 L 153.6875 68.234375 C 153.375 69.671875 153.75 71.046875 156.625 79.742188 C 158.84375 86.371094 159.1875 87.652344 159.125 89.371094 C 159.09375 90.78125 159.4375 92.6875 160.3125 96.15625 C 161.65625 101.316406 161.78125 102.253906 161.15625 102.253906 C 160.3125 102.253906 154.0625 95.84375 140.34375 80.898438 C 135.125 75.207031 134.5 74.644531 133.09375 74.300781 C 132.34375 74.144531 132.28125 74.207031 132.25 75.175781 C 132.1875 76.394531 132.90625 77.582031 136.84375 82.867188 C 138.65625 85.277344 139.78125 87.121094 140 87.964844 C 140.53125 90.152344 141.375 91.625 144.25 95.53125 C 157.34375 113.355469 157.875 114.203125 157.34375 115.046875 C 157.0625 115.546875 155.71875 115.453125 154.875 114.921875 C 153.8125 114.234375 151.75 111.167969 150.90625 109.011719 C 149.84375 106.351562 149.21875 106.007812 145.4375 105.882812 C 142.125 105.757812 141 105.445312 136.90625 103.351562 C 135.71875 102.757812 134.25 102.253906 133.6875 102.191406 C 133.125 102.160156 132.375 102.003906 132.0625 101.847656 C 131.5625 101.597656 131.5 101.660156 131.6875 102.097656 C 131.875 102.601562 131.71875 102.632812 129.71875 102.445312 C 128.53125 102.351562 125.8125 101.753906 123.6875 101.128906 C 121.5625 100.503906 118.4375 99.566406 116.71875 99.066406 C 115 98.566406 112.96875 98.097656 112.1875 98.035156 C 111.40625 97.972656 110.21875 97.816406 109.53125 97.722656 L 108.28125 97.535156 L 109.21875 98.066406 C 109.75 98.347656 110.59375 98.941406 111.09375 99.378906 C 112.25 100.347656 115.09375 101.660156 122.5625 104.664062 C 125.78125 105.945312 128.78125 107.289062 129.1875 107.601562 C 130 108.261719 129.96875 109.136719 129.15625 109.136719 C 128.84375 109.136719 129 109.511719 129.65625 110.355469 C 130.75 111.730469 134.21875 113.636719 137.34375 114.578125 C 140.40625 115.515625 143.125 116.859375 143.125 117.421875 C 143.125 118.046875 142.5 117.890625 140 116.640625 C 135.6875 114.484375 130.0625 112.574219 128.03125 112.574219 C 126.90625 112.574219 125.9375 113.417969 125.9375 114.390625 C 125.9375 114.765625 133.1875 122.175781 135.875 124.519531 C 136.625 125.175781 137.1875 125.929688 137.1875 126.304688 C 137.1875 127.054688 135.75 127.898438 134.5 127.898438 C 133.53125 127.898438 130.28125 125.960938 127.96875 123.988281 C 124.03125 120.675781 102.15625 107.570312 99.78125 107.132812 C 99.4375 107.070312 97.875 106.226562 96.25 105.320312 C 92.5 103.164062 91.875 102.820312 91.875 103.007812 C 91.875 103.101562 93.4375 104.164062 95.3125 105.414062 C 97.21875 106.632812 98.875 107.820312 99 108.007812 C 99.21875 108.386719 102.75 110.917969 108.375 114.765625 C 109.96875 115.828125 111.4375 117.015625 111.625 117.359375 C 111.9375 117.953125 111.875 117.984375 110.28125 117.796875 C 109.34375 117.703125 103.1875 116.078125 96.5625 114.203125 C 85.375 111.011719 80.4375 109.792969 78.90625 109.855469 C 78.5625 109.855469 77.65625 109.761719 76.875 109.667969 L 75.46875 109.449219 L 76.71875 110.042969 C 77.40625 110.355469 78.5 110.980469 79.15625 111.417969 C 80.59375 112.417969 84.40625 113.917969 94.78125 117.609375 C 99.125 119.140625 103 120.675781 103.4375 121.019531 C 105.53125 122.707031 106.9375 123.394531 113.90625 126.210938 C 118.03125 127.835938 121.78125 129.398438 122.21875 129.648438 C 123.28125 130.179688 124.6875 131.839844 124.6875 132.589844 C 124.6875 133.964844 124.40625 133.964844 109.78125 131.996094 C 90.96875 129.429688 80.65625 128.242188 75.875 128.085938 C 73.71875 127.992188 71.375 127.835938 70.71875 127.710938 C 69.90625 127.585938 69.625 127.617188 69.84375 127.835938 C 70.03125 128.023438 71.5 128.398438 73.125 128.679688 C 74.75 128.960938 76.21875 129.304688 76.40625 129.429688 C 76.5625 129.585938 77.21875 129.773438 77.8125 129.898438 C 82.09375 130.710938 90.59375 132.152344 98.28125 133.339844 C 107.21875 134.714844 109.0625 135.121094 109.0625 135.683594 C 109.0625 136.183594 108.1875 136.339844 101.28125 137.152344 C 97.59375 137.59375 94.28125 138.09375 93.9375 138.28125 C 92.78125 138.90625 92.5 139.5 93.03125 140.3125 C 93.5625 141.125 94.3125 141.375 99.21875 142.4375 C 101.28125 142.875 103.625 143.597656 104.4375 144.003906 C 105.25 144.441406 107.21875 145.066406 108.8125 145.410156 C 112.75 146.253906 115 146.941406 115 147.253906 C 115 147.878906 112.4375 148.003906 94.375 148.191406 C 81.0625 148.347656 75.21875 148.535156 74.59375 148.785156 C 74.09375 149.003906 73.1875 149.164062 72.5625 149.164062 C 71.9375 149.164062 71.1875 149.320312 70.9375 149.476562 C 70.59375 149.695312 70.71875 149.789062 71.46875 149.789062 C 72.03125 149.789062 73.09375 150.007812 73.8125 150.257812 C 75.53125 150.820312 79.34375 151.257812 86.34375 151.664062 C 89.375 151.851562 92.21875 152.132812 92.625 152.289062 C 94.59375 153.039062 99.21875 153.539062 111.40625 154.320312 C 118.65625 154.820312 121.03125 155.136719 121.375 155.699219 C 121.65625 156.136719 120.03125 156.605469 117.03125 156.980469 C 113.78125 157.355469 101.25 158.355469 93.75 158.855469 C 78.84375 159.792969 78.375 159.855469 77.15625 160.984375 C 76.53125 161.578125 76.53125 161.578125 77.40625 162.171875 C 78.4375 162.828125 82.3125 163.203125 89.0625 163.203125 C 91.78125 163.234375 94.46875 163.421875 95.8125 163.703125 C 97.375 164.015625 101.75 164.265625 110.375 164.484375 C 117.15625 164.640625 122.9375 164.859375 123.21875 164.984375 C 124 165.265625 123.84375 166.296875 122.78125 167.988281 C 121.34375 170.207031 119.375 171.800781 117.28125 172.429688 C 114.5625 173.242188 113.9375 173.523438 112.21875 174.617188 C 110.8125 175.523438 110.09375 175.710938 104.9375 176.492188 C 98.1875 177.492188 89.6875 179.027344 87.03125 179.683594 C 86 179.964844 84.625 180.527344 83.96875 180.996094 L 82.78125 181.808594 L 84.1875 182.152344 C 86 182.621094 90.03125 182.183594 101.3125 180.308594 C 106.53125 179.433594 110.09375 178.683594 111.09375 178.246094 C 113.1875 177.304688 115.96875 177.148438 122.84375 177.585938 C 128.40625 177.960938 130 178.308594 130 179.183594 C 130 179.964844 127.46875 180.621094 112.5 183.871094 C 103.65625 185.78125 95.15625 187.6875 93.59375 188.09375 C 92.0625 188.53125 87.34375 189.5625 83.125 190.441406 C 75.34375 192.035156 70.3125 193.378906 70.3125 193.847656 C 70.3125 194.003906 69.78125 194.222656 69.125 194.347656 C 66.25 194.816406 67.46875 195.066406 72.375 194.972656 C 76.15625 194.910156 79.59375 194.628906 84.53125 193.941406 C 88.3125 193.410156 92.46875 192.910156 93.75 192.785156 C 95.03125 192.660156 98.9375 192.253906 102.375 191.816406 C 105.84375 191.410156 109.15625 191.066406 109.75 191.066406 C 111.03125 191.066406 111.65625 191.660156 112.1875 193.410156 C 112.6875 195.066406 113.8125 196.976562 114.8125 197.914062 C 115.8125 198.851562 115.84375 199.757812 114.9375 200.101562 C 114.53125 200.257812 110.28125 201.164062 105.46875 202.167969 C 91.5625 204.980469 87.53125 205.980469 85.5 207.042969 C 84.21875 207.703125 81.8125 208.390625 77.53125 209.359375 C 70.59375 210.890625 70 211.078125 69.09375 212.046875 L 68.4375 212.765625 L 69.125 213.394531 C 70.28125 214.457031 72.46875 214.269531 90.9375 211.515625 C 100.625 210.078125 108.1875 208.734375 112.09375 207.765625 C 114.0625 207.292969 115.625 207.074219 116.15625 207.199219 C 117.25 207.484375 119.375 208.515625 120.09375 209.140625 C 121.40625 210.296875 121 210.734375 111.25 218.425781 C 94.8125 231.375 90.15625 235.28125 89.6875 236.53125 C 89.0625 238.222656 90.40625 239.066406 92.71875 238.472656 C 94.9375 237.878906 99.90625 236.0625 107.71875 232.96875 C 115.78125 229.777344 116.5625 229.527344 116.5625 230.371094 C 116.5625 231.09375 114.90625 232.6875 110.78125 236 C 107.125 238.941406 106.8125 239.253906 106.6875 240.441406 C 106.59375 241.191406 106.71875 241.378906 107.34375 241.535156 C 108.4375 241.816406 109.46875 241.316406 117.25 236.691406 C 124.28125 232.5 125.75 231.75 126.125 232.125 C 126.4375 232.4375 115 244.070312 111.03125 247.476562 C 107.5625 250.449219 105.53125 252.574219 105.78125 252.980469 C 106.09375 253.480469 102.8125 255.703125 102.40625 255.296875 C 102.15625 255.046875 99.34375 256.546875 95.40625 258.984375 C 91.75 261.269531 91.4375 261.519531 91.125 262.519531 C 90.8125 263.644531 93.0625 264.300781 94.90625 263.582031 C 96.96875 262.800781 102.65625 257.953125 103.46875 256.265625 C 104.0625 255.078125 105.15625 254.328125 107.0625 253.824219 C 108.46875 253.449219 115.53125 249.292969 121.34375 245.414062 C 122.6875 244.507812 123.40625 244.226562 124.15625 244.289062 C 126.5 244.507812 125.53125 246.289062 116.53125 258.640625 C 114.1875 261.800781 111.8125 265.082031 111.25 265.960938 C 110.65625 266.804688 108.15625 270.085938 105.6875 273.246094 C 100.34375 280.03125 99.0625 281.90625 99.0625 282.8125 C 99.0625 283.1875 98.90625 283.660156 98.6875 283.878906 C 98.40625 284.160156 98.40625 284.253906 98.65625 284.253906 C 98.875 284.253906 99.09375 284.128906 99.1875 283.972656 C 99.28125 283.847656 99.8125 283.628906 100.375 283.503906 C 101.15625 283.34375 103.78125 280.90625 112.65625 272.121094 C 130.03125 254.828125 134.59375 250.605469 135.1875 251.199219 C 135.65625 251.636719 134.75 253.230469 130.1875 260.238281 C 127.53125 264.300781 124.96875 268.367188 124.53125 269.273438 C 124.0625 270.179688 122.96875 272.058594 122.0625 273.433594 C 118.25 279.34375 117.46875 281.375 118.625 282.5 C 119.40625 283.28125 120.40625 283.09375 122.40625 281.75 C 124.65625 280.25 132.03125 274.121094 140.34375 266.867188 C 151.25 257.328125 152.1875 256.640625 152.1875 258.140625 C 152.1875 258.859375 149.5625 263.332031 139.375 279.875 C 132.75 290.695312 132.1875 291.757812 132.1875 293.601562 C 132.1875 294.851562 131.9375 295.542969 130.5625 297.730469 C 127.84375 302.140625 125.96875 305.578125 125.78125 306.484375 C 125.375 308.332031 126.78125 309.332031 128.5 308.457031 C 132.96875 306.171875 153.6875 280.3125 157.0625 272.839844 C 157.4375 271.964844 157.84375 270.367188 157.96875 269.242188 C 158.09375 268.117188 158.4375 266.710938 158.75 266.085938 C 159.4375 264.800781 160.78125 264.019531 161.4375 264.582031 C 162.09375 265.113281 161.96875 266.242188 160.9375 269.710938 C 160.40625 271.429688 159.46875 274.746094 158.875 277.027344 C 157.84375 280.84375 157.78125 281.5 157.96875 283.753906 C 158.15625 286.253906 158.15625 286.347656 155.9375 293.476562 C 152.84375 303.453125 151.9375 307.144531 151.9375 309.582031 L 151.9375 311.613281 L 152.4375 310.582031 C 152.71875 310.050781 153.03125 309.582031 153.1875 309.582031 C 153.71875 309.582031 155.625 305.109375 160.15625 293.007812 C 166.1875 276.996094 169.625 268.304688 170.25 267.585938 C 170.9375 266.804688 171.625 266.929688 173 268.023438 C 173.6875 268.554688 174.75 269.273438 175.40625 269.585938 C 177.34375 270.585938 177.375 271.148438 175.78125 276.277344 C 174.34375 280.875 174.125 282.28125 174.6875 283.3125 C 175.09375 284.066406 175.875 283.847656 177.1875 282.65625 C 177.75 282.125 178.28125 281.8125 178.375 281.90625 C 178.65625 282.15625 177.78125 285.410156 175.78125 291.570312 C 173.625 298.199219 173.5625 300.105469 175.46875 299.730469 C 175.8125 299.667969 176.1875 299.605469 176.34375 299.605469 C 176.71875 299.574219 178.3125 296.949219 184.375 286.285156 C 190.28125 275.964844 191.8125 273.464844 192.09375 273.746094 C 192.4375 274.058594 189.5625 280.375 182.3125 295.230469 C 178.84375 302.328125 177.40625 305.640625 177.1875 306.894531 C 177.03125 307.863281 176.8125 308.832031 176.71875 309.050781 C 176.59375 309.238281 176.875 309.050781 177.3125 308.550781 C 177.75 308.082031 178.21875 307.707031 178.40625 307.707031 C 178.96875 307.707031 180.78125 305.171875 187.96875 294.414062 C 191.875 288.566406 195.375 283.441406 195.78125 283.03125 C 196.71875 282.0625 197.3125 282.3125 197.90625 284.003906 C 200.65625 291.507812 201.78125 294.289062 202.53125 295.386719 C 203.03125 296.105469 204.40625 299.230469 205.59375 302.296875 C 207.96875 308.457031 208.75 310.175781 209.53125 310.832031 C 210.8125 311.894531 211.875 311.332031 211.875 309.582031 C 211.875 307.582031 204.875 284.285156 202.28125 277.71875 C 200.71875 273.683594 200.71875 273.839844 202.46875 269.554688 C 203.5 267.085938 204.34375 266.117188 205.4375 266.117188 C 207.46875 266.117188 210.34375 267.679688 211.71875 269.554688 C 212.59375 270.742188 212.59375 270.710938 217.09375 283 C 220.6875 292.851562 221.40625 294.570312 222.03125 294.570312 C 222.28125 294.570312 222.5625 294.851562 222.65625 295.230469 L 222.875 295.886719 L 223.46875 295.230469 C 224.65625 293.945312 224.78125 294.132812 228.125 302.515625 C 230.9375 309.613281 231.375 310.457031 232.4375 310.863281 C 233.15625 311.144531 233.34375 311.082031 233.84375 310.457031 C 234.3125 309.894531 234.40625 309.457031 234.25 308.175781 C 233.96875 306.046875 232.40625 300.074219 229.03125 288.222656 C 226.21875 278.46875 226.1875 278.28125 226.75 277.65625 C 227.25 277.089844 227.5625 277.027344 229.0625 277.183594 C 230 277.277344 231.625 277.8125 232.65625 278.3125 C 235.0625 279.46875 240 283.441406 245.21875 288.378906 C 247.5 290.507812 249.875 292.539062 250.53125 292.882812 C 251.1875 293.195312 252.03125 293.726562 252.4375 294.070312 C 253.21875 294.757812 253.375 294.445312 252.65625 293.632812 C 252.375 293.320312 252.09375 292.757812 252.03125 292.382812 C 251.84375 291.414062 250.78125 289.820312 247.1875 285.191406 C 241.5 277.84375 237.5 272.089844 237.5 271.242188 C 237.5 270.492188 238.3125 270.773438 239.90625 271.996094 C 240.71875 272.683594 245.6875 276.964844 250.9375 281.59375 C 256.1875 286.191406 261.46875 290.601562 262.65625 291.382812 C 263.875 292.164062 266.875 294.507812 269.375 296.636719 C 277.375 303.359375 278.125 303.984375 279.25 304.734375 C 280.90625 305.859375 282.1875 305.515625 282.1875 303.953125 C 282.1875 302.390625 277.75 296.480469 264.875 280.96875 C 255.96875 270.242188 254.75 268.742188 251.78125 264.800781 C 248.84375 260.925781 247.5 258.734375 247.5 257.890625 C 247.5 257.296875 248.75 256.171875 249.90625 255.765625 C 251.3125 255.296875 252.0625 255.796875 252.5625 257.546875 C 253.4375 260.644531 255.875 261.113281 263.9375 259.671875 C 265.25 259.421875 266.875 260.769531 266.875 262.082031 C 266.875 263.269531 267.5 264.457031 268.65625 265.519531 C 270.125 266.898438 290.65625 277.371094 292.09375 277.496094 C 292.78125 277.558594 293.5 277.6875 293.71875 277.8125 C 294.96875 278.59375 292.71875 275.589844 291.0625 274.277344 C 290.25 273.652344 285.71875 270.554688 280.96875 267.367188 C 274.0625 262.738281 272.3125 261.425781 272.25 260.800781 C 272.15625 260.207031 272.46875 259.703125 273.71875 258.609375 C 274.59375 257.828125 275.375 256.828125 275.5 256.359375 C 275.65625 255.578125 275.59375 255.515625 274.53125 255.296875 C 273.71875 255.140625 272.625 255.328125 270.6875 255.890625 C 265.28125 257.453125 264.8125 257.546875 263.59375 256.953125 C 262.3125 256.359375 262 255.703125 261.71875 253.105469 C 261.25 248.730469 260.375 247.226562 257.0625 245.289062 C 255.0625 244.132812 254.375 243.289062 254.625 242.285156 C 254.78125 241.566406 256 241.253906 257.09375 241.660156 C 257.59375 241.816406 262.21875 243.945312 267.40625 246.382812 C 272.59375 248.824219 278.84375 251.636719 281.3125 252.636719 C 283.78125 253.636719 288.46875 255.671875 291.78125 257.171875 C 300 260.863281 301.53125 261.175781 302.46875 259.453125 C 303.6875 257.140625 298.34375 252.042969 285.40625 243.164062 C 282.9375 241.503906 280.78125 239.847656 280.59375 239.503906 C 279.75 237.878906 281.25 237.503906 283.46875 238.753906 C 287.40625 241.003906 288.6875 241.285156 296.5625 241.566406 C 299.40625 241.660156 303.34375 241.972656 305.3125 242.222656 C 308.8125 242.695312 312.84375 242.726562 313.3125 242.253906 C 313.4375 242.128906 313.0625 241.566406 312.46875 241.003906 C 311.71875 240.285156 310.5 239.691406 308.25 238.972656 C 305.0625 237.972656 303.4375 237.035156 303.4375 236.25 C 303.4375 235.78125 305.0625 234.4375 309.21875 231.5 C 313 228.808594 315.875 225.652344 319.65625 219.867188 C 320.78125 218.113281 321.75 216.238281 322.03125 215.175781 C 322.28125 214.207031 322.78125 212.421875 323.15625 211.234375 C 324.53125 206.542969 324.71875 205.449219 324.90625 201.382812 C 325.28125 192.847656 323.875 186.9375 320.34375 182.089844 C 319.21875 180.527344 318.1875 179.933594 316.09375 179.652344 C 313.21875 179.277344 312.8125 179.152344 311.875 178.179688 C 310.59375 176.929688 310.65625 175.960938 312.125 174.554688 C 314.625 172.144531 315.09375 172.082031 322.75 173.242188 C 329.375 174.242188 331.71875 174.398438 332.03125 173.867188 C 332.125 173.679688 332.5 173.554688 332.84375 173.554688 C 333.4375 173.554688 333.40625 173.460938 332.59375 172.617188 C 331.5625 171.488281 330.8125 171.238281 321.71875 169.175781 C 317.9375 168.300781 313.46875 167.175781 311.78125 166.675781 C 308.1875 165.546875 301.59375 162.453125 301.34375 161.765625 C 300.875 160.511719 302.6875 159.355469 310.40625 155.917969 C 315.875 153.476562 316.625 153.007812 317 151.820312 C 317.15625 151.320312 317 151.101562 316.3125 150.851562 C 315.1875 150.445312 314.3125 150.601562 303.1875 152.914062 C 294.375 154.757812 293.6875 154.851562 293.1875 154.351562 C 292.34375 153.507812 293.25 153.039062 297.0625 152.320312 C 303 151.195312 305.625 149.976562 305.625 148.347656 C 305.625 147.253906 304.6875 146.410156 302.5 145.597656 C 298.84375 144.253906 299.6875 143.816406 307.46875 143.0625 C 313.59375 142.5 316.34375 142.0625 317.46875 141.46875 C 317.90625 141.21875 318.65625 141.03125 319.125 141.03125 C 320.59375 141.03125 320.375 140.46875 318.8125 140.3125 C 318 140.21875 316.28125 139.96875 315 139.78125 C 313.65625 139.59375 308.96875 139.5 304.0625 139.53125 C 295.21875 139.59375 293.75 139.4375 292.4375 138.28125 C 290.9375 136.964844 292.40625 134.246094 300.3125 123.675781 C 302.625 120.582031 304.6875 117.671875 304.875 117.265625 C 305.34375 116.234375 305.90625 114.453125 305.78125 114.453125 C 305.71875 114.453125 304.9375 114.828125 304.0625 115.296875 C 302.8125 115.953125 300.46875 118.171875 294.09375 124.863281 C 289.53125 129.648438 284.125 135.371094 282.125 137.53125 C 280.09375 139.71875 278.0625 141.65625 277.59375 141.875 C 276.28125 142.4375 275.1875 142.34375 274.25 141.625 C 272.71875 140.4375 273.125 139.34375 277.8125 132.277344 C 279.1875 130.179688 280.3125 128.179688 280.3125 127.804688 C 280.3125 127.429688 280.40625 126.773438 280.53125 126.335938 C 280.71875 125.550781 280.71875 125.550781 280.0625 126.148438 C 279.6875 126.492188 279.375 126.648438 279.375 126.523438 C 279.375 125.898438 277.34375 127.554688 275.0625 130.054688 C 273.5625 131.683594 272.21875 132.902344 271.875 132.902344 C 271.15625 132.902344 268.4375 127.554688 268.4375 126.117188 C 268.4375 124.738281 269.375 123.738281 272.03125 122.269531 C 273.6875 121.363281 274.90625 120.363281 276.3125 118.765625 C 278.71875 116.046875 282.03125 113.355469 291.71875 106.320312 C 296.46875 102.851562 300.25 99.816406 302.03125 98.066406 C 303.5625 96.503906 304.5625 95.375 304.21875 95.5 C 303.875 95.65625 302.75 96.09375 301.71875 96.472656 C 298.78125 97.566406 296.125 99.160156 282.8125 107.695312 C 274.78125 112.855469 274.46875 113.042969 272.875 113.042969 C 271.9375 113.042969 271.125 112.886719 271 112.667969 C 270.875 112.480469 270.375 112.199219 269.90625 112.105469 C 269.40625 111.980469 268.9375 111.699219 268.875 111.480469 C 268.78125 111.261719 269.21875 110.074219 269.84375 108.824219 C 270.75 107.007812 270.9375 106.320312 270.78125 105.507812 C 270.625 104.570312 270.5 104.476562 269.71875 104.570312 C 269.25 104.601562 268.21875 105.039062 267.40625 105.507812 C 266.5625 106.007812 265.9375 106.226562 265.9375 106.007812 C 265.9375 105.382812 267.9375 102.601562 272.6875 96.628906 C 279.5 88.121094 279.375 88.277344 279.375 87.058594 C 279.375 86.089844 279.28125 85.996094 278.5 85.996094 C 277.25 85.996094 275.65625 87.121094 268.75 92.84375 C 265.40625 95.65625 262.34375 98.097656 261.9375 98.285156 C 261.125 98.660156 260.09375 98.222656 260.21875 97.597656 C 260.375 96.941406 258.28125 97.253906 257.09375 98.066406 C 255.40625 99.191406 254.90625 98.972656 254.46875 96.941406 C 254.25 96 253.84375 94.46875 253.5625 93.53125 L 253.0625 91.875 L 253.9375 90.96875 C 254.40625 90.464844 254.65625 90.058594 254.46875 90.058594 C 254.28125 90.058594 253.78125 90.464844 253.34375 91 C 252.65625 91.78125 252.5 91.84375 252.15625 91.4375 C 251.625 90.8125 252.0625 89.464844 254.40625 84.523438 C 257.5 78.050781 259.5625 73.394531 259.8125 72.484375 C 260.0625 71.390625 259.4375 70.359375 258.53125 70.359375 C 257.46875 70.359375 255.96875 71.859375 251.375 77.519531 C 249.03125 80.367188 246.84375 82.929688 246.5 83.179688 C 245.90625 83.585938 245.8125 83.554688 245.15625 82.804688 C 244.625 82.179688 244.25 82.023438 243.71875 82.148438 C 242.59375 82.429688 242.5 82.523438 238.15625 88.308594 C 233.5 94.5 233 95.03125 232.25 94.5625 C 231.46875 94.0625 231.21875 92.59375 231.5625 90.433594 C 231.96875 87.996094 232.28125 87.183594 236.375 78.425781 C 240.15625 70.328125 241.5625 66.917969 241.5625 65.855469 C 241.5625 65.449219 241.78125 64.605469 242.03125 63.980469 C 242.65625 62.511719 242.40625 62.542969 241.375 64.105469 Z M 197.0625 90.59375 C 197.90625 91.59375 198.09375 93.1875 197.34375 93.1875 C 196.5 93.1875 195.625 92 195.625 90.84375 C 195.625 89.527344 196.0625 89.433594 197.0625 90.59375 Z M 225.5 95.96875 C 226.03125 98.160156 225.96875 99.410156 225.15625 101.128906 C 224.5625 102.351562 223.875 102.757812 223.25 102.222656 C 222.375 101.503906 223.03125 95.21875 224.125 93.90625 C 224.625 93.28125 224.90625 93.71875 225.5 95.96875 Z M 174.65625 132.214844 C 173.90625 132.714844 172.4375 133.871094 171.40625 134.777344 C 170.34375 135.746094 170 135.964844 170.59375 135.308594 L 171.6875 134.152344 L 170.0625 134.152344 C 167.25 134.152344 165.34375 135.277344 159.84375 140.25 C 155.0625 144.566406 152.375 147.378906 150.9375 149.476562 C 148.90625 152.445312 143.3125 164.140625 142.0625 167.988281 C 140.28125 173.460938 139.90625 177.367188 140.125 187.9375 C 140.21875 192.847656 140.4375 198.195312 140.625 199.820312 C 141.40625 206.542969 145.9375 216.832031 151.5625 224.679688 C 154 228.058594 158.78125 232.75 159.28125 232.25 C 159.5625 231.9375 158.71875 229.808594 156.25 224.523438 C 152.4375 216.425781 150.65625 211.265625 149.21875 204.042969 C 147.40625 195.035156 147.3125 185.0625 148.9375 175.429688 C 150.125 168.550781 152.65625 159.980469 154.5625 156.417969 C 155.15625 155.324219 155.5625 154.320312 155.46875 154.164062 C 155.375 154.007812 155.5625 153.820312 155.90625 153.695312 C 156.28125 153.570312 156.4375 153.320312 156.34375 152.945312 C 156.25 152.601562 156.5 152.195312 157.03125 151.851562 C 157.53125 151.507812 157.78125 151.132812 157.6875 150.851562 C 157.59375 150.601562 157.71875 150.320312 157.96875 150.226562 C 158.21875 150.101562 158.4375 149.789062 158.4375 149.476562 C 158.4375 149.164062 158.625 148.847656 158.875 148.753906 C 159.125 148.660156 159.25 148.316406 159.15625 147.972656 C 159.0625 147.566406 159.28125 147.222656 159.84375 146.847656 C 160.34375 146.535156 160.59375 146.128906 160.5 145.847656 C 160.40625 145.597656 160.65625 145.191406 161.09375 144.910156 C 161.53125 144.628906 161.875 144.160156 161.875 143.847656 C 161.875 143.535156 162.375 142.90625 162.96875 142.4375 C 163.78125 141.8125 164.03125 141.4375 163.90625 141 C 163.75 140.5625 163.84375 140.40625 164.3125 140.40625 C 164.65625 140.40625 165.28125 140.125 165.75 139.75 C 166.96875 138.78125 166.75 139.28125 165.0625 141.125 C 162.28125 144.191406 158.125 150.570312 158.125 151.757812 C 158.125 152.007812 157.8125 152.445312 157.4375 152.789062 C 156.0625 154.007812 152.75 162.171875 151.09375 168.457031 C 148 180.183594 147.5625 193.253906 149.875 204.980469 C 151.9375 215.550781 156.125 225.277344 162.21875 233.6875 C 163.75 235.75 163.75 235.78125 162.90625 235.59375 C 159.5 234.78125 153.5 229.152344 149.40625 222.960938 C 145.125 216.457031 141.8125 209.078125 140.25 202.636719 C 139.71875 200.445312 139.59375 198.445312 139.40625 191.535156 C 139.15625 180.433594 139.40625 175.554688 140.4375 171.488281 C 142.03125 165.265625 144 160.167969 146.75 155.261719 C 147.6875 153.539062 149.125 150.976562 149.90625 149.539062 C 151.1875 147.160156 151.71875 146.597656 155.75 143.125 C 158.15625 141.03125 161.25 138.3125 162.5625 137.089844 C 164.53125 135.277344 165.53125 134.652344 167.84375 133.652344 C 170.1875 132.683594 174.25 131.496094 175.75 131.367188 C 175.9375 131.335938 175.4375 131.746094 174.65625 132.214844 Z M 152.5 155.730469 C 151.78125 157.324219 150.59375 160.480469 149.84375 162.734375 C 149.09375 164.984375 148.4375 166.613281 148.4375 166.328125 C 148.4375 164.953125 153.25 152.289062 153.625 152.695312 C 153.6875 152.757812 153.1875 154.101562 152.5 155.730469 Z M 146.21875 180.933594 C 145.90625 185.4375 145.96875 194.847656 146.40625 200.914062 C 146.53125 202.699219 146.5 202.886719 146.25 201.855469 C 146.09375 201.164062 145.8125 197.632812 145.59375 193.972656 C 145.28125 188.84375 145.28125 186.21875 145.5625 182.246094 C 145.9375 177.429688 146.1875 175.554688 146.4375 175.835938 C 146.5 175.898438 146.40625 178.179688 146.21875 180.933594 Z M 316.6875 192.503906 C 317.21875 193.003906 317.3125 193.785156 317 194.628906 C 316.6875 195.410156 315.40625 195.222656 314.8125 194.347656 C 313.78125 192.785156 315.40625 191.222656 316.6875 192.503906 Z M 146.96875 205.292969 C 147.125 206.167969 147.09375 206.355469 146.875 205.917969 C 146.625 205.324219 146.4375 203.636719 146.6875 203.917969 C 146.75 203.980469 146.875 204.605469 146.96875 205.292969 Z M 146.96875 205.292969 "/>
<path style=" stroke:none;fill-rule:nonzero;fill:rgb(12.941176%,58.823529%,95.294118%);fill-opacity:1;" d="M 164.5 74.957031 C 164.5625 75.269531 164.9375 76.582031 165.3125 77.863281 C 166.5625 82.242188 168.21875 87.089844 168.34375 86.746094 C 168.46875 86.371094 165.90625 77.332031 165.1875 75.582031 C 164.65625 74.394531 164.21875 73.988281 164.5 74.957031 Z M 164.5 74.957031 "/>
<path style=" stroke:none;fill-rule:nonzero;fill:rgb(12.941176%,58.823529%,95.294118%);fill-opacity:1;" d="M 262.28125 83.179688 C 261.71875 83.523438 261.25 83.710938 261.25 83.617188 C 261.25 83.210938 259.8125 84.523438 257.5625 86.964844 C 255.28125 89.433594 255.25 89.527344 256.71875 88.402344 C 257.59375 87.746094 258.71875 87.027344 259.21875 86.777344 C 260.375 86.246094 261.5 85.277344 262.8125 83.710938 C 263.9375 82.429688 263.78125 82.242188 262.28125 83.179688 Z M 262.28125 83.179688 "/>
<path style=" stroke:none;fill-rule:nonzero;fill:rgb(12.941176%,58.823529%,95.294118%);fill-opacity:1;" d="M 110.9375 89.214844 C 110.9375 89.902344 112.21875 91.5 113.4375 92.375 C 117.6875 95.4375 127.9375 101.160156 128.65625 100.878906 C 128.90625 100.785156 129.5 100.910156 130 101.160156 C 131.5 101.941406 131.40625 101.722656 129.34375 99.722656 C 126.84375 97.316406 119.46875 92.375 114.625 89.871094 C 113.75 89.433594 110.9375 88.933594 110.9375 89.214844 Z M 110.9375 89.214844 "/>
</g>
</svg>
