<?xml version="1.0" encoding="UTF-8"?>
<svg xmlns="http://www.w3.org/2000/svg" xmlns:xlink="http://www.w3.org/1999/xlink" width="50pt" height="32pt" viewBox="0 0 50 32" version="1.1">
<g id="surface1">
<path style=" stroke:none;fill-rule:nonzero;fill:rgb(100%,75.686275%,2.745098%);fill-opacity:1;" d="M 49.644531 0.148438 C 49.347656 0.332031 48.8125 0.617188 48.632812 0.679688 C 48.152344 0.847656 47.636719 0.824219 46.503906 0.582031 C 46.117188 0.5 45.667969 0.410156 45.503906 0.386719 C 45.144531 0.328125 43.800781 0.355469 43.585938 0.421875 C 43.386719 0.484375 43.246094 0.613281 43.21875 0.757812 C 43.195312 0.875 43.199219 0.875 43.445312 0.921875 C 44.101562 1.054688 44.472656 1.210938 45.152344 1.636719 C 46.277344 2.339844 46.789062 2.417969 47.578125 1.992188 C 47.90625 1.8125 48.039062 1.707031 48.652344 1.144531 C 49.25 0.59375 49.433594 0.445312 49.734375 0.273438 C 49.871094 0.191406 49.945312 0.121094 49.933594 0.0898438 C 49.902344 0.015625 49.839844 0.0273438 49.644531 0.148438 Z M 49.644531 0.148438 "/>
<path style=" stroke:none;fill-rule:nonzero;fill:rgb(100%,75.686275%,2.745098%);fill-opacity:1;" d="M 41.179688 0.890625 C 40.664062 0.933594 40.386719 0.988281 39.570312 1.203125 C 38.242188 1.550781 37.425781 1.890625 36.621094 2.425781 C 34.949219 3.539062 33.804688 5.292969 33.257812 7.59375 C 33.039062 8.511719 32.613281 9.554688 32.222656 10.132812 C 31.617188 11.027344 30.820312 11.367188 29.863281 11.140625 C 29.214844 10.984375 28.738281 10.738281 27.121094 9.753906 C 25.582031 8.8125 25.160156 8.570312 24.433594 8.226562 C 22.574219 7.328125 20.941406 6.863281 18.164062 6.421875 C 17.144531 6.257812 17.027344 6.25 15.859375 6.214844 C 13.300781 6.136719 11.707031 6.273438 9.824219 6.726562 C 8.648438 7.015625 8.023438 7.222656 7.34375 7.566406 C 4.632812 8.929688 2.480469 11.128906 1.230469 13.8125 C 0.464844 15.457031 0.0742188 17.089844 0.0117188 18.914062 C -0.132812 23.234375 2.035156 27.507812 5.585938 29.898438 C 8.617188 31.941406 12.410156 32.519531 16.230469 31.523438 C 18 31.0625 19.707031 30.265625 20.820312 29.382812 C 22.476562 28.070312 23.632812 26.3125 25.3125 22.5625 C 26.324219 20.292969 26.839844 19.464844 27.613281 18.847656 C 28.113281 18.449219 28.589844 18.253906 29.414062 18.117188 C 30.519531 17.9375 31.382812 17.667969 32.246094 17.246094 C 32.972656 16.886719 33.449219 16.550781 33.984375 16.023438 C 34.710938 15.304688 35.214844 14.46875 35.5625 13.425781 C 35.902344 12.390625 36.035156 11.511719 36.09375 9.90625 C 36.132812 8.832031 36.175781 8.488281 36.390625 7.535156 C 36.832031 5.582031 37.734375 3.929688 38.933594 2.886719 C 39.570312 2.335938 40.226562 1.949219 41.414062 1.425781 C 41.722656 1.289062 42.085938 1.101562 42.222656 1.015625 L 42.472656 0.855469 L 42.007812 0.855469 C 41.753906 0.859375 41.378906 0.875 41.179688 0.890625 Z M 41.179688 0.890625 "/>
</g>
</svg>
