<?xml version="1.0" encoding="UTF-8"?>
<svg xmlns="http://www.w3.org/2000/svg" xmlns:xlink="http://www.w3.org/1999/xlink" width="600pt" height="800pt" viewBox="0 0 600 800" version="1.1">
<g id="surface1">
<path style=" stroke:none;fill-rule:nonzero;fill:rgb(100%,75.686275%,2.745098%);fill-opacity:1;" d="M 304.6875 6.4375 C 317.53125 24.625 318.375 36.25 307.59375 47.1875 C 303.75 51.125 297.28125 55.4375 279.09375 66.25 C 262.03125 76.375 251.0625 85.375 243.5625 95.1875 C 229.3125 114.125 228.375 131.375 240.46875 155 C 244.78125 163.5625 248.15625 168.4375 261.5625 185.9375 C 274.125 202.25 277.875 208.4375 278.8125 214.6875 C 281.25 229.625 256.3125 245.5625 228.75 246.6875 C 204.65625 247.6875 184.875 238.0625 177.1875 221.5625 C 174.28125 215.3125 173.625 203 175.6875 191.875 C 178.40625 177.5625 185.0625 157.3125 191.8125 143.0625 C 193.125 140.3125 194.0625 137.8125 193.875 137.5 C 193.40625 136.6875 168.375 150.625 154.03125 159.75 C 132.84375 173.1875 125.53125 180.125 119.0625 192.875 C 112.78125 205.25 110.53125 214.1875 109.96875 229.3125 C 109.3125 245.6875 111.75 257 118.5 269 C 129.09375 287.6875 143.71875 296.9375 210 326.875 C 255 347.1875 270.09375 354.9375 288.65625 367.0625 C 306.9375 379.0625 316.21875 388 321.46875 398.4375 C 325.3125 406.3125 326.625 413 325.96875 422.75 C 325.21875 435.3125 321.75 444.25 313.21875 455.5 C 303.9375 467.6875 290.4375 478.125 274.96875 484.8125 C 255 493.5 242.71875 493.4375 238.96875 484.6875 C 236.53125 479.0625 236.34375 473.5 237.375 451.25 C 238.59375 426.9375 237.84375 414.1875 234.75 404.375 C 231.46875 393.75 219.09375 371.3125 211.59375 362.375 C 196.21875 344.0625 169.03125 333.375 127.03125 329.125 C 114.5625 327.875 105 327.0625 105 327.25 C 105 327.375 108.65625 329.0625 113.15625 331.0625 C 149.53125 347 169.5 364.75 175.96875 386.8125 C 182.625 409.625 168.375 448 148.125 461.875 C 135.28125 470.6875 119.625 470.0625 104.53125 460.0625 C 97.78125 455.6875 94.3125 451.6875 92.34375 446.1875 C 89.71875 438.5625 90.9375 432 97.96875 416.3125 C 103.78125 403.3125 105.5625 398.5625 106.875 392.375 C 109.3125 380.6875 103.6875 370.1875 90.5625 361.875 L 87.09375 359.75 L 87.75 364.0625 C 88.96875 373.8125 84.5625 380.875 66 398.4375 C 44.4375 418.9375 39.75 427.5625 39.9375 446.875 C 39.9375 455 40.40625 458.625 42.09375 464.0625 C 48 483.4375 63.75 506.1875 82.6875 522.9375 C 97.125 535.625 114.75 546.5 142.875 559.9375 C 174.46875 575.0625 181.6875 580.5625 182.625 590.3125 C 183.375 598.875 179.15625 605.875 163.125 622.1875 C 145.125 640.5625 134.34375 656.75 129.28125 673.125 C 126.65625 681.625 126.46875 695.25 128.8125 703.4375 C 135.1875 725.5 159.46875 755.4375 183.5625 770.75 C 212.8125 789.375 265.03125 801.0625 313.125 799.8125 C 370.6875 798.25 416.71875 780.3125 444.75 748.5625 C 452.8125 739.375 460.96875 722.625 465.1875 706.875 C 466.78125 700.5 466.78125 679.1875 465.09375 673.4375 C 461.71875 661.8125 458.15625 655 450 644.4375 C 440.71875 632.5 430.78125 624.0625 402.9375 604 C 384.28125 590.625 378.5625 585.8125 374.25 580.0625 C 371.34375 576.125 370.6875 574.625 370.40625 570.4375 C 370.03125 564.375 371.4375 561.6875 378.65625 554.375 C 389.15625 543.6875 413.71875 528.9375 458.4375 506.5625 C 492 489.75 504.09375 482.6875 516 472.875 C 543.9375 449.875 558.46875 421.3125 556.5 393.375 C 554.90625 369.875 541.5 350.125 520.6875 340.5625 C 517.03125 338.875 516.46875 338.8125 516.9375 339.8125 C 520.3125 347 521.15625 358.3125 518.90625 366.875 C 515.53125 379.5 508.5 389.125 496.875 396.875 C 485.34375 404.625 474.28125 407.9375 461.71875 407.375 C 454.40625 407.0625 449.25 405 444.65625 400.375 C 439.78125 395.625 438.5625 392.0625 438.09375 381.6875 C 437.34375 367.6875 440.4375 357.3125 450.09375 341.3125 C 465 316.375 493.03125 294.4375 524.90625 282.6875 C 534.65625 279.125 547.03125 275.625 554.8125 274.3125 C 557.4375 273.875 559.6875 273.375 559.6875 273.1875 C 559.6875 272.625 543.9375 266.5 537.1875 264.4375 C 528.28125 261.6875 516.1875 259.5625 504.84375 258.6875 C 487.125 257.375 466.6875 259.5 435 265.9375 C 419.25 269.1875 416.8125 269.5 408.28125 269.625 C 396.9375 269.6875 393.375 268.9375 387.84375 265.375 C 381.9375 261.5625 380.15625 257.75 380.25 249.375 C 380.34375 244.1875 380.90625 241.625 382.875 237.1875 C 387.65625 226.5625 397.875 214.375 411.5625 202.8125 C 420.5625 195.25 439.6875 182.875 452.8125 176.25 C 474.84375 165.125 483.84375 157.8125 488.0625 147.5 C 490.3125 142.125 490.3125 128.5 488.0625 121.9375 C 483.46875 108.25 471.65625 90.75 457.5 76.625 C 448.59375 67.8125 448.5 67.8125 448.21875 75.875 C 447.84375 88.5625 440.53125 107.3125 432 117.5 C 423.5625 127.4375 410.4375 137.25 397.96875 142.9375 C 382.21875 150.0625 362.90625 154.375 346.875 154.375 C 326.15625 154.375 319.40625 145.625 326.25 127.8125 C 328.3125 122.6875 335.25 110.75 344.34375 96.875 C 349.875 88.375 355.21875 78.0625 357.84375 70.625 C 359.15625 67.125 359.53125 63.3125 359.53125 55.625 C 359.53125 46.5625 359.25 44.75 357.375 40.625 C 350.25 25.5 332.4375 12.3125 304.5 1.625 L 300.09375 -0.0625 Z M 304.6875 6.4375 "/>
</g>
</svg>
