<?xml version="1.0" encoding="UTF-8"?>
<svg xmlns="http://www.w3.org/2000/svg" xmlns:xlink="http://www.w3.org/1999/xlink" width="900pt" height="900pt" viewBox="0 0 900 900" version="1.1">
<g id="surface1">
<path style=" stroke:none;fill-rule:nonzero;fill:rgb(73.72549%,74.509804%,75.294118%);fill-opacity:1;" d="M 768.375 708.609375 L 708.609375 768.375 L 682.453125 763.03125 L 658.96875 758.390625 L 758.390625 658.96875 L 763.03125 682.453125 Z M 768.375 708.609375 "/>
<path style=" stroke:none;fill-rule:nonzero;fill:rgb(100%,31.372549%,13.72549%);fill-opacity:1;" d="M 837.984375 778.21875 C 854.4375 794.671875 874.265625 841.359375 857.8125 857.8125 C 841.359375 874.265625 794.671875 854.4375 778.21875 837.984375 C 761.714844 821.480469 761.714844 794.722656 778.21875 778.21875 C 794.722656 761.714844 821.480469 761.714844 837.984375 778.21875 Z M 837.984375 778.21875 "/>
<path style=" stroke:none;fill-rule:nonzero;fill:rgb(73.72549%,74.509804%,75.294118%);fill-opacity:1;" d="M 799.59375 590.90625 C 803.769531 592.851562 806.734375 596.703125 807.546875 601.238281 C 808.359375 605.769531 806.914062 610.414062 803.671875 613.6875 L 758.390625 658.96875 L 678.796875 579.375 L 681.046875 577.125 C 697.667969 560.546875 722.824219 556.007812 744.1875 565.734375 Z M 799.59375 590.90625 "/>
<path style=" stroke:none;fill-rule:nonzero;fill:rgb(73.72549%,74.509804%,75.294118%);fill-opacity:1;" d="M 658.96875 758.390625 L 613.6875 803.671875 C 610.414062 806.914062 605.769531 808.359375 601.238281 807.546875 C 596.703125 806.734375 592.851562 803.769531 590.90625 799.59375 L 565.734375 744.1875 C 556.007812 722.824219 560.546875 697.667969 577.125 681.046875 L 579.375 678.796875 Z M 658.96875 758.390625 "/>
<path style=" stroke:none;fill-rule:nonzero;fill:rgb(81.960784%,82.745098%,83.137255%);fill-opacity:1;" d="M 758.390625 658.96875 L 658.96875 758.390625 L 531.5625 630.984375 C 523.558594 623.085938 518.160156 612.929688 516.09375 601.875 C 511.453125 577.265625 505.6875 533.671875 519.75 519.75 C 533.8125 505.828125 577.265625 511.453125 601.875 516.09375 C 612.929688 518.160156 623.085938 523.558594 630.984375 531.5625 Z M 758.390625 658.96875 "/>
<path style=" stroke:none;fill-rule:nonzero;fill:rgb(65.490196%,66.27451%,67.45098%);fill-opacity:1;" d="M 763.03125 682.453125 L 682.453125 763.03125 L 658.96875 758.390625 L 758.390625 658.96875 Z M 763.03125 682.453125 "/>
<path style=" stroke:none;fill-rule:nonzero;fill:rgb(90.196078%,90.588235%,90.980392%);fill-opacity:1;" d="M 599.34375 559.546875 C 610.316406 570.535156 610.3125 588.335938 599.328125 599.3125 C 588.347656 610.292969 570.542969 610.292969 559.5625 599.3125 C 548.578125 588.335938 548.574219 570.535156 559.546875 559.546875 C 564.820312 554.265625 571.980469 551.296875 579.445312 551.296875 C 586.910156 551.296875 594.070312 554.265625 599.34375 559.546875 Z M 599.34375 559.546875 "/>
<path style=" stroke:none;fill-rule:nonzero;fill:rgb(81.960784%,82.745098%,83.137255%);fill-opacity:1;" d="M 98.4375 675 C 98.4375 690.53125 85.84375 703.125 70.3125 703.125 C 54.78125 703.125 42.1875 690.53125 42.1875 675 C 42.1875 659.46875 54.78125 646.875 70.3125 646.875 C 85.84375 646.875 98.4375 659.46875 98.4375 675 Z M 98.4375 675 "/>
<path style=" stroke:none;fill-rule:nonzero;fill:rgb(81.960784%,82.745098%,83.137255%);fill-opacity:1;" d="M 717.1875 210.9375 C 717.1875 226.46875 704.59375 239.0625 689.0625 239.0625 C 673.53125 239.0625 660.9375 226.46875 660.9375 210.9375 C 660.9375 195.40625 673.53125 182.8125 689.0625 182.8125 C 704.59375 182.8125 717.1875 195.40625 717.1875 210.9375 Z M 717.1875 210.9375 "/>
<path style=" stroke:none;fill-rule:nonzero;fill:rgb(93.333333%,52.941176%,0%);fill-opacity:1;" d="M 112.640625 305.578125 C 135.34375 301.558594 157.328125 294.214844 177.890625 283.78125 C 223.660156 260.792969 260.792969 223.660156 283.78125 177.890625 C 294.214844 157.328125 301.558594 135.34375 305.578125 112.640625 C 199.84375 114.597656 114.597656 199.84375 112.640625 305.578125 Z M 112.640625 305.578125 "/>
<path style=" stroke:none;fill-rule:nonzero;fill:rgb(100%,59.607843%,6.666667%);fill-opacity:1;" d="M 125.296875 379.125 C 122.109375 370.933594 119.523438 362.519531 117.5625 353.953125 C 134.296875 332.859375 154.125 309.515625 177.890625 283.78125 C 223.660156 260.792969 260.792969 223.660156 283.78125 177.890625 C 309.515625 154.125 332.859375 134.296875 353.953125 117.5625 C 362.519531 119.523438 370.933594 122.109375 379.125 125.296875 C 379.546875 130.359375 379.6875 135.421875 379.6875 140.625 C 379.699219 151.113281 378.996094 161.589844 377.578125 171.984375 C 302.285156 233.402344 233.402344 302.285156 171.984375 377.578125 C 161.589844 378.996094 151.113281 379.699219 140.625 379.6875 C 135.421875 379.6875 130.359375 379.546875 125.296875 379.125 Z M 125.296875 379.125 "/>
<path style=" stroke:none;fill-rule:nonzero;fill:rgb(100%,59.607843%,6.666667%);fill-opacity:1;" d="M 506.25 309.375 C 506.25 313.453125 506.109375 317.53125 505.828125 321.609375 C 499.695312 420.699219 420.699219 499.695312 321.609375 505.828125 C 317.53125 506.109375 313.453125 506.25 309.375 506.25 C 294.375 506.226562 279.421875 504.53125 264.796875 501.1875 C 308.34375 466.238281 349.804688 428.765625 388.96875 388.96875 C 428.765625 349.804688 466.238281 308.34375 501.1875 264.796875 C 504.53125 279.421875 506.226562 294.375 506.25 309.375 Z M 506.25 309.375 "/>
<path style=" stroke:none;fill-rule:nonzero;fill:rgb(100%,59.607843%,6.666667%);fill-opacity:1;" d="M 379.125 125.296875 C 370.933594 122.109375 362.519531 119.523438 353.953125 117.5625 C 339.328125 114.21875 324.375 112.523438 309.375 112.5 C 308.109375 112.476562 306.839844 112.523438 305.578125 112.640625 C 301.558594 135.34375 294.214844 157.328125 283.78125 177.890625 C 260.792969 223.660156 223.660156 260.792969 177.890625 283.78125 C 157.328125 294.214844 135.34375 301.558594 112.640625 305.578125 C 112.523438 306.839844 112.476562 308.109375 112.5 309.375 C 112.523438 324.375 114.21875 339.328125 117.5625 353.953125 C 119.523438 362.519531 122.109375 370.933594 125.296875 379.125 C 130.359375 379.546875 135.421875 379.6875 140.625 379.6875 C 151.113281 379.699219 161.589844 378.996094 171.984375 377.578125 C 279.160156 363.496094 363.496094 279.160156 377.578125 171.984375 C 378.996094 161.589844 379.699219 151.113281 379.6875 140.625 C 379.6875 135.421875 379.546875 130.359375 379.125 125.296875 Z M 379.125 125.296875 "/>
<path style=" stroke:none;fill-rule:nonzero;fill:rgb(100%,65.490196%,20%);fill-opacity:1;" d="M 475.453125 203.765625 C 459.972656 179.421875 439.328125 158.777344 414.984375 143.296875 C 403.683594 136.078125 391.667969 130.042969 379.125 125.296875 C 379.546875 130.359375 379.6875 135.421875 379.6875 140.625 C 379.699219 151.113281 378.996094 161.589844 377.578125 171.984375 C 363.496094 279.160156 279.160156 363.496094 171.984375 377.578125 C 161.589844 378.996094 151.113281 379.699219 140.625 379.6875 C 135.421875 379.6875 130.359375 379.546875 125.296875 379.125 C 130.015625 391.679688 136.046875 403.699219 143.296875 414.984375 C 171.003906 458.464844 214.605469 489.398438 264.796875 501.1875 C 308.34375 466.238281 349.804688 428.765625 388.96875 388.96875 C 428.765625 349.804688 466.238281 308.34375 501.1875 264.796875 C 496.105469 243.148438 487.40625 222.515625 475.453125 203.765625 Z M 475.453125 203.765625 "/>
<path style=" stroke:none;fill-rule:nonzero;fill:rgb(93.333333%,52.941176%,0%);fill-opacity:1;" d="M 506.25 309.375 C 506.25 313.453125 506.109375 317.53125 505.828125 321.609375 C 481.921875 349.875 452.671875 381.515625 417.09375 417.09375 C 381.515625 452.671875 349.875 481.921875 321.609375 505.828125 C 317.53125 506.109375 313.453125 506.25 309.375 506.25 C 294.375 506.226562 279.421875 504.53125 264.796875 501.1875 C 308.34375 466.238281 349.804688 428.765625 388.96875 388.96875 C 428.765625 349.804688 466.238281 308.34375 501.1875 264.796875 C 504.53125 279.421875 506.226562 294.375 506.25 309.375 Z M 506.25 309.375 "/>
<path style=" stroke:none;fill-rule:nonzero;fill:rgb(90.196078%,90.588235%,90.980392%);fill-opacity:1;" d="M 558 60.75 C 542.109375 44.859375 500.0625 2.953125 353.953125 117.5625 C 362.519531 119.523438 370.933594 122.109375 379.125 125.296875 C 391.667969 130.042969 403.683594 136.078125 414.984375 143.296875 C 467.015625 105.890625 506.109375 88.453125 518.203125 100.546875 C 530.296875 112.640625 512.859375 151.734375 475.453125 203.765625 C 437.210938 255.449219 394.988281 304.066406 349.171875 349.171875 C 304.066406 394.988281 255.449219 437.210938 203.765625 475.453125 C 151.734375 512.859375 112.640625 530.296875 100.546875 518.203125 C 88.453125 506.109375 105.890625 467.015625 143.296875 414.984375 C 136.046875 403.699219 130.015625 391.679688 125.296875 379.125 C 122.109375 370.933594 119.523438 362.519531 117.5625 353.953125 C 2.953125 500.0625 44.859375 542.109375 60.75 558 C 76.640625 573.890625 118.6875 615.796875 264.796875 501.1875 C 308.34375 466.238281 349.804688 428.765625 388.96875 388.96875 C 428.765625 349.804688 466.238281 308.34375 501.1875 264.796875 C 615.796875 118.6875 573.890625 76.640625 558 60.75 Z M 558 60.75 "/>
<path style=" stroke:none;fill-rule:nonzero;fill:rgb(93.333333%,52.941176%,0%);fill-opacity:1;" d="M 717.1875 351.5625 L 689.0625 351.5625 L 689.0625 323.4375 L 660.9375 323.4375 L 660.9375 351.5625 L 632.8125 351.5625 L 632.8125 379.6875 L 660.9375 379.6875 L 660.9375 407.8125 L 689.0625 407.8125 L 689.0625 379.6875 L 717.1875 379.6875 Z M 717.1875 351.5625 "/>
<path style=" stroke:none;fill-rule:nonzero;fill:rgb(100%,59.607843%,6.666667%);fill-opacity:1;" d="M 843.75 56.25 L 815.625 56.25 L 815.625 28.125 L 787.5 28.125 L 787.5 56.25 L 759.375 56.25 L 759.375 84.375 L 787.5 84.375 L 787.5 112.5 L 815.625 112.5 L 815.625 84.375 L 843.75 84.375 Z M 843.75 56.25 "/>
<path style=" stroke:none;fill-rule:nonzero;fill:rgb(100%,59.607843%,6.666667%);fill-opacity:1;" d="M 407.8125 675 L 379.6875 675 L 379.6875 703.125 L 351.5625 703.125 L 351.5625 731.25 L 379.6875 731.25 L 379.6875 759.375 L 407.8125 759.375 L 407.8125 731.25 L 435.9375 731.25 L 435.9375 703.125 L 407.8125 703.125 Z M 407.8125 675 "/>
<path style=" stroke:none;fill-rule:nonzero;fill:rgb(100%,65.490196%,20%);fill-opacity:1;" d="M 210.9375 56.25 L 239.0625 56.25 L 239.0625 84.375 L 210.9375 84.375 Z M 210.9375 56.25 "/>
<path style=" stroke:none;fill-rule:nonzero;fill:rgb(80%,45.490196%,0%);fill-opacity:1;" d="M 28.125 126.5625 L 56.25 126.5625 L 56.25 154.6875 L 28.125 154.6875 Z M 28.125 126.5625 "/>
<path style=" stroke:none;fill-rule:nonzero;fill:rgb(100%,65.490196%,20%);fill-opacity:1;" d="M 351.5625 843.75 L 379.6875 843.75 L 379.6875 871.875 L 351.5625 871.875 Z M 351.5625 843.75 "/>
<path style=" stroke:none;fill-rule:nonzero;fill:rgb(80%,45.490196%,0%);fill-opacity:1;" d="M 253.125 590.625 L 281.25 590.625 L 281.25 618.75 L 253.125 618.75 Z M 253.125 590.625 "/>
<path style=" stroke:none;fill-rule:nonzero;fill:rgb(100%,65.490196%,20%);fill-opacity:1;" d="M 154.6875 801.5625 L 182.8125 801.5625 L 182.8125 829.6875 L 154.6875 829.6875 Z M 154.6875 801.5625 "/>
</g>
</svg>
