<?xml version="1.0" encoding="UTF-8"?>
<svg xmlns="http://www.w3.org/2000/svg" xmlns:xlink="http://www.w3.org/1999/xlink" width="200pt" height="200pt" viewBox="0 0 200 200" version="1.1">
<g id="surface1">
<path style=" stroke:none;fill-rule:nonzero;fill:rgb(23.921569%,60.392157%,88.627451%);fill-opacity:1;" d="M 141.875 163.75 C 129.734375 178.277344 112.539062 187.667969 93.75 190.03125 L 93.75 187.5 L 103.125 178.125 L 103.125 165.625 L 109.375 159.375 L 109.375 146.875 L 93.75 131.25 L 68.75 131.25 L 56.25 143.75 L 56.25 153.125 L 62.5 159.375 L 75 159.375 L 75 171.875 L 81.25 178.125 L 81.25 190.5625 C 61.6875 189.769531 43.21875 181.328125 29.8125 167.0625 L 37.5 159.375 L 37.5 150 L 46.875 140.625 L 46.875 131.25 L 31.25 115.625 L 31.25 106.25 L 40.625 106.25 L 53.125 93.75 L 53.125 81.25 L 65.625 68.75 L 65.625 56.25 L 56.25 46.875 L 54.4375 46.875 C 62.914062 43.167969 72.007812 41.070312 81.25 40.6875 L 81.25 59.375 L 93.75 71.875 L 109.375 71.875 L 125 87.5 L 125 106.25 L 118.75 112.5 L 118.75 125 L 131.25 137.5 L 131.25 153.125 Z M 141.875 163.75 "/>
<path style=" stroke:none;fill-rule:nonzero;fill:rgb(0%,80%,70.196078%);fill-opacity:1;" d="M 65.625 56.25 L 65.625 68.75 L 53.125 81.25 L 53.125 93.75 L 40.625 106.25 L 31.25 106.25 L 31.25 115.625 L 46.875 131.25 L 46.875 140.625 L 37.5 150 L 37.5 159.375 L 29.8125 167.0625 C 13.054688 149.300781 6 124.492188 10.902344 100.570312 C 15.800781 76.648438 32.046875 56.613281 54.4375 46.875 L 56.25 46.875 Z M 65.625 56.25 "/>
<path style=" stroke:none;fill-rule:nonzero;fill:rgb(0%,80%,70.196078%);fill-opacity:1;" d="M 109.375 146.875 L 109.375 159.375 L 103.125 165.625 L 103.125 178.125 L 93.75 187.5 L 93.75 190.03125 C 90.640625 190.433594 87.507812 190.632812 84.375 190.625 C 83.3125 190.625 82.28125 190.59375 81.25 190.5625 L 81.25 178.125 L 75 171.875 L 75 159.375 L 62.5 159.375 L 56.25 153.125 L 56.25 143.75 L 68.75 131.25 L 93.75 131.25 Z M 109.375 146.875 "/>
<path style=" stroke:none;fill-rule:nonzero;fill:rgb(0%,80%,70.196078%);fill-opacity:1;" d="M 159.375 115.625 C 159.390625 133.226562 153.191406 150.269531 141.875 163.75 L 131.25 153.125 L 131.25 137.5 L 118.75 125 L 118.75 112.5 L 125 106.25 L 125 87.5 L 109.375 71.875 L 93.75 71.875 L 81.25 59.375 L 81.25 40.6875 C 82.28125 40.65625 83.3125 40.625 84.375 40.625 C 125.792969 40.636719 159.363281 74.207031 159.375 115.625 Z M 159.375 115.625 "/>
<path style=" stroke:none;fill-rule:nonzero;fill:rgb(0%,80%,70.196078%);fill-opacity:1;" d="M 103.125 96.875 L 103.125 106.25 L 96.875 112.5 L 90.625 112.5 L 90.625 100 L 84.375 93.75 L 84.375 87.5 L 103.125 87.5 Z M 103.125 96.875 "/>
<path style=" stroke:none;fill-rule:nonzero;fill:rgb(77.647059%,77.254902%,79.215686%);fill-opacity:1;" d="M 157.976562 67.984375 L 169.226562 57.109375 L 177.921875 66.101562 L 166.671875 76.976562 Z M 157.976562 67.984375 "/>
<path style=" stroke:none;fill-rule:nonzero;fill:rgb(67.45098%,67.058824%,69.411765%);fill-opacity:1;" d="M 169.21875 57.105469 L 180.4375 46.261719 L 189.132812 55.257812 L 177.914062 66.101562 Z M 169.21875 57.105469 "/>
<path style=" stroke:none;fill-rule:nonzero;fill:rgb(53.72549%,53.333333%,56.470588%);fill-opacity:1;" d="M 151.90625 39.25 L 156.40625 34.90625 L 165.09375 43.90625 L 156.09375 52.59375 L 147.40625 43.59375 Z M 151.90625 39.25 "/>
<path style=" stroke:none;fill-rule:nonzero;fill:rgb(77.647059%,77.254902%,79.215686%);fill-opacity:1;" d="M 123.261719 32.046875 L 134.480469 21.203125 L 143.175781 30.195312 L 131.957031 41.039062 Z M 123.261719 32.046875 "/>
<path style=" stroke:none;fill-rule:nonzero;fill:rgb(67.45098%,67.058824%,69.411765%);fill-opacity:1;" d="M 134.46875 21.203125 L 145.71875 10.328125 L 154.414062 19.324219 L 143.164062 30.199219 Z M 134.46875 21.203125 "/>
<path style=" stroke:none;fill-rule:nonzero;fill:rgb(47.058824%,46.27451%,50.196078%);fill-opacity:1;" d="M 132.246094 23.378906 L 136.738281 19.035156 L 154.113281 37.011719 L 149.621094 41.355469 Z M 132.246094 23.378906 "/>
<path style=" stroke:none;fill-rule:nonzero;fill:rgb(47.058824%,46.27451%,50.196078%);fill-opacity:1;" d="M 158.296875 50.332031 L 162.792969 45.988281 L 180.167969 63.964844 L 175.671875 68.308594 Z M 158.296875 50.332031 "/>
<path style=" stroke:none;fill-rule:nonzero;fill:rgb(67.45098%,67.058824%,69.411765%);fill-opacity:1;" d="M 14.6875 43.914062 L 10.3125 39.433594 C 40.175781 10.4375 84.210938 1.523438 123.003906 16.621094 L 120.726562 22.445312 C 84.226562 8.242188 42.789062 16.632812 14.6875 43.914062 Z M 14.6875 43.914062 "/>
<path style=" stroke:none;fill-rule:nonzero;fill:rgb(67.45098%,67.058824%,69.411765%);fill-opacity:1;" d="M 160.566406 189.6875 L 156.085938 185.3125 C 183.378906 157.207031 191.769531 115.761719 177.554688 79.253906 L 183.382812 76.976562 C 198.480469 115.769531 189.566406 159.804688 160.570312 189.667969 Z M 160.566406 189.6875 "/>
<path style=" stroke:none;fill-rule:nonzero;fill:rgb(77.647059%,77.254902%,79.215686%);fill-opacity:1;" d="M 164.625 164.117188 L 159.277344 160.882812 C 171.84375 140.027344 175.1875 114.894531 168.507812 91.484375 L 174.511719 89.765625 C 181.675781 114.847656 178.09375 141.777344 164.625 164.117188 Z M 164.625 164.117188 "/>
<path style=" stroke:none;fill-rule:nonzero;fill:rgb(77.647059%,77.254902%,79.215686%);fill-opacity:1;" d="M 39.117188 40.722656 L 35.882812 35.375 C 57.226562 22.507812 82.804688 18.640625 107 24.625 L 105.5 30.691406 C 82.917969 25.109375 59.042969 28.714844 39.117188 40.722656 Z M 39.117188 40.722656 "/>
</g>
</svg>
