<?xml version="1.0" encoding="UTF-8"?>
<svg xmlns="http://www.w3.org/2000/svg" xmlns:xlink="http://www.w3.org/1999/xlink" width="700pt" height="700pt" viewBox="0 0 700 700" version="1.1">
<g id="surface1">
<path style=" stroke:none;fill-rule:nonzero;fill:rgb(23.921569%,60.392157%,88.627451%);fill-opacity:1;" d="M 496.5625 573.125 C 454.0625 623.976562 393.878906 656.84375 328.125 665.109375 L 328.125 656.25 L 360.9375 623.4375 L 360.9375 579.6875 L 382.8125 557.8125 L 382.8125 514.0625 L 328.125 459.375 L 240.625 459.375 L 196.875 503.125 L 196.875 535.9375 L 218.75 557.8125 L 262.5 557.8125 L 262.5 601.5625 L 284.375 623.4375 L 284.375 666.96875 C 215.910156 664.1875 151.265625 634.65625 104.34375 584.71875 L 131.25 557.8125 L 131.25 525 L 164.0625 492.1875 L 164.0625 459.375 L 109.375 404.6875 L 109.375 371.875 L 142.1875 371.875 L 185.9375 328.125 L 185.9375 284.375 L 229.6875 240.625 L 229.6875 196.875 L 196.875 164.0625 L 190.53125 164.0625 C 220.199219 151.089844 252.023438 143.746094 284.375 142.40625 L 284.375 207.8125 L 328.125 251.5625 L 382.8125 251.5625 L 437.5 306.25 L 437.5 371.875 L 415.625 393.75 L 415.625 437.5 L 459.375 481.25 L 459.375 535.9375 Z M 496.5625 573.125 "/>
<path style=" stroke:none;fill-rule:nonzero;fill:rgb(0%,80%,70.196078%);fill-opacity:1;" d="M 229.6875 196.875 L 229.6875 240.625 L 185.9375 284.375 L 185.9375 328.125 L 142.1875 371.875 L 109.375 371.875 L 109.375 404.6875 L 164.0625 459.375 L 164.0625 492.1875 L 131.25 525 L 131.25 557.8125 L 104.34375 584.71875 C 45.695312 522.554688 21 435.722656 38.152344 352 C 55.308594 268.277344 112.160156 198.152344 190.53125 164.0625 L 196.875 164.0625 Z M 229.6875 196.875 "/>
<path style=" stroke:none;fill-rule:nonzero;fill:rgb(0%,80%,70.196078%);fill-opacity:1;" d="M 360.9375 339.0625 L 360.9375 371.875 L 339.0625 393.75 L 317.1875 393.75 L 317.1875 350 L 295.3125 328.125 L 295.3125 306.25 L 360.9375 306.25 Z M 360.9375 339.0625 "/>
<path style=" stroke:none;fill-rule:nonzero;fill:rgb(0%,80%,70.196078%);fill-opacity:1;" d="M 382.8125 514.0625 L 382.8125 557.8125 L 360.9375 579.6875 L 360.9375 623.4375 L 328.125 656.25 L 328.125 665.109375 C 317.246094 666.523438 306.285156 667.21875 295.3125 667.1875 C 291.59375 667.1875 287.984375 667.078125 284.375 666.96875 L 284.375 623.4375 L 262.5 601.5625 L 262.5 557.8125 L 218.75 557.8125 L 196.875 535.9375 L 196.875 503.125 L 240.625 459.375 L 328.125 459.375 Z M 382.8125 514.0625 "/>
<path style=" stroke:none;fill-rule:nonzero;fill:rgb(0%,80%,70.196078%);fill-opacity:1;" d="M 557.8125 404.6875 C 557.863281 466.292969 536.171875 525.941406 496.5625 573.125 L 459.375 535.9375 L 459.375 481.25 L 415.625 437.5 L 415.625 393.75 L 437.5 371.875 L 437.5 306.25 L 382.8125 251.5625 L 328.125 251.5625 L 284.375 207.8125 L 284.375 142.40625 C 287.984375 142.296875 291.59375 142.1875 295.3125 142.1875 C 440.273438 142.222656 557.777344 259.726562 557.8125 404.6875 Z M 557.8125 404.6875 "/>
<path style=" stroke:none;fill-rule:nonzero;fill:rgb(81.960784%,82.745098%,83.137255%);fill-opacity:1;" d="M 667.1875 120.3125 C 667.1875 168.636719 628.011719 207.8125 579.6875 207.8125 C 531.363281 207.8125 492.1875 168.636719 492.1875 120.3125 C 492.1875 71.988281 531.363281 32.8125 579.6875 32.8125 C 628.011719 32.8125 667.1875 71.988281 667.1875 120.3125 Z M 667.1875 120.3125 "/>
<path style=" stroke:none;fill-rule:nonzero;fill:rgb(67.45098%,67.058824%,69.411765%);fill-opacity:1;" d="M 51.40625 153.703125 L 36.09375 138.019531 C 140.621094 36.527344 294.742188 5.328125 430.511719 58.175781 L 422.546875 78.5625 C 294.789062 28.847656 149.769531 58.210938 51.40625 153.703125 Z M 51.40625 153.703125 "/>
<path style=" stroke:none;fill-rule:nonzero;fill:rgb(67.45098%,67.058824%,69.411765%);fill-opacity:1;" d="M 561.980469 663.90625 L 546.296875 648.59375 C 641.820312 550.222656 671.1875 405.167969 621.445312 277.386719 L 641.835938 269.421875 C 694.679688 405.195312 663.480469 559.3125 561.992188 663.839844 Z M 561.980469 663.90625 "/>
<path style=" stroke:none;fill-rule:nonzero;fill:rgb(77.647059%,77.254902%,79.215686%);fill-opacity:1;" d="M 576.1875 574.414062 L 557.472656 563.085938 C 601.453125 490.101562 613.148438 402.132812 589.773438 320.195312 L 610.792969 314.179688 C 635.859375 401.96875 623.324219 496.226562 576.1875 574.414062 Z M 576.1875 574.414062 "/>
<path style=" stroke:none;fill-rule:nonzero;fill:rgb(77.647059%,77.254902%,79.215686%);fill-opacity:1;" d="M 136.914062 142.527344 L 125.585938 123.8125 C 200.292969 78.777344 289.820312 65.246094 374.5 86.1875 L 369.25 107.417969 C 290.210938 87.878906 206.652344 100.503906 136.914062 142.527344 Z M 136.914062 142.527344 "/>
<path style=" stroke:none;fill-rule:nonzero;fill:rgb(77.647059%,77.254902%,79.215686%);fill-opacity:1;" d="M 535.9375 76.5625 L 557.8125 76.5625 L 557.8125 98.4375 L 535.9375 98.4375 Z M 535.9375 76.5625 "/>
<path style=" stroke:none;fill-rule:nonzero;fill:rgb(87.843137%,87.843137%,88.627451%);fill-opacity:1;" d="M 590.625 153.125 L 612.5 153.125 L 612.5 175 L 590.625 175 Z M 590.625 153.125 "/>
<path style=" stroke:none;fill-rule:nonzero;fill:rgb(87.843137%,87.843137%,88.627451%);fill-opacity:1;" d="M 612.5 87.5 L 634.375 87.5 L 634.375 109.375 L 612.5 109.375 Z M 612.5 87.5 "/>
<path style=" stroke:none;fill-rule:nonzero;fill:rgb(87.843137%,87.843137%,88.627451%);fill-opacity:1;" d="M 546.875 120.3125 L 568.75 120.3125 L 568.75 142.1875 L 546.875 142.1875 Z M 546.875 120.3125 "/>
</g>
</svg>
