<?xml version="1.0" encoding="UTF-8"?>
<svg xmlns="http://www.w3.org/2000/svg" xmlns:xlink="http://www.w3.org/1999/xlink" width="1100pt" height="1122pt" viewBox="0 0 1100 1122" version="1.1">
<g id="surface1">
<path style=" stroke:none;fill-rule:nonzero;fill:rgb(0%,58.823529%,53.333333%);fill-opacity:1;" d="M 795.625 1.578125 C 789.574219 3.769531 784.046875 8.414062 780.890625 14.113281 L 778.261719 18.847656 L 777.996094 63.113281 L 777.734375 107.378906 L 766.859375 109.484375 C 760.808594 110.621094 750.902344 113.25 744.851562 115.269531 L 733.890625 118.949219 L 730.996094 114.039062 C 729.503906 111.324219 720.121094 95.105469 710.210938 78.015625 C 699.515625 59.429688 690.921875 45.582031 688.902344 43.566406 C 683.730469 38.304688 678.730469 36.378906 670.398438 36.378906 C 661.980469 36.378906 657.070312 38.304688 651.546875 43.828125 C 644.445312 50.929688 641.902344 61.710938 645.144531 71 C 646.109375 73.632812 656.019531 91.601562 667.15625 110.796875 L 687.414062 145.773438 L 681.625 151.207031 L 675.75 156.640625 L 679.695312 159.972656 C 688.113281 167.25 707.667969 187.671875 715.121094 196.789062 C 744.0625 232.464844 763.878906 271.648438 774.664062 314.773438 C 779.3125 333.09375 781.328125 345.890625 783.523438 369.996094 L 784.046875 375.871094 L 789.921875 376.484375 C 808.074219 378.324219 831.578125 383.847656 850.429688 390.597656 C 873.230469 398.75 902.519531 414.789062 922.335938 430.042969 C 926.285156 433.109375 929.878906 435.652344 930.316406 435.652344 C 930.753906 435.652344 936.191406 430.304688 942.417969 423.816406 L 953.820312 412.070312 L 989.683594 432.757812 C 1009.414062 444.152344 1027.304688 454.058594 1029.496094 454.671875 C 1041.421875 458.441406 1055.804688 451.429688 1061.328125 439.332031 C 1065.363281 430.304688 1062.90625 417.332031 1055.628906 410.144531 C 1054.050781 408.476562 1036.949219 398.132812 1017.832031 387.089844 C 998.628906 376.046875 982.40625 366.578125 981.703125 366.050781 C 980.652344 365.261719 980.828125 364.035156 983.019531 357.8125 C 986 349.484375 989.421875 336.335938 990.910156 327.570312 L 991.964844 321.699219 L 1034.40625 321.699219 C 1075.535156 321.699219 1076.9375 321.609375 1081.761719 319.859375 C 1096.054688 314.511719 1103.15625 298.03125 1097.105469 284.179688 C 1094.476562 278.394531 1087.195312 271.558594 1081.585938 269.628906 C 1077.988281 268.402344 1071.589844 268.226562 1034.757812 268.226562 L 992.050781 268.226562 L 990.035156 257.796875 C 988.984375 252.097656 986.351562 242.28125 984.335938 236.144531 C 981.527344 227.644531 980.828125 224.574219 981.617188 223.875 C 982.144531 223.347656 998.191406 213.96875 1017.21875 203.011719 C 1038.703125 190.652344 1053.261719 181.710938 1055.539062 179.519531 C 1063.167969 172.070312 1065.449219 159.972656 1061.152344 150.066406 C 1055.890625 138.320312 1041.773438 131.570312 1029.496094 134.992188 C 1027.742188 135.429688 1010.027344 145.335938 990.035156 156.816406 L 953.644531 177.855469 L 949.785156 173.296875 C 944.523438 167.25 931.984375 154.714844 926.195312 149.804688 L 921.460938 145.859375 L 942.15625 109.921875 C 954.167969 89.234375 963.464844 72.054688 964.339844 69.335938 C 967.058594 60.042969 963.902344 50.140625 956.097656 42.953125 C 945.226562 33.046875 927.949219 33.835938 918.65625 44.792969 C 917.164062 46.632812 906.726562 64.078125 895.503906 83.625 L 875.070312 119.125 L 869.195312 116.847656 C 862.179688 114.214844 842.273438 109.042969 835.875 108.167969 L 831.402344 107.640625 L 831.136719 63.636719 C 830.875 19.722656 830.875 19.722656 828.859375 15.601562 C 826.226562 10.34375 820.964844 4.996094 815.792969 2.542969 C 810.269531 -0.0859375 801.585938 -0.527344 795.625 1.578125 Z M 795.625 1.578125 "/>
<path style=" stroke:none;fill-rule:nonzero;fill:rgb(0%,58.823529%,53.333333%);fill-opacity:1;" d="M 458.1875 136.832031 C 398.207031 142.441406 344.539062 167.511719 302.449219 209.410156 C 294.992188 216.949219 286.136719 226.417969 282.890625 230.535156 C 263.074219 255.519531 247.203125 285.847656 238.082031 316 C 232.734375 333.707031 227.996094 360.617188 227.996094 373.242188 C 227.996094 378.0625 227.296875 378.675781 220.542969 378.675781 C 218.613281 378.675781 211.597656 379.464844 205.023438 380.429688 C 154.949219 387.792969 109.613281 410.144531 73.308594 445.292969 C 53.492188 464.578125 38.144531 485.089844 26.484375 508.144531 C 9.558594 541.539062 1.578125 572.570312 0.261719 609.648438 C -2.105469 677.582031 24.554688 743.0625 73.75 790.132812 C 79.183594 795.394531 87.253906 802.40625 91.636719 805.824219 C 100.496094 812.75 119.960938 825.722656 121.453125 825.722656 C 121.980469 825.722656 138.726562 778.476562 158.632812 720.796875 C 178.628906 663.03125 196.429688 611.839844 198.359375 606.933594 C 210.195312 576.078125 240.625 551.183594 274.296875 544.695312 C 284.296875 542.765625 400.660156 542.855469 410.21875 544.871094 C 424.25 547.675781 437.316406 554.6875 447.578125 564.945312 C 455.554688 572.921875 460.730469 581.25 464.414062 592.117188 C 468.621094 604.742188 468.359375 623.9375 463.710938 637.699219 C 461.082031 645.5 458.539062 650.320312 431.96875 697.042969 C 418.636719 720.535156 407.765625 739.992188 407.765625 740.167969 C 407.765625 740.34375 421.882812 740.695312 439.15625 740.957031 C 473.707031 741.308594 477.917969 741.835938 490.71875 747.707031 C 525.09375 763.222656 538.863281 803.105469 521.761719 837.554688 C 519.835938 841.414062 516.152344 847.460938 513.433594 850.96875 L 508.699219 857.367188 L 646.109375 857.015625 C 796.9375 856.753906 786.941406 857.101562 810.707031 851.40625 C 890.59375 832.472656 953.203125 768.65625 971.09375 688.101562 C 974.953125 670.65625 975.566406 663.558594 975.476562 640.328125 C 975.390625 620.78125 975.128906 617.011719 973.109375 605.703125 C 965.21875 561.351562 945.925781 523.660156 915.058594 491.839844 C 880.246094 455.988281 838.152344 434.949219 786.589844 427.675781 C 777.207031 426.359375 744.324219 426.273438 736.167969 427.585938 C 732.835938 428.113281 729.941406 428.375 729.765625 428.289062 C 729.59375 428.113281 729.941406 424.871094 730.46875 421.011719 C 734.679688 390.683594 732.925781 359.476562 725.121094 327.835938 C 700.390625 227.292969 615.769531 151.734375 512.554688 138.058594 C 499.753906 136.394531 470.199219 135.691406 458.1875 136.832031 Z M 458.1875 136.832031 "/>
<path style=" stroke:none;fill-rule:nonzero;fill:rgb(0%,58.823529%,53.333333%);fill-opacity:1;" d="M 283.679688 598.867188 C 271.929688 601.058594 257.375 611.753906 251.9375 622.097656 C 250.445312 624.902344 231.945312 677.058594 210.808594 738.066406 C 174.332031 843.164062 172.3125 849.300781 172.3125 855.085938 C 172.3125 860.171875 172.75 861.925781 174.679688 865.253906 C 176.785156 868.847656 180.820312 872.265625 185.46875 874.457031 C 186.433594 874.898438 208.441406 875.421875 235.011719 875.6875 L 282.804688 876.125 L 287.453125 878.667969 C 295.871094 883.3125 298.851562 891.726562 295.695312 901.542969 C 294.730469 904.4375 274.386719 951.597656 250.445312 1006.292969 C 226.417969 1060.992188 206.25 1107.625 205.460938 1109.902344 C 203.09375 1117.355469 205.199219 1118.667969 211.074219 1113.410156 C 217.035156 1108.238281 470.640625 817.042969 472.304688 813.625 C 474.9375 808.015625 474.9375 804.507812 472.128906 801.265625 C 470.816406 799.6875 468.710938 797.933594 467.484375 797.410156 C 465.816406 796.621094 447.226562 796.269531 401.625 795.917969 L 338.050781 795.480469 L 333.664062 793.289062 C 327.878906 790.394531 325.335938 786.539062 325.335938 780.578125 C 325.335938 778.035156 325.773438 774.707031 326.386719 773.039062 C 326.914062 771.375 345.941406 737.277344 368.65625 697.304688 C 391.367188 657.246094 410.660156 622.359375 411.535156 619.730469 C 414.515625 610.875 411.710938 603.953125 403.378906 600.09375 C 399.523438 598.253906 398.292969 598.253906 343.75 598.078125 C 311.042969 598.078125 286.222656 598.339844 283.679688 598.867188 Z M 283.679688 598.867188 "/>
<path style=" stroke:none;fill-rule:nonzero;fill:rgb(0%,58.823529%,53.333333%);fill-opacity:1;" d="M 502.03125 903.210938 C 493.175781 906.015625 486.335938 911.273438 481.953125 918.8125 C 480.636719 921.09375 469.324219 955.980469 455.382812 1000.683594 L 431.179688 1078.609375 L 431.089844 1087.375 C 431.003906 1095.441406 431.179688 1096.578125 433.722656 1101.839844 C 444.15625 1123.753906 472.742188 1128.488281 489.40625 1110.867188 C 491.773438 1108.324219 494.578125 1104.46875 495.542969 1102.363281 C 496.421875 1100.261719 507.90625 1064.058594 521.0625 1021.984375 L 544.914062 945.371094 L 544.914062 936.167969 C 545 928.015625 544.738281 926.4375 542.722656 922.054688 C 536.933594 909.695312 524.480469 901.894531 510.890625 902.070312 C 507.90625 902.070312 503.960938 902.597656 502.03125 903.210938 Z M 502.03125 903.210938 "/>
<path style=" stroke:none;fill-rule:nonzero;fill:rgb(0%,58.823529%,53.333333%);fill-opacity:1;" d="M 683.554688 903.734375 C 674.257812 906.890625 665.839844 914.691406 662.59375 923.457031 C 659.613281 931.433594 614.015625 1080.625 613.488281 1083.957031 C 613.226562 1085.886719 613.402344 1089.742188 613.839844 1092.546875 C 616.207031 1107.363281 627.167969 1118.492188 642.164062 1121.210938 C 655.667969 1123.664062 670.75 1116.566406 677.328125 1104.554688 C 678.644531 1102.101562 690.570312 1065.109375 703.898438 1022.335938 L 728.1875 944.496094 L 728.1875 936.167969 C 728.277344 928.542969 728.011719 927.316406 725.46875 921.96875 C 719.859375 910.046875 708.898438 902.773438 695.832031 902.246094 C 690.570312 902.070312 687.5 902.421875 683.554688 903.734375 Z M 683.554688 903.734375 "/>
</g>
</svg>
