<?xml version="1.0" encoding="UTF-8"?>
<svg xmlns="http://www.w3.org/2000/svg" xmlns:xlink="http://www.w3.org/1999/xlink" width="1300pt" height="846pt" viewBox="0 0 1300 846" version="1.1">
<g id="surface1">
<path style=" stroke:none;fill-rule:nonzero;fill:rgb(100%,59.607843%,0%);fill-opacity:1;" d="M 429.914062 20.316406 C 427.578125 21.332031 423.515625 22.550781 420.773438 22.957031 C 418.132812 23.363281 413.460938 24.683594 410.414062 26.003906 C 407.46875 27.328125 404.21875 28.445312 403.40625 28.445312 C 402.492188 28.445312 399.953125 29.054688 397.617188 29.867188 C 395.382812 30.679688 391.117188 31.796875 388.171875 32.507812 C 385.226562 33.21875 379.640625 35.25 375.679688 37.179688 C 371.820312 39.109375 367.757812 40.632812 366.640625 40.632812 C 365.625 40.632812 364.40625 41.039062 364.101562 41.648438 C 363.796875 42.15625 363.085938 42.664062 362.578125 42.664062 C 361.054688 42.664062 363.898438 37.28125 366.4375 35.148438 C 368.164062 33.726562 368.46875 33.015625 367.554688 32.507812 C 366.03125 31.492188 365.117188 31.796875 353.945312 37.078125 C 343.179688 42.15625 335.765625 49.269531 329.671875 60.136719 C 327.640625 63.796875 324.1875 68.671875 322.054688 70.804688 C 317.28125 75.578125 298.796875 84.417969 260.507812 100.0625 C 247.203125 105.546875 234.507812 105.75 233.796875 100.671875 C 233.492188 98.4375 233.085938 98.335938 228.820312 98.945312 C 223.640625 99.65625 207.59375 104.9375 202.007812 107.78125 C 200.078125 108.695312 194.898438 112.859375 190.632812 116.824219 C 186.367188 120.785156 182.40625 123.832031 181.796875 123.425781 C 181.1875 123.019531 179.460938 124.035156 177.9375 125.660156 C 176.414062 127.183594 173.46875 129.925781 171.4375 131.753906 C 169.40625 133.484375 165.34375 138.257812 162.398438 142.421875 C 154.679688 153.191406 144.929688 164.667969 144.117188 163.753906 C 143.710938 163.347656 143.710938 161.011719 144.21875 158.472656 C 145.335938 152.683594 145.4375 149.328125 144.523438 149.328125 C 142.898438 149.328125 130.203125 171.375 127.359375 178.789062 C 119.84375 199.003906 115.375 205.507812 107.046875 208.25 C 101.664062 210.078125 94.960938 208.453125 78.710938 201.644531 C 77.085938 200.933594 71.601562 198.902344 66.523438 197.074219 C 61.546875 195.347656 54.539062 192.707031 51.085938 191.386719 C 47.632812 190.066406 40.828125 187.527344 35.851562 185.800781 C 30.976562 184.070312 25.085938 181.835938 22.75 180.71875 C 17.671875 178.484375 1.929688 172.695312 0.8125 172.695312 C 0.304688 172.695312 0.101562 177.164062 0.203125 182.546875 L 0.507812 192.503906 L 6.09375 194.027344 C 9.140625 194.941406 12.796875 196.160156 14.21875 196.871094 C 17.0625 198.191406 29.25 202.96875 40.625 207.335938 C 44.789062 208.859375 57.890625 214.039062 69.570312 218.710938 C 87.34375 225.824219 91.710938 228.058594 95.773438 231.714844 C 100.648438 236.183594 100.648438 236.183594 101.15625 243.804688 C 101.867188 253.757812 98.921875 263.308594 85.820312 294.597656 C 81.960938 303.839844 81.25 306.582031 80.742188 314.914062 L 80.132812 324.5625 L 83.484375 320.703125 C 88.15625 315.421875 89.375 315.828125 89.375 322.53125 C 89.375 325.578125 89.882812 333.808594 90.492188 340.816406 C 91.609375 353.109375 91.507812 353.71875 89.375 358.796875 C 87.445312 363.371094 87.140625 365.402344 87.546875 372.816406 C 87.953125 378.402344 88.765625 383.179688 90.1875 386.226562 C 92.015625 390.390625 92.21875 393.03125 92.21875 409.691406 C 92.320312 428.890625 92.625 431.226562 97.601562 448.394531 L 99.734375 455.40625 L 101.5625 451.445312 C 102.578125 449.308594 103.796875 446.566406 104.203125 445.449219 C 104.914062 443.519531 105.015625 443.519531 105.421875 445.753906 C 105.625 447.074219 107.148438 453.273438 108.875 459.46875 C 110.5 465.765625 112.328125 472.878906 112.835938 475.417969 C 114.359375 482.933594 114.664062 483.238281 116.695312 479.480469 C 117.710938 477.550781 118.929688 475.925781 119.539062 475.722656 C 120.554688 475.316406 121.875 482.933594 121.875 489.539062 C 121.875 494.007812 127.867188 510.160156 133.757812 521.640625 C 138.734375 531.390625 150.515625 546.527344 153.054688 546.527344 C 154.273438 546.527344 154.375 545.714844 153.867188 542.160156 C 153.460938 539.824219 152.75 537.179688 152.242188 536.265625 C 151.023438 533.828125 153.5625 530.679688 155.695312 531.898438 C 157.421875 532.914062 166.664062 544.394531 174.992188 555.875 C 177.9375 559.9375 179.867188 561.664062 181.1875 561.460938 C 182.710938 561.257812 183.828125 562.984375 186.46875 569.585938 C 190.9375 580.558594 199.367188 593.460938 206.984375 600.570312 C 212.773438 606.15625 216.125 607.984375 215.007812 605.140625 C 212.570312 598.4375 211.960938 596.203125 212.570312 595.695312 C 213.28125 594.984375 220.898438 602.09375 239.078125 620.175781 C 246.1875 627.1875 250.148438 633.382812 261.015625 653.699219 C 265.6875 662.640625 270.054688 667.921875 272.085938 667.3125 C 272.898438 667.007812 272.59375 665.585938 271.171875 662.84375 C 268.835938 658.167969 268.632812 655.933594 270.5625 654.308594 C 272.796875 652.378906 276.554688 656.339844 280.210938 664.570312 C 282.039062 668.632812 284.375 673.8125 285.390625 676.148438 C 288.132812 682.246094 296.867188 691.386719 301.945312 693.417969 C 305.09375 694.636719 309.5625 698.703125 318.90625 708.859375 C 329.976562 720.746094 338.710938 728.363281 341.453125 728.363281 C 342.875 728.363281 342.367188 725.417969 339.726562 719.121094 C 337.695312 714.449219 337.390625 712.617188 338.203125 711.09375 C 338.8125 709.976562 339.726562 709.0625 340.234375 709.0625 C 342.164062 709.0625 350.1875 715.363281 356.484375 721.761719 C 360.140625 725.519531 366.234375 730.597656 369.992188 733.140625 C 376.796875 737.507812 396.09375 745.632812 403.203125 747.15625 C 407.164062 747.96875 410.109375 749.902344 418.84375 757.011719 C 430.320312 766.457031 442.304688 770.625 444.84375 765.949219 C 445.453125 764.832031 446.976562 763.917969 448.398438 763.917969 C 451.75 763.917969 459.570312 767.476562 465.15625 771.539062 C 467.796875 773.46875 473.078125 776.515625 476.9375 778.242188 C 480.796875 779.96875 484.757812 781.695312 485.671875 782.203125 C 504.359375 792.160156 508.726562 792.871094 501.71875 784.949219 C 498.570312 781.289062 497.960938 779.664062 499.585938 778.75 C 500.09375 778.34375 506.1875 780.578125 513.09375 783.625 C 530.664062 791.246094 534.726562 792.363281 547.117188 793.378906 C 556.5625 794.089844 559.203125 794.699219 565.703125 797.746094 C 577.6875 803.335938 585.40625 803.84375 577.890625 798.457031 C 573.21875 795.207031 570.375 790.535156 571.796875 788.808594 C 572.8125 787.589844 574.640625 788.300781 583.070312 792.667969 L 593.226562 797.949219 L 603.585938 798.152344 C 614.960938 798.355469 619.125 799.269531 623.1875 802.421875 C 626.742188 805.265625 634.96875 807.601562 640.960938 807.601562 C 647.257812 807.601562 648.070312 805.976562 642.890625 803.945312 C 640.65625 803.03125 637.710938 800.894531 636.289062 799.269531 C 633.75 796.222656 632.9375 791.957031 634.765625 790.839844 C 635.273438 790.535156 639.132812 791.753906 643.195312 793.683594 C 647.359375 795.613281 653.148438 797.746094 656.195312 798.457031 C 659.242188 799.167969 662.796875 800.285156 664.21875 800.996094 C 667.671875 802.726562 679.148438 803.84375 679.960938 802.625 C 681.890625 799.371094 694.078125 799.574219 702.304688 803.03125 C 707.179688 805.0625 720.992188 808.007812 721.804688 807.195312 C 722.210938 806.890625 721.703125 805.164062 720.789062 803.640625 C 718.554688 799.777344 718.453125 793.582031 720.6875 792.667969 C 721.601562 792.363281 730.03125 793.582031 739.273438 795.511719 C 753.085938 798.253906 758.976562 798.964844 772.179688 799.269531 C 780.914062 799.472656 788.125 799.371094 788.125 798.964844 C 788.125 798.558594 786.703125 796.425781 784.976562 794.292969 C 779.796875 787.691406 780.507812 787.285156 797.265625 786.777344 C 833.523438 785.660156 843.679688 784.949219 845.914062 783.523438 L 848.351562 782 L 845.101562 779.460938 C 843.375 778.140625 841.953125 776.414062 841.953125 775.703125 C 841.953125 773.164062 850.179688 770.929688 855.765625 771.84375 C 861.351562 772.859375 868.359375 772.65625 876.28125 771.234375 C 882.78125 770.117188 883.59375 769.40625 880.75 767.375 C 877.804688 765.339844 875.46875 760.667969 875.46875 756.910156 C 875.46875 754.269531 876.078125 753.558594 879.328125 752.136719 C 888.265625 748.375 897 745.734375 907.460938 743.703125 C 913.65625 742.484375 921.070312 740.757812 923.914062 739.84375 C 928.789062 738.320312 929.195312 738.015625 927.773438 736.492188 C 924.117188 732.429688 926.757812 731.003906 951.640625 723.183594 C 960.882812 720.339844 970.125 717.089844 972.257812 715.972656 L 976.117188 714.042969 L 973.578125 712.007812 C 972.15625 710.890625 970.9375 709.570312 970.9375 709.0625 C 970.9375 707.84375 975.609375 706.21875 984.140625 704.492188 C 998.054688 701.546875 1019.078125 696.058594 1023.75 694.027344 L 1028.320312 692.097656 L 1024.664062 690.472656 C 1015.421875 686.613281 1018.976562 683.667969 1035.125 682.042969 C 1042.03125 681.332031 1051.070312 680.011719 1055.234375 679.097656 C 1059.398438 678.179688 1065.289062 677.0625 1068.132812 676.65625 C 1075.039062 675.640625 1075.648438 674.929688 1070.875 673.609375 C 1065.492188 672.1875 1059.296875 667.71875 1059.296875 665.382812 C 1059.296875 663.859375 1060.3125 663.351562 1065.1875 662.84375 C 1068.335938 662.4375 1072.601562 661.726562 1074.53125 661.117188 C 1080.117188 659.386719 1093.726562 652.378906 1100.429688 647.808594 C 1103.78125 645.472656 1112.007812 640.695312 1118.710938 637.039062 C 1166.953125 611.339844 1168.679688 610.324219 1181.476562 600.0625 C 1190.921875 592.546875 1201.484375 587.160156 1214.6875 583.097656 C 1220.578125 581.269531 1231.34375 577.816406 1238.554688 575.378906 L 1251.757812 570.90625 L 1213.164062 572.125 L 1209.304688 569.078125 C 1206.664062 566.945312 1203.921875 565.828125 1200.164062 565.320312 C 1188.992188 564 1186.960938 563.492188 1185.132812 561.664062 C 1181.578125 558.109375 1182.898438 554.550781 1188.585938 553.230469 C 1190.109375 552.925781 1191.328125 552.113281 1191.328125 551.605469 C 1191.328125 550.488281 1189.90625 550.183594 1178.835938 548.761719 C 1174.570312 548.253906 1170.304688 547.136719 1169.390625 546.425781 C 1167.96875 545.308594 1168.070312 544.902344 1170.101562 543.378906 C 1172.4375 541.652344 1172.4375 541.652344 1165.53125 538.503906 C 1156.796875 534.335938 1145.929688 527.734375 1142.375 524.382812 C 1136.789062 519.199219 1140.445312 514.019531 1148.367188 515.542969 C 1150.195312 515.847656 1151.71875 515.746094 1151.71875 515.339844 C 1151.71875 513.714844 1141.257812 502.847656 1136.890625 499.796875 C 1129.984375 495.226562 1126.429688 493.5 1119.726562 491.671875 C 1114.851562 490.453125 1113.632812 489.640625 1113.632812 488.117188 C 1113.632812 486.695312 1114.75 485.78125 1117.1875 484.96875 L 1120.640625 483.847656 L 1115.15625 480.597656 C 1112.109375 478.871094 1109.0625 477.449219 1108.453125 477.449219 C 1107.84375 477.449219 1106.320312 476.332031 1105.101562 475.011719 C 1103.476562 473.285156 1102.96875 471.863281 1103.476562 470.339844 C 1104.085938 468.511719 1104.796875 468.207031 1107.84375 468.511719 C 1109.976562 468.816406 1112.515625 469.324219 1113.632812 469.832031 C 1115.359375 470.542969 1115.359375 470.238281 1113.125 467.902344 C 1110.078125 464.445312 1101.953125 460.179688 1098.601562 460.179688 C 1095.859375 460.179688 1083.976562 448.394531 1081.132812 442.910156 C 1079.304688 439.355469 1079.914062 437.527344 1082.757812 438.339844 C 1085.195312 439.152344 1085.195312 438.644531 1082.65625 433.769531 C 1080.320312 429.09375 1069.757812 417.515625 1067.929688 417.515625 C 1067.21875 417.515625 1066.101562 416.90625 1065.492188 416.09375 C 1064.578125 414.976562 1065.085938 414.265625 1067.929688 412.535156 C 1069.960938 411.417969 1072.90625 410.402344 1074.632812 410.402344 C 1076.257812 410.402344 1077.578125 409.894531 1077.578125 409.386719 C 1077.578125 407.863281 1073.109375 403.902344 1067.523438 400.246094 C 1060.109375 395.570312 1051.375 388.664062 1050.664062 387.140625 C 1049.851562 385.007812 1050.867188 382.671875 1053.304688 381.148438 C 1055.539062 379.726562 1063.867188 379.320312 1067.421875 380.4375 C 1071.890625 381.859375 1068.945312 378.503906 1059.601562 371.597656 C 1046.398438 361.847656 1034.414062 351.179688 1031.367188 346.507812 C 1029.945312 344.476562 1028.523438 340.613281 1028.21875 338.074219 C 1027.609375 333.910156 1027.8125 333.097656 1030.148438 330.761719 C 1033.195312 327.714844 1038.273438 327.207031 1041.828125 329.746094 C 1043.859375 331.167969 1044.164062 331.167969 1044.671875 329.746094 C 1046.703125 324.359375 1038.78125 317.554688 1025.578125 313.492188 C 1017.757812 311.054688 1013.492188 308.515625 1005.367188 301.097656 C 999.984375 296.121094 996.328125 294.089844 988.304688 291.652344 C 983.53125 290.125 982.617188 289.414062 982.3125 287.179688 C 982.007812 285.148438 982.617188 284.234375 985.257812 282.914062 C 989.117188 280.882812 993.585938 281.492188 1000.59375 285.046875 C 1006.6875 288.195312 1006.992188 288.09375 1004.859375 284.4375 C 1003.84375 282.8125 1001.40625 280.679688 999.375 279.765625 C 981.5 271.535156 965.757812 262.394531 958.445312 255.996094 C 953.875 252.03125 953.671875 250.40625 957.734375 251.21875 C 959.359375 251.625 960.78125 251.523438 960.78125 251.117188 C 960.679688 250 946.460938 240.148438 939.859375 236.792969 C 936.609375 235.066406 931.023438 232.425781 927.570312 231.003906 C 923.914062 229.480469 920.96875 227.550781 920.664062 226.433594 C 920.359375 225.417969 915.992188 222.269531 910.914062 219.320312 C 905.328125 216.070312 901.875 213.429688 901.875 212.414062 C 901.875 210.078125 905.53125 208.148438 908.476562 208.859375 C 909.898438 209.164062 911.015625 209.0625 910.914062 208.65625 C 910.8125 205.8125 898.726562 199.917969 883.085938 195.144531 C 873.640625 192.199219 871.40625 190.675781 871.40625 186.917969 C 871.40625 185.191406 871.914062 183.867188 872.421875 183.867188 C 873.03125 183.867188 873.4375 183.257812 873.4375 182.445312 C 873.4375 181.632812 870.085938 180.007812 864.601562 178.28125 C 854.445312 175.132812 832.8125 165.074219 832.8125 163.449219 C 832.8125 162.839844 833.726562 162.636719 834.945312 163.042969 C 837.078125 163.753906 837.078125 163.652344 834.742188 160.605469 C 833.523438 158.878906 832.101562 157.457031 831.695312 157.457031 C 831.390625 157.457031 827.226562 154.003906 822.554688 149.839844 C 817.882812 145.671875 810.875 140.289062 806.914062 137.953125 C 799.703125 133.6875 794.21875 129.316406 794.21875 127.792969 C 794.21875 127.386719 795.234375 126.980469 796.554688 126.980469 C 798.6875 126.878906 798.6875 126.777344 795.742188 124.441406 C 794.117188 123.019531 788.125 119.566406 782.539062 116.722656 C 776.953125 113.875 771.46875 110.726562 770.453125 109.710938 C 768.625 107.882812 768.625 107.679688 770.25 105.140625 C 771.773438 102.804688 772.585938 102.5 776.039062 102.804688 C 781.015625 103.210938 781.21875 101.585938 776.648438 98.132812 C 771.875 94.472656 765.476562 92.441406 758.671875 92.441406 C 754.40625 92.441406 752.476562 91.933594 751.257812 90.613281 C 749.125 88.277344 749.125 87.363281 751.054688 87.363281 C 753.59375 87.363281 752.78125 85.535156 748.820312 82.589844 C 745.164062 79.746094 744.960938 79.746094 729.320312 79.746094 C 712.96875 79.644531 711.953125 79.542969 695.601562 74.359375 C 690.21875 72.632812 683.71875 71.007812 681.078125 70.601562 C 673.867188 69.484375 675.492188 68.0625 684.125 68.0625 C 688.492188 68.0625 691.539062 67.65625 691.132812 67.148438 C 690.828125 66.640625 687.273438 65.421875 683.210938 64.40625 C 677.320312 62.984375 670.515625 62.679688 648.273438 62.476562 C 621.867188 62.273438 615.671875 61.867188 622.171875 60.441406 C 623.796875 60.035156 626.03125 59.425781 627.148438 58.917969 C 628.976562 58.207031 628.976562 58.003906 626.132812 56.785156 C 622.070312 54.855469 597.898438 55.261719 585 57.394531 C 572.710938 59.324219 565.90625 59.324219 561.03125 57.292969 C 558.289062 56.175781 554.734375 55.769531 548.4375 55.972656 C 543.664062 56.175781 536.960938 55.871094 533.40625 55.464844 C 527.414062 54.652344 526.90625 54.347656 525.179688 50.894531 C 522.234375 45.308594 513.804688 37.078125 507.710938 33.929688 C 502.734375 31.289062 501.210938 31.085938 491.5625 30.984375 C 481.8125 30.984375 474.601562 31.796875 459.265625 34.742188 C 452.867188 35.859375 451.75 35.351562 455.101562 32.609375 C 456.421875 31.492188 457.234375 30.375 456.929688 30.070312 C 456.625 29.664062 452.460938 29.460938 447.789062 29.359375 C 441.59375 29.359375 437.835938 29.96875 433.976562 31.492188 C 429.203125 33.320312 428.59375 33.320312 428.59375 31.898438 C 428.59375 30.984375 431.335938 27.53125 434.6875 24.277344 L 440.882812 18.285156 L 437.53125 18.386719 C 435.703125 18.386719 432.25 19.300781 429.914062 20.316406 Z M 429.914062 20.316406 "/>
</g>
</svg>
