<?xml version="1.0" encoding="UTF-8"?>
<svg xmlns="http://www.w3.org/2000/svg" xmlns:xlink="http://www.w3.org/1999/xlink" width="644pt" height="1000pt" viewBox="0 0 644 1000" version="1.1">
<g id="surface1">
<path style=" stroke:none;fill-rule:nonzero;fill:rgb(0%,58.823529%,53.333333%);fill-opacity:1;" d="M 307.855469 20.546875 C 258.148438 87.03125 213.675781 155.78125 164.515625 242.1875 C 139.585938 286.09375 126.378906 310.46875 109.730469 343.75 C 51.347656 460.46875 12.191406 568.828125 1.796875 642.1875 C -0.078125 655.703125 -0.078125 685.15625 1.875 700.78125 C 6.800781 741.640625 18.445312 779.53125 37.59375 817.1875 C 55.414062 852.34375 77.0625 881.875 105.585938 909.765625 C 167.878906 970.703125 247.832031 1002.109375 334.894531 999.765625 C 381.554688 998.515625 421.570312 988.90625 461.507812 969.296875 C 492.066406 954.296875 516.371094 936.875 541.695312 911.71875 C 568.660156 884.921875 589.214844 856.40625 606.796875 821.328125 C 634.308594 766.40625 648.140625 699.53125 642.828125 647.8125 C 633.527344 558.125 577.800781 409.6875 503.710938 277.03125 C 466.039062 209.609375 422.351562 138.59375 385.851562 85.546875 C 365.84375 56.484375 325.90625 1.796875 323.640625 0.46875 C 323.40625 0.3125 316.214844 9.296875 307.855469 20.546875 Z M 307.855469 20.546875 "/>
</g>
</svg>
