<?xml version="1.0" encoding="UTF-8"?>
<svg xmlns="http://www.w3.org/2000/svg" xmlns:xlink="http://www.w3.org/1999/xlink" width="600pt" height="600pt" viewBox="0 0 600 600" version="1.1">
<g id="surface1">
<path style=" stroke:none;fill-rule:nonzero;fill:rgb(29.803922%,68.627451%,31.372549%);fill-opacity:1;" d="M 282.421875 96.609375 C 239.4375 100.078125 202.640625 115.171875 169.453125 142.875 C 164.015625 147.46875 147.46875 164.015625 142.875 169.453125 C 114.890625 202.96875 100.03125 239.53125 96.5625 283.3125 C 95.953125 291.09375 95.953125 308.90625 96.5625 316.6875 C 100.03125 360.46875 114.890625 397.03125 142.875 430.546875 C 147.46875 435.984375 164.015625 452.53125 169.453125 457.125 C 202.96875 485.109375 239.53125 499.96875 283.3125 503.4375 C 291.09375 504.046875 308.90625 504.046875 316.6875 503.4375 C 352.265625 500.625 383.34375 490.125 411.328125 471.421875 C 423.65625 463.171875 432.46875 455.8125 444.375 443.90625 C 478.40625 409.875 497.296875 371.203125 502.78125 324.375 C 503.765625 315.75 504.1875 293.25 503.484375 284.0625 C 500.109375 239.8125 485.296875 203.15625 457.125 169.453125 C 452.53125 164.015625 435.984375 147.46875 430.546875 142.875 C 397.03125 114.890625 360.46875 100.03125 316.6875 96.5625 C 309.75 96 289.359375 96.046875 282.421875 96.609375 Z M 293.109375 134.390625 C 293.25 134.625 289.359375 142.875 284.484375 152.765625 C 279.609375 162.65625 275.625 171.1875 275.625 171.703125 C 275.625 173.109375 277.96875 185.203125 278.4375 186.421875 C 278.859375 187.40625 279.234375 187.453125 283.6875 187.59375 L 288.515625 187.734375 L 288.65625 242.953125 L 288.75 298.171875 L 282.140625 309.890625 C 278.53125 316.3125 275.625 321.890625 275.71875 322.3125 C 275.8125 322.734375 278.296875 324.65625 281.25 326.578125 C 290.15625 332.296875 288.65625 331.875 300.140625 331.875 C 307.265625 331.875 310.265625 331.734375 310.6875 331.3125 C 311.109375 330.890625 311.25 327.046875 311.25 316.875 L 311.25 303 L 326.25 276.984375 C 334.5 262.6875 341.53125 250.828125 341.859375 250.59375 C 342.328125 250.3125 343.734375 250.875 346.40625 252.375 C 348.515625 253.546875 350.484375 254.53125 350.765625 254.53125 C 351 254.53125 352.40625 253.546875 353.8125 252.28125 C 355.21875 251.0625 356.859375 249.65625 357.515625 249.140625 C 358.59375 248.203125 358.640625 248.203125 360 224.0625 C 361.640625 195.796875 361.6875 194.0625 360.703125 194.0625 C 360 194.0625 317.765625 221.625 316.3125 223.03125 C 315.515625 223.828125 313.359375 232.6875 313.828125 233.390625 C 313.921875 233.625 315.75 234.75 317.8125 235.96875 C 319.921875 237.1875 321.703125 238.453125 321.84375 238.78125 C 322.125 239.53125 312.609375 255.9375 311.8125 255.9375 C 311.34375 255.9375 311.25 248.953125 311.34375 221.8125 L 311.484375 187.734375 L 316.3125 187.59375 C 320.765625 187.453125 321.140625 187.40625 321.5625 186.421875 C 322.03125 185.203125 324.375 173.109375 324.375 171.703125 C 324.375 171.1875 320.390625 162.65625 315.515625 152.765625 C 310.640625 142.875 306.75 134.625 306.890625 134.390625 C 307.6875 133.03125 326.0625 135.140625 339.375 138.09375 C 352.03125 140.953125 373.59375 149.15625 373.59375 151.125 C 373.59375 151.5 372.375 153.890625 370.875 156.421875 C 367.40625 162.28125 359.953125 177.65625 360.28125 178.21875 C 360.65625 178.78125 374.625 187.03125 375.234375 187.03125 C 375.890625 187.03125 385.21875 173.296875 389.015625 166.734375 C 390.65625 163.96875 392.203125 161.71875 392.484375 161.71875 C 393.09375 161.71875 400.6875 167.390625 406.171875 171.984375 C 411.5625 176.484375 423.46875 188.390625 428.015625 193.828125 C 433.359375 200.203125 438.375 207.140625 438.140625 207.84375 C 438 208.171875 435.9375 209.53125 433.546875 210.9375 C 429.140625 213.421875 413.671875 223.734375 413.25 224.4375 C 413.015625 224.859375 420.515625 238.359375 421.546875 239.4375 C 422.015625 239.90625 423.84375 239.203125 430.546875 235.921875 C 435.1875 233.671875 441.046875 230.625 443.578125 229.125 C 446.109375 227.625 448.5 226.40625 448.875 226.40625 C 451.078125 226.40625 459.421875 248.90625 462.375 262.875 C 464.484375 272.8125 466.359375 287.4375 465.75 288.984375 C 465.5625 289.546875 464.296875 289.6875 458.578125 289.734375 C 450.890625 289.734375 436.453125 290.71875 435.5625 291.28125 C 434.765625 291.75 434.765625 308.25 435.5625 308.71875 C 436.453125 309.28125 450.890625 310.265625 458.578125 310.265625 C 464.296875 310.3125 465.5625 310.453125 465.75 311.015625 C 465.9375 311.390625 465.796875 314.203125 465.46875 317.25 C 463.78125 334.171875 460.03125 349.359375 453.984375 363.984375 C 451.546875 369.890625 449.625 373.59375 448.921875 373.59375 C 448.640625 373.59375 446.671875 372.609375 444.609375 371.390625 C 438.84375 368.0625 422.296875 359.953125 421.59375 360.09375 C 420.75 360.28125 412.5 374.53125 412.828125 375.28125 C 413.0625 375.984375 427.6875 385.734375 433.546875 389.0625 C 435.9375 390.421875 438 391.828125 438.140625 392.15625 C 438.375 392.859375 433.359375 399.796875 428.015625 406.171875 C 423.46875 411.609375 411.5625 423.515625 406.171875 428.015625 C 399.421875 433.640625 392.859375 438.421875 392.203125 438.140625 C 391.875 438 390.421875 435.9375 389.0625 433.546875 C 385.734375 427.78125 375.984375 413.0625 375.28125 412.828125 C 374.765625 412.59375 361.78125 419.90625 360.5625 421.125 C 360.09375 421.59375 360.84375 423.46875 364.59375 431.0625 C 367.171875 436.171875 370.359375 442.265625 371.671875 444.515625 C 372.984375 446.8125 373.921875 448.875 373.78125 449.109375 C 372.984375 450.421875 361.59375 455.25 351.890625 458.390625 C 344.0625 460.921875 336.984375 462.609375 328.359375 464.015625 C 321.28125 465.1875 311.953125 466.125 311.015625 465.75 C 310.453125 465.5625 310.3125 464.390625 310.3125 459.28125 C 310.3125 453.234375 309.609375 439.640625 309.09375 436.5 L 308.859375 435 L 291.140625 435 L 290.90625 436.5 C 290.390625 439.640625 289.6875 453.234375 289.6875 459.28125 C 289.6875 464.390625 289.546875 465.5625 288.984375 465.75 C 288.609375 465.9375 285.796875 465.796875 282.75 465.46875 C 265.828125 463.78125 250.640625 460.03125 236.015625 453.984375 C 230.109375 451.546875 226.40625 449.625 226.40625 448.921875 C 226.40625 448.640625 227.390625 446.671875 228.609375 444.609375 C 231.9375 438.84375 240.046875 422.296875 239.90625 421.59375 C 239.71875 420.75 225.46875 412.5 224.71875 412.828125 C 224.015625 413.0625 214.265625 427.6875 210.9375 433.546875 C 209.578125 435.9375 208.125 438 207.796875 438.140625 C 207.140625 438.421875 200.578125 433.640625 193.828125 428.015625 C 188.4375 423.515625 176.53125 411.609375 171.984375 406.171875 C 166.640625 399.796875 161.625 392.859375 161.859375 392.15625 C 162 391.828125 164.0625 390.421875 166.453125 389.0625 C 172.3125 385.734375 186.9375 375.984375 187.171875 375.28125 C 187.5 374.53125 179.25 360.28125 178.40625 360.09375 C 177.703125 359.953125 161.15625 368.0625 155.390625 371.390625 C 153.328125 372.609375 151.359375 373.59375 151.078125 373.59375 C 150.375 373.59375 148.453125 369.890625 146.015625 363.984375 C 139.96875 349.359375 136.21875 334.171875 134.53125 317.25 C 134.203125 314.203125 134.0625 311.390625 134.25 311.015625 C 134.4375 310.453125 135.5625 310.3125 140.484375 310.3125 C 146.34375 310.3125 159.9375 309.5625 163.03125 309.09375 L 164.53125 308.859375 L 164.53125 291.140625 L 163.03125 290.90625 C 159.9375 290.4375 146.34375 289.6875 140.484375 289.6875 C 135.5625 289.6875 134.4375 289.546875 134.25 288.984375 C 133.640625 287.4375 135.515625 272.8125 137.625 262.875 C 140.625 248.625 148.921875 226.40625 151.21875 226.40625 C 151.640625 226.40625 153.984375 227.625 156.46875 229.078125 C 162 232.3125 177.703125 239.953125 178.359375 239.71875 C 178.921875 239.484375 187.03125 225.46875 187.03125 224.71875 C 187.03125 224.109375 173.25 214.734375 166.78125 210.984375 C 163.96875 209.34375 161.71875 207.84375 161.71875 207.5625 C 161.71875 206.953125 167.671875 198.9375 171.984375 193.828125 C 176.53125 188.390625 188.4375 176.484375 193.828125 171.984375 C 200.578125 166.359375 207.140625 161.578125 207.796875 161.859375 C 208.125 162 209.53125 164.0625 210.9375 166.453125 C 213.421875 170.859375 223.734375 186.328125 224.4375 186.75 C 224.859375 186.984375 238.359375 179.484375 239.4375 178.453125 C 239.90625 177.984375 239.203125 176.15625 235.921875 169.453125 C 233.671875 164.8125 230.625 158.953125 229.125 156.421875 C 227.625 153.890625 226.40625 151.5 226.40625 151.125 C 226.40625 149.859375 236.90625 145.265625 248.109375 141.609375 C 258.328125 138.328125 268.734375 136.078125 280.078125 134.765625 C 285.984375 134.0625 292.828125 133.875 293.109375 134.390625 Z M 293.109375 134.390625 "/>
</g>
</svg>
