<?xml version="1.0" encoding="UTF-8"?>
<svg xmlns="http://www.w3.org/2000/svg" xmlns:xlink="http://www.w3.org/1999/xlink" width="802pt" height="800pt" viewBox="0 0 802 800" version="1.1">
<g id="surface1">
<path style=" stroke:none;fill-rule:nonzero;fill:rgb(100%,59.607843%,0%);fill-opacity:1;" d="M 395.800781 7.960938 C 374.996094 40.941406 362.152344 77.492188 357.640625 116.300781 C 356.390625 126.769531 356.640625 155.171875 357.957031 164.890625 C 360.773438 184.828125 367.039062 205.265625 374.558594 218.808594 C 376.753906 222.757812 376.816406 222.820312 377.253906 221.128906 C 378.003906 218.433594 379.070312 206.582031 379.070312 201.503906 C 379.070312 197.867188 378.695312 195.988281 377.128906 192.101562 C 369.484375 173.039062 367.667969 143.449219 372.242188 113.355469 C 372.929688 108.777344 373.683594 103.886719 373.871094 102.507812 L 374.246094 100 L 371.363281 102.507812 L 371.738281 99.308594 C 373.429688 84.199219 386.714844 45.390625 390.660156 43.886719 C 391.414062 43.574219 392.417969 42.445312 392.855469 41.253906 C 393.355469 40.125 395.296875 35.863281 397.304688 31.785156 L 400.875 24.390625 L 402.378906 27.085938 C 403.191406 28.589844 405.324219 32.851562 407.015625 36.550781 C 409.082031 41.128906 410.523438 43.574219 411.402344 43.886719 C 415.285156 45.390625 428.570312 84.324219 430.261719 99.308594 L 430.636719 102.507812 L 427.753906 100 L 428.128906 102.507812 C 428.316406 103.886719 429.070312 108.652344 429.695312 113.167969 C 434.332031 143.511719 432.515625 173.039062 424.871094 192.101562 C 423.242188 196.113281 422.929688 197.867188 422.929688 201.882812 C 422.929688 207.085938 423.996094 218.308594 424.746094 221.128906 C 425.183594 222.757812 425.3125 222.632812 427.441406 218.746094 C 432.390625 209.84375 436.527344 198.808594 439.847656 185.894531 C 444.234375 168.777344 445.800781 153.542969 445.234375 133.855469 C 444.042969 90.09375 430.511719 46.457031 406.199219 7.960938 C 403.632812 3.949219 401.3125 0.628906 401 0.628906 C 400.6875 0.628906 398.367188 3.949219 395.800781 7.960938 Z M 395.800781 7.960938 "/>
<path style=" stroke:none;fill-rule:nonzero;fill:rgb(100%,59.607843%,0%);fill-opacity:1;" d="M 366.976562 45.894531 C 358.332031 50.59375 339.410156 71.976562 333.457031 83.761719 C 320.675781 109.214844 312.027344 143.886719 312.027344 170.15625 L 312.027344 177.554688 L 316.351562 184.890625 C 318.730469 188.902344 322.992188 195.675781 325.8125 200 L 330.949219 207.835938 L 330.574219 200.628906 C 329.824219 187.710938 332.078125 167.023438 335.210938 158.371094 C 335.835938 156.613281 336.839844 152.789062 337.402344 149.84375 C 339.722656 137.617188 344.921875 124.390625 350.125 117.617188 C 351.375 115.925781 352.628906 114.230469 352.816406 113.855469 C 353.066406 113.480469 353.820312 108.777344 354.570312 103.449219 C 356.703125 87.585938 361.652344 69.46875 368.480469 52.164062 C 370.171875 47.960938 371.550781 44.324219 371.550781 44.199219 C 371.550781 43.574219 370.550781 43.949219 366.976562 45.894531 Z M 366.976562 45.894531 "/>
<path style=" stroke:none;fill-rule:nonzero;fill:rgb(100%,59.607843%,0%);fill-opacity:1;" d="M 389.722656 48.777344 C 386.085938 57.429688 380.324219 75.421875 377.503906 86.832031 C 375.9375 93.039062 374.683594 98.496094 374.683594 98.933594 C 374.683594 99.5625 375.121094 99.6875 376.25 99.4375 C 378.445312 98.871094 381.765625 100.5625 383.769531 103.199219 C 387.527344 108.085938 391.976562 119.5 397.554688 138.371094 C 399.246094 144.011719 400.75 148.589844 401 148.589844 C 401.25 148.589844 402.753906 144.011719 404.445312 138.371094 C 410.023438 119.5 414.472656 108.085938 418.230469 103.199219 C 420.234375 100.5625 423.554688 98.871094 425.75 99.4375 C 426.8125 99.6875 427.316406 99.5625 427.316406 98.996094 C 427.253906 94.292969 416.976562 59.9375 412.277344 48.839844 L 410.273438 44.011719 L 408.144531 44.703125 C 405.824219 45.390625 401.625 49.53125 401.625 51.097656 C 401.625 51.597656 401.375 52.039062 401 52.039062 C 400.6875 52.039062 400.375 51.597656 400.375 51.097656 C 400.375 49.53125 396.175781 45.390625 393.855469 44.703125 L 391.726562 44.011719 Z M 389.722656 48.777344 "/>
<path style=" stroke:none;fill-rule:nonzero;fill:rgb(100%,59.607843%,0%);fill-opacity:1;" d="M 430.449219 44.199219 C 430.449219 44.324219 431.828125 47.960938 433.519531 52.164062 C 440.347656 69.46875 445.296875 87.585938 447.429688 103.449219 C 448.179688 108.777344 448.933594 113.480469 449.183594 113.855469 C 449.371094 114.230469 450.625 115.925781 451.875 117.617188 C 457.015625 124.324219 462.214844 137.492188 464.660156 149.84375 C 465.222656 152.789062 466.351562 157.117188 467.101562 159.5625 C 470.171875 168.902344 472.113281 186.960938 471.425781 200 L 471.050781 207.835938 L 477.128906 198.496094 C 480.449219 193.355469 484.707031 186.519531 486.589844 183.261719 L 489.972656 177.367188 L 489.972656 170.28125 C 489.972656 144.703125 482.515625 113.605469 469.859375 86.644531 C 463.71875 73.542969 444.234375 50.785156 435.085938 45.894531 C 431.261719 43.886719 430.449219 43.636719 430.449219 44.199219 Z M 430.449219 44.199219 "/>
<path style=" stroke:none;fill-rule:nonzero;fill:rgb(100%,59.607843%,0%);fill-opacity:1;" d="M 249.746094 72.539062 C 247.992188 87.023438 247.492188 94.984375 247.492188 110.03125 C 247.492188 141.753906 252.441406 173.101562 261.839844 200.878906 C 263.21875 205.015625 264.285156 208.464844 264.160156 208.589844 C 264.035156 208.714844 262.59375 205.515625 260.964844 201.441406 C 247.492188 167.835938 240.976562 137.617188 240.160156 105.453125 C 239.972656 97.804688 239.722656 91.597656 239.597656 91.722656 C 239.472656 91.847656 238.84375 95.046875 238.28125 98.808594 C 236.964844 107.523438 236.777344 139.6875 237.96875 150.46875 C 240.285156 171.347656 245.488281 198.871094 249.808594 212.851562 C 250.1875 214.042969 250.125 214.042969 248.371094 212.851562 C 218.734375 193.355469 183.019531 176.738281 156.328125 169.96875 C 150.6875 168.589844 138.722656 166.144531 137.59375 166.207031 C 137.21875 166.207031 141.164062 167.710938 146.300781 169.53125 C 180.136719 181.378906 212.59375 200.5625 239.347656 224.515625 C 241.351562 226.269531 241.226562 226.269531 238.40625 224.199219 C 205.074219 200.1875 175.875 185.832031 139.472656 175.484375 C 131.015625 173.101562 110.527344 168.652344 108.082031 168.652344 C 106.640625 168.652344 107.894531 169.84375 127.441406 186.457031 C 148.496094 204.261719 160.335938 215.109375 175.75 230.785156 C 203.445312 258.996094 217.792969 275.800781 231.703125 296.675781 C 244.421875 315.738281 256.453125 338.683594 263.78125 357.679688 C 265.035156 360.941406 266.414062 362.695312 274.058594 370.40625 C 282.390625 378.808594 288.21875 383.824219 288.21875 382.570312 C 288.21875 380.3125 280.511719 357.242188 275.375 344.199219 C 268.921875 327.898438 263.84375 316.863281 249.433594 287.835938 C 234.710938 258.246094 231.828125 250.59375 234.710938 248.214844 C 237.59375 245.832031 252.753906 253.792969 263.78125 263.574219 C 288.65625 285.578125 317.164062 334.671875 322.992188 365.644531 C 323.429688 368.152344 325.125 373.855469 326.691406 378.246094 C 328.257812 382.695312 330.386719 389.339844 331.390625 393.039062 L 333.207031 399.8125 L 326.5 405.140625 C 322.867188 408.085938 317.039062 412.414062 313.59375 414.734375 C 310.148438 417.054688 305.511719 420.691406 303.257812 422.820312 C 297.804688 427.960938 291.976562 432.226562 281.890625 438.246094 C 256.578125 453.480469 225.75 465.140625 201.691406 468.714844 C 192.855469 469.96875 177.882812 469.71875 171.300781 468.085938 C 167.105469 467.085938 164.160156 465.328125 164.160156 463.886719 C 164.160156 462.320312 169.671875 457.617188 175.5625 454.105469 C 179.132812 452.039062 190.476562 445.957031 200.8125 440.5625 C 229.636719 425.707031 242.042969 418.621094 259.398438 407.210938 C 268.984375 400.878906 286.964844 387.710938 286.964844 387.023438 C 286.964844 386.332031 276.125 387.398438 266.039062 389.027344 C 257.578125 390.40625 255.761719 390.910156 253.445312 392.476562 C 248.558594 395.863281 231.265625 405.515625 221.613281 410.28125 C 197.992188 421.882812 172.554688 430.722656 145.988281 436.613281 C 113.40625 443.824219 79.386719 448.777344 46.367188 451.097656 C 28.195312 452.414062 18.171875 453.230469 16.351562 453.667969 L 14.847656 453.980469 L 16.667969 455.046875 C 21.867188 458.117188 39.472656 465.707031 50.75 469.65625 C 58.773438 472.539062 74.371094 476.929688 83.582031 478.996094 C 103.320312 483.386719 119.046875 485.265625 140.351562 485.832031 C 155.386719 486.207031 156.015625 486.269531 150.6875 486.832031 C 142.355469 487.773438 107.582031 487.585938 98.683594 486.644531 C 80.386719 484.640625 61.027344 480.753906 45.613281 475.988281 C 41.164062 474.609375 37.59375 473.605469 37.59375 473.730469 C 37.59375 473.855469 40.039062 475.171875 43.109375 476.550781 C 65.414062 486.960938 91.730469 494.167969 123.121094 498.433594 C 130.953125 499.5 147.804688 500.941406 152.128906 500.941406 C 154.257812 500.941406 156.015625 501.128906 156.015625 501.378906 C 156.015625 501.691406 152.441406 504.890625 147.992188 508.527344 C 123.683594 528.902344 101.941406 552.601562 87.53125 574.609375 C 82.519531 582.320312 76.003906 593.730469 76.628906 593.730469 C 76.816406 593.730469 78.695312 591.285156 80.890625 588.277344 C 95.425781 568.214844 117.355469 546.644531 139.785156 530.28125 C 146.175781 525.644531 159.148438 517.117188 164.160156 514.292969 L 165.726562 513.355469 L 164.160156 514.671875 C 163.28125 515.359375 159.648438 518.054688 156.015625 520.753906 C 144.609375 529.089844 135.398438 537.179688 123.371094 549.152344 C 106.390625 566.144531 94.609375 580.816406 82.707031 599.75 C 78.945312 605.707031 69.546875 622.257812 69.546875 622.882812 C 69.546875 623.511719 74.121094 620.878906 86.152344 613.417969 C 121.992188 591.222656 140.351562 581.128906 171.679688 566.457031 C 215.664062 545.894531 251.816406 536.113281 297.179688 532.539062 C 302.503906 532.164062 303.132812 531.914062 311.902344 527.398438 C 316.976562 524.828125 322.929688 521.566406 325.125 520.1875 L 329.132812 517.617188 L 327.003906 517.054688 C 325.8125 516.738281 316.664062 516.613281 306.074219 516.800781 C 280.199219 517.304688 262.71875 519.121094 221.804688 525.390625 C 195.425781 529.46875 188.46875 529.84375 185.335938 527.273438 C 184.085938 526.269531 184.019531 526.019531 184.835938 524.074219 C 186.152344 520.878906 195.675781 511.722656 202.378906 507.273438 C 225.1875 492.039062 262.90625 480.878906 300.5 478.246094 C 309.207031 477.617188 312.65625 477.679688 318.417969 478.308594 C 322.304688 478.746094 331.390625 479.121094 338.65625 479.058594 C 345.925781 479.058594 353.507812 479.183594 355.511719 479.5 L 359.207031 479.9375 L 361.964844 487.085938 C 363.46875 490.972656 365.722656 497.742188 366.914062 502.132812 C 368.167969 506.457031 369.984375 511.597656 370.925781 513.480469 C 376.3125 524.011719 381.199219 542.882812 384.144531 564.890625 C 385.773438 577.367188 386.464844 604.011719 385.398438 614.796875 C 383.519531 633.230469 378.128906 650.15625 371.738281 657.679688 C 368.984375 660.878906 367.417969 660.816406 365.472656 657.367188 C 363.15625 653.230469 361.652344 646.394531 357.140625 619.308594 C 351.25 584.074219 347.554688 566.519531 342.039062 547.398438 C 339.785156 539.6875 335.085938 525.453125 333.582031 521.945312 L 332.515625 519.4375 L 331.640625 521.945312 C 331.136719 523.324219 329.824219 530.03125 328.632812 536.929688 L 326.5 549.339844 L 328.632812 558.246094 C 334.835938 584.011719 337.71875 608.402344 337.71875 635.109375 C 337.71875 655.675781 336.652344 669.027344 332.640625 698.117188 C 329.007812 724.765625 326.375 738.308594 317.980469 773.355469 C 315.097656 785.390625 312.53125 796.300781 312.339844 797.492188 L 311.902344 799.6875 L 314.847656 796.863281 C 322.242188 789.78125 336.214844 773.039062 344.484375 761.316406 C 361.339844 737.492188 376.625 706.457031 384.457031 680.375 C 385.398438 677.179688 386.277344 674.734375 386.402344 674.859375 C 386.839844 675.296875 381.453125 695.546875 378.445312 704.703125 C 369.484375 732.039062 357.957031 754.796875 340.222656 780.25 L 337.59375 784.011719 L 342.792969 778.683594 C 362.214844 758.683594 382.515625 725.015625 396.988281 688.902344 C 398.996094 683.824219 400.8125 679.625 401 679.625 C 401.1875 679.625 402.003906 681.378906 402.816406 683.511719 C 417.164062 721.066406 438.84375 757.679688 458.769531 778.246094 C 464.28125 783.886719 464.34375 783.949219 461.714844 780.25 C 444.296875 755.296875 432.515625 732.039062 423.554688 704.703125 C 420.546875 695.546875 415.160156 675.296875 415.597656 674.859375 C 415.722656 674.734375 416.601562 677.242188 417.542969 680.4375 C 427.816406 714.984375 448.996094 753.230469 473.742188 782.195312 C 480.386719 789.90625 489.40625 799.5 489.785156 799.183594 C 490.097656 798.808594 488.65625 792.289062 484.019531 773.355469 C 475.058594 736.738281 470.421875 710.972656 466.539062 675.863281 C 461.964844 634.984375 464.21875 596.238281 473.367188 558.246094 L 475.5 549.46875 L 473.367188 536.929688 C 472.175781 530.09375 470.863281 523.324219 470.359375 521.945312 L 469.421875 519.4375 L 468.667969 521.316406 C 464.660156 531.472656 459.773438 547.273438 455.886719 562.695312 C 452.378906 576.863281 449.433594 591.722656 444.859375 619.246094 C 442.476562 633.480469 439.972656 647.335938 439.21875 650.03125 C 437.652344 655.925781 435.523438 659.8125 433.894531 660.0625 C 429.570312 660.691406 421.925781 644.765625 418.605469 628.402344 C 414.597656 608.652344 415.347656 574.859375 420.421875 548.589844 C 423.304688 533.980469 427.253906 520.941406 431.011719 513.605469 C 432.015625 511.597656 433.832031 506.457031 435.085938 502.132812 C 436.277344 497.742188 438.53125 490.972656 440.035156 487.085938 L 442.792969 479.9375 L 446.488281 479.5 C 448.492188 479.183594 456.136719 479.058594 463.34375 479.058594 C 470.925781 479.121094 479.007812 478.808594 482.453125 478.371094 C 498.867188 476.175781 533.394531 481.003906 559.832031 489.152344 C 574.746094 493.730469 589.21875 500.3125 599.621094 507.273438 C 606.699219 511.976562 615.472656 520.4375 616.914062 523.824219 C 617.851562 526.207031 617.851562 526.332031 616.601562 527.335938 C 613.53125 529.84375 606.511719 529.46875 580.195312 525.390625 C 539.28125 519.121094 521.800781 517.304688 495.925781 516.800781 C 485.335938 516.613281 476.1875 516.738281 474.996094 517.054688 L 472.867188 517.617188 L 476.875 520.1875 C 479.070312 521.566406 485.023438 524.828125 490.097656 527.398438 C 498.867188 531.914062 499.496094 532.164062 504.820312 532.539062 C 550.183594 536.113281 586.335938 545.894531 630.320312 566.457031 C 661.460938 581.066406 679.945312 591.160156 713.339844 611.914062 C 727 620.4375 732.453125 623.574219 732.453125 622.882812 C 732.453125 622.382812 723.179688 605.894531 720.671875 601.882812 C 707.199219 580.5625 696.046875 566.644531 678.628906 549.152344 C 666.601562 537.179688 657.390625 529.089844 645.984375 520.753906 C 642.351562 518.054688 638.71875 515.359375 637.839844 514.671875 L 636.273438 513.355469 L 637.839844 514.292969 C 642.851562 517.117188 655.824219 525.644531 662.214844 530.28125 C 684.519531 546.519531 705.570312 567.273438 720.671875 587.710938 C 725.871094 594.796875 726.1875 594.859375 722.738281 588.402344 C 709.644531 563.636719 683.328125 533.101562 654.007812 508.527344 C 649.558594 504.890625 645.984375 501.691406 645.984375 501.378906 C 645.984375 501.128906 647.742188 500.941406 649.933594 500.941406 C 654.195312 500.941406 671.046875 499.5 678.878906 498.433594 C 701 495.421875 720.234375 491.035156 738.027344 484.953125 C 747.175781 481.753906 762.652344 475.234375 764.03125 473.980469 C 764.34375 473.667969 760.960938 474.546875 756.511719 475.925781 C 740.972656 480.753906 721.613281 484.640625 703.316406 486.644531 C 694.417969 487.585938 659.644531 487.773438 651.3125 486.832031 C 645.984375 486.269531 646.613281 486.207031 661.648438 485.832031 C 698.117188 484.828125 730.761719 478.183594 763.78125 464.890625 C 771.359375 461.816406 782.324219 456.863281 785.332031 455.046875 L 787.152344 453.980469 L 785.648438 453.667969 C 783.828125 453.230469 773.804688 452.414062 755.632812 451.097656 C 722.613281 448.777344 688.59375 443.824219 656.011719 436.613281 C 618.605469 428.339844 582.640625 413.792969 551.4375 394.230469 L 545.609375 390.59375 L 535.835938 389.027344 C 525.9375 387.398438 515.035156 386.332031 515.035156 387.023438 C 515.035156 387.585938 529.382812 398.308594 538.53125 404.515625 C 555.511719 416.050781 571.300781 425.140625 600.875 440.4375 C 611.398438 445.832031 622.867188 452.039062 626.4375 454.105469 C 632.328125 457.617188 637.839844 462.320312 637.839844 463.886719 C 637.839844 465.328125 634.894531 467.085938 630.699219 468.085938 C 624.117188 469.71875 609.144531 469.96875 600.308594 468.714844 C 575.875 465.078125 544.609375 453.167969 519.042969 437.617188 C 509.707031 431.976562 503.945312 427.773438 498.742188 422.820312 C 496.488281 420.691406 491.914062 417.117188 488.59375 414.859375 C 485.210938 412.664062 479.382812 408.339844 475.625 405.328125 L 468.792969 399.8125 L 470.609375 393.039062 C 471.613281 389.339844 473.742188 382.695312 475.308594 378.246094 C 476.875 373.855469 478.570312 368.152344 479.007812 365.644531 C 481.261719 353.792969 486.085938 340.816406 494.359375 324.453125 C 509.960938 293.605469 529.882812 268.085938 547.742188 256.113281 C 556.636719 250.15625 565.347656 246.644531 567.289062 248.214844 C 570.171875 250.59375 567.289062 258.246094 552.566406 287.835938 C 538.15625 316.863281 533.078125 327.898438 526.625 344.199219 C 521.488281 357.242188 513.78125 380.3125 513.78125 382.570312 C 513.78125 383.824219 519.609375 378.808594 527.941406 370.40625 C 535.585938 362.695312 536.964844 360.941406 538.21875 357.679688 C 543.230469 344.703125 552.503906 325.707031 560.648438 311.914062 C 576.5 285.078125 593.355469 264.261719 625.9375 231.097656 C 641.664062 215.171875 653.378906 204.324219 674.558594 186.457031 C 694.105469 169.84375 695.359375 168.652344 693.917969 168.652344 C 693.292969 168.652344 687.902344 169.65625 681.949219 170.847656 C 643.917969 178.621094 608.265625 193.730469 575.8125 215.800781 C 570.796875 219.183594 565.347656 223.007812 563.59375 224.261719 C 559.394531 227.335938 561.023438 225.707031 568.292969 219.6875 C 595.484375 196.863281 623.554688 180.816406 655.699219 169.53125 C 660.898438 167.710938 664.78125 166.207031 664.40625 166.207031 C 663.277344 166.144531 651.3125 168.589844 645.671875 169.96875 C 618.980469 176.738281 583.265625 193.355469 553.628906 212.851562 C 551.875 214.042969 551.8125 214.042969 552.191406 212.851562 C 557.015625 196.175781 561.398438 173.480469 563.71875 153.292969 C 565.660156 136.300781 565.035156 101.566406 562.714844 92.914062 C 562.402344 91.976562 562.089844 97.492188 561.839844 105.328125 C 561.023438 137.679688 554.507812 167.835938 541.035156 201.441406 C 539.40625 205.515625 537.964844 208.714844 537.839844 208.589844 C 537.714844 208.464844 538.78125 205.015625 540.160156 200.878906 C 546.800781 181.128906 551.5625 157.929688 553.566406 134.921875 C 555.324219 115.484375 554.507812 86.582031 551.75 68.964844 L 550.9375 63.636719 L 549.183594 67.398438 C 548.242188 69.46875 544.292969 78.933594 540.410156 88.402344 C 527.253906 120.5625 519.230469 137.554688 504.507812 164.578125 C 488.84375 193.355469 477.441406 210.722656 461.210938 230.09375 C 453.632812 239.246094 431.640625 261.378906 422.617188 268.964844 L 415.722656 274.796875 L 410.273438 285.644531 C 404.882812 296.550781 402.503906 302.195312 403.445312 302.195312 C 404.257812 302.195312 418.417969 292.351562 425.4375 286.898438 C 442.101562 273.980469 456.074219 261.378906 482.765625 235.109375 C 501.8125 216.363281 507.578125 211.347656 511.652344 210.03125 C 515.097656 208.839844 515.972656 210.09375 515.847656 215.863281 C 515.347656 236.613281 499.808594 264.953125 472.617188 294.859375 C 459.582031 309.152344 441.414062 324.515625 431.953125 329.277344 C 429.570312 330.46875 425.183594 333.355469 422.304688 335.675781 C 419.359375 337.992188 413.40625 342.320312 409.019531 345.265625 L 401 350.59375 L 393.042969 345.265625 C 388.59375 342.320312 382.640625 337.992188 379.695312 335.675781 C 376.816406 333.355469 372.429688 330.46875 370.046875 329.277344 C 360.585938 324.515625 342.417969 309.152344 329.382812 294.859375 C 302.128906 264.890625 286.652344 236.613281 286.152344 215.863281 C 286.027344 210.09375 286.902344 208.839844 290.347656 210.03125 C 294.421875 211.347656 300.125 216.363281 320.925781 236.738281 C 348.117188 263.449219 363.09375 276.863281 380.324219 289.71875 C 388.21875 295.675781 397.804688 302.195312 398.554688 302.195312 C 399.496094 302.195312 397.117188 296.425781 391.664062 285.644531 L 386.277344 274.796875 L 379.382812 268.964844 C 370.296875 261.316406 348.367188 239.183594 340.789062 230.09375 C 320.613281 205.957031 304.886719 180.5625 283.957031 138.558594 C 275.9375 122.507812 270.613281 110.46875 260.148438 84.953125 C 254.007812 69.96875 251.375 63.949219 251.0625 63.949219 C 250.9375 63.949219 250.375 67.835938 249.746094 72.539062 Z M 282.578125 244.199219 C 309.960938 289.089844 346.800781 326.019531 390.097656 352.101562 C 396.738281 356.050781 400.5 357.992188 401.4375 357.804688 C 402.191406 357.679688 407.140625 354.921875 412.464844 351.722656 C 460.585938 322.820312 502.441406 278.054688 528.882812 227.273438 C 531.574219 222.070312 533.832031 218.054688 533.832031 218.308594 C 533.832031 219.183594 527.378906 233.667969 523.367188 241.691406 C 495.925781 296.550781 451.941406 340.3125 407.765625 356.675781 L 401 359.183594 L 394.421875 356.738281 C 371.800781 348.339844 350.625 334.042969 329.570312 312.914062 C 308.707031 291.976562 292.292969 269.027344 278.695312 241.691406 C 274.371094 232.976562 268.167969 219.308594 268.167969 218.433594 C 268.167969 218.117188 270.425781 222.070312 273.117188 227.273438 C 275.8125 232.414062 280.074219 240.0625 282.578125 244.199219 Z M 270.988281 253.417969 C 311.777344 295.046875 337.277344 345.265625 340.851562 390.910156 C 341.789062 402.695312 341.976562 401.753906 337.464844 407.523438 C 315.976562 434.796875 281.390625 457.242188 238.78125 471.472656 C 218.292969 478.308594 191.601562 483.761719 172.304688 484.953125 C 167.417969 485.265625 167.792969 485.140625 177.066406 483.449219 C 236.652344 472.726562 290.472656 446.960938 334.207031 408.214844 L 340.660156 402.445312 L 339.785156 397.617188 C 335.023438 372.164062 322.929688 338.933594 309.144531 313.292969 C 294.171875 285.515625 278.257812 263.761719 254.382812 238.621094 L 248.433594 232.351562 L 255.011719 238.054688 C 258.644531 241.191406 265.851562 248.085938 270.988281 253.417969 Z M 545.171875 241.191406 C 521.738281 266.019531 504.257812 290.660156 489.660156 319.4375 C 477.378906 343.699219 466.601562 374.421875 462.152344 397.929688 L 461.339844 402.445312 L 467.667969 408.023438 C 511.777344 447.148438 565.160156 472.726562 624.933594 483.449219 C 634.207031 485.140625 634.582031 485.265625 629.695312 484.953125 C 610.398438 483.761719 583.707031 478.308594 563.21875 471.472656 C 520.546875 457.242188 486.085938 434.859375 464.40625 407.335938 C 460.023438 401.816406 460.210938 402.695312 461.148438 390.660156 C 463.84375 356.238281 480.007812 317.054688 505.886719 282.570312 C 514.28125 271.347656 520.046875 264.578125 530.070312 254.292969 C 537.089844 247.085938 552.378906 232.726562 553.128906 232.601562 C 553.253906 232.601562 549.683594 236.488281 545.171875 241.191406 Z M 361.214844 360.691406 C 368.417969 365.078125 383.019531 372.226562 392.730469 376.113281 L 401 379.4375 L 409.332031 376.113281 C 419.671875 371.976562 435.148438 364.261719 442.980469 359.308594 C 446.238281 357.242188 448.996094 355.609375 449.058594 355.738281 C 449.121094 355.800781 448.492188 358.558594 447.679688 361.816406 C 445.609375 370.03125 443.230469 384.828125 442.414062 394.984375 C 442.039062 399.625 441.601562 404.640625 441.476562 406.144531 C 441.226562 408.777344 441.414062 408.964844 448.933594 417.742188 C 456.703125 426.769531 470.421875 440.5 475.75 444.515625 C 477.316406 445.707031 478.695312 446.898438 478.695312 447.148438 C 478.695312 447.460938 477.066406 447.648438 475.058594 447.648438 C 463.34375 447.648438 428.066406 454.355469 425.5625 457.054688 C 421.863281 461.066406 407.578125 487.523438 403.445312 497.929688 C 402.253906 501.003906 401.1875 503.449219 401 503.449219 C 400.8125 503.449219 399.746094 501.003906 398.554688 497.929688 C 394.421875 487.523438 380.136719 461.066406 376.4375 457.054688 C 373.933594 454.355469 338.65625 447.648438 326.941406 447.648438 C 324.933594 447.648438 323.304688 447.460938 323.304688 447.148438 C 323.304688 446.898438 324.683594 445.707031 326.25 444.515625 C 331.515625 440.5 345.296875 426.769531 353.066406 417.742188 L 360.710938 408.839844 L 360.460938 405.515625 C 358.894531 384.515625 356.324219 367.835938 352.941406 356.425781 C 352.566406 355.234375 352.628906 355.234375 354.382812 356.425781 C 355.386719 357.117188 358.457031 358.996094 361.214844 360.691406 Z M 338.96875 466.769531 C 347.304688 468.023438 362.527344 471.785156 363.90625 472.914062 C 365.914062 474.484375 373.621094 487.148438 377.503906 494.984375 C 386.085938 512.664062 391.914062 532.164062 395.296875 554.859375 C 397.429688 569.214844 398.054688 580.691406 397.679688 598.996094 C 397.242188 620.375 395.925781 632.039062 391.476562 653.855469 C 389.285156 664.515625 388.40625 665.707031 389.972656 655.925781 C 391.976562 643.449219 392.917969 631.914062 393.292969 615.675781 C 394.109375 577.304688 388.96875 542.570312 377.191406 507.210938 C 373.554688 496.300781 365.914062 476.929688 364.09375 474.042969 C 362.96875 472.289062 348.746094 471.285156 325.5 471.222656 C 303.195312 471.160156 298.496094 471.472656 280.074219 474.042969 C 246.867188 478.746094 212.59375 489.339844 183.082031 504.136719 C 177.753906 506.769531 173.683594 508.714844 173.996094 508.402344 C 175.5 506.898438 192.167969 497.617188 202.066406 492.789062 C 233.707031 477.304688 262.84375 469.089844 297.929688 465.578125 C 304.570312 464.953125 332.078125 465.707031 338.96875 466.769531 Z M 515.035156 466.707031 C 550.558594 471.472656 587.464844 484.324219 619.355469 503.136719 C 629.570312 509.089844 630.761719 510.28125 622.175781 505.707031 C 593.792969 490.847656 555.949219 478.871094 521.925781 474.042969 C 504.382812 471.597656 497.679688 471.160156 475.875 471.222656 C 453.253906 471.285156 438.96875 472.351562 437.90625 474.042969 C 436.085938 476.929688 428.445312 496.300781 424.808594 507.210938 C 416.101562 533.230469 411.023438 559.371094 409.082031 587.835938 C 407.703125 607.523438 409.019531 636.929688 412.027344 655.925781 C 413.59375 665.707031 412.714844 664.515625 410.523438 653.855469 C 406.074219 632.039062 404.757812 620.375 404.320312 598.996094 C 403.945312 580.691406 404.570312 569.214844 406.703125 554.859375 C 410.085938 532.164062 415.914062 512.664062 424.496094 494.984375 C 428.378906 487.148438 436.085938 474.484375 438.09375 472.914062 C 440.347656 471.035156 458.394531 467.273438 473.054688 465.578125 C 478.570312 464.953125 507.640625 465.769531 515.035156 466.707031 Z M 515.035156 466.707031 "/>
<path style=" stroke:none;fill-rule:nonzero;fill:rgb(100%,59.607843%,0%);fill-opacity:1;" d="M 388.09375 409.71875 C 389.15625 416.050781 389.472656 416.929688 390.535156 416.929688 C 391.914062 416.929688 396.113281 418.933594 398.367188 420.628906 C 399.808594 421.691406 399.746094 421.691406 395.738281 421.253906 C 393.480469 421.066406 390.976562 420.4375 390.160156 419.875 C 388.71875 418.933594 388.53125 418.996094 383.394531 424.199219 C 380.511719 427.085938 378.382812 429.46875 378.695312 429.46875 C 379.007812 429.46875 382.203125 429.90625 385.835938 430.46875 C 391.289062 431.285156 392.542969 431.285156 392.792969 430.59375 C 393.167969 429.53125 399.183594 423.199219 399.808594 423.199219 C 400.75 423.199219 397.304688 430.34375 395.800781 431.535156 L 394.359375 432.664062 L 397.554688 439.183594 C 399.246094 442.757812 400.8125 445.707031 401 445.707031 C 401.1875 445.707031 402.753906 442.757812 404.445312 439.183594 L 407.640625 432.664062 L 406.199219 431.535156 C 404.695312 430.34375 401.25 423.199219 402.191406 423.199219 C 402.816406 423.199219 408.832031 429.53125 409.207031 430.59375 C 409.457031 431.285156 410.710938 431.285156 416.164062 430.46875 C 419.796875 429.90625 422.992188 429.46875 423.304688 429.46875 C 423.617188 429.46875 421.488281 427.085938 418.605469 424.199219 C 413.46875 418.996094 413.28125 418.933594 411.839844 419.875 C 411.023438 420.4375 408.519531 421.066406 406.261719 421.253906 C 402.253906 421.691406 402.191406 421.691406 403.632812 420.628906 C 405.886719 418.871094 410.085938 416.929688 411.527344 416.929688 C 412.589844 416.929688 412.84375 416.363281 413.21875 413.605469 C 413.46875 411.847656 414.03125 408.589844 414.472656 406.394531 C 414.910156 404.199219 415.097656 402.507812 414.847656 402.632812 C 414.597656 402.757812 411.714844 404.199219 408.332031 405.957031 C 402.691406 408.839844 402.253906 409.214844 402.566406 410.59375 C 403.003906 412.226562 401.6875 420.0625 401 420.0625 C 400.3125 420.0625 398.996094 412.226562 399.433594 410.59375 C 399.746094 409.214844 399.308594 408.839844 393.667969 405.957031 C 390.285156 404.199219 387.402344 402.757812 387.214844 402.632812 C 387.027344 402.570312 387.402344 405.707031 388.09375 409.71875 Z M 388.09375 409.71875 "/>
<path style=" stroke:none;fill-rule:nonzero;fill:rgb(100%,59.607843%,0%);fill-opacity:1;" d="M 385.773438 136.992188 C 384.144531 147.148438 383.832031 157.179688 383.769531 195.925781 C 383.707031 241.945312 383.707031 241.945312 379.632812 245.390625 L 377.691406 247.023438 L 385.585938 262.570312 C 397.679688 286.394531 400.6875 292.164062 401 292.164062 C 401.375 292.164062 404.820312 285.453125 416.414062 262.507812 L 424.246094 247.023438 L 422.367188 245.390625 C 418.292969 242.007812 418.292969 241.945312 418.167969 195.296875 C 418.105469 162.070312 417.917969 151.410156 417.101562 144.324219 C 416.601562 139.371094 416.039062 135.234375 415.914062 135.109375 C 415.785156 134.921875 414.972656 136.863281 414.21875 139.371094 C 413.40625 141.816406 410.648438 149.78125 408.082031 157.054688 C 403.820312 169.214844 403.382812 170.785156 402.878906 177.429688 C 401.1875 199.058594 400.75 199.121094 399.121094 177.992188 C 398.554688 170.59375 398.304688 169.59375 393.605469 156.113281 C 390.851562 148.339844 388.09375 140.3125 387.402344 138.246094 L 386.152344 134.484375 Z M 385.773438 136.992188 "/>
<path style=" stroke:none;fill-rule:nonzero;fill:rgb(100%,59.607843%,0%);fill-opacity:1;" d="M 325.5 251.410156 C 327.066406 256.675781 333.519531 271.847656 337.464844 279.625 C 351 306.457031 371.050781 328.714844 396.488281 345.140625 L 401.0625 348.085938 L 408.082031 343.324219 C 433.269531 326.394531 451.8125 305.265625 465.160156 278.371094 C 469.609375 269.40625 477.253906 250.972656 476.6875 250.46875 C 476.5625 250.40625 471.238281 254.984375 464.785156 260.753906 C 454.757812 269.59375 452.691406 271.722656 451.0625 274.921875 C 444.984375 286.832031 428.003906 302.882812 407.953125 315.609375 C 404.320312 317.867188 401.1875 319.75 401 319.75 C 400.8125 319.75 397.679688 317.867188 394.046875 315.609375 C 373.871094 302.757812 356.324219 286.144531 350.5625 274.421875 C 349.246094 271.660156 347.367188 269.59375 341.914062 264.765625 C 338.03125 261.441406 332.640625 256.675781 329.949219 254.292969 C 326.0625 250.785156 325.125 250.21875 325.5 251.410156 Z M 325.5 251.410156 "/>
<path style=" stroke:none;fill-rule:nonzero;fill:rgb(100%,59.607843%,0%);fill-opacity:1;" d="M 118.105469 251.410156 C 103.570312 252.289062 98.121094 253.230469 88.34375 256.425781 C 72.054688 261.816406 59.210938 268.277344 53.507812 273.917969 C 51.941406 275.421875 50.8125 276.738281 50.941406 276.929688 C 51.128906 277.054688 56.828125 276.863281 63.722656 276.550781 C 82.332031 275.609375 99.183594 276.675781 115.726562 279.6875 L 122.742188 281.003906 L 126.378906 279.75 C 133.207031 277.429688 137.28125 276.863281 148.183594 276.863281 C 177.003906 276.738281 197.929688 280.1875 216.351562 288.023438 C 217.605469 288.589844 218.671875 288.902344 218.671875 288.652344 C 218.671875 288.023438 202.628906 268.714844 198.808594 264.765625 C 195.300781 261.128906 194.984375 260.941406 188.28125 258.996094 C 172.304688 254.484375 160.210938 252.414062 143.484375 251.410156 C 131.515625 250.722656 130.199219 250.722656 118.105469 251.410156 Z M 118.105469 251.410156 "/>
<path style=" stroke:none;fill-rule:nonzero;fill:rgb(100%,59.607843%,0%);fill-opacity:1;" d="M 656.636719 251.410156 C 641.914062 252.414062 628.691406 254.734375 613.71875 258.996094 C 607.015625 260.941406 606.699219 261.128906 603.191406 264.765625 C 599.371094 268.714844 583.328125 288.023438 583.328125 288.652344 C 583.328125 288.902344 584.394531 288.589844 585.710938 288.023438 C 604.070312 280.1875 624.996094 276.738281 653.816406 276.863281 C 664.71875 276.863281 668.792969 277.429688 675.621094 279.75 L 679.257812 281.003906 L 686.273438 279.6875 C 702.816406 276.675781 719.667969 275.609375 738.277344 276.550781 C 745.171875 276.863281 750.871094 277.054688 750.996094 276.929688 C 751.125 276.800781 749.996094 275.421875 748.429688 273.917969 C 742.789062 268.277344 730.007812 261.816406 713.53125 256.363281 C 705.699219 253.792969 702.878906 253.167969 695.359375 252.414062 C 683.328125 251.160156 666.976562 250.785156 656.636719 251.410156 Z M 656.636719 251.410156 "/>
<path style=" stroke:none;fill-rule:nonzero;fill:rgb(100%,59.607843%,0%);fill-opacity:1;" d="M 59.835938 281.253906 C 40.539062 282.507812 18.421875 286.082031 4.261719 290.34375 L 0 291.597656 L 5.136719 297.992188 C 12.34375 306.832031 27.695312 322.445312 36.652344 330.03125 C 71.742188 359.8125 110.148438 378.183594 151.316406 384.765625 C 161.089844 386.332031 188.71875 386.332031 197.679688 384.765625 C 201.0625 384.136719 204.007812 383.511719 204.195312 383.386719 C 204.636719 382.882812 192.917969 377.617188 186.714844 375.484375 C 181.078125 373.605469 180.324219 373.542969 172.242188 373.605469 C 150 373.917969 126.941406 367.648438 98.496094 353.667969 C 87.90625 348.402344 87.09375 348.152344 87.46875 349.53125 C 87.65625 350.40625 87.65625 351.097656 87.34375 351.097656 C 86.277344 351.097656 73.683594 343.636719 66.101562 338.558594 C 53.382812 329.90625 38.34375 317.117188 38.472656 314.921875 C 38.535156 314.167969 35.777344 311.160156 30.828125 306.582031 C 25.4375 301.691406 23.308594 299.371094 23.933594 299.058594 C 25 298.496094 39.597656 296.550781 42.792969 296.550781 C 44.296875 296.550781 45.050781 296.800781 44.800781 297.179688 C 43.859375 298.746094 45.300781 302.945312 47.554688 305.390625 L 49.9375 307.835938 L 48.308594 307.835938 C 45.800781 307.835938 41.164062 310.40625 40.101562 312.414062 C 39.160156 314.167969 39.222656 314.230469 41.667969 316.363281 C 50.125 323.699219 68.105469 336.488281 79.636719 343.449219 C 86.714844 347.710938 87.09375 347.835938 87.09375 345.957031 C 87.09375 343.886719 88.660156 341.882812 91.414062 340.4375 C 95.988281 338.117188 101.441406 337.617188 121.992188 337.617188 C 132.707031 337.617188 141.351562 337.429688 141.226562 337.179688 C 141.039062 336.929688 137.78125 334.546875 133.894531 331.914062 C 106.453125 312.976562 98.371094 304.453125 102.441406 298.621094 C 103.320312 297.367188 103.257812 297.304688 101.316406 296.929688 C 94.863281 295.800781 77.003906 295.171875 61.90625 295.484375 C 48.371094 295.738281 45.113281 295.675781 45.113281 294.984375 C 45.113281 293.605469 58.457031 292.476562 75.1875 292.476562 C 88.535156 292.539062 96.867188 293.039062 104.449219 294.421875 L 106.515625 294.796875 L 103.757812 297.054688 L 105.574219 297.367188 C 106.640625 297.617188 109.710938 298.054688 112.46875 298.433594 C 142.417969 302.695312 171.992188 313.855469 188.972656 327.335938 C 192.667969 330.28125 194.984375 331.597656 199.183594 332.976562 C 204.761719 334.921875 218.734375 337.992188 219.296875 337.492188 C 219.859375 336.863281 206.453125 324.640625 199.558594 319.4375 C 172.804688 299.308594 139.222656 286.898438 99.625 282.445312 C 91.226562 281.503906 67.042969 280.816406 59.835938 281.253906 Z M 59.835938 281.253906 "/>
<path style=" stroke:none;fill-rule:nonzero;fill:rgb(100%,59.607843%,0%);fill-opacity:1;" d="M 716.789062 281.253906 C 671.675781 283.824219 632.390625 296.929688 602.441406 319.4375 C 595.546875 324.640625 582.140625 336.863281 582.703125 337.492188 C 583.265625 337.992188 597.238281 334.921875 602.816406 332.976562 C 607.015625 331.597656 609.332031 330.28125 613.027344 327.335938 C 630.007812 313.855469 659.582031 302.695312 689.53125 298.433594 C 692.289062 298.054688 695.359375 297.617188 696.425781 297.367188 L 698.242188 297.054688 L 695.484375 294.796875 L 697.550781 294.421875 C 705.257812 293.039062 713.402344 292.539062 726.8125 292.476562 C 743.542969 292.476562 756.886719 293.605469 756.886719 294.984375 C 756.886719 295.675781 753.628906 295.738281 740.160156 295.484375 C 724.996094 295.171875 707.136719 295.800781 700.683594 296.929688 C 698.742188 297.304688 698.679688 297.367188 699.558594 298.621094 C 703.628906 304.453125 695.546875 312.976562 668.105469 331.914062 C 664.21875 334.546875 660.960938 336.929688 660.773438 337.179688 C 660.648438 337.429688 669.292969 337.617188 680.007812 337.617188 C 700.558594 337.617188 706.011719 338.117188 710.585938 340.4375 C 713.339844 341.882812 714.90625 343.886719 714.90625 345.957031 C 714.90625 347.835938 715.285156 347.710938 722.363281 343.449219 C 733.894531 336.488281 751.75 323.761719 760.332031 316.363281 C 762.839844 314.230469 762.839844 314.167969 761.835938 312.414062 C 760.648438 310.40625 756.136719 307.835938 753.691406 307.835938 L 752.0625 307.835938 L 754.445312 305.390625 C 756.699219 302.945312 758.140625 298.746094 757.199219 297.179688 C 756.949219 296.800781 757.703125 296.550781 759.207031 296.550781 C 762.402344 296.550781 777 298.496094 778.066406 299.058594 C 778.691406 299.371094 776.5625 301.691406 771.171875 306.582031 C 766.222656 311.160156 763.464844 314.167969 763.527344 314.921875 C 763.65625 317.117188 748.617188 329.90625 735.898438 338.558594 C 728.316406 343.636719 715.722656 351.097656 714.65625 351.097656 C 714.34375 351.097656 714.34375 350.40625 714.53125 349.53125 C 714.90625 348.152344 714.09375 348.402344 703.503906 353.667969 C 675.058594 367.648438 652 373.917969 629.757812 373.605469 C 621.675781 373.542969 620.921875 373.605469 615.285156 375.484375 C 609.082031 377.617188 597.363281 382.882812 597.804688 383.386719 C 597.992188 383.511719 600.9375 384.136719 604.320312 384.765625 C 612.339844 386.144531 640.160156 386.332031 648.804688 385.078125 C 690.410156 378.808594 729.820312 360.1875 765.347656 330.03125 C 774.304688 322.445312 789.65625 306.832031 796.863281 297.992188 L 802 291.597656 L 797.738281 290.34375 C 787.152344 287.148438 770.109375 283.949219 755.949219 282.445312 C 747.175781 281.503906 724.496094 280.816406 716.789062 281.253906 Z M 716.789062 281.253906 "/>
<path style=" stroke:none;fill-rule:nonzero;fill:rgb(100%,59.607843%,0%);fill-opacity:1;" d="M 261.402344 297.179688 C 261.589844 297.679688 264.347656 304.199219 267.542969 311.597656 C 272.867188 324.011719 273.683594 325.390625 277.128906 329.089844 C 286.902344 339.625 295.046875 356.675781 301.4375 379.9375 C 303.257812 386.644531 303.882812 389.84375 303.445312 390.53125 C 302.378906 392.289062 289.347656 402.507812 281.328125 407.835938 C 267.355469 417.117188 256.074219 422.382812 246.300781 424.074219 C 241.601562 424.890625 240.285156 425.453125 228.257812 432.601562 C 221.050781 436.863281 215.035156 440.5 214.785156 440.753906 C 213.15625 442.132812 241.976562 439.5 253.132812 437.242188 C 279.320312 431.976562 304.949219 420.0625 324.808594 403.886719 C 327.253906 401.945312 329.570312 400 330.011719 399.6875 C 330.699219 399.183594 330.574219 398.183594 329.570312 394.355469 C 318.859375 355.046875 299.246094 326.269531 265.035156 299.371094 C 262.84375 297.679688 261.214844 296.675781 261.402344 297.179688 Z M 261.402344 297.179688 "/>
<path style=" stroke:none;fill-rule:nonzero;fill:rgb(100%,59.607843%,0%);fill-opacity:1;" d="M 532.578125 302.945312 C 503.128906 326.832031 484.457031 354.230469 474.121094 388.714844 C 472.929688 392.664062 471.800781 396.613281 471.613281 397.492188 C 471.238281 398.933594 471.863281 399.625 476.4375 403.324219 C 502.128906 424.011719 532.640625 436.425781 566.097656 439.75 C 576.75 440.816406 587.964844 441.316406 587.214844 440.753906 C 586.964844 440.5 580.949219 436.863281 573.742188 432.601562 C 561.714844 425.453125 560.398438 424.890625 555.699219 424.074219 C 545.925781 422.382812 534.644531 417.117188 520.671875 407.835938 C 512.652344 402.507812 499.621094 392.289062 498.554688 390.53125 C 498.117188 389.84375 498.742188 386.644531 500.5625 379.9375 C 506.953125 356.675781 515.097656 339.625 524.871094 329.089844 C 528.378906 325.390625 529.132812 324.011719 534.707031 311.035156 C 538.027344 303.324219 540.660156 296.929688 540.535156 296.800781 C 540.472656 296.738281 536.839844 299.5 532.578125 302.945312 Z M 532.578125 302.945312 "/>
<path style=" stroke:none;fill-rule:nonzero;fill:rgb(100%,59.607843%,0%);fill-opacity:1;" d="M 145.800781 328.964844 C 152.945312 334.355469 159.835938 339.5 161.027344 340.4375 C 162.21875 341.378906 166.917969 343.636719 171.363281 345.453125 C 175.875 347.273438 180.761719 349.46875 182.328125 350.28125 L 185.148438 351.785156 L 182.644531 351.410156 C 181.265625 351.160156 176.0625 350.03125 171.113281 348.839844 C 161.152344 346.457031 159.460938 346.394531 136.652344 347.148438 C 122.117188 347.585938 122.304688 347.273438 134.085938 352.164062 C 144.859375 356.738281 161.652344 362.632812 177.316406 367.398438 C 201.628906 374.796875 213.78125 378.746094 217.792969 380.5625 C 222.617188 382.695312 226.816406 386.457031 226.816406 388.464844 C 226.816406 389.277344 227.128906 389.96875 227.503906 389.96875 C 230.011719 389.96875 276.566406 382.320312 277.128906 381.816406 C 277.378906 381.566406 269.609375 373.230469 259.773438 363.324219 C 242.542969 345.894531 241.851562 345.265625 240.664062 346.332031 C 238.65625 348.152344 235.460938 348.714844 231.011719 347.960938 C 225.0625 347.023438 218.734375 345.078125 196.425781 337.304688 C 176.753906 330.46875 163.53125 326.269531 151.691406 323.199219 C 144.609375 321.316406 134.835938 319.121094 133.644531 319.121094 C 133.144531 319.121094 138.660156 323.511719 145.800781 328.964844 Z M 145.800781 328.964844 "/>
<path style=" stroke:none;fill-rule:nonzero;fill:rgb(100%,59.607843%,0%);fill-opacity:1;" d="M 664.46875 319.75 C 663.46875 320 660.460938 320.691406 657.890625 321.316406 C 644.480469 324.324219 627.25 329.71875 594.796875 341.003906 C 573.304688 348.464844 566.035156 349.78125 562.027344 346.832031 L 560.023438 345.328125 L 542.226562 363.386719 C 532.390625 373.292969 524.621094 381.566406 524.871094 381.816406 C 525.433594 382.320312 571.988281 389.96875 574.496094 389.96875 C 574.871094 389.96875 575.183594 389.277344 575.183594 388.464844 C 575.183594 386.457031 579.382812 382.695312 584.207031 380.5625 C 588.21875 378.746094 600.371094 374.796875 624.683594 367.398438 C 640.347656 362.632812 657.140625 356.738281 667.914062 352.164062 C 679.695312 347.273438 679.882812 347.585938 665.347656 347.148438 C 642.539062 346.394531 640.847656 346.457031 630.886719 348.839844 C 625.9375 350.03125 620.734375 351.160156 619.355469 351.410156 L 616.851562 351.785156 L 619.671875 350.28125 C 621.238281 349.46875 626.1875 347.273438 630.636719 345.453125 C 635.144531 343.636719 639.78125 341.378906 640.972656 340.4375 C 642.164062 339.5 649.054688 334.355469 656.199219 328.964844 C 668.855469 319.371094 669.796875 318.308594 664.46875 319.75 Z M 664.46875 319.75 "/>
<path style=" stroke:none;fill-rule:nonzero;fill:rgb(100%,59.607843%,0%);fill-opacity:1;" d="M 32.582031 334.921875 C 32.582031 342.195312 41.476562 359.5625 53.195312 375.171875 C 61.777344 386.582031 85.210938 404.953125 105.011719 415.925781 C 113.03125 420.3125 126.316406 426.207031 134.273438 428.839844 C 139.410156 430.53125 140.914062 430.785156 143.671875 430.46875 C 146.679688 430.03125 164.472656 425.644531 172.304688 423.386719 L 175.75 422.382812 L 168.292969 420.25 C 153.945312 416.175781 136.339844 408.277344 130.324219 403.136719 C 129.132812 402.070312 126.253906 400.3125 123.996094 399.121094 C 113.09375 393.417969 100.25 382.882812 95.863281 375.988281 C 93.796875 372.726562 93.234375 372.351562 85.589844 368.589844 C 68.609375 360.3125 52.066406 349.339844 35.902344 335.546875 L 32.582031 332.789062 Z M 32.582031 334.921875 "/>
<path style=" stroke:none;fill-rule:nonzero;fill:rgb(100%,59.607843%,0%);fill-opacity:1;" d="M 766.914062 334.921875 C 750.121094 349.214844 733.894531 360.0625 716.410156 368.589844 C 709.457031 371.976562 708.078125 372.914062 706.886719 374.921875 C 702.753906 382.132812 689.71875 392.976562 677.628906 399.308594 C 675.558594 400.375 672.867188 402.070312 671.675781 403.136719 C 665.660156 408.277344 648.054688 416.175781 633.707031 420.25 L 626.25 422.382812 L 629.695312 423.386719 C 637.527344 425.644531 655.320312 430.03125 658.328125 430.46875 C 661.085938 430.785156 662.589844 430.53125 667.726562 428.839844 C 681.511719 424.261719 698.992188 415.484375 712.652344 406.332031 C 726.75 396.800781 742.664062 383.324219 747.992188 376.175781 C 760.710938 359.308594 770.109375 340.878906 769.292969 334.546875 L 769.105469 333.039062 Z M 766.914062 334.921875 "/>
<path style=" stroke:none;fill-rule:nonzero;fill:rgb(100%,59.607843%,0%);fill-opacity:1;" d="M 329.070312 481.566406 C 314.910156 482.570312 298.433594 486.144531 284.710938 491.222656 C 275.5 494.609375 258.332031 503.261719 248.746094 509.40625 C 239.910156 515.046875 237.277344 517.054688 239.660156 516.363281 C 240.347656 516.175781 247.554688 515.421875 255.636719 514.734375 C 268.671875 513.542969 270.675781 513.230469 272.992188 511.847656 C 277.003906 509.53125 286.089844 506.707031 294.234375 505.265625 C 302.753906 503.761719 325.125 503.007812 335.210938 503.886719 L 341.164062 504.390625 L 343.417969 510.09375 C 352.941406 533.917969 357.265625 555.546875 355.324219 569.71875 L 354.570312 575.234375 L 357.957031 590.28125 C 360.835938 602.757812 361.527344 605.078125 362.027344 603.761719 C 364.03125 598.621094 368.167969 580.375 369.796875 569.59375 C 371.113281 560.753906 370.925781 532.601562 369.484375 523.511719 C 367.917969 513.605469 364.09375 499.058594 360.648438 489.59375 L 357.703125 481.691406 L 350.6875 481.316406 C 342.542969 480.816406 338.78125 480.878906 329.070312 481.566406 Z M 329.070312 481.566406 "/>
<path style=" stroke:none;fill-rule:nonzero;fill:rgb(100%,59.607843%,0%);fill-opacity:1;" d="M 449.121094 481.316406 L 444.359375 481.566406 L 441.414062 489.53125 C 438.03125 498.683594 434.207031 513.230469 432.515625 523.199219 C 431.074219 531.914062 430.886719 560.691406 432.203125 569.59375 C 433.832031 580.375 437.96875 598.621094 439.972656 603.761719 C 440.472656 605.078125 441.164062 602.757812 443.980469 590.28125 L 447.429688 575.234375 L 446.675781 569.90625 C 444.734375 555.675781 449.058594 533.917969 458.582031 510.09375 L 460.835938 504.390625 L 466.789062 503.886719 C 476.875 503.007812 499.246094 503.761719 507.765625 505.265625 C 515.910156 506.707031 524.996094 509.53125 529.007812 511.847656 C 531.324219 513.230469 533.328125 513.542969 546.363281 514.734375 C 554.445312 515.421875 561.652344 516.175781 562.339844 516.363281 C 566.851562 517.554688 546.800781 505.015625 534.144531 498.746094 C 512.839844 488.214844 494.359375 483.136719 471.488281 481.503906 C 463.03125 480.941406 459.457031 480.878906 449.121094 481.316406 Z M 449.121094 481.316406 "/>
<path style=" stroke:none;fill-rule:nonzero;fill:rgb(100%,59.607843%,0%);fill-opacity:1;" d="M 302.691406 537.617188 C 290.851562 543.636719 280.824219 548.839844 280.386719 549.214844 C 279.949219 549.59375 279.761719 551.035156 279.949219 553.101562 C 280.386719 559.246094 278.507812 562.382812 256.828125 591.222656 C 248.433594 602.445312 238.65625 615.800781 235.210938 621.003906 C 228.382812 631.160156 220.300781 644.515625 220.738281 644.890625 C 220.863281 645.015625 221.679688 644.640625 222.492188 643.949219 C 223.308594 643.324219 230.199219 638.496094 237.78125 633.230469 C 249.308594 625.265625 252.191406 622.945312 255.324219 619.183594 C 261.214844 612.164062 267.105469 605.578125 267.355469 605.894531 C 267.605469 606.144531 261.777344 616.363281 257.832031 622.570312 C 255.886719 625.707031 254.445312 629.277344 251.941406 637.804688 C 250.125 643.949219 247.679688 651.976562 246.550781 655.675781 C 245.363281 659.308594 244.546875 662.445312 244.671875 662.570312 C 244.984375 662.882812 253.632812 652.914062 260.398438 644.453125 C 267.605469 635.421875 275.4375 624.703125 286.652344 608.464844 C 304.445312 582.757812 309.398438 577.304688 314.847656 577.304688 C 316.039062 577.304688 317.039062 577.242188 317.039062 577.179688 C 317.039062 577.117188 317.605469 573.917969 318.230469 570.15625 C 318.921875 566.394531 320.613281 555.675781 322.054688 546.394531 C 323.429688 537.054688 324.746094 528.839844 324.871094 528.023438 C 325.0625 527.273438 324.996094 526.644531 324.746094 526.644531 C 324.433594 526.644531 314.535156 531.597656 302.691406 537.617188 Z M 302.691406 537.617188 "/>
<path style=" stroke:none;fill-rule:nonzero;fill:rgb(100%,59.607843%,0%);fill-opacity:1;" d="M 477.128906 528.023438 C 477.253906 528.839844 478.570312 537.054688 479.945312 546.394531 C 481.386719 555.675781 483.078125 566.394531 483.769531 570.15625 C 484.394531 573.917969 484.960938 577.117188 484.960938 577.179688 C 484.960938 577.242188 485.960938 577.304688 487.152344 577.304688 C 492.601562 577.304688 497.554688 582.757812 515.347656 608.464844 C 526.5 624.640625 534.332031 635.359375 541.726562 644.578125 C 548.117188 652.664062 557.015625 662.882812 557.390625 662.570312 C 557.515625 662.445312 556.636719 659.308594 555.449219 655.675781 C 554.320312 651.976562 551.875 643.949219 550.058594 637.804688 C 547.492188 629.089844 546.175781 625.707031 544.042969 622.382812 C 539.972656 615.988281 534.394531 606.144531 534.644531 605.894531 C 534.894531 605.578125 540.722656 612.039062 546.675781 619.183594 C 549.808594 622.945312 552.691406 625.265625 564.21875 633.230469 C 571.800781 638.496094 578.691406 643.324219 579.507812 643.949219 C 580.320312 644.640625 581.136719 645.015625 581.261719 644.890625 C 581.699219 644.515625 573.617188 631.160156 566.789062 621.003906 C 563.34375 615.800781 553.566406 602.445312 545.171875 591.222656 C 523.429688 562.320312 521.613281 559.246094 522.113281 553.039062 C 522.363281 549.84375 522.238281 549.65625 520.421875 548.527344 C 517.855469 546.960938 477.691406 526.644531 477.191406 526.644531 C 476.9375 526.644531 476.9375 527.273438 477.128906 528.023438 Z M 477.128906 528.023438 "/>
<path style=" stroke:none;fill-rule:nonzero;fill:rgb(100%,59.607843%,0%);fill-opacity:1;" d="M 207.390625 558.054688 C 201.378906 560.4375 193.921875 563.511719 190.789062 564.890625 C 185.460938 567.335938 184.960938 567.710938 181.890625 571.976562 C 168.230469 591.097656 157.390625 615.109375 151.125 640.4375 C 147.242188 655.988281 147.054688 657.429688 147.429688 672.414062 C 147.742188 686.707031 148.683594 694.167969 151.0625 701.945312 C 152.316406 706.144531 154.636719 710.722656 155.199219 710.15625 C 155.324219 709.96875 156.515625 705.707031 157.894531 700.5625 C 162.71875 682.195312 170.050781 663.199219 177.628906 649.46875 C 181.015625 643.386719 181.078125 643.136719 181.078125 638.308594 C 181.078125 628.652344 184.085938 616.675781 189.472656 605.015625 C 191.039062 601.753906 192.730469 597.492188 193.292969 595.609375 C 196.425781 585.265625 205.824219 569.46875 217.167969 555.609375 C 218.105469 554.546875 218.734375 553.605469 218.609375 553.667969 C 218.480469 553.730469 213.40625 555.675781 207.390625 558.054688 Z M 207.390625 558.054688 "/>
<path style=" stroke:none;fill-rule:nonzero;fill:rgb(100%,59.607843%,0%);fill-opacity:1;" d="M 584.894531 555.675781 C 595.984375 569.277344 605.574219 585.328125 608.707031 595.609375 C 609.269531 597.492188 610.960938 601.753906 612.527344 605.078125 C 617.980469 617.054688 620.921875 628.652344 620.921875 638.308594 C 620.921875 643.136719 620.984375 643.386719 624.371094 649.46875 C 631.886719 663.007812 639.40625 682.507812 644.105469 700.5625 C 645.484375 705.707031 646.675781 709.96875 646.800781 710.15625 C 647.363281 710.722656 649.683594 706.144531 650.9375 701.945312 C 653.316406 694.167969 654.257812 686.707031 654.570312 672.414062 C 654.945312 657.429688 654.757812 655.988281 650.875 640.4375 C 644.671875 615.296875 633.769531 591.035156 620.234375 572.164062 C 616.914062 567.523438 616.726562 567.398438 610.585938 564.640625 C 607.140625 563.070312 599.558594 560 593.792969 557.804688 L 583.265625 553.730469 Z M 584.894531 555.675781 "/>
<path style=" stroke:none;fill-rule:nonzero;fill:rgb(100%,59.607843%,0%);fill-opacity:1;" d="M 257.203125 572.289062 C 204.574219 599.75 164.347656 664.953125 155.074219 737.992188 C 153.882812 747.773438 153.007812 763.007812 153.695312 763.007812 C 153.945312 763.007812 157.769531 761.566406 162.15625 759.8125 C 186.152344 750.09375 207.515625 737.617188 228.382812 721.066406 C 238.09375 713.355469 258.832031 692.601562 265.914062 683.386719 C 284.269531 659.6875 296.992188 633.542969 301.628906 610.03125 C 302.441406 605.707031 303.257812 600.941406 303.445312 599.371094 L 303.757812 596.550781 L 298.933594 601.691406 C 296.300781 604.515625 292.417969 609.089844 290.410156 611.847656 C 287.339844 616.050781 286.464844 617.929688 285.023438 623.007812 C 279.699219 641.945312 267.417969 661.882812 247.679688 683.574219 C 243.609375 687.960938 238.78125 692.914062 236.902344 694.546875 L 233.457031 697.492188 L 235.523438 697.804688 L 237.65625 698.117188 L 231.765625 703.449219 C 219.546875 714.609375 208.457031 722.695312 193.796875 731.285156 C 190.035156 733.417969 188.34375 734.105469 187.65625 733.667969 C 186.839844 733.230469 188.28125 732.101562 194.296875 728.214844 C 204.007812 721.945312 216.980469 712.226562 226.0625 704.390625 L 233.144531 698.308594 L 231.265625 697.117188 C 228.507812 695.484375 227.816406 693.667969 227.945312 688.402344 C 228.007812 682.445312 230.324219 673.292969 236.214844 656.238281 C 238.71875 649.027344 240.601562 643.070312 240.476562 642.945312 C 240.347656 642.820312 236.152344 645.832031 231.203125 649.59375 C 213.09375 663.386719 203.257812 669.339844 197.492188 670.03125 C 194.859375 670.34375 194.234375 670.15625 192.480469 668.652344 C 191.351562 667.710938 190.351562 667.023438 190.222656 667.148438 C 190.097656 667.273438 188.46875 671.097656 186.527344 675.609375 C 182.390625 685.328125 176.378906 703.070312 173.496094 713.917969 C 172.367188 718.183594 171.238281 721.628906 170.988281 721.628906 C 169.859375 721.628906 169.859375 720.1875 171.050781 714.292969 C 174.121094 699.308594 179.511719 683.136719 185.902344 669.40625 C 188.71875 663.449219 189.847656 662.070312 189.847656 664.578125 C 189.847656 666.960938 190.851562 665.832031 193.546875 660.3125 C 208.144531 630.53125 227.628906 606.019531 246.363281 593.917969 C 250.75 591.035156 254.132812 587.210938 258.644531 579.8125 C 261.652344 574.921875 264.597656 569.214844 264.285156 568.964844 C 264.160156 568.839844 260.964844 570.34375 257.203125 572.289062 Z M 183.519531 723.449219 C 182.957031 726.082031 183.519531 728.902344 185.085938 731.160156 C 185.652344 731.914062 186.089844 732.789062 186.089844 732.976562 C 186.089844 733.542969 178.257812 738.117188 171.867188 741.316406 L 167.355469 743.574219 L 167.730469 741.191406 C 167.917969 739.9375 168.859375 735.171875 169.734375 730.722656 C 171.554688 721.753906 170.925781 722.445312 176.125 723.261719 C 177.691406 723.574219 179.070312 723.261719 180.824219 722.382812 C 184.085938 720.628906 184.148438 720.628906 183.519531 723.449219 Z M 183.519531 723.449219 "/>
<path style=" stroke:none;fill-rule:nonzero;fill:rgb(100%,59.607843%,0%);fill-opacity:1;" d="M 537.589844 568.964844 C 537.589844 569.59375 540.785156 575.609375 543.355469 579.8125 C 547.867188 587.210938 551.25 591.035156 555.636719 593.917969 C 574.371094 606.019531 593.855469 630.53125 608.453125 660.3125 C 611.148438 665.832031 612.152344 666.960938 612.152344 664.578125 C 612.152344 662.070312 613.28125 663.449219 616.097656 669.40625 C 620.671875 679.246094 624.308594 689.089844 627.566406 700.5 C 629.757812 708.339844 632.265625 720.375 631.886719 721.066406 C 631.136719 722.195312 630.445312 721.628906 630.007812 719.5625 C 628.878906 714.609375 623.804688 697.679688 621.175781 690.40625 C 618.730469 683.636719 612.402344 667.898438 611.777344 667.148438 C 611.648438 667.023438 610.648438 667.710938 609.519531 668.652344 C 607.765625 670.15625 607.140625 670.34375 604.507812 670.03125 C 598.742188 669.339844 588.59375 663.199219 570.796875 649.59375 C 565.785156 645.769531 561.652344 642.820312 561.523438 642.945312 C 561.398438 643.070312 563.28125 649.027344 565.785156 656.238281 C 571.675781 673.292969 573.992188 682.445312 574.054688 688.402344 C 574.183594 693.667969 573.492188 695.484375 570.734375 697.117188 L 568.855469 698.308594 L 575.9375 704.390625 C 585.019531 712.226562 597.992188 721.945312 607.703125 728.214844 C 613.71875 732.101562 615.160156 733.230469 614.34375 733.667969 C 613.65625 734.105469 611.964844 733.417969 608.203125 731.285156 C 594.671875 723.449219 581.699219 713.917969 570.234375 703.511719 L 564.34375 698.117188 L 566.476562 697.804688 L 568.542969 697.492188 L 565.097656 694.546875 C 563.21875 692.914062 558.390625 687.960938 554.320312 683.574219 C 534.582031 661.882812 522.300781 641.945312 516.976562 623.007812 C 515.535156 617.929688 514.660156 616.050781 511.589844 611.847656 C 509.582031 609.089844 505.699219 604.515625 503.066406 601.691406 L 498.242188 596.550781 L 498.554688 599.371094 C 500.183594 613.855469 505.824219 631.847656 513.71875 647.960938 C 523.867188 668.527344 535.460938 684.390625 553.882812 702.882812 C 574.933594 724.011719 596.800781 739.6875 622.488281 752.101562 C 630.636719 756.050781 647.113281 763.007812 648.304688 763.007812 C 648.929688 763.007812 647.992188 746.519531 646.925781 737.929688 C 641.664062 697.492188 626.4375 657.492188 604.445312 626.332031 C 590.722656 606.898438 572.679688 589.214844 555.386719 578.308594 C 549.683594 574.734375 537.589844 568.402344 537.589844 568.964844 Z M 621.046875 722.320312 C 622.929688 723.261719 624.308594 723.574219 625.875 723.261719 C 631.074219 722.445312 630.445312 721.753906 632.265625 730.722656 C 633.140625 735.171875 634.082031 739.9375 634.269531 741.191406 L 634.644531 743.574219 L 630.132812 741.316406 C 623.742188 738.117188 615.910156 733.542969 615.910156 732.976562 C 615.910156 732.789062 616.347656 731.914062 616.914062 731.160156 C 618.480469 728.902344 619.042969 726.082031 618.480469 723.449219 C 618.167969 722.070312 618.042969 721.003906 618.167969 721.003906 C 618.355469 721.003906 619.609375 721.566406 621.046875 722.320312 Z M 621.046875 722.320312 "/>
<path style=" stroke:none;fill-rule:nonzero;fill:rgb(100%,59.607843%,0%);fill-opacity:1;" d="M 329.320312 640.1875 C 323.179688 650.53125 308.519531 667.148438 300.6875 672.726562 C 298.558594 674.292969 294.234375 677.867188 291.164062 680.753906 C 282.515625 688.777344 271.613281 695.484375 262.84375 698.183594 C 259.398438 699.246094 258.394531 700.0625 250.3125 708.152344 C 237.84375 720.5625 221.929688 733.167969 207.894531 741.566406 C 205.199219 743.199219 203.007812 744.703125 203.007812 744.890625 C 203.007812 746.519531 216.601562 746.457031 225.375 744.765625 C 239.097656 742.195312 252.378906 737.804688 260.335938 733.355469 C 284.585938 719.75 305.699219 702.195312 321.550781 682.570312 C 329.382812 672.726562 329.382812 672.789062 330.199219 664.578125 C 330.949219 656.238281 332.078125 636.800781 331.828125 636.488281 C 331.703125 636.425781 330.574219 638.054688 329.320312 640.1875 Z M 329.320312 640.1875 "/>
<path style=" stroke:none;fill-rule:nonzero;fill:rgb(100%,59.607843%,0%);fill-opacity:1;" d="M 470.234375 641.503906 C 470.421875 644.390625 470.863281 650.910156 471.175781 656.113281 C 472.238281 672.101562 472.175781 671.660156 476.1875 677.117188 C 492.351562 698.871094 515.160156 718.496094 541.664062 733.355469 C 549.621094 737.804688 562.902344 742.195312 576.625 744.765625 C 585.398438 746.457031 598.992188 746.519531 598.992188 744.890625 C 598.992188 744.703125 596.800781 743.199219 594.167969 741.566406 C 580.132812 733.167969 564.15625 720.628906 551.6875 708.152344 C 543.605469 700.125 542.601562 699.246094 539.15625 698.183594 C 530.386719 695.421875 519.484375 688.714844 510.835938 680.753906 C 507.765625 677.867188 503.503906 674.292969 501.375 672.789062 C 493.417969 667.148438 478.882812 650.660156 472.679688 640.25 C 471.425781 638.117188 470.296875 636.363281 470.109375 636.363281 C 469.984375 636.363281 470.046875 638.683594 470.234375 641.503906 Z M 470.234375 641.503906 "/>
</g>
</svg>
