<?xml version="1.0" encoding="UTF-8"?>
<svg xmlns="http://www.w3.org/2000/svg" xmlns:xlink="http://www.w3.org/1999/xlink" width="1300pt" height="1300pt" viewBox="0 0 1300 1300" version="1.1">
<g id="surface1">
<path style=" stroke:none;fill-rule:nonzero;fill:rgb(100%,75.686275%,2.745098%);fill-opacity:1;" d="M 618.921875 208 C 602.0625 320.632812 588.453125 412.953125 588.554688 413.15625 C 588.65625 413.257812 594.445312 412.242188 601.351562 410.921875 C 632.9375 404.523438 667.0625 404.523438 698.648438 410.921875 C 705.554688 412.242188 711.34375 413.257812 711.445312 413.15625 C 711.851562 412.648438 650.507812 3.046875 650 3.046875 C 649.695312 3.046875 635.679688 95.265625 618.921875 208 Z M 618.921875 208 "/>
<path style=" stroke:none;fill-rule:nonzero;fill:rgb(100%,75.686275%,2.745098%);fill-opacity:1;" d="M 188.398438 191.953125 C 190.835938 195.914062 438.039062 525.078125 438.648438 525.078125 C 438.953125 525.078125 440.882812 522.539062 442.710938 519.289062 C 457.742188 494.304688 487.703125 464.039062 515.53125 445.859375 L 525.890625 439.15625 L 361.15625 318.195312 C 270.664062 251.570312 194.492188 195.609375 191.953125 193.78125 C 189.515625 191.953125 187.890625 191.140625 188.398438 191.953125 Z M 188.398438 191.953125 "/>
<path style=" stroke:none;fill-rule:nonzero;fill:rgb(100%,75.686275%,2.745098%);fill-opacity:1;" d="M 942.90625 315.148438 L 774.109375 439.15625 L 784.46875 445.859375 C 812.5 464.140625 842.359375 494.304688 857.492188 519.695312 C 859.320312 522.640625 861.046875 525.078125 861.351562 525.078125 C 861.859375 525.078125 1109.164062 196.015625 1111.5 192.15625 C 1111.90625 191.546875 1112.109375 190.9375 1111.90625 190.9375 C 1111.703125 191.039062 1035.632812 246.898438 942.90625 315.148438 Z M 942.90625 315.148438 "/>
<path style=" stroke:none;fill-rule:nonzero;fill:rgb(100%,75.686275%,2.745098%);fill-opacity:1;" d="M 629.179688 450.023438 C 590.890625 453.984375 553.007812 469.625 523.148438 493.695312 C 483.640625 525.484375 457.4375 571.085938 450.429688 620.648438 C 448.5 634.15625 448.5 662.695312 450.429688 675.898438 C 456.421875 718.046875 474.90625 755.726562 504.664062 786.398438 C 565.703125 849.367188 660.359375 865.921875 738.867188 827.328125 C 761.515625 816.257812 778.171875 804.070312 795.335938 786.398438 C 825.09375 755.726562 843.578125 718.046875 849.570312 675.898438 C 851.5 662.695312 851.5 634.15625 849.570312 620.648438 C 840.226562 554.734375 798.179688 498.0625 736.835938 468.609375 C 704.4375 453.070312 665.234375 446.265625 629.179688 450.023438 Z M 629.179688 450.023438 "/>
<path style=" stroke:none;fill-rule:nonzero;fill:rgb(100%,75.686275%,2.745098%);fill-opacity:1;" d="M 206.476562 617.5 C 30.570312 643.296875 -2.945312 648.375 0.101562 649.085938 C 2.945312 649.695312 411.9375 709.515625 412.140625 709.3125 C 412.34375 709.210938 411.53125 704.742188 410.414062 699.5625 C 403.609375 667.976562 403.609375 629.078125 410.414062 597.695312 C 411.53125 592.3125 412.34375 587.742188 412.140625 587.640625 C 411.9375 587.539062 319.414062 600.945312 206.476562 617.5 Z M 206.476562 617.5 "/>
<path style=" stroke:none;fill-rule:nonzero;fill:rgb(100%,75.686275%,2.745098%);fill-opacity:1;" d="M 887.65625 588.148438 C 887.65625 588.65625 888.570312 593.226562 889.6875 598.304688 C 896.390625 628.46875 896.390625 668.078125 889.585938 699.5625 C 888.46875 704.742188 887.65625 709.210938 887.859375 709.3125 C 888.46875 709.820312 1298.882812 649.390625 1299.59375 648.78125 C 1299.898438 648.375 1299.1875 647.867188 1297.867188 647.5625 C 1296.546875 647.257812 1204.53125 633.75 1093.320312 617.5 C 982.210938 601.351562 890.398438 587.84375 889.484375 587.640625 C 888.46875 587.4375 887.65625 587.640625 887.65625 588.148438 Z M 887.65625 588.148438 "/>
<path style=" stroke:none;fill-rule:nonzero;fill:rgb(100%,75.686275%,2.745098%);fill-opacity:1;" d="M 314.335938 937.015625 C 246.1875 1027.8125 189.71875 1103.070312 188.90625 1104.289062 C 186.976562 1107.03125 165.34375 1122.773438 358.71875 980.6875 L 525.890625 857.796875 L 515.632812 851.09375 C 487.703125 832.914062 458.148438 803.15625 442.710938 777.664062 C 440.78125 774.515625 439.054688 771.875 438.75 771.875 C 438.445312 771.875 382.484375 846.21875 314.335938 937.015625 Z M 314.335938 937.015625 "/>
<path style=" stroke:none;fill-rule:nonzero;fill:rgb(100%,75.686275%,2.745098%);fill-opacity:1;" d="M 857.289062 777.664062 C 841.851562 803.15625 812.296875 832.914062 784.367188 851.09375 L 774.109375 857.796875 L 938.742188 978.859375 C 1029.335938 1045.382812 1105.40625 1101.242188 1107.84375 1102.96875 C 1110.179688 1104.796875 1112.109375 1106.015625 1112.109375 1105.710938 C 1112.109375 1104.898438 862.164062 772.382812 861.453125 772.179688 C 861.046875 772.078125 859.21875 774.515625 857.289062 777.664062 Z M 857.289062 777.664062 "/>
<path style=" stroke:none;fill-rule:nonzero;fill:rgb(100%,75.686275%,2.745098%);fill-opacity:1;" d="M 588.25 884.8125 C 588.554688 885.523438 602.367188 977.84375 619.125 1089.96875 C 635.78125 1202.195312 649.695312 1293.90625 650 1293.90625 C 650.507812 1293.90625 711.851562 884.304688 711.445312 883.796875 C 711.34375 883.695312 705.554688 884.609375 698.648438 886.03125 C 681.179688 889.585938 668.992188 890.703125 650 890.703125 C 631.007812 890.703125 618.820312 889.585938 601.554688 886.03125 C 587.03125 883.1875 587.742188 883.1875 588.25 884.8125 Z M 588.25 884.8125 "/>
</g>
</svg>
