<?xml version="1.0" encoding="UTF-8"?>
<svg xmlns="http://www.w3.org/2000/svg" xmlns:xlink="http://www.w3.org/1999/xlink" width="744pt" height="1198pt" viewBox="0 0 744 1198" version="1.1">
<g id="surface1">
<path style=" stroke:none;fill-rule:nonzero;fill:rgb(100%,75.686275%,2.745098%);fill-opacity:1;" d="M 127.839844 2.902344 C 135.144531 8.796875 148.445312 23.117188 151.628906 28.359375 C 161.460938 45.019531 163.335938 60.742188 157.714844 81.425781 C 155.09375 91.347656 151.910156 99.210938 139.546875 126.351562 C 123.34375 161.917969 118.378906 177.453125 116.132812 198.417969 C 114.539062 213.488281 116.601562 230.707031 121.753906 245.589844 C 124.09375 252.515625 123.625 252.984375 114.167969 252.421875 C 108.921875 252.046875 105.832031 251.300781 102.085938 249.425781 C 95.246094 245.964844 88.503906 239.414062 85.507812 233.140625 C 83.167969 228.460938 82.886719 226.871094 82.886719 218.074219 C 82.886719 208.902344 83.074219 207.777344 85.882812 201.882812 C 87.566406 198.324219 89.816406 194.300781 90.847656 192.804688 C 91.875 191.398438 92.71875 189.902344 92.71875 189.621094 C 92.71875 189.246094 89.253906 189.246094 85.039062 189.621094 C 65.652344 191.023438 52.445312 197.578125 43.457031 210.210938 C 37.273438 218.820312 34.558594 226.964844 33.996094 238.195312 C 33.152344 253.828125 36.527344 263.933594 46.265625 275.351562 C 53.570312 283.871094 57.597656 290.984375 59.472656 298.65625 C 61.53125 306.988281 60.96875 313.820312 57.035156 328.980469 C 52.726562 345.265625 52.167969 348.917969 52.820312 355.375 C 53.382812 362.019531 55.726562 367.167969 60.5 372.410156 C 63.125 375.40625 63.40625 376.152344 62.1875 376.621094 C 56.191406 378.867188 51.042969 375.3125 46.453125 365.671875 C 44.765625 361.925781 41.207031 354.441406 38.585938 349.011719 C 30.8125 332.632812 23.976562 326.828125 12.832031 327.484375 C 11.425781 327.578125 11.613281 328.140625 14.046875 331.132812 C 20.699219 339.464844 20.324219 350.601562 12.175781 377.183594 C 10.488281 382.609375 7.773438 392.25 6.085938 398.710938 C -5.992188 443.914062 0.1875 476.390625 26.785156 507.746094 C 34.652344 517.011719 43.269531 523.5625 54.789062 529.273438 C 70.992188 537.226562 83.445312 540.878906 109.578125 545.652344 C 136.363281 550.519531 139.359375 552.203125 129.898438 556.976562 C 127.746094 558.097656 125.875 559.128906 125.6875 559.222656 C 124.75 560.066406 131.023438 570.078125 135.238281 574.476562 C 145.445312 585.335938 160.152344 592.074219 188.714844 599 C 196.207031 600.777344 203.234375 603.773438 204.167969 605.644531 C 206.230469 609.484375 202.859375 613.226562 183.097656 629.042969 C 168.394531 640.835938 150.785156 657.683594 142.636719 667.792969 C 128.683594 685.105469 117.820312 704.574219 110.980469 724.414062 C 109.109375 729.84375 107.234375 734.617188 106.765625 735.085938 C 106.394531 735.460938 104.050781 732.933594 101.617188 729.1875 C 94.3125 718.050781 87.847656 714.214844 78.484375 715.429688 C 70.898438 716.460938 70.710938 716.742188 74.832031 720.296875 C 76.984375 722.167969 79.234375 725.257812 80.167969 727.785156 C 82.230469 733.214844 81.292969 737.238281 74.457031 752.398438 C 67.621094 767.375 66.214844 773.273438 66.683594 784.316406 C 67.246094 794.890625 69.210938 800.789062 75.765625 810.710938 L 80.261719 817.636719 L 78.578125 825.496094 C 76.234375 836.355469 74.175781 848.238281 73.332031 854.980469 C 72.582031 860.59375 72.582031 860.59375 69.304688 860.875 C 65.277344 861.15625 60.21875 858.253906 58.910156 854.792969 C 57.785156 851.796875 59.003906 847.679688 62.09375 844.402344 L 64.152344 842.0625 L 61.25 843.558594 C 54.882812 846.835938 50.574219 854.230469 50.574219 862 C 50.574219 871.265625 56.566406 884.554688 64.152344 892.136719 L 68.554688 896.535156 L 68.460938 914.128906 C 68.273438 938.746094 70.898438 957.464844 78.765625 986.757812 C 89.253906 1025.882812 114.351562 1063.597656 158.371094 1106.839844 C 189.183594 1136.976562 218.40625 1156.164062 257.648438 1171.792969 C 298.386719 1188.171875 340.625 1196.410156 390.074219 1197.625 C 469.121094 1199.683594 545.636719 1180.40625 598.460938 1145.121094 C 629.554688 1124.339844 660.832031 1092.238281 684.339844 1057.140625 C 735.664062 980.207031 754.863281 885.585938 736.976562 797.886719 C 734.074219 784.035156 730.886719 772.242188 726.113281 758.109375 C 708.878906 707.382812 683.125 673.21875 618.59375 615.660156 C 587.96875 588.238281 579.351562 578.972656 573.546875 566.898438 C 569.988281 559.410156 568.769531 552.015625 570.175781 546.308594 L 571.207031 542.375 L 569.425781 544.714844 C 566.429688 548.554688 562.964844 558.378906 561.839844 565.585938 C 559.964844 578.410156 563.246094 595.164062 570.832031 612.101562 C 573.171875 617.53125 575.421875 622.398438 575.699219 623.054688 C 576.636719 625.394531 570.457031 621.367188 567.273438 617.625 C 565.492188 615.660156 560.808594 607.984375 556.78125 600.589844 C 541.796875 573.261719 530.464844 559.410156 518.289062 553.605469 C 513.511719 551.265625 511.640625 550.894531 504.335938 550.894531 C 499.277344 550.988281 494.5 551.546875 492.347656 552.296875 L 488.789062 553.699219 L 493.191406 556.882812 C 498.058594 560.53125 502.929688 566.617188 502.929688 569.050781 C 502.929688 573.730469 493.847656 575.226562 483.449219 572.230469 C 466.964844 567.550781 456.382812 558.378906 448.609375 542.375 C 441.867188 528.523438 439.808594 519.164062 439.808594 503.066406 C 439.808594 487.4375 441.117188 480.605469 448.234375 458.234375 C 456.195312 433.433594 457.414062 425.945312 457.414062 404.324219 C 457.414062 384.949219 456.570312 379.429688 451.886719 365.390625 C 440.179688 330.480469 410.773438 303.523438 371.53125 291.636719 C 356.828125 287.144531 346.621094 285.460938 330.230469 284.804688 L 316.273438 284.246094 L 322.175781 291.171875 C 329.855469 300.34375 336.410156 313.820312 340.15625 328.140625 C 342.78125 338.527344 343.058594 340.492188 343.152344 356.59375 C 343.246094 371.941406 342.964844 374.75 341.09375 381.207031 C 335.941406 399.175781 328.261719 407.320312 316.648438 407.320312 C 306.628906 407.320312 294.359375 399.832031 292.578125 392.4375 C 291.550781 388.507812 293.609375 380.644531 298.386719 370.257812 C 305.972656 353.503906 307.378906 348.636719 307.472656 339.277344 C 307.566406 331.789062 307.285156 330.292969 304.941406 325.800781 C 301.476562 319.15625 295.296875 312.695312 286.492188 306.519531 C 272.820312 296.785156 268.417969 289.765625 268.324219 277.503906 C 268.324219 264.777344 272.914062 254.199219 291.269531 225.09375 C 304.472656 204.128906 311.875 189.902344 314.777344 179.605469 C 316.742188 172.398438 316.929688 169.964844 316.929688 150.6875 C 317.023438 132.433594 316.742188 128.316406 314.871094 119.613281 C 308.6875 90.222656 297.542969 68.792969 278.25 49.605469 C 247.34375 18.8125 201.359375 2.339844 140.484375 0.375 L 124.09375 -0.09375 Z M 127.839844 2.902344 "/>
</g>
</svg>
