<?xml version="1.0" encoding="UTF-8"?>
<svg xmlns="http://www.w3.org/2000/svg" xmlns:xlink="http://www.w3.org/1999/xlink" width="170pt" height="111pt" viewBox="0 0 170 111" version="1.1">
<g id="surface1">
<path style=" stroke:none;fill-rule:nonzero;fill:rgb(100%,75.686275%,2.745098%);fill-opacity:1;" d="M 49.738281 0.492188 C 44.015625 2.574219 40.945312 3.851562 36.855469 5.851562 C 29.03125 9.691406 23.269531 13.6875 18.117188 18.847656 C 11.632812 25.363281 7.425781 32.75 4.875 42.050781 C 4.371094 43.890625 3.957031 45.835938 4.023438 46.023438 C 4.0625 46.101562 4.105469 46.011719 4.105469 45.796875 C 4.117188 45.582031 4.15625 45.4375 4.195312 45.492188 C 4.238281 45.53125 4.238281 45.824219 4.183594 46.144531 C 4.105469 46.582031 4.0625 46.648438 3.984375 46.449219 C 3.878906 46.144531 3.398438 48.636719 3.492188 49.007812 C 3.53125 49.140625 3.558594 49.007812 3.574219 48.730469 C 3.574219 48.4375 3.625 48.234375 3.664062 48.289062 C 3.71875 48.328125 3.707031 48.714844 3.652344 49.140625 C 3.558594 49.78125 3.53125 49.863281 3.441406 49.582031 C 3.386719 49.382812 3.359375 49.621094 3.386719 50.183594 C 3.425781 50.808594 3.414062 50.941406 3.347656 50.582031 C 3.265625 50.117188 3.226562 50.222656 3.082031 51.460938 C 2.988281 52.234375 2.933594 53.289062 2.976562 53.792969 C 3.015625 54.515625 3 54.59375 2.921875 54.179688 C 2.84375 53.808594 2.816406 54.019531 2.855469 54.914062 C 2.882812 55.753906 2.867188 56.007812 2.789062 55.648438 L 2.695312 55.113281 L 2.667969 55.59375 C 2.667969 55.859375 2.5625 56.339844 2.457031 56.644531 C 2.203125 57.351562 2.203125 57.6875 2.457031 57.046875 C 2.761719 56.246094 2.65625 56.78125 2.191406 58.445312 C 1.9375 59.324219 1.738281 59.953125 1.738281 59.84375 C 1.726562 59.726562 1.847656 59.207031 1.992188 58.671875 C 2.136719 58.152344 2.257812 57.671875 2.246094 57.621094 C 2.230469 57.378906 1.953125 58.273438 1.648438 59.539062 C 1.328125 60.898438 1.25 61.566406 1.472656 60.910156 C 1.554688 60.671875 1.566406 60.726562 1.5 61.109375 C 1.273438 62.5625 0.957031 64.003906 0.929688 63.644531 C 0.917969 63.378906 0.835938 63.550781 0.71875 64.175781 C 0.597656 64.710938 0.542969 65.484375 0.585938 65.976562 C 0.625 66.484375 0.609375 66.667969 0.542969 66.441406 C 0.464844 66.082031 0.4375 66.136719 0.359375 66.828125 C 0.304688 67.253906 0.277344 68.214844 0.320312 68.960938 C 0.34375 69.707031 0.332031 69.988281 0.277344 69.574219 C 0.238281 69.175781 0.199219 70.375 0.199219 72.242188 C 0.199219 74.105469 0.238281 75.28125 0.277344 74.839844 C 0.332031 74.359375 0.34375 74.667969 0.332031 75.640625 C 0.304688 76.785156 0.320312 77.066406 0.398438 76.640625 C 0.492188 76.160156 0.503906 76.277344 0.464844 77.171875 C 0.4375 77.984375 0.453125 78.171875 0.53125 77.839844 C 0.609375 77.492188 0.636719 77.625 0.597656 78.371094 C 0.570312 78.957031 0.585938 79.171875 0.636719 78.90625 C 0.71875 78.492188 0.757812 78.585938 0.917969 79.609375 C 1.007812 80.265625 1.050781 80.824219 1.007812 80.863281 C 0.96875 80.917969 0.917969 80.746094 0.917969 80.492188 C 0.902344 80.238281 0.875 80.144531 0.835938 80.265625 C 0.808594 80.398438 0.875 80.972656 0.984375 81.53125 C 1.222656 82.625 1.394531 83.050781 1.273438 82.171875 C 1.207031 81.691406 1.222656 81.691406 1.394531 82.304688 C 1.605469 83.011719 1.648438 83.597656 1.449219 83.035156 C 1.140625 82.171875 1.527344 83.902344 1.953125 85.300781 C 3.839844 91.59375 7.277344 97.363281 11.632812 101.5625 C 13.320312 103.175781 14.4375 104.097656 16.308594 105.347656 C 18.59375 106.882812 23.097656 109.015625 24.769531 109.359375 C 24.996094 109.402344 24.515625 109.199219 23.734375 108.90625 C 22.9375 108.613281 22.246094 108.335938 22.207031 108.28125 C 22.152344 108.226562 22.234375 108.226562 22.378906 108.28125 C 22.523438 108.335938 23.414062 108.640625 24.34375 108.960938 C 25.289062 109.28125 25.9375 109.558594 25.804688 109.585938 C 25.527344 109.640625 27.480469 110.132812 29.125 110.414062 C 29.75 110.535156 30.640625 110.601562 31.105469 110.574219 C 31.796875 110.535156 31.847656 110.546875 31.410156 110.625 C 31.050781 110.707031 31.316406 110.71875 32.273438 110.695312 C 33.070312 110.679688 33.390625 110.695312 33.003906 110.746094 C 32.644531 110.785156 33.773438 110.828125 35.527344 110.828125 C 37.28125 110.828125 38.382812 110.785156 37.984375 110.746094 C 37.558594 110.695312 37.890625 110.679688 38.78125 110.695312 C 39.84375 110.71875 40.121094 110.707031 39.710938 110.625 C 39.179688 110.535156 39.207031 110.535156 39.976562 110.558594 C 40.453125 110.585938 41.144531 110.558594 41.503906 110.519531 L 42.167969 110.441406 L 41.703125 110.332031 C 41.359375 110.265625 41.410156 110.253906 41.957031 110.292969 C 42.355469 110.332031 43.230469 110.242188 44 110.082031 C 45.421875 109.800781 45.875 109.628906 44.890625 109.761719 C 44.320312 109.828125 44.320312 109.8125 45.023438 109.628906 C 45.78125 109.425781 46.40625 109.375 45.820312 109.558594 C 45.289062 109.734375 45.820312 109.695312 46.617188 109.507812 L 47.347656 109.347656 L 46.152344 108.695312 C 40.082031 105.390625 37.519531 103.308594 35.59375 100.097656 C 35.089844 99.246094 34.132812 97.136719 34.132812 96.859375 C 34.132812 96.84375 35.367188 96.832031 36.894531 96.832031 L 39.644531 96.859375 L 35.128906 96.671875 L 37.917969 96.683594 C 39.457031 96.699219 40.535156 96.671875 40.308594 96.617188 C 40.070312 96.566406 40.296875 96.539062 40.839844 96.550781 C 41.914062 96.566406 44.027344 96.113281 43.617188 95.953125 C 43.402344 95.871094 43.402344 95.84375 43.589844 95.84375 C 43.707031 95.832031 43.921875 95.792969 44.054688 95.753906 C 44.253906 95.683594 44.265625 95.699219 44.09375 95.820312 C 43.933594 95.9375 43.972656 95.953125 44.292969 95.886719 C 45.355469 95.660156 48.105469 94.433594 51.984375 92.460938 C 56.589844 90.101562 57.734375 89.609375 59.964844 89.019531 C 61.171875 88.703125 61.214844 88.59375 60.03125 88.859375 C 59.84375 88.902344 59.738281 88.902344 59.777344 88.859375 C 59.886719 88.726562 61.730469 88.367188 62.128906 88.382812 C 62.382812 88.394531 62.328125 88.433594 61.957031 88.488281 C 61.664062 88.527344 62.953125 88.566406 64.8125 88.554688 C 66.671875 88.542969 68.078125 88.582031 67.945312 88.632812 C 67.773438 88.6875 68.066406 88.792969 68.808594 88.941406 C 70.589844 89.289062 72.769531 90.035156 75.769531 91.328125 C 79.261719 92.832031 81.824219 93.765625 84.628906 94.550781 C 85.519531 94.804688 85.957031 94.820312 85.199219 94.566406 C 84.535156 94.351562 84.695312 94.3125 85.476562 94.511719 C 85.835938 94.605469 86.023438 94.710938 85.929688 94.765625 C 85.835938 94.820312 86.195312 94.964844 86.726562 95.085938 C 87.855469 95.339844 88.425781 95.351562 87.457031 95.097656 C 87.097656 95.003906 86.914062 94.925781 87.058594 94.925781 C 87.429688 94.925781 88.707031 95.257812 88.398438 95.285156 C 87.910156 95.3125 88.265625 95.417969 89.554688 95.617188 C 90.273438 95.738281 91.253906 95.804688 91.746094 95.777344 C 92.304688 95.753906 92.4375 95.765625 92.105469 95.820312 C 91.253906 95.953125 93.433594 96.097656 95.824219 96.070312 L 97.816406 96.046875 L 95.492188 95.964844 C 93.195312 95.886719 93.207031 95.886719 96.488281 95.871094 C 99.542969 95.871094 99.941406 95.84375 101.441406 95.527344 C 105.53125 94.660156 109.078125 93.03125 112.53125 90.449219 L 113.980469 89.367188 L 110.871094 88.355469 C 105.796875 86.6875 102.636719 85.421875 98.933594 83.570312 C 93.0625 80.609375 87.363281 76.546875 82.714844 71.988281 C 82.078125 71.359375 81.519531 70.894531 81.480469 70.933594 C 81.441406 70.972656 81.839844 71.402344 82.371094 71.894531 C 82.902344 72.375 83.273438 72.773438 83.207031 72.773438 C 83.140625 72.773438 82.515625 72.199219 81.800781 71.507812 C 80.816406 70.519531 80.589844 70.242188 80.804688 70.242188 C 80.960938 70.242188 81.226562 70.335938 81.386719 70.453125 C 81.625 70.628906 81.917969 70.65625 82.78125 70.601562 C 83.378906 70.5625 83.632812 70.574219 83.339844 70.613281 C 82.875 70.695312 82.96875 70.722656 84.136719 70.882812 C 84.867188 70.972656 85.652344 71.015625 85.863281 70.972656 C 86.089844 70.921875 86.5 70.949219 86.792969 71.015625 C 87.203125 71.121094 87.246094 71.148438 86.992188 71.175781 C 86.804688 71.1875 87.761719 71.425781 89.117188 71.695312 C 90.472656 71.972656 92.703125 72.480469 94.070312 72.828125 C 96.808594 73.492188 97.722656 73.640625 95.492188 73.039062 C 94.722656 72.839844 94.191406 72.667969 94.296875 72.652344 C 94.402344 72.652344 95.28125 72.855469 96.222656 73.105469 C 97.179688 73.359375 97.710938 73.546875 97.417969 73.507812 C 96.742188 73.425781 97.191406 73.625 97.949219 73.746094 C 98.320312 73.8125 98.402344 73.800781 98.214844 73.707031 C 97.882812 73.558594 98.214844 73.558594 98.679688 73.707031 C 98.957031 73.800781 98.972656 73.8125 98.746094 73.839844 C 98.519531 73.867188 98.535156 73.878906 98.8125 73.972656 C 99.265625 74.121094 99.609375 74.121094 99.277344 73.972656 C 98.945312 73.828125 99.289062 73.828125 99.742188 73.972656 C 100.019531 74.066406 100.035156 74.078125 99.808594 74.105469 C 99.582031 74.132812 99.597656 74.148438 99.875 74.238281 C 100.328125 74.386719 100.671875 74.386719 100.339844 74.238281 C 100.007812 74.09375 100.351562 74.09375 100.804688 74.238281 C 101.082031 74.332031 101.097656 74.347656 100.871094 74.375 C 100.726562 74.386719 100.910156 74.480469 101.269531 74.585938 C 101.960938 74.773438 102.570312 74.828125 102 74.640625 C 101.402344 74.453125 102.054688 74.507812 102.730469 74.707031 C 103.339844 74.878906 103.339844 74.894531 102.863281 74.828125 C 102.570312 74.785156 102.371094 74.785156 102.410156 74.828125 C 102.519531 74.933594 106.792969 75.839844 107.113281 75.824219 C 107.257812 75.8125 107.058594 75.746094 106.675781 75.679688 C 106.277344 75.613281 105.984375 75.519531 106.023438 75.492188 C 106.050781 75.453125 106.527344 75.507812 107.058594 75.597656 C 107.789062 75.71875 107.964844 75.785156 107.710938 75.839844 C 107.191406 75.972656 109.078125 76.238281 110.035156 76.171875 C 110.644531 76.132812 110.710938 76.144531 110.300781 76.210938 C 109.808594 76.304688 109.847656 76.320312 110.832031 76.425781 C 112.039062 76.558594 120.207031 76.613281 119.199219 76.492188 C 118.707031 76.425781 118.800781 76.414062 119.53125 76.453125 C 120.074219 76.464844 120.792969 76.453125 121.125 76.398438 C 121.710938 76.320312 121.710938 76.320312 121.324219 76.210938 C 121.046875 76.144531 121.113281 76.132812 121.589844 76.171875 C 121.960938 76.210938 122.585938 76.144531 122.984375 76.050781 C 123.382812 75.945312 123.59375 75.851562 123.449219 75.839844 C 123.304688 75.824219 123.488281 75.734375 123.847656 75.625 C 124.683594 75.398438 124.964844 75.414062 124.246094 75.640625 C 123.210938 75.984375 124.140625 75.824219 125.441406 75.441406 C 126.316406 75.1875 127.0625 75.039062 127.632812 75.039062 C 128.816406 75.039062 129.851562 74.757812 131.285156 74.054688 C 132.640625 73.375 133.820312 72.453125 136.453125 70.054688 C 140.449219 66.390625 143.050781 64.46875 146.1875 62.871094 C 147.875 62.019531 150.238281 61.03125 151.710938 60.566406 C 152.125 60.429688 152.402344 60.285156 152.324219 60.230469 C 152.242188 60.191406 152.335938 60.113281 152.535156 60.058594 C 152.734375 60.003906 152.933594 59.992188 152.972656 60.046875 C 153.011719 60.085938 152.933594 60.113281 152.800781 60.113281 C 152.667969 60.113281 152.589844 60.136719 152.628906 60.179688 C 152.65625 60.21875 153.492188 60.046875 154.488281 59.792969 C 155.46875 59.539062 156.757812 59.257812 157.328125 59.164062 C 158.140625 59.03125 158.300781 58.980469 158.046875 58.898438 C 157.714844 58.804688 157.726562 58.804688 158.113281 58.765625 C 158.339844 58.753906 158.898438 58.726562 159.375 58.710938 C 159.851562 58.710938 160.742188 58.644531 161.367188 58.578125 C 162.457031 58.457031 162.46875 58.445312 161.898438 58.367188 C 161.527344 58.300781 161.777344 58.285156 162.5625 58.3125 C 163.464844 58.339844 163.652344 58.324219 163.226562 58.246094 C 162.828125 58.179688 163.171875 58.164062 164.289062 58.179688 C 165.539062 58.207031 165.738281 58.191406 165.085938 58.113281 C 164.609375 58.074219 165.484375 58.046875 167.039062 58.085938 C 169.613281 58.152344 169.867188 58.140625 169.945312 57.925781 C 170 57.792969 169.945312 57.632812 169.828125 57.539062 C 169.722656 57.445312 168.472656 56.5 167.066406 55.433594 C 160.199219 50.222656 153.941406 46.851562 147.980469 45.128906 C 146.679688 44.757812 146.28125 44.691406 147.023438 44.984375 C 147.699219 45.25 147.355469 45.210938 146.359375 44.917969 C 145.882812 44.785156 145.617188 44.664062 145.761719 44.652344 C 146.054688 44.625 144.820312 44.25 144.5 44.265625 C 144.394531 44.277344 144.566406 44.355469 144.898438 44.449219 C 145.667969 44.675781 145.390625 44.703125 144.5 44.492188 C 144.007812 44.382812 143.875 44.304688 144.046875 44.25 C 144.445312 44.105469 141.75 43.652344 140.582031 43.664062 C 139.851562 43.675781 139.691406 43.652344 140.050781 43.597656 C 140.582031 43.519531 140.582031 43.503906 139.785156 43.425781 C 139.347656 43.371094 138.5625 43.34375 138.058594 43.371094 C 137.289062 43.410156 137.222656 43.398438 137.726562 43.316406 C 138.136719 43.25 137.804688 43.222656 136.730469 43.25 C 135.761719 43.265625 135.441406 43.25 135.933594 43.199219 C 136.371094 43.15625 134.167969 43.117188 131.019531 43.117188 C 127.886719 43.117188 125.667969 43.15625 126.105469 43.199219 C 126.542969 43.238281 126.066406 43.25 125.042969 43.222656 C 123.4375 43.171875 122.945312 43.105469 121.46875 42.691406 C 117.484375 41.613281 114.207031 40.277344 107.710938 37.121094 C 100.804688 33.761719 98.214844 32.679688 95.027344 31.84375 C 93.710938 31.496094 92.675781 31.320312 93.5 31.589844 C 94.058594 31.761719 93.488281 31.722656 92.636719 31.523438 L 91.839844 31.335938 L 92.503906 31.402344 C 93.554688 31.523438 93.140625 31.363281 91.800781 31.121094 C 91.097656 31.003906 90.207031 30.933594 89.6875 30.976562 C 89.105469 31.015625 88.972656 31.003906 89.316406 30.949219 C 89.609375 30.894531 88.414062 30.855469 86.660156 30.867188 L 83.472656 30.894531 L 85.265625 30.628906 C 86.25 30.480469 87.683594 30.347656 88.453125 30.335938 C 89.222656 30.324219 90.113281 30.28125 90.445312 30.253906 L 91.042969 30.214844 L 90.511719 30.109375 C 90.085938 30.027344 90.152344 30.015625 90.832031 30.070312 C 91.296875 30.097656 92.277344 30.082031 93.023438 30.027344 C 94.269531 29.9375 94.308594 29.921875 93.632812 29.84375 C 93.234375 29.800781 94.070312 29.789062 95.492188 29.800781 C 97.804688 29.816406 97.894531 29.816406 96.355469 29.734375 C 94.988281 29.667969 95.386719 29.644531 98.214844 29.644531 C 100.605469 29.644531 101.375 29.667969 100.539062 29.734375 C 99.449219 29.816406 99.53125 29.816406 101.203125 29.789062 C 102.265625 29.777344 102.917969 29.800781 102.664062 29.84375 C 102.253906 29.921875 102.304688 29.949219 103.089844 30.027344 C 103.582031 30.082031 104.230469 30.097656 104.550781 30.054688 C 105 30.003906 105.054688 30.015625 104.789062 30.121094 C 104.523438 30.214844 104.589844 30.242188 105.121094 30.203125 C 105.492188 30.175781 105.664062 30.1875 105.519531 30.230469 C 105.199219 30.296875 107.699219 30.910156 108.386719 30.910156 C 108.652344 30.921875 109.160156 30.882812 109.515625 30.828125 C 110.128906 30.734375 110.140625 30.722656 109.769531 30.640625 C 109.53125 30.574219 109.742188 30.5625 110.300781 30.589844 C 111.03125 30.628906 111.136719 30.617188 110.765625 30.523438 C 110.367188 30.414062 110.40625 30.414062 111.019531 30.457031 C 111.921875 30.523438 113.914062 30.242188 113.421875 30.121094 C 113.144531 30.054688 113.195312 30.015625 113.726562 29.9375 C 114.085938 29.882812 114.40625 29.871094 114.457031 29.910156 C 114.496094 29.949219 114.363281 29.988281 114.152344 29.988281 C 113.941406 29.988281 113.820312 30.027344 113.859375 30.070312 C 113.898438 30.121094 114.496094 30.054688 115.175781 29.921875 C 115.984375 29.761719 116.316406 29.644531 116.144531 29.589844 C 115.945312 29.523438 116 29.484375 116.398438 29.402344 C 116.675781 29.347656 116.941406 29.335938 116.980469 29.375 C 117.019531 29.417969 116.902344 29.457031 116.730469 29.46875 C 116.554688 29.46875 116.476562 29.507812 116.570312 29.535156 C 116.78125 29.628906 118.960938 29.03125 120.554688 28.457031 C 124.179688 27.136719 126.941406 25.378906 129.625 22.671875 C 130.742188 21.550781 133.210938 18.554688 133.210938 18.339844 C 133.210938 18.285156 131.058594 18.753906 130.488281 18.925781 C 130.117188 19.046875 130.128906 19.046875 130.59375 18.980469 C 130.859375 18.941406 131.085938 18.941406 131.085938 18.980469 C 131.085938 19.074219 129.082031 19.484375 129 19.40625 C 128.949219 19.367188 129.066406 19.328125 129.238281 19.3125 C 129.414062 19.3125 129.492188 19.273438 129.425781 19.246094 C 129.347656 19.21875 128.65625 19.339844 127.898438 19.511719 C 127.128906 19.6875 126.648438 19.847656 126.835938 19.859375 C 127.089844 19.886719 127.046875 19.914062 126.648438 20.007812 C 126.359375 20.074219 126.066406 20.097656 125.984375 20.074219 C 125.90625 20.046875 125.984375 20.007812 126.160156 20.007812 C 126.332031 19.992188 126.449219 19.964844 126.410156 19.925781 C 126.371094 19.886719 125.933594 19.925781 125.429688 20.019531 C 124.75 20.140625 124.605469 20.207031 124.84375 20.257812 C 125.070312 20.3125 124.710938 20.417969 123.742188 20.578125 C 122.957031 20.726562 122.28125 20.792969 122.226562 20.738281 C 122.1875 20.699219 122.347656 20.660156 122.585938 20.660156 C 122.824219 20.660156 122.996094 20.621094 122.957031 20.578125 C 122.90625 20.539062 122.519531 20.550781 122.09375 20.605469 C 121.484375 20.6875 121.390625 20.726562 121.65625 20.792969 C 121.921875 20.871094 121.828125 20.898438 121.230469 20.992188 C 120.820312 21.046875 120.421875 21.046875 120.339844 21.003906 C 120.261719 20.953125 119.742188 20.964844 119.171875 21.019531 C 118.164062 21.113281 118.148438 21.125 118.734375 21.207031 C 119.121094 21.273438 118.867188 21.285156 118.070312 21.257812 C 117.21875 21.230469 117.007812 21.257812 117.40625 21.324219 C 117.75 21.378906 117.128906 21.40625 115.945312 21.390625 C 114.230469 21.367188 114.113281 21.378906 115.214844 21.445312 C 116.117188 21.5 115.492188 21.527344 113.222656 21.527344 C 111.164062 21.527344 110.328125 21.5 111.03125 21.445312 C 111.988281 21.367188 111.90625 21.367188 110.5 21.390625 C 109.582031 21.40625 109.050781 21.378906 109.304688 21.324219 C 109.691406 21.246094 109.714844 21.21875 109.425781 21.207031 C 108.613281 21.164062 106.703125 20.765625 105.546875 20.394531 C 102.585938 19.433594 100.433594 17.765625 99.25 15.515625 C 98.90625 14.835938 98.867188 14.820312 96.195312 13.394531 C 93.035156 11.714844 90.457031 10.515625 88.175781 9.664062 C 86.382812 8.984375 83.472656 8.078125 82.742188 7.957031 L 82.277344 7.878906 L 82.808594 8.0625 C 83.445312 8.304688 83.113281 8.265625 81.292969 7.851562 C 80.539062 7.675781 79.980469 7.515625 80.058594 7.492188 C 80.125 7.476562 80.589844 7.542969 81.082031 7.664062 C 82.023438 7.878906 82.53125 7.917969 81.878906 7.71875 C 81.070312 7.476562 77.933594 6.917969 77.65625 6.972656 C 77.496094 6.996094 77.601562 7.039062 77.882812 7.050781 C 78.171875 7.050781 78.371094 7.105469 78.320312 7.144531 C 78.28125 7.183594 77.867188 7.183594 77.402344 7.117188 C 76.671875 7.023438 76.621094 6.996094 76.964844 6.917969 C 77.203125 6.863281 76.976562 6.835938 76.367188 6.863281 C 75.648438 6.890625 75.515625 6.878906 75.902344 6.796875 L 76.433594 6.703125 L 75.742188 6.675781 C 75.359375 6.652344 73.007812 6.636719 70.523438 6.636719 C 68.039062 6.636719 65.6875 6.652344 65.316406 6.675781 L 64.613281 6.703125 L 65.144531 6.796875 C 65.542969 6.878906 65.4375 6.890625 64.746094 6.851562 C 63.871094 6.8125 61.453125 7.128906 62.15625 7.199219 C 62.433594 7.222656 62.421875 7.238281 62.023438 7.332031 C 61.769531 7.398438 61.292969 7.476562 60.960938 7.515625 C 60.507812 7.570312 60.441406 7.558594 60.695312 7.464844 C 61.414062 7.199219 59.792969 7.492188 57.707031 7.996094 C 55.808594 8.464844 52.195312 9.570312 53.191406 9.382812 C 53.867188 9.25 53.523438 9.421875 51.996094 9.941406 C 51.199219 10.210938 49.671875 10.796875 48.609375 11.222656 C 46.363281 12.140625 46.164062 12.222656 46.644531 11.941406 C 47.027344 11.714844 50.589844 10.277344 51.4375 9.996094 C 51.71875 9.917969 51.929688 9.808594 51.890625 9.78125 C 51.824219 9.714844 50.746094 10.089844 48.675781 10.917969 C 46.710938 11.714844 44.332031 12.808594 44.414062 12.890625 C 44.4375 12.914062 44.835938 12.753906 45.289062 12.527344 C 45.742188 12.300781 46.140625 12.128906 46.164062 12.167969 C 46.191406 12.195312 45.582031 12.515625 44.824219 12.875 C 44.054688 13.25 43.441406 13.515625 43.46875 13.476562 C 43.496094 13.433594 44.027344 12.34375 44.664062 11.0625 C 45.289062 9.78125 45.808594 8.785156 45.820312 8.835938 C 45.820312 8.902344 45.367188 9.890625 44.824219 11.023438 C 44.28125 12.167969 43.828125 13.117188 43.828125 13.140625 C 43.828125 13.167969 43.921875 13.15625 44.027344 13.117188 C 44.132812 13.0625 44.199219 12.980469 44.160156 12.929688 C 44.09375 12.835938 44.398438 12.183594 46.710938 7.332031 C 47.800781 5.050781 49.234375 2.800781 50.441406 1.453125 C 51.078125 0.773438 51.210938 0.53125 51.121094 0.359375 C 50.945312 0.0664062 50.855469 0.078125 49.738281 0.492188 Z M 50.867188 0.320312 C 50.867188 0.398438 49.234375 0.945312 49.179688 0.878906 C 49.152344 0.851562 49.472656 0.707031 49.898438 0.558594 C 50.722656 0.265625 50.867188 0.238281 50.867188 0.320312 Z M 50.441406 1.304688 C 49.113281 2.691406 48.050781 4.332031 46.628906 7.128906 C 46.191406 8.011719 45.832031 8.675781 45.820312 8.625 C 45.808594 8.355469 47.652344 4.890625 48.410156 3.730469 C 49.328125 2.359375 50.855469 0.480469 50.972656 0.601562 C 51.011719 0.640625 50.773438 0.960938 50.441406 1.304688 Z M 48.476562 1.1875 C 48.371094 1.253906 48.132812 1.332031 47.945312 1.386719 C 47.667969 1.453125 47.679688 1.425781 48.011719 1.265625 C 48.4375 1.066406 48.808594 1 48.476562 1.1875 Z M 47.136719 1.652344 C 47.082031 1.691406 41.835938 3.8125 41.4375 3.945312 C 41.332031 3.984375 41.359375 3.945312 41.492188 3.851562 C 41.636719 3.773438 42.910156 3.226562 44.347656 2.652344 C 46.671875 1.71875 47.320312 1.480469 47.136719 1.652344 Z M 40.640625 4.292969 C 29.84375 9.371094 23.707031 13.460938 17.796875 19.539062 C 14.863281 22.566406 11.914062 26.457031 10.171875 29.617188 C 9.894531 30.121094 9.640625 30.523438 9.601562 30.523438 C 9.308594 30.523438 12.695312 25.296875 14.277344 23.324219 C 19.058594 17.300781 25.246094 12.25 33.136719 7.902344 C 35.59375 6.542969 40.800781 4.011719 41.105469 4.011719 C 41.183594 4.011719 40.972656 4.144531 40.640625 4.292969 Z M 67.042969 6.757812 C 66.832031 6.785156 66.511719 6.785156 66.3125 6.757812 C 66.101562 6.730469 66.273438 6.703125 66.671875 6.703125 C 67.070312 6.703125 67.242188 6.730469 67.042969 6.757812 Z M 74.8125 6.757812 C 74.640625 6.785156 74.347656 6.785156 74.148438 6.757812 C 73.9375 6.730469 74.082031 6.703125 74.441406 6.703125 C 74.8125 6.703125 74.972656 6.730469 74.8125 6.757812 Z M 64.253906 7.023438 C 64.121094 7.050781 63.910156 7.050781 63.789062 7.023438 C 63.65625 6.984375 63.761719 6.957031 64.015625 6.957031 C 64.269531 6.957031 64.375 6.984375 64.253906 7.023438 Z M 63.324219 7.15625 C 63.191406 7.183594 62.980469 7.183594 62.859375 7.15625 C 62.726562 7.117188 62.832031 7.089844 63.085938 7.089844 C 63.339844 7.089844 63.445312 7.117188 63.324219 7.15625 Z M 78.929688 7.289062 C 78.835938 7.316406 78.679688 7.316406 78.597656 7.289062 C 78.503906 7.25 78.570312 7.222656 78.757812 7.222656 C 78.945312 7.222656 79.011719 7.25 78.929688 7.289062 Z M 79.726562 7.425781 C 79.632812 7.449219 79.449219 7.449219 79.328125 7.425781 C 79.195312 7.382812 79.277344 7.355469 79.488281 7.355469 C 79.714844 7.355469 79.808594 7.382812 79.726562 7.425781 Z M 60.203125 7.691406 C 60.109375 7.71875 59.925781 7.71875 59.804688 7.691406 C 59.671875 7.652344 59.753906 7.625 59.964844 7.625 C 60.191406 7.625 60.285156 7.652344 60.203125 7.691406 Z M 59.460938 7.808594 C 59.421875 7.851562 59.300781 7.863281 59.207031 7.824219 C 59.101562 7.785156 59.140625 7.742188 59.289062 7.742188 C 59.433594 7.730469 59.511719 7.769531 59.460938 7.808594 Z M 58.371094 8.078125 C 58.011719 8.171875 57.613281 8.25 57.507812 8.25 C 57.230469 8.238281 58.4375 7.890625 58.769531 7.890625 C 58.914062 7.890625 58.742188 7.96875 58.371094 8.078125 Z M 57.042969 8.382812 C 56.898438 8.449219 56.566406 8.53125 56.3125 8.570312 C 55.847656 8.648438 55.859375 8.648438 56.378906 8.464844 C 56.949219 8.277344 57.496094 8.210938 57.042969 8.382812 Z M 84.003906 8.398438 C 84.175781 8.464844 84.191406 8.515625 84.070312 8.515625 C 83.964844 8.515625 83.75 8.464844 83.605469 8.398438 C 83.433594 8.332031 83.417969 8.277344 83.539062 8.277344 C 83.644531 8.277344 83.859375 8.332031 84.003906 8.398438 Z M 55.582031 8.796875 C 55.4375 8.863281 55.222656 8.917969 55.117188 8.917969 C 54.996094 8.917969 55.011719 8.863281 55.183594 8.796875 C 55.328125 8.730469 55.542969 8.675781 55.648438 8.675781 C 55.769531 8.675781 55.753906 8.730469 55.582031 8.796875 Z M 85.09375 8.742188 C 85.054688 8.785156 84.933594 8.796875 84.839844 8.757812 C 84.734375 8.71875 84.773438 8.675781 84.921875 8.675781 C 85.066406 8.664062 85.144531 8.703125 85.09375 8.742188 Z M 85.730469 8.929688 C 85.902344 9.011719 85.929688 9.050781 85.796875 9.050781 C 85.691406 9.050781 85.503906 8.996094 85.398438 8.929688 C 85.160156 8.769531 85.371094 8.769531 85.730469 8.929688 Z M 54.453125 9.128906 C 54.199219 9.222656 53.894531 9.304688 53.789062 9.304688 C 53.683594 9.304688 53.800781 9.222656 54.054688 9.128906 C 54.308594 9.035156 54.613281 8.957031 54.71875 8.957031 C 54.824219 8.957031 54.707031 9.035156 54.453125 9.128906 Z M 86.527344 9.195312 C 86.699219 9.277344 86.726562 9.316406 86.59375 9.316406 C 86.488281 9.316406 86.300781 9.261719 86.195312 9.195312 C 85.957031 9.035156 86.167969 9.035156 86.527344 9.195312 Z M 87.988281 9.742188 C 88.28125 9.890625 88.375 9.957031 88.1875 9.917969 C 88 9.863281 87.617188 9.714844 87.324219 9.582031 C 87.03125 9.4375 86.9375 9.371094 87.125 9.410156 C 87.3125 9.464844 87.695312 9.609375 87.988281 9.742188 Z M 89.382812 10.289062 C 89.515625 10.371094 89.476562 10.382812 89.25 10.316406 C 89.0625 10.277344 88.824219 10.167969 88.71875 10.101562 C 88.585938 10.023438 88.625 10.007812 88.851562 10.078125 C 89.039062 10.117188 89.277344 10.222656 89.382812 10.289062 Z M 91.640625 11.25 C 92.558594 11.664062 94.523438 12.648438 96.023438 13.449219 L 98.746094 14.902344 L 99.222656 15.753906 C 100.460938 17.914062 102.332031 19.367188 105.320312 20.472656 C 105.796875 20.644531 106.011719 20.765625 105.785156 20.710938 C 105.132812 20.59375 103.460938 19.886719 102.664062 19.394531 C 101.003906 18.378906 99.730469 17.058594 99.039062 15.621094 C 98.773438 15.089844 98.601562 14.96875 96.261719 13.714844 C 94.894531 12.980469 93.0625 12.050781 92.210938 11.648438 C 91.347656 11.25 90.40625 10.808594 90.113281 10.648438 C 89.183594 10.183594 89.941406 10.476562 91.640625 11.25 Z M 132.613281 18.886719 C 131.578125 20.484375 129 23.257812 127.300781 24.589844 C 125.90625 25.683594 124.285156 26.695312 122.757812 27.417969 C 120.925781 28.269531 121.085938 28.109375 122.996094 27.148438 C 125.785156 25.765625 127.953125 24.136719 130.144531 21.777344 C 131.40625 20.417969 132.601562 18.847656 132.480469 18.660156 C 132.441406 18.59375 132.492188 18.527344 132.625 18.527344 C 132.824219 18.527344 132.824219 18.554688 132.613281 18.886719 Z M 132.242188 18.738281 C 132.203125 18.78125 132.082031 18.792969 131.988281 18.753906 C 131.882812 18.714844 131.921875 18.671875 132.070312 18.671875 C 132.214844 18.660156 132.292969 18.699219 132.242188 18.738281 Z M 131.65625 18.886719 C 131.5625 18.914062 131.40625 18.914062 131.324219 18.886719 C 131.230469 18.847656 131.296875 18.820312 131.484375 18.820312 C 131.671875 18.820312 131.738281 18.847656 131.65625 18.886719 Z M 128.789062 19.539062 C 128.75 19.578125 128.628906 19.59375 128.535156 19.554688 C 128.429688 19.511719 128.46875 19.472656 128.617188 19.472656 C 128.761719 19.460938 128.839844 19.5 128.789062 19.539062 Z M 128.203125 19.6875 C 128.109375 19.714844 127.953125 19.714844 127.871094 19.6875 C 127.777344 19.644531 127.84375 19.621094 128.03125 19.621094 C 128.21875 19.621094 128.285156 19.644531 128.203125 19.6875 Z M 127.59375 19.804688 C 127.554688 19.847656 127.433594 19.859375 127.339844 19.820312 C 127.234375 19.78125 127.273438 19.738281 127.421875 19.738281 C 127.566406 19.726562 127.644531 19.765625 127.59375 19.804688 Z M 125.679688 20.21875 C 125.585938 20.246094 125.429688 20.246094 125.347656 20.21875 C 125.253906 20.179688 125.320312 20.152344 125.507812 20.152344 C 125.695312 20.152344 125.761719 20.179688 125.679688 20.21875 Z M 106.914062 20.925781 C 107.179688 21.003906 107.191406 21.03125 106.980469 21.03125 C 106.835938 21.03125 106.59375 20.992188 106.449219 20.925781 C 106.117188 20.777344 106.460938 20.777344 106.914062 20.925781 Z M 107.75 21.152344 C 107.65625 21.179688 107.5 21.179688 107.417969 21.152344 C 107.324219 21.113281 107.390625 21.085938 107.578125 21.085938 C 107.765625 21.085938 107.832031 21.113281 107.75 21.152344 Z M 120.035156 21.152344 C 119.902344 21.179688 119.691406 21.179688 119.570312 21.152344 C 119.4375 21.113281 119.542969 21.085938 119.796875 21.085938 C 120.050781 21.085938 120.15625 21.113281 120.035156 21.152344 Z M 108.613281 21.285156 C 108.480469 21.3125 108.269531 21.3125 108.148438 21.285156 C 108.015625 21.246094 108.121094 21.21875 108.375 21.21875 C 108.628906 21.21875 108.734375 21.246094 108.613281 21.285156 Z M 120.726562 28.242188 C 120.621094 28.308594 120.382812 28.390625 120.195312 28.441406 C 119.917969 28.507812 119.929688 28.484375 120.261719 28.324219 C 120.6875 28.125 121.058594 28.054688 120.726562 28.242188 Z M 119.398438 28.722656 C 119.144531 28.816406 118.839844 28.894531 118.734375 28.894531 C 118.628906 28.894531 118.746094 28.816406 119 28.722656 C 119.253906 28.628906 119.558594 28.550781 119.664062 28.550781 C 119.769531 28.550781 119.652344 28.628906 119.398438 28.722656 Z M 117.804688 29.191406 C 117.351562 29.335938 117.007812 29.335938 117.339844 29.191406 C 117.484375 29.121094 117.726562 29.082031 117.871094 29.082031 C 118.082031 29.082031 118.070312 29.109375 117.804688 29.191406 Z M 115.71875 29.683594 C 115.625 29.710938 115.46875 29.710938 115.386719 29.683594 C 115.292969 29.644531 115.359375 29.617188 115.546875 29.617188 C 115.734375 29.617188 115.800781 29.644531 115.71875 29.683594 Z M 115.054688 29.816406 C 114.960938 29.84375 114.804688 29.84375 114.722656 29.816406 C 114.628906 29.777344 114.695312 29.75 114.882812 29.75 C 115.070312 29.75 115.136719 29.777344 115.054688 29.816406 Z M 92.277344 29.949219 C 92.066406 29.976562 91.746094 29.976562 91.546875 29.949219 C 91.335938 29.921875 91.507812 29.894531 91.90625 29.894531 C 92.304688 29.894531 92.476562 29.921875 92.277344 29.949219 Z M 104.097656 29.949219 C 103.964844 29.976562 103.726562 29.976562 103.566406 29.949219 C 103.394531 29.921875 103.5 29.894531 103.792969 29.894531 C 104.085938 29.882812 104.21875 29.910156 104.097656 29.949219 Z M 89.6875 30.214844 C 89.515625 30.242188 89.222656 30.242188 89.023438 30.214844 C 88.8125 30.1875 88.957031 30.164062 89.316406 30.164062 C 89.6875 30.164062 89.847656 30.1875 89.6875 30.214844 Z M 112.863281 30.214844 C 112.730469 30.242188 112.519531 30.242188 112.398438 30.214844 C 112.265625 30.175781 112.371094 30.148438 112.625 30.148438 C 112.878906 30.148438 112.984375 30.175781 112.863281 30.214844 Z M 106.421875 30.347656 C 106.328125 30.375 106.171875 30.375 106.089844 30.347656 C 105.996094 30.308594 106.0625 30.28125 106.25 30.28125 C 106.4375 30.28125 106.503906 30.308594 106.421875 30.347656 Z M 112 30.347656 C 111.90625 30.375 111.722656 30.375 111.601562 30.347656 C 111.46875 30.308594 111.550781 30.28125 111.761719 30.28125 C 111.988281 30.28125 112.082031 30.308594 112 30.347656 Z M 107.378906 30.523438 C 107.710938 30.667969 107.367188 30.667969 106.914062 30.523438 C 106.648438 30.441406 106.636719 30.414062 106.847656 30.414062 C 106.992188 30.414062 107.234375 30.457031 107.378906 30.523438 Z M 8.964844 31.855469 C 8.644531 32.480469 8.367188 32.933594 8.367188 32.882812 C 8.367188 32.722656 9.457031 30.628906 9.507812 30.695312 C 9.535156 30.707031 9.285156 31.242188 8.964844 31.855469 Z M 108.148438 30.75 C 108.054688 30.777344 107.898438 30.777344 107.816406 30.75 C 107.722656 30.707031 107.789062 30.683594 107.976562 30.683594 C 108.164062 30.683594 108.230469 30.707031 108.148438 30.75 Z M 109.144531 30.75 C 109.011719 30.777344 108.773438 30.777344 108.613281 30.75 C 108.441406 30.722656 108.546875 30.695312 108.839844 30.695312 C 109.132812 30.683594 109.265625 30.707031 109.144531 30.75 Z M 90.816406 31.148438 C 90.683594 31.175781 90.445312 31.175781 90.285156 31.148438 C 90.113281 31.121094 90.21875 31.09375 90.511719 31.09375 C 90.804688 31.082031 90.9375 31.109375 90.816406 31.148438 Z M 91.679688 31.28125 C 91.585938 31.308594 91.402344 31.308594 91.28125 31.28125 C 91.148438 31.242188 91.230469 31.214844 91.441406 31.214844 C 91.667969 31.214844 91.761719 31.242188 91.679688 31.28125 Z M 94.257812 31.800781 C 94.21875 31.84375 94.097656 31.855469 94.003906 31.816406 C 93.898438 31.773438 93.9375 31.734375 94.085938 31.734375 C 94.230469 31.722656 94.308594 31.761719 94.257812 31.800781 Z M 94.789062 31.933594 C 94.75 31.976562 94.628906 31.988281 94.535156 31.949219 C 94.429688 31.910156 94.46875 31.867188 94.617188 31.867188 C 94.761719 31.855469 94.839844 31.894531 94.789062 31.933594 Z M 96.898438 32.535156 C 97.816406 32.828125 98.546875 33.09375 98.519531 33.121094 C 98.492188 33.148438 97.671875 32.90625 96.6875 32.589844 C 95.703125 32.269531 94.972656 32 95.066406 32 C 95.160156 31.988281 95.984375 32.226562 96.898438 32.535156 Z M 99.078125 33.320312 C 99.183594 33.386719 99.222656 33.453125 99.144531 33.453125 C 99.078125 33.453125 98.917969 33.386719 98.8125 33.320312 C 98.707031 33.253906 98.679688 33.1875 98.746094 33.1875 C 98.824219 33.1875 98.972656 33.253906 99.078125 33.320312 Z M 7.675781 34.695312 C 7.371094 35.402344 7.105469 35.960938 7.078125 35.933594 C 7.050781 35.921875 7.210938 35.480469 7.425781 34.972656 C 7.929688 33.746094 8.140625 33.308594 8.179688 33.359375 C 8.207031 33.386719 7.980469 33.988281 7.675781 34.695312 Z M 100.644531 33.933594 C 102.039062 34.507812 110.660156 38.679688 110.59375 38.746094 C 110.566406 38.773438 108.8125 37.945312 106.703125 36.90625 C 104.589844 35.878906 102.09375 34.695312 101.136719 34.292969 C 100.195312 33.882812 99.382812 33.535156 99.355469 33.507812 C 99.199219 33.359375 99.609375 33.507812 100.644531 33.933594 Z M 6.917969 36.480469 C 6.761719 36.746094 6.734375 36.667969 6.851562 36.320312 C 6.90625 36.199219 6.972656 36.132812 7 36.171875 C 7.039062 36.199219 7 36.347656 6.917969 36.480469 Z M 6.414062 37.894531 C 6.230469 38.453125 6.042969 38.894531 6.015625 38.867188 C 5.976562 38.839844 6.121094 38.359375 6.320312 37.800781 C 6.519531 37.238281 6.695312 36.800781 6.734375 36.828125 C 6.761719 36.851562 6.613281 37.332031 6.414062 37.894531 Z M 111.695312 39.1875 C 112.09375 39.398438 112.371094 39.574219 112.292969 39.574219 C 112.226562 39.574219 111.828125 39.398438 111.429688 39.1875 C 111.03125 38.972656 110.765625 38.800781 110.832031 38.800781 C 110.910156 38.800781 111.296875 38.972656 111.695312 39.1875 Z M 5.632812 40.304688 C 5.5 40.71875 5.378906 41.023438 5.339844 41 C 5.3125 40.972656 5.390625 40.613281 5.523438 40.199219 C 5.65625 39.785156 5.777344 39.480469 5.816406 39.503906 C 5.84375 39.53125 5.765625 39.890625 5.632812 40.304688 Z M 113.023438 39.785156 C 113.210938 39.890625 113.300781 39.972656 113.222656 39.972656 C 113.15625 39.972656 112.945312 39.890625 112.757812 39.785156 C 112.570312 39.679688 112.492188 39.597656 112.558594 39.597656 C 112.636719 39.597656 112.835938 39.679688 113.023438 39.785156 Z M 114.921875 40.570312 C 115.625 40.867188 116.183594 41.117188 116.15625 41.144531 C 116.105469 41.210938 114.164062 40.4375 113.699219 40.171875 C 113.25 39.90625 113.394531 39.957031 114.921875 40.570312 Z M 5.273438 41.476562 C 5.234375 41.585938 5.191406 41.546875 5.191406 41.398438 C 5.179688 41.25 5.21875 41.171875 5.257812 41.226562 C 5.300781 41.265625 5.3125 41.386719 5.273438 41.476562 Z M 118.070312 41.785156 C 118.988281 42.105469 119.664062 42.371094 119.570312 42.371094 C 119.398438 42.382812 116.769531 41.476562 116.476562 41.304688 C 116.117188 41.105469 116.382812 41.183594 118.070312 41.785156 Z M 4.902344 42.929688 C 4.636719 43.996094 4.382812 44.625 4.570312 43.785156 C 4.769531 42.839844 5.085938 41.71875 5.140625 41.773438 C 5.167969 41.796875 5.058594 42.316406 4.902344 42.929688 Z M 121.03125 42.71875 C 121.523438 42.851562 121.894531 42.984375 121.867188 43.011719 C 121.800781 43.089844 119.929688 42.558594 119.808594 42.4375 C 119.769531 42.382812 119.824219 42.371094 119.929688 42.410156 C 120.035156 42.453125 120.527344 42.585938 121.03125 42.71875 Z M 122.414062 43.132812 C 122.375 43.171875 122.253906 43.183594 122.160156 43.144531 C 122.054688 43.105469 122.09375 43.066406 122.242188 43.066406 C 122.386719 43.050781 122.464844 43.089844 122.414062 43.132812 Z M 124.777344 43.382812 C 124.855469 43.410156 124.5 43.425781 123.980469 43.4375 C 123.476562 43.4375 122.929688 43.382812 122.785156 43.332031 C 122.53125 43.222656 124.484375 43.292969 124.777344 43.382812 Z M 139.292969 43.542969 C 139.160156 43.570312 138.921875 43.570312 138.761719 43.542969 C 138.589844 43.519531 138.695312 43.492188 138.988281 43.492188 C 139.28125 43.476562 139.414062 43.503906 139.292969 43.542969 Z M 141.351562 43.8125 C 141.257812 43.835938 141.074219 43.835938 140.953125 43.8125 C 140.820312 43.769531 140.902344 43.746094 141.113281 43.746094 C 141.339844 43.746094 141.433594 43.769531 141.351562 43.8125 Z M 142.148438 43.945312 C 142.054688 43.972656 141.871094 43.972656 141.75 43.945312 C 141.617188 43.902344 141.699219 43.878906 141.910156 43.878906 C 142.136719 43.878906 142.230469 43.902344 142.148438 43.945312 Z M 142.8125 44.078125 C 142.71875 44.105469 142.5625 44.105469 142.480469 44.078125 C 142.386719 44.039062 142.453125 44.011719 142.640625 44.011719 C 142.828125 44.011719 142.894531 44.039062 142.8125 44.078125 Z M 143.609375 44.210938 C 143.515625 44.238281 143.332031 44.238281 143.210938 44.210938 C 143.078125 44.171875 143.160156 44.144531 143.371094 44.144531 C 143.597656 44.144531 143.691406 44.171875 143.609375 44.210938 Z M 4.476562 44.675781 C 4.4375 44.769531 4.410156 44.703125 4.410156 44.515625 C 4.410156 44.332031 4.4375 44.265625 4.476562 44.34375 C 4.503906 44.4375 4.503906 44.597656 4.476562 44.675781 Z M 4.34375 45.210938 C 4.304688 45.316406 4.261719 45.277344 4.261719 45.128906 C 4.25 44.984375 4.289062 44.902344 4.328125 44.957031 C 4.371094 44.996094 4.382812 45.117188 4.34375 45.210938 Z M 148.855469 45.53125 C 149.46875 45.71875 149.945312 45.890625 149.917969 45.917969 C 149.890625 45.945312 149.335938 45.796875 148.683594 45.582031 C 148.019531 45.382812 147.542969 45.195312 147.609375 45.195312 C 147.6875 45.183594 148.246094 45.34375 148.855469 45.53125 Z M 151.074219 46.328125 C 151.394531 46.476562 151.40625 46.503906 151.140625 46.4375 C 150.953125 46.382812 150.636719 46.261719 150.410156 46.171875 C 150.089844 46.023438 150.078125 45.996094 150.34375 46.0625 C 150.53125 46.117188 150.863281 46.238281 151.074219 46.328125 Z M 152.8125 46.996094 C 153.4375 47.261719 153.917969 47.503906 153.890625 47.53125 C 153.851562 47.582031 151.671875 46.675781 151.550781 46.570312 C 151.394531 46.421875 151.804688 46.570312 152.8125 46.996094 Z M 3.945312 47.277344 C 3.90625 47.410156 3.878906 47.328125 3.878906 47.117188 C 3.878906 46.890625 3.90625 46.796875 3.945312 46.875 C 3.972656 46.96875 3.972656 47.15625 3.945312 47.277344 Z M 3.8125 48.007812 C 3.773438 48.101562 3.746094 48.035156 3.746094 47.847656 C 3.746094 47.664062 3.773438 47.597656 3.8125 47.675781 C 3.839844 47.769531 3.839844 47.929688 3.8125 48.007812 Z M 156.375 48.6875 C 158.882812 49.996094 159.945312 50.621094 162.5625 52.367188 C 164.554688 53.6875 169.640625 57.460938 169.828125 57.753906 C 169.878906 57.832031 169.761719 57.792969 169.574219 57.644531 C 162.683594 52.394531 160.769531 51.128906 156.121094 48.703125 C 154.953125 48.089844 154.050781 47.582031 154.117188 47.582031 C 154.183594 47.582031 155.203125 48.074219 156.375 48.6875 Z M 3.28125 51.808594 C 3.242188 51.941406 3.214844 51.835938 3.214844 51.582031 C 3.214844 51.328125 3.242188 51.222656 3.28125 51.339844 C 3.308594 51.476562 3.308594 51.6875 3.28125 51.808594 Z M 3.148438 53.074219 C 3.121094 53.246094 3.09375 53.113281 3.09375 52.78125 C 3.09375 52.449219 3.121094 52.316406 3.148438 52.472656 C 3.175781 52.648438 3.175781 52.914062 3.148438 53.074219 Z M 168.910156 57.9375 C 168.484375 57.964844 167.769531 57.964844 167.316406 57.9375 C 166.851562 57.914062 167.199219 57.898438 168.074219 57.898438 C 168.949219 57.898438 169.324219 57.914062 168.910156 57.9375 Z M 160.941406 58.472656 C 160.808594 58.5 160.597656 58.5 160.476562 58.472656 C 160.34375 58.433594 160.449219 58.40625 160.703125 58.40625 C 160.957031 58.40625 161.0625 58.433594 160.941406 58.472656 Z M 160.011719 58.605469 C 159.878906 58.632812 159.667969 58.632812 159.546875 58.605469 C 159.414062 58.566406 159.519531 58.539062 159.773438 58.539062 C 160.027344 58.539062 160.132812 58.566406 160.011719 58.605469 Z M 157.554688 59.003906 C 157.460938 59.03125 157.277344 59.03125 157.15625 59.003906 C 157.023438 58.964844 157.105469 58.9375 157.316406 58.9375 C 157.542969 58.9375 157.636719 58.964844 157.554688 59.003906 Z M 156.757812 59.140625 C 156.664062 59.164062 156.507812 59.164062 156.425781 59.140625 C 156.332031 59.097656 156.398438 59.070312 156.585938 59.070312 C 156.773438 59.070312 156.839844 59.097656 156.757812 59.140625 Z M 156.148438 59.257812 C 156.109375 59.296875 155.988281 59.3125 155.894531 59.273438 C 155.789062 59.230469 155.828125 59.191406 155.976562 59.191406 C 156.121094 59.179688 156.199219 59.21875 156.148438 59.257812 Z M 155.5625 59.40625 C 155.46875 59.433594 155.3125 59.433594 155.230469 59.40625 C 155.136719 59.367188 155.203125 59.339844 155.390625 59.339844 C 155.578125 59.339844 155.644531 59.367188 155.5625 59.40625 Z M 154.953125 59.523438 C 154.914062 59.566406 154.792969 59.578125 154.699219 59.539062 C 154.59375 59.5 154.632812 59.457031 154.78125 59.457031 C 154.925781 59.445312 155.003906 59.484375 154.953125 59.523438 Z M 154.421875 59.660156 C 154.382812 59.699219 154.261719 59.710938 154.167969 59.671875 C 154.0625 59.632812 154.101562 59.59375 154.25 59.59375 C 154.394531 59.578125 154.472656 59.617188 154.421875 59.660156 Z M 153.730469 59.84375 C 153.585938 59.910156 153.371094 59.964844 153.265625 59.964844 C 153.144531 59.964844 153.160156 59.910156 153.332031 59.84375 C 153.476562 59.777344 153.691406 59.726562 153.796875 59.726562 C 153.917969 59.726562 153.902344 59.777344 153.730469 59.84375 Z M 1.6875 60.40625 C 1.648438 60.511719 1.605469 60.472656 1.605469 60.324219 C 1.59375 60.179688 1.632812 60.097656 1.671875 60.152344 C 1.714844 60.191406 1.726562 60.3125 1.6875 60.40625 Z M 150.144531 60.976562 C 147.964844 61.792969 144.59375 63.496094 142.90625 64.628906 C 141.113281 65.84375 139.175781 67.402344 136.929688 69.441406 C 133.730469 72.359375 132.519531 73.320312 131.125 74.027344 C 130.050781 74.574219 130.101562 74.425781 131.191406 73.851562 C 132.492188 73.160156 133.621094 72.265625 136.410156 69.75 C 140.820312 65.761719 142.960938 64.21875 146.425781 62.496094 C 148.472656 61.484375 151.128906 60.390625 151.539062 60.390625 C 151.644531 60.390625 151.019531 60.65625 150.144531 60.976562 Z M 0.890625 64.535156 C 0.851562 64.628906 0.824219 64.5625 0.824219 64.375 C 0.824219 64.191406 0.851562 64.125 0.890625 64.203125 C 0.917969 64.296875 0.917969 64.457031 0.890625 64.535156 Z M 0.757812 65.601562 C 0.730469 65.777344 0.703125 65.644531 0.703125 65.308594 C 0.703125 64.976562 0.730469 64.84375 0.757812 65.003906 C 0.785156 65.175781 0.785156 65.441406 0.757812 65.601562 Z M 0.492188 68.070312 C 0.464844 68.28125 0.4375 68.109375 0.4375 67.707031 C 0.4375 67.308594 0.464844 67.136719 0.492188 67.335938 C 0.519531 67.550781 0.519531 67.867188 0.492188 68.070312 Z M 82.382812 70.46875 C 82.210938 70.496094 81.945312 70.496094 81.785156 70.46875 C 81.613281 70.441406 81.746094 70.414062 82.078125 70.414062 C 82.410156 70.414062 82.542969 70.441406 82.382812 70.46875 Z M 84.574219 70.734375 C 84.441406 70.761719 84.230469 70.761719 84.109375 70.734375 C 83.976562 70.695312 84.082031 70.667969 84.335938 70.667969 C 84.589844 70.667969 84.695312 70.695312 84.574219 70.734375 Z M 85.503906 70.867188 C 85.371094 70.894531 85.160156 70.894531 85.039062 70.867188 C 84.90625 70.828125 85.011719 70.800781 85.265625 70.800781 C 85.519531 70.800781 85.625 70.828125 85.503906 70.867188 Z M 87.828125 71.269531 C 87.734375 71.292969 87.578125 71.292969 87.496094 71.269531 C 87.402344 71.226562 87.46875 71.199219 87.65625 71.199219 C 87.84375 71.199219 87.910156 71.226562 87.828125 71.269531 Z M 88.625 71.402344 C 88.53125 71.425781 88.347656 71.425781 88.226562 71.402344 C 88.09375 71.359375 88.175781 71.335938 88.386719 71.335938 C 88.613281 71.335938 88.707031 71.359375 88.625 71.402344 Z M 89.289062 71.535156 C 89.195312 71.5625 89.039062 71.5625 88.957031 71.535156 C 88.863281 71.496094 88.929688 71.46875 89.117188 71.46875 C 89.304688 71.46875 89.371094 71.496094 89.289062 71.535156 Z M 89.953125 71.667969 C 89.859375 71.695312 89.703125 71.695312 89.621094 71.667969 C 89.527344 71.628906 89.59375 71.601562 89.78125 71.601562 C 89.96875 71.601562 90.035156 71.628906 89.953125 71.667969 Z M 90.539062 71.789062 C 90.5 71.828125 90.378906 71.839844 90.285156 71.800781 C 90.179688 71.761719 90.21875 71.722656 90.367188 71.722656 C 90.511719 71.707031 90.589844 71.746094 90.539062 71.789062 Z M 91.148438 71.933594 C 91.054688 71.960938 90.898438 71.960938 90.816406 71.933594 C 90.722656 71.894531 90.789062 71.867188 90.976562 71.867188 C 91.164062 71.867188 91.230469 71.894531 91.148438 71.933594 Z M 92.171875 72.105469 C 92.4375 72.1875 92.449219 72.214844 92.238281 72.214844 C 92.09375 72.214844 91.828125 72.160156 91.640625 72.105469 C 91.375 72.027344 91.363281 72 91.574219 72 C 91.71875 72 91.984375 72.054688 92.171875 72.105469 Z M 92.929688 72.320312 C 92.890625 72.359375 92.769531 72.375 92.675781 72.332031 C 92.570312 72.292969 92.609375 72.253906 92.757812 72.253906 C 92.902344 72.242188 92.980469 72.28125 92.929688 72.320312 Z M 93.832031 72.507812 C 94.164062 72.652344 93.820312 72.652344 93.367188 72.507812 C 93.101562 72.425781 93.089844 72.402344 93.300781 72.402344 C 93.445312 72.402344 93.6875 72.441406 93.832031 72.507812 Z M 86.859375 75.851562 C 90.65625 78.972656 93.886719 81.089844 98.480469 83.464844 C 100.019531 84.25 101.214844 84.902344 101.164062 84.902344 C 100.949219 84.902344 96.328125 82.503906 94.828125 81.609375 C 92.808594 80.398438 90.738281 79 88.824219 77.558594 C 87.085938 76.226562 84.042969 73.667969 83.539062 73.09375 C 83.351562 72.894531 83.710938 73.171875 84.335938 73.71875 C 84.960938 74.265625 86.089844 75.226562 86.859375 75.851562 Z M 101.5625 74.453125 C 101.523438 74.492188 101.402344 74.507812 101.308594 74.464844 C 101.203125 74.425781 101.242188 74.386719 101.390625 74.386719 C 101.535156 74.375 101.613281 74.414062 101.5625 74.453125 Z M 129.558594 74.640625 C 129.414062 74.707031 129.171875 74.746094 129.027344 74.746094 C 128.816406 74.746094 128.828125 74.71875 129.09375 74.640625 C 129.546875 74.492188 129.890625 74.492188 129.558594 74.640625 Z M 126.636719 74.972656 C 125.800781 75.214844 125.5625 75.214844 126.171875 74.972656 C 126.425781 74.878906 126.78125 74.785156 126.96875 74.785156 C 127.15625 74.785156 127.023438 74.867188 126.636719 74.972656 Z M 128.46875 74.867188 C 128.296875 74.894531 128.03125 74.894531 127.871094 74.867188 C 127.699219 74.839844 127.832031 74.8125 128.164062 74.8125 C 128.496094 74.8125 128.628906 74.839844 128.46875 74.867188 Z M 103.820312 74.984375 C 103.78125 75.027344 103.660156 75.039062 103.566406 75 C 103.460938 74.960938 103.5 74.917969 103.648438 74.917969 C 103.792969 74.90625 103.871094 74.945312 103.820312 74.984375 Z M 104.921875 75.171875 C 105.1875 75.253906 105.199219 75.28125 104.988281 75.28125 C 104.84375 75.28125 104.550781 75.226562 104.324219 75.171875 C 103.964844 75.078125 103.964844 75.066406 104.257812 75.066406 C 104.445312 75.066406 104.734375 75.121094 104.921875 75.171875 Z M 125.441406 75.304688 C 125.296875 75.371094 125.082031 75.425781 124.976562 75.425781 C 124.855469 75.425781 124.871094 75.371094 125.042969 75.304688 C 125.1875 75.238281 125.402344 75.1875 125.507812 75.1875 C 125.628906 75.1875 125.613281 75.238281 125.441406 75.304688 Z M 105.757812 75.398438 C 105.664062 75.425781 105.507812 75.425781 105.425781 75.398438 C 105.332031 75.359375 105.398438 75.332031 105.585938 75.332031 C 105.773438 75.332031 105.839844 75.359375 105.757812 75.398438 Z M 108.679688 75.933594 C 108.585938 75.960938 108.402344 75.960938 108.28125 75.933594 C 108.148438 75.894531 108.230469 75.867188 108.441406 75.867188 C 108.667969 75.867188 108.761719 75.894531 108.679688 75.933594 Z M 123.023438 75.933594 C 122.929688 75.960938 122.773438 75.960938 122.691406 75.933594 C 122.597656 75.894531 122.664062 75.867188 122.851562 75.867188 C 123.039062 75.867188 123.105469 75.894531 123.023438 75.933594 Z M 109.476562 76.066406 C 109.382812 76.09375 109.199219 76.09375 109.078125 76.066406 C 108.945312 76.027344 109.027344 76 109.238281 76 C 109.464844 76 109.558594 76.027344 109.476562 76.066406 Z M 122.359375 76.066406 C 122.265625 76.09375 122.109375 76.09375 122.027344 76.066406 C 121.933594 76.027344 122 76 122.1875 76 C 122.375 76 122.441406 76.027344 122.359375 76.066406 Z M 111.535156 76.332031 C 111.402344 76.359375 111.191406 76.359375 111.070312 76.332031 C 110.9375 76.292969 111.042969 76.265625 111.296875 76.265625 C 111.550781 76.265625 111.65625 76.292969 111.535156 76.332031 Z M 120.699219 76.332031 C 120.566406 76.359375 120.355469 76.359375 120.234375 76.332031 C 120.101562 76.292969 120.207031 76.265625 120.460938 76.265625 C 120.714844 76.265625 120.820312 76.292969 120.699219 76.332031 Z M 113.128906 76.464844 C 112.929688 76.492188 112.570312 76.492188 112.332031 76.464844 C 112.09375 76.4375 112.253906 76.414062 112.691406 76.414062 C 113.128906 76.414062 113.328125 76.4375 113.128906 76.464844 Z M 1.15625 81.464844 C 1.117188 81.558594 1.089844 81.492188 1.089844 81.304688 C 1.089844 81.117188 1.117188 81.050781 1.15625 81.128906 C 1.183594 81.222656 1.183594 81.382812 1.15625 81.464844 Z M 2.191406 85.234375 C 3.984375 91.207031 6.917969 96.3125 11.023438 100.550781 C 13.851562 103.46875 16.574219 105.480469 20.121094 107.242188 C 21.222656 107.789062 22.046875 108.226562 21.96875 108.226562 C 21.636719 108.226562 18.007812 106.308594 16.667969 105.429688 C 9.949219 101.003906 5.085938 94.460938 2.390625 86.234375 C 2.046875 85.167969 1.714844 84.089844 1.671875 83.835938 C 1.566406 83.183594 1.648438 83.410156 2.191406 85.234375 Z M 102.503906 85.371094 C 102.957031 85.570312 103.316406 85.769531 103.289062 85.796875 C 103.25 85.824219 102.785156 85.636719 102.253906 85.371094 C 101.125 84.835938 101.269531 84.835938 102.503906 85.371094 Z M 104.628906 86.261719 C 105.015625 86.421875 105.308594 86.570312 105.265625 86.59375 C 105.199219 86.660156 103.460938 85.96875 103.460938 85.875 C 103.460938 85.835938 103.566406 85.847656 103.699219 85.902344 C 103.820312 85.957031 104.246094 86.117188 104.628906 86.261719 Z M 106.25 86.929688 C 106.382812 87.007812 106.34375 87.023438 106.117188 86.957031 C 105.929688 86.914062 105.691406 86.808594 105.585938 86.742188 C 105.453125 86.660156 105.492188 86.648438 105.71875 86.714844 C 105.90625 86.753906 106.144531 86.863281 106.25 86.929688 Z M 107.3125 87.328125 C 107.445312 87.410156 107.40625 87.421875 107.179688 87.355469 C 106.992188 87.316406 106.753906 87.207031 106.648438 87.140625 C 106.515625 87.0625 106.554688 87.046875 106.78125 87.117188 C 106.96875 87.15625 107.207031 87.261719 107.3125 87.328125 Z M 110.632812 88.433594 C 112.054688 88.902344 113.15625 89.289062 113.078125 89.289062 C 112.878906 89.300781 107.976562 87.714844 107.976562 87.636719 C 107.976562 87.542969 107.75 87.476562 110.632812 88.433594 Z M 65.371094 88.328125 C 64.839844 88.355469 64.003906 88.355469 63.511719 88.328125 C 63.019531 88.300781 63.457031 88.289062 64.480469 88.289062 C 65.503906 88.289062 65.902344 88.316406 65.371094 88.328125 Z M 67.308594 88.460938 C 67.175781 88.488281 66.9375 88.488281 66.777344 88.460938 C 66.605469 88.433594 66.710938 88.40625 67.003906 88.40625 C 67.296875 88.394531 67.429688 88.421875 67.308594 88.460938 Z M 68.835938 88.726562 C 68.742188 88.753906 68.558594 88.753906 68.4375 88.726562 C 68.304688 88.6875 68.386719 88.660156 68.597656 88.660156 C 68.824219 88.660156 68.917969 88.6875 68.835938 88.726562 Z M 69.421875 88.847656 C 69.382812 88.886719 69.261719 88.902344 69.167969 88.859375 C 69.0625 88.820312 69.101562 88.78125 69.25 88.78125 C 69.394531 88.769531 69.472656 88.808594 69.421875 88.847656 Z M 59.59375 88.980469 C 59.554688 89.019531 59.433594 89.035156 59.339844 88.996094 C 59.234375 88.953125 59.273438 88.914062 59.421875 88.914062 C 59.566406 88.902344 59.644531 88.941406 59.59375 88.980469 Z M 69.953125 88.980469 C 69.914062 89.019531 69.792969 89.035156 69.699219 88.996094 C 69.59375 88.953125 69.632812 88.914062 69.78125 88.914062 C 69.925781 88.902344 70.003906 88.941406 69.953125 88.980469 Z M 71.664062 89.449219 C 72.371094 89.675781 72.914062 89.875 72.886719 89.902344 C 72.859375 89.925781 72.210938 89.753906 71.453125 89.5 C 70.683594 89.261719 70.136719 89.046875 70.21875 89.046875 C 70.3125 89.035156 70.960938 89.222656 71.664062 89.449219 Z M 58.503906 89.300781 C 58.144531 89.460938 57.933594 89.460938 58.171875 89.300781 C 58.277344 89.234375 58.464844 89.179688 58.570312 89.179688 C 58.703125 89.179688 58.675781 89.222656 58.503906 89.300781 Z M 113.476562 89.421875 C 113.582031 89.582031 111.441406 91.167969 109.730469 92.179688 C 108.402344 92.980469 105.890625 94.179688 105.785156 94.074219 C 105.757812 94.046875 106.316406 93.765625 107.019531 93.460938 C 107.738281 93.152344 108.945312 92.511719 109.730469 92.046875 C 111.351562 91.074219 113.421875 89.554688 113.328125 89.394531 C 113.300781 89.339844 113.300781 89.300781 113.34375 89.300781 C 113.382812 89.300781 113.433594 89.355469 113.476562 89.421875 Z M 57.375 89.699219 C 57.269531 89.769531 57.121094 89.835938 57.042969 89.835938 C 56.976562 89.835938 57.003906 89.769531 57.109375 89.699219 C 57.214844 89.632812 57.375 89.566406 57.441406 89.566406 C 57.519531 89.566406 57.480469 89.632812 57.375 89.699219 Z M 52.394531 92.113281 C 49.925781 93.351562 47.890625 94.367188 47.867188 94.339844 C 47.8125 94.273438 56.550781 89.835938 56.722656 89.835938 C 56.804688 89.835938 54.851562 90.859375 52.394531 92.113281 Z M 73.84375 90.261719 C 73.976562 90.339844 73.9375 90.355469 73.710938 90.289062 C 73.523438 90.246094 73.285156 90.140625 73.179688 90.074219 C 73.046875 89.996094 73.085938 89.980469 73.3125 90.046875 C 73.5 90.085938 73.738281 90.195312 73.84375 90.261719 Z M 76.15625 91.21875 C 77.152344 91.660156 77.933594 92.035156 77.90625 92.058594 C 77.855469 92.113281 74.613281 90.714844 74.253906 90.488281 C 73.898438 90.261719 74.253906 90.394531 76.15625 91.21875 Z M 78.824219 92.378906 C 79.117188 92.511719 79.210938 92.59375 79.023438 92.554688 C 78.652344 92.460938 77.960938 92.113281 78.160156 92.113281 C 78.238281 92.113281 78.53125 92.234375 78.824219 92.378906 Z M 80.617188 93.058594 C 80.75 93.140625 80.710938 93.152344 80.484375 93.085938 C 80.296875 93.046875 80.058594 92.941406 79.953125 92.875 C 79.820312 92.792969 79.859375 92.78125 80.085938 92.847656 C 80.273438 92.886719 80.511719 92.992188 80.617188 93.058594 Z M 82.210938 93.578125 C 82.34375 93.660156 82.265625 93.671875 82.011719 93.621094 C 81.800781 93.566406 81.519531 93.472656 81.414062 93.417969 C 81.28125 93.339844 81.359375 93.328125 81.613281 93.378906 C 81.839844 93.433594 82.105469 93.527344 82.210938 93.578125 Z M 83.472656 93.964844 C 83.84375 94.097656 84.042969 94.207031 83.9375 94.207031 C 83.832031 94.207031 83.445312 94.097656 83.074219 93.964844 C 82.714844 93.832031 82.503906 93.726562 82.609375 93.726562 C 82.714844 93.726562 83.113281 93.832031 83.472656 93.964844 Z M 105.585938 94.167969 C 105.585938 94.246094 102.664062 95.164062 102.410156 95.164062 C 102.292969 95.152344 102.890625 94.9375 103.726562 94.6875 C 104.5625 94.417969 105.28125 94.191406 105.308594 94.152344 C 105.386719 94.085938 105.585938 94.085938 105.585938 94.167969 Z M 84.5625 94.3125 C 84.523438 94.351562 84.402344 94.367188 84.308594 94.324219 C 84.203125 94.285156 84.242188 94.246094 84.390625 94.246094 C 84.535156 94.234375 84.613281 94.273438 84.5625 94.3125 Z M 47.414062 94.550781 C 47.414062 94.644531 44.679688 95.699219 44.464844 95.699219 C 44.371094 95.699219 44.917969 95.457031 45.675781 95.164062 C 46.429688 94.871094 47.09375 94.605469 47.121094 94.566406 C 47.203125 94.484375 47.414062 94.472656 47.414062 94.550781 Z M 86.632812 94.859375 C 86.539062 94.886719 86.382812 94.886719 86.300781 94.859375 C 86.207031 94.820312 86.273438 94.792969 86.460938 94.792969 C 86.648438 94.792969 86.714844 94.820312 86.632812 94.859375 Z M 102.09375 95.246094 C 102.054688 95.285156 101.933594 95.300781 101.839844 95.257812 C 101.734375 95.21875 101.773438 95.179688 101.921875 95.179688 C 102.066406 95.164062 102.144531 95.207031 102.09375 95.246094 Z M 89.355469 95.390625 C 89.222656 95.417969 89.011719 95.417969 88.890625 95.390625 C 88.757812 95.351562 88.863281 95.324219 89.117188 95.324219 C 89.371094 95.324219 89.476562 95.351562 89.355469 95.390625 Z M 101.507812 95.390625 C 101.414062 95.417969 101.230469 95.417969 101.109375 95.390625 C 100.976562 95.351562 101.058594 95.324219 101.269531 95.324219 C 101.496094 95.324219 101.589844 95.351562 101.507812 95.390625 Z M 90.21875 95.527344 C 90.125 95.550781 89.941406 95.550781 89.820312 95.527344 C 89.6875 95.484375 89.769531 95.457031 89.980469 95.457031 C 90.207031 95.457031 90.300781 95.484375 90.21875 95.527344 Z M 100.710938 95.527344 C 100.617188 95.550781 100.460938 95.550781 100.378906 95.527344 C 100.285156 95.484375 100.351562 95.457031 100.539062 95.457031 C 100.726562 95.457031 100.792969 95.484375 100.710938 95.527344 Z M 91.214844 95.660156 C 91.082031 95.683594 90.84375 95.683594 90.683594 95.660156 C 90.511719 95.632812 90.617188 95.605469 90.910156 95.605469 C 91.203125 95.59375 91.335938 95.617188 91.214844 95.660156 Z M 99.980469 95.660156 C 99.847656 95.683594 99.609375 95.683594 99.449219 95.660156 C 99.277344 95.632812 99.382812 95.605469 99.675781 95.605469 C 99.96875 95.59375 100.101562 95.617188 99.980469 95.660156 Z M 98.917969 95.792969 C 98.785156 95.820312 98.546875 95.820312 98.386719 95.792969 C 98.214844 95.765625 98.320312 95.738281 98.613281 95.738281 C 98.90625 95.726562 99.039062 95.753906 98.917969 95.792969 Z M 43.097656 96.097656 C 42.953125 96.164062 42.710938 96.207031 42.566406 96.207031 C 42.355469 96.207031 42.367188 96.179688 42.632812 96.097656 C 43.085938 95.953125 43.429688 95.953125 43.097656 96.097656 Z M 42.140625 96.324219 C 42.046875 96.351562 41.890625 96.351562 41.808594 96.324219 C 41.714844 96.285156 41.78125 96.257812 41.96875 96.257812 C 42.15625 96.257812 42.222656 96.285156 42.140625 96.324219 Z M 34.425781 96.605469 C 33.945312 96.660156 33.960938 96.644531 34.199219 97.523438 C 34.292969 97.832031 33.933594 97.058594 33.8125 96.699219 C 33.746094 96.445312 33.789062 96.433594 34.304688 96.484375 C 34.835938 96.550781 34.851562 96.566406 34.425781 96.605469 Z M 41.476562 96.457031 C 41.382812 96.484375 41.199219 96.484375 41.078125 96.457031 C 40.945312 96.417969 41.027344 96.390625 41.238281 96.390625 C 41.464844 96.390625 41.558594 96.417969 41.476562 96.457031 Z M 34.53125 98.296875 C 34.53125 98.363281 34.464844 98.339844 34.398438 98.230469 C 34.332031 98.125 34.265625 97.964844 34.265625 97.898438 C 34.265625 97.816406 34.332031 97.859375 34.398438 97.964844 C 34.464844 98.070312 34.53125 98.21875 34.53125 98.296875 Z M 36.136719 101.242188 C 37.625 103.417969 40.242188 105.496094 44.464844 107.882812 C 45.210938 108.308594 45.820312 108.679688 45.820312 108.722656 C 45.820312 108.921875 41.316406 106.203125 39.910156 105.160156 C 38.527344 104.121094 36.976562 102.601562 36.21875 101.535156 C 35.59375 100.65625 34.53125 98.792969 34.53125 98.566406 C 34.53125 98.484375 34.796875 98.925781 35.117188 99.523438 C 35.449219 100.125 35.898438 100.898438 36.136719 101.242188 Z M 46.285156 109 C 46.246094 109.039062 46.140625 109 46.046875 108.90625 C 45.925781 108.773438 45.941406 108.761719 46.125 108.839844 C 46.257812 108.878906 46.324219 108.960938 46.285156 109 Z M 46.671875 109.308594 C 46.285156 109.46875 46.191406 109.441406 46.378906 109.242188 C 46.472656 109.148438 46.628906 109.09375 46.738281 109.132812 C 46.882812 109.1875 46.871094 109.226562 46.671875 109.308594 Z M 26.828125 109.695312 C 27.09375 109.773438 27.105469 109.800781 26.894531 109.800781 C 26.75 109.800781 26.507812 109.761719 26.363281 109.695312 C 26.03125 109.546875 26.375 109.546875 26.828125 109.695312 Z M 27.585938 109.90625 C 27.546875 109.945312 27.425781 109.960938 27.332031 109.921875 C 27.226562 109.878906 27.265625 109.839844 27.414062 109.839844 C 27.558594 109.828125 27.636719 109.867188 27.585938 109.90625 Z M 44.1875 109.90625 C 44.148438 109.945312 44.027344 109.960938 43.933594 109.921875 C 43.828125 109.878906 43.867188 109.839844 44.015625 109.839844 C 44.160156 109.828125 44.238281 109.867188 44.1875 109.90625 Z M 28.195312 110.054688 C 28.101562 110.082031 27.945312 110.082031 27.863281 110.054688 C 27.769531 110.015625 27.835938 109.988281 28.023438 109.988281 C 28.210938 109.988281 28.277344 110.015625 28.195312 110.054688 Z M 43.601562 110.054688 C 43.507812 110.082031 43.324219 110.082031 43.203125 110.054688 C 43.070312 110.015625 43.152344 109.988281 43.363281 109.988281 C 43.589844 109.988281 43.683594 110.015625 43.601562 110.054688 Z M 28.859375 110.1875 C 28.765625 110.214844 28.609375 110.214844 28.527344 110.1875 C 28.433594 110.148438 28.5 110.121094 28.6875 110.121094 C 28.875 110.121094 28.941406 110.148438 28.859375 110.1875 Z M 42.804688 110.1875 C 42.710938 110.214844 42.554688 110.214844 42.472656 110.1875 C 42.378906 110.148438 42.445312 110.121094 42.632812 110.121094 C 42.820312 110.121094 42.886719 110.148438 42.804688 110.1875 Z M 29.722656 110.320312 C 29.589844 110.347656 29.378906 110.347656 29.257812 110.320312 C 29.125 110.28125 29.230469 110.253906 29.484375 110.253906 C 29.738281 110.253906 29.84375 110.28125 29.722656 110.320312 Z M 30.585938 110.453125 C 30.492188 110.480469 30.308594 110.480469 30.1875 110.453125 C 30.054688 110.414062 30.136719 110.386719 30.347656 110.386719 C 30.574219 110.386719 30.667969 110.414062 30.585938 110.453125 Z M 41.078125 110.453125 C 40.984375 110.480469 40.800781 110.480469 40.679688 110.453125 C 40.546875 110.414062 40.628906 110.386719 40.839844 110.386719 C 41.066406 110.386719 41.160156 110.414062 41.078125 110.453125 Z M 41.078125 110.453125 "/>
<path style=" stroke:none;fill-rule:nonzero;fill:rgb(100%,75.686275%,2.745098%);fill-opacity:1;" d="M 69.101562 6.492188 C 69.886719 6.519531 71.160156 6.519531 71.957031 6.492188 C 72.742188 6.476562 72.089844 6.449219 70.523438 6.449219 C 68.957031 6.449219 68.304688 6.476562 69.101562 6.492188 Z M 69.101562 6.492188 "/>
<path style=" stroke:none;fill-rule:nonzero;fill:rgb(100%,75.686275%,2.745098%);fill-opacity:1;" d="M 61.265625 7.289062 C 61.386719 7.316406 61.570312 7.316406 61.664062 7.289062 C 61.746094 7.25 61.652344 7.222656 61.425781 7.222656 C 61.214844 7.222656 61.132812 7.25 61.265625 7.289062 Z M 61.265625 7.289062 "/>
<path style=" stroke:none;fill-rule:nonzero;fill:rgb(100%,75.686275%,2.745098%);fill-opacity:1;" d="M 52.261719 9.597656 C 52.089844 9.675781 52.0625 9.714844 52.195312 9.714844 C 52.300781 9.714844 52.488281 9.664062 52.59375 9.597656 C 52.832031 9.4375 52.621094 9.4375 52.261719 9.597656 Z M 52.261719 9.597656 "/>
<path style=" stroke:none;fill-rule:nonzero;fill:rgb(100%,75.686275%,2.745098%);fill-opacity:1;" d="M 129.730469 19.152344 C 129.824219 19.191406 129.945312 19.179688 129.984375 19.140625 C 130.035156 19.101562 129.957031 19.058594 129.8125 19.074219 C 129.664062 19.074219 129.625 19.113281 129.730469 19.152344 Z M 129.730469 19.152344 "/>
<path style=" stroke:none;fill-rule:nonzero;fill:rgb(100%,75.686275%,2.745098%);fill-opacity:1;" d="M 123.953125 20.351562 C 124.074219 20.378906 124.257812 20.378906 124.351562 20.351562 C 124.433594 20.3125 124.339844 20.285156 124.113281 20.285156 C 123.902344 20.285156 123.820312 20.3125 123.953125 20.351562 Z M 123.953125 20.351562 "/>
<path style=" stroke:none;fill-rule:nonzero;fill:rgb(100%,75.686275%,2.745098%);fill-opacity:1;" d="M 123.222656 20.484375 C 123.304688 20.511719 123.460938 20.511719 123.554688 20.484375 C 123.636719 20.445312 123.570312 20.417969 123.382812 20.417969 C 123.195312 20.417969 123.128906 20.445312 123.222656 20.484375 Z M 123.222656 20.484375 "/>
<path style=" stroke:none;fill-rule:nonzero;fill:rgb(100%,75.686275%,2.745098%);fill-opacity:1;" d="M 120.632812 20.886719 C 120.753906 20.914062 120.964844 20.914062 121.097656 20.886719 C 121.21875 20.847656 121.113281 20.820312 120.859375 20.820312 C 120.605469 20.820312 120.5 20.847656 120.632812 20.886719 Z M 120.632812 20.886719 "/>
<path style=" stroke:none;fill-rule:nonzero;fill:rgb(100%,75.686275%,2.745098%);fill-opacity:1;" d="M 87.257812 30.507812 L 86.660156 30.589844 L 87.113281 30.695312 C 87.351562 30.75 87.75 30.789062 87.976562 30.777344 C 88.375 30.761719 88.375 30.761719 88.054688 30.65625 L 87.722656 30.5625 L 88.121094 30.496094 C 88.71875 30.390625 88.015625 30.402344 87.257812 30.507812 Z M 87.257812 30.507812 "/>
<path style=" stroke:none;fill-rule:nonzero;fill:rgb(100%,75.686275%,2.745098%);fill-opacity:1;" d="M 129.464844 43.011719 C 130.421875 43.039062 132.015625 43.039062 132.984375 43.011719 C 133.941406 42.996094 133.15625 42.972656 131.21875 42.972656 C 129.28125 42.972656 128.496094 42.996094 129.464844 43.011719 Z M 129.464844 43.011719 "/>
<path style=" stroke:none;fill-rule:nonzero;fill:rgb(100%,75.686275%,2.745098%);fill-opacity:1;" d="M 146.199219 44.742188 C 146.292969 44.785156 146.414062 44.769531 146.453125 44.730469 C 146.503906 44.691406 146.425781 44.652344 146.28125 44.664062 C 146.132812 44.664062 146.09375 44.703125 146.199219 44.742188 Z M 146.199219 44.742188 "/>
<path style=" stroke:none;fill-rule:nonzero;fill:rgb(100%,75.686275%,2.745098%);fill-opacity:1;" d="M 158.617188 58.871094 C 158.738281 58.898438 158.921875 58.898438 159.015625 58.871094 C 159.097656 58.832031 159.003906 58.804688 158.777344 58.804688 C 158.566406 58.804688 158.484375 58.832031 158.617188 58.871094 Z M 158.617188 58.871094 "/>
<path style=" stroke:none;fill-rule:nonzero;fill:rgb(100%,75.686275%,2.745098%);fill-opacity:1;" d="M 1.140625 61.605469 C 1.101562 61.777344 1.074219 62.058594 1.074219 62.246094 C 1.089844 62.445312 1.140625 62.335938 1.207031 61.992188 C 1.328125 61.363281 1.289062 61.085938 1.140625 61.605469 Z M 1.140625 61.605469 "/>
<path style=" stroke:none;fill-rule:nonzero;fill:rgb(100%,75.686275%,2.745098%);fill-opacity:1;" d="M 0.957031 62.910156 C 0.957031 63.097656 0.984375 63.164062 1.023438 63.070312 C 1.050781 62.992188 1.050781 62.832031 1.023438 62.738281 C 0.984375 62.65625 0.957031 62.722656 0.957031 62.910156 Z M 0.957031 62.910156 "/>
<path style=" stroke:none;fill-rule:nonzero;fill:rgb(100%,75.686275%,2.745098%);fill-opacity:1;" d="M 81.082031 70.640625 C 81.359375 70.960938 81.425781 70.972656 81.335938 70.722656 C 81.292969 70.613281 81.160156 70.496094 81.042969 70.441406 C 80.871094 70.375 80.871094 70.414062 81.082031 70.640625 Z M 81.082031 70.640625 "/>
<path style=" stroke:none;fill-rule:nonzero;fill:rgb(100%,75.686275%,2.745098%);fill-opacity:1;" d="M 86.101562 71.132812 C 86.222656 71.160156 86.40625 71.160156 86.5 71.132812 C 86.582031 71.09375 86.488281 71.066406 86.261719 71.066406 C 86.050781 71.066406 85.96875 71.09375 86.101562 71.132812 Z M 86.101562 71.132812 "/>
<path style=" stroke:none;fill-rule:nonzero;fill:rgb(100%,75.686275%,2.745098%);fill-opacity:1;" d="M 114.789062 76.730469 C 115.425781 76.757812 116.449219 76.757812 117.046875 76.730469 C 117.644531 76.71875 117.128906 76.691406 115.878906 76.691406 C 114.644531 76.691406 114.152344 76.71875 114.789062 76.730469 Z M 114.789062 76.730469 "/>
<path style=" stroke:none;fill-rule:nonzero;fill:rgb(100%,75.686275%,2.745098%);fill-opacity:1;" d="M 0.691406 79.703125 C 0.691406 79.890625 0.71875 79.957031 0.757812 79.863281 C 0.785156 79.785156 0.785156 79.625 0.757812 79.53125 C 0.71875 79.453125 0.691406 79.519531 0.691406 79.703125 Z M 0.691406 79.703125 "/>
</g>
</svg>
