<?xml version="1.0" encoding="UTF-8"?>
<svg xmlns="http://www.w3.org/2000/svg" xmlns:xlink="http://www.w3.org/1999/xlink" width="75pt" height="76pt" viewBox="0 0 75 76" version="1.1">
<g id="surface1">
<path style=" stroke:none;fill-rule:nonzero;fill:rgb(29.803922%,68.627451%,31.372549%);fill-opacity:1;" d="M 11.246094 0.214844 C 11.246094 0.308594 11.273438 0.425781 11.308594 0.476562 C 11.359375 0.539062 11.363281 0.511719 11.335938 0.34375 L 11.296875 0.125 L 11.90625 0.363281 C 12.507812 0.601562 13.09375 0.859375 12.882812 0.800781 C 12.832031 0.789062 12.730469 0.824219 12.671875 0.882812 C 12.558594 0.996094 12.570312 1.003906 13.203125 1.253906 C 13.558594 1.390625 13.835938 1.515625 13.824219 1.527344 C 13.8125 1.539062 13.238281 1.328125 12.554688 1.0625 C 11.859375 0.800781 11.285156 0.59375 11.269531 0.613281 C 11.25 0.625 11.28125 1.117188 11.328125 1.699219 C 11.601562 4.964844 11.726562 9.320312 11.652344 13.210938 C 11.566406 18.085938 11.363281 21.367188 10.59375 30.3125 C 10.132812 35.691406 10.003906 38.179688 10.003906 41.53125 C 10.007812 46.484375 10.433594 50.089844 11.453125 53.824219 C 12.75 58.550781 15.28125 63.328125 18.277344 66.695312 C 22.382812 71.316406 28.375 74.332031 35.085938 75.164062 C 37.949219 75.519531 41.027344 75.476562 44.003906 75.042969 C 54.296875 73.546875 63.992188 67.265625 69.660156 58.425781 C 72.257812 54.382812 73.917969 50.03125 74.65625 45.332031 C 75.035156 42.90625 75.058594 39.921875 74.714844 37.523438 C 74.230469 34.132812 72.980469 30.585938 71.265625 27.734375 C 71.0625 27.402344 70.917969 27.105469 70.933594 27.070312 C 70.957031 27.039062 70.941406 27.023438 70.898438 27.027344 C 70.863281 27.039062 70.816406 27.007812 70.796875 26.960938 C 70.78125 26.910156 70.796875 26.898438 70.851562 26.925781 C 70.898438 26.957031 70.917969 26.949219 70.886719 26.921875 C 70.855469 26.890625 70.804688 26.867188 70.773438 26.867188 C 70.738281 26.867188 70.695312 26.832031 70.679688 26.785156 C 70.660156 26.730469 70.679688 26.71875 70.734375 26.75 C 70.78125 26.777344 70.796875 26.773438 70.769531 26.742188 C 70.738281 26.710938 70.683594 26.6875 70.648438 26.6875 C 70.609375 26.6875 70.578125 26.605469 70.578125 26.5 C 70.578125 26.304688 70.578125 26.304688 70.679688 26.433594 C 70.875 26.695312 71.671875 28.074219 72.050781 28.796875 C 72.480469 29.617188 72.585938 29.730469 72.199219 28.957031 C 71.613281 27.792969 70.632812 26.160156 70.550781 26.214844 C 70.519531 26.230469 70.476562 26.214844 70.453125 26.179688 C 70.425781 26.132812 70.4375 26.125 70.488281 26.15625 C 70.539062 26.183594 70.554688 26.171875 70.539062 26.117188 C 70.519531 26.070312 70.476562 26.042969 70.441406 26.046875 C 70.40625 26.058594 70.390625 26.03125 70.40625 25.988281 C 70.417969 25.945312 70.171875 25.5625 69.84375 25.128906 C 66.394531 20.515625 61.132812 17.046875 52.570312 13.746094 C 49.023438 12.386719 44.390625 10.859375 36.8125 8.578125 C 26.296875 5.410156 20.933594 3.667969 15.507812 1.667969 C 14.613281 1.335938 13.847656 1.082031 13.800781 1.097656 C 13.761719 1.109375 13.738281 1.105469 13.753906 1.074219 C 13.777344 1.039062 12.671875 0.582031 11.351562 0.0820312 C 11.261719 0.0546875 11.246094 0.078125 11.246094 0.214844 Z M 14.410156 1.726562 C 14.542969 1.792969 14.582031 1.824219 14.5 1.804688 C 14.417969 1.78125 14.246094 1.714844 14.117188 1.65625 C 13.984375 1.589844 13.945312 1.5625 14.027344 1.578125 C 14.109375 1.601562 14.28125 1.667969 14.410156 1.726562 Z M 15.507812 2.136719 C 15.554688 2.167969 15.570312 2.195312 15.535156 2.195312 C 15.507812 2.195312 15.4375 2.167969 15.386719 2.136719 C 15.339844 2.109375 15.328125 2.078125 15.359375 2.078125 C 15.394531 2.078125 15.460938 2.109375 15.507812 2.136719 Z M 68.773438 24.207031 C 68.773438 24.253906 68.71875 24.207031 68.476562 23.941406 L 68.210938 23.660156 L 68.496094 23.929688 C 68.648438 24.070312 68.773438 24.195312 68.773438 24.207031 Z M 68.988281 24.472656 L 69.160156 24.671875 L 68.96875 24.5 C 68.785156 24.332031 68.742188 24.285156 68.792969 24.285156 C 68.804688 24.285156 68.886719 24.375 68.988281 24.472656 Z M 69.566406 25.175781 C 69.71875 25.371094 69.832031 25.53125 69.820312 25.53125 C 69.804688 25.53125 69.636719 25.335938 69.449219 25.097656 C 69.257812 24.867188 69.148438 24.707031 69.195312 24.746094 C 69.246094 24.78125 69.414062 24.980469 69.566406 25.175781 Z M 70.230469 26.042969 C 70.414062 26.285156 70.550781 26.5 70.539062 26.515625 C 70.519531 26.527344 70.460938 26.464844 70.394531 26.375 C 70.332031 26.285156 70.175781 26.070312 70.050781 25.898438 C 69.929688 25.734375 69.84375 25.589844 69.863281 25.589844 C 69.878906 25.589844 70.046875 25.792969 70.230469 26.042969 Z M 70.304688 25.910156 C 70.289062 25.929688 70.242188 25.882812 70.199219 25.808594 C 70.125 25.6875 70.128906 25.6875 70.230469 25.78125 C 70.289062 25.839844 70.324219 25.898438 70.304688 25.910156 Z M 70.304688 25.910156 "/>
<path style=" stroke:none;fill-rule:nonzero;fill:rgb(29.803922%,68.627451%,31.372549%);fill-opacity:1;" d="M 12.25 0.855469 C 12.25 0.867188 12.292969 0.898438 12.347656 0.914062 C 12.394531 0.933594 12.417969 0.925781 12.398438 0.890625 C 12.363281 0.832031 12.25 0.808594 12.25 0.855469 Z M 12.25 0.855469 "/>
<path style=" stroke:none;fill-rule:nonzero;fill:rgb(29.803922%,68.627451%,31.372549%);fill-opacity:1;" d="M 72.441406 29.621094 C 72.441406 29.65625 72.46875 29.699219 72.503906 29.71875 C 72.539062 29.734375 72.542969 29.710938 72.527344 29.664062 C 72.484375 29.558594 72.441406 29.539062 72.441406 29.621094 Z M 72.441406 29.621094 "/>
<path style=" stroke:none;fill-rule:nonzero;fill:rgb(29.803922%,68.627451%,31.372549%);fill-opacity:1;" d="M 72.566406 29.835938 C 72.566406 29.867188 72.601562 29.960938 72.648438 30.042969 C 72.699219 30.125 72.734375 30.164062 72.734375 30.132812 C 72.734375 30.097656 72.699219 30.007812 72.648438 29.925781 C 72.601562 29.84375 72.566406 29.800781 72.566406 29.835938 Z M 72.566406 29.835938 "/>
<path style=" stroke:none;fill-rule:nonzero;fill:rgb(29.803922%,68.627451%,31.372549%);fill-opacity:1;" d="M 72.746094 30.25 C 72.746094 30.28125 72.78125 30.375 72.828125 30.460938 C 72.875 30.542969 72.910156 30.578125 72.910156 30.546875 C 72.910156 30.511719 72.875 30.421875 72.828125 30.339844 C 72.78125 30.257812 72.746094 30.214844 72.746094 30.25 Z M 72.746094 30.25 "/>
<path style=" stroke:none;fill-rule:nonzero;fill:rgb(29.803922%,68.627451%,31.372549%);fill-opacity:1;" d="M 72.917969 30.667969 C 72.917969 30.695312 72.945312 30.769531 72.976562 30.816406 C 73.003906 30.863281 73.035156 30.875 73.035156 30.84375 C 73.035156 30.808594 73.003906 30.746094 72.976562 30.695312 C 72.945312 30.648438 72.917969 30.632812 72.917969 30.667969 Z M 72.917969 30.667969 "/>
<path style=" stroke:none;fill-rule:nonzero;fill:rgb(29.803922%,68.627451%,31.372549%);fill-opacity:1;" d="M 73.035156 30.964844 C 73.035156 30.992188 73.066406 31.066406 73.09375 31.113281 C 73.125 31.160156 73.152344 31.171875 73.152344 31.140625 C 73.152344 31.105469 73.125 31.042969 73.09375 30.992188 C 73.066406 30.945312 73.035156 30.929688 73.035156 30.964844 Z M 73.035156 30.964844 "/>
</g>
</svg>
