<?xml version="1.0" encoding="UTF-8"?>
<svg xmlns="http://www.w3.org/2000/svg" xmlns:xlink="http://www.w3.org/1999/xlink" width="907pt" height="907pt" viewBox="0 0 907 907" version="1.1">
<g id="surface1">
<path style=" stroke:none;fill-rule:nonzero;fill:rgb(100%,59.607843%,0%);fill-opacity:1;" d="M 421.046875 1.417969 C 315.105469 9.496094 219.886719 51.160156 142.613281 123.367188 C 139.394531 126.34375 136.035156 129.175781 135.179688 129.671875 C 134.25 130.097656 133.75 130.664062 133.960938 130.878906 C 134.175781 131.160156 131.390625 134.347656 127.742188 138.105469 C 124.097656 141.859375 118.308594 148.097656 114.804688 151.992188 C 110.085938 157.308594 107.941406 159.222656 106.226562 159.503906 C 104.582031 159.859375 104.4375 160 105.65625 160.070312 C 106.511719 160.070312 107.226562 160.285156 107.226562 160.496094 C 107.226562 160.710938 105.441406 162.976562 103.222656 165.597656 C 93.574219 176.863281 77.488281 199.328125 67.339844 215.835938 C 63.765625 221.578125 62.40625 223.136719 60.546875 223.773438 C 58.6875 224.484375 58.617188 224.554688 60.261719 224.269531 C 61.335938 224.058594 62.191406 223.988281 62.191406 224.199219 C 62.191406 224.339844 60.40625 227.601562 58.1875 231.425781 C 41.105469 261.1875 25.089844 300.585938 15.441406 336.582031 C 11.367188 351.886719 4.933594 384.269531 3.859375 395.039062 C 3.71875 396.601562 3.144531 402.621094 2.503906 408.503906 C -1.429688 447.902344 -0.144531 487.796875 6.363281 527.335938 C 7.433594 533.925781 8.007812 539.238281 7.648438 539.238281 C 7.292969 539.238281 7.363281 539.664062 7.792969 540.230469 C 8.292969 540.796875 10.078125 547.390625 11.796875 554.96875 C 13.511719 562.480469 15.726562 571.480469 16.726562 575.023438 C 17.726562 578.707031 18.15625 581.472656 17.800781 581.683594 C 17.371094 581.753906 17.515625 582.25 18.085938 582.746094 C 18.65625 583.171875 21.089844 589.761719 23.519531 597.34375 C 26.019531 604.925781 28.308594 611.730469 28.664062 612.4375 C 29.023438 613.074219 30.167969 615.769531 31.167969 618.460938 C 32.167969 621.082031 34.882812 627.8125 37.316406 633.410156 C 40.816406 641.632812 41.460938 643.6875 40.675781 644.183594 C 39.886719 644.679688 40.03125 644.820312 41.105469 644.820312 C 42.246094 644.820312 43.390625 646.664062 46.464844 653.109375 C 48.609375 657.714844 52.898438 666.007812 55.972656 671.535156 C 59.046875 677.132812 61.335938 682.023438 61.121094 682.375 C 60.90625 682.800781 61.121094 683.085938 61.621094 683.085938 C 62.121094 683.085938 63.90625 685.492188 65.625 688.398438 C 70.484375 696.617188 83.421875 715.820312 90.785156 725.601562 C 154.121094 809.78125 243.261719 868.734375 344.699219 893.464844 C 366.144531 898.710938 385.160156 901.96875 409.964844 904.660156 C 424.476562 906.21875 476.445312 906.433594 490.386719 905.015625 C 542.140625 899.773438 584.246094 889.355469 627.496094 871.144531 C 638.71875 866.398438 662.019531 855.132812 668.8125 851.164062 C 670.8125 850.027344 673.246094 848.824219 674.171875 848.539062 C 675.101562 848.257812 676.03125 847.761719 676.246094 847.476562 C 676.460938 847.265625 682.25 843.511719 689.113281 839.257812 C 716.777344 822.179688 741.65625 802.835938 764.246094 781.082031 C 773.179688 772.4375 774.179688 771.660156 776.753906 771.585938 C 778.898438 771.445312 779.113281 771.375 777.613281 771.164062 C 776.46875 771.019531 775.609375 770.667969 775.609375 770.523438 C 775.609375 770.3125 779.042969 766.414062 783.257812 761.878906 C 809.496094 733.394531 833.226562 700.160156 850.382812 667.851562 C 853.027344 662.746094 855.53125 658.496094 855.816406 658.425781 C 856.101562 658.285156 856.390625 657.714844 856.390625 657.21875 C 856.390625 656.726562 858.246094 652.332031 860.605469 647.511719 C 885.410156 595.925781 901.28125 532.296875 903.28125 476.316406 C 903.855469 461.222656 903.78125 461.789062 905.785156 461.292969 C 907.429688 460.871094 907.429688 460.871094 906 460.445312 C 904.640625 460.089844 904.496094 459.308594 903.710938 439.964844 C 902.710938 415.308594 901.710938 401.914062 900.351562 393.976562 C 899.707031 390.648438 898.777344 384.765625 898.207031 380.867188 C 897.136719 374.066406 893.847656 356.707031 893.132812 354.085938 C 892.773438 353.09375 893.273438 352.878906 896.5625 352.738281 L 900.351562 352.667969 L 892.773438 351.816406 L 889.484375 339.417969 C 887.699219 332.613281 886.199219 326.519531 886.054688 325.953125 C 885.984375 325.386719 885.699219 324.394531 885.484375 323.828125 C 885.269531 323.261719 882.980469 316.527344 880.480469 308.945312 C 877.90625 301.363281 873.546875 289.53125 870.757812 282.730469 C 867.96875 275.925781 866.039062 270.1875 866.398438 270.117188 C 867.683594 269.691406 867.183594 267.140625 865.824219 267.140625 C 864.824219 267.140625 862.464844 263.171875 856.175781 250.628906 C 832.441406 203.4375 803.632812 164.179688 766.246094 127.902344 C 750.734375 112.878906 732.003906 96.9375 719.636719 88.289062 C 716.277344 85.953125 715.707031 85.316406 716.777344 84.890625 C 717.921875 84.464844 717.851562 84.394531 716.492188 84.394531 C 714.132812 84.324219 712.703125 83.542969 712.703125 82.410156 C 712.703125 81.628906 713.203125 81.417969 714.492188 81.628906 C 715.492188 81.84375 716.277344 81.699219 716.277344 81.417969 C 716.277344 80.425781 712.132812 80.636719 711.847656 81.628906 C 711.632812 82.125 708.84375 80.566406 704.769531 77.804688 C 676.390625 58.316406 639.503906 39.46875 605.476562 27.28125 C 570.019531 14.527344 535.777344 6.800781 494.675781 2.410156 C 482.523438 1.132812 433.914062 0.496094 421.046875 1.417969 Z M 866.398438 268.558594 C 866.398438 268.910156 866.253906 269.265625 866.109375 269.265625 C 865.894531 269.265625 865.539062 268.910156 865.324219 268.558594 C 865.109375 268.132812 865.253906 267.847656 865.609375 267.847656 C 866.039062 267.847656 866.398438 268.132812 866.398438 268.558594 Z M 866.398438 268.558594 "/>
</g>
</svg>
