<?xml version="1.0" encoding="UTF-8"?>
<svg xmlns="http://www.w3.org/2000/svg" xmlns:xlink="http://www.w3.org/1999/xlink" width="1400pt" height="1400pt" viewBox="0 0 1400 1400" version="1.1">
<g id="surface1">
<path style=" stroke:none;fill-rule:nonzero;fill:rgb(35.294118%,66.666667%,90.588235%);fill-opacity:1;" d="M 984.375 700 C 984.417969 828.320312 930.613281 950.773438 836.0625 1037.53125 C 791.195312 1078.78125 765.652344 1136.929688 765.625 1197.875 L 765.625 1203.125 L 284.375 1203.125 L 284.375 1198.09375 C 283.855469 1136.105469 257.539062 1077.132812 211.75 1035.34375 C 114.65625 945.175781 61.429688 817.335938 65.84375 684.90625 C 73.574219 433.890625 281.449219 235.609375 532.546875 239.734375 C 783.648438 243.863281 984.894531 448.867188 984.375 700 Z M 984.375 700 "/>
<path style=" stroke:none;fill-rule:nonzero;fill:rgb(100%,65.490196%,20%);fill-opacity:1;" d="M 678.125 1028.125 L 634.375 1203.125 L 415.625 1203.125 L 371.875 1028.125 Z M 678.125 1028.125 "/>
<path style=" stroke:none;fill-rule:nonzero;fill:rgb(0%,80%,70.196078%);fill-opacity:1;" d="M 678.125 721.875 L 678.125 765.625 C 678.125 813.949219 638.949219 853.125 590.625 853.125 L 546.875 853.125 L 546.875 809.375 C 546.875 761.050781 586.050781 721.875 634.375 721.875 Z M 678.125 721.875 "/>
<path style=" stroke:none;fill-rule:nonzero;fill:rgb(0%,80%,70.196078%);fill-opacity:1;" d="M 503.125 809.375 L 503.125 853.125 L 459.375 853.125 C 411.050781 853.125 371.875 813.949219 371.875 765.625 L 371.875 721.875 L 415.625 721.875 C 463.949219 721.875 503.125 761.050781 503.125 809.375 Z M 503.125 809.375 "/>
<path style=" stroke:none;fill-rule:nonzero;fill:rgb(81.960784%,82.745098%,83.137255%);fill-opacity:1;" d="M 1137.5 109.375 C 1116.65625 109.304688 1096.027344 113.546875 1076.90625 121.84375 C 1040.925781 137.257812 1012.257812 165.925781 996.84375 201.90625 C 988.546875 221.027344 984.304688 241.65625 984.375 262.5 C 984.375 347.070312 1052.929688 415.625 1137.5 415.625 C 1158.34375 415.695312 1178.972656 411.453125 1198.09375 403.15625 C 1234.074219 387.742188 1262.742188 359.074219 1278.15625 323.09375 C 1286.453125 303.972656 1290.695312 283.34375 1290.625 262.5 C 1290.625 177.929688 1222.070312 109.375 1137.5 109.375 Z M 1137.5 109.375 "/>
<path style=" stroke:none;fill-rule:nonzero;fill:rgb(81.960784%,82.745098%,83.137255%);fill-opacity:1;" d="M 809.375 1246.875 L 809.375 1290.625 C 809.304688 1314.757812 789.757812 1334.304688 765.625 1334.375 L 284.375 1334.375 C 260.242188 1334.304688 240.695312 1314.757812 240.625 1290.625 L 240.625 1246.875 C 240.695312 1222.742188 260.242188 1203.195312 284.375 1203.125 L 765.625 1203.125 C 789.757812 1203.195312 809.304688 1222.742188 809.375 1246.875 Z M 809.375 1246.875 "/>
<path style=" stroke:none;fill-rule:nonzero;fill:rgb(100%,59.607843%,6.666667%);fill-opacity:1;" d="M 678.125 1028.125 L 667.1875 1071.875 L 382.8125 1071.875 L 371.875 1028.125 Z M 678.125 1028.125 "/>
<path style=" stroke:none;fill-rule:nonzero;fill:rgb(0%,60%,52.54902%);fill-opacity:1;" d="M 503.125 656.25 L 546.875 656.25 L 546.875 962.5 L 503.125 962.5 Z M 503.125 656.25 "/>
<path style=" stroke:none;fill-rule:nonzero;fill:rgb(93.333333%,52.941176%,0%);fill-opacity:1;" d="M 1268.75 787.5 L 1225 787.5 L 1225 743.75 L 1181.25 743.75 L 1181.25 787.5 L 1137.5 787.5 L 1137.5 831.25 L 1181.25 831.25 L 1181.25 875 L 1225 875 L 1225 831.25 L 1268.75 831.25 Z M 1268.75 787.5 "/>
<path style=" stroke:none;fill-rule:nonzero;fill:rgb(93.333333%,52.941176%,0%);fill-opacity:1;" d="M 765.625 43.75 L 721.875 43.75 L 721.875 87.5 L 678.125 87.5 L 678.125 131.25 L 721.875 131.25 L 721.875 175 L 765.625 175 L 765.625 131.25 L 809.375 131.25 L 809.375 87.5 L 765.625 87.5 Z M 765.625 43.75 "/>
<path style=" stroke:none;fill-rule:nonzero;fill:rgb(80%,45.490196%,0%);fill-opacity:1;" d="M 1268.75 568.75 L 1312.5 568.75 L 1312.5 612.5 L 1268.75 612.5 Z M 1268.75 568.75 "/>
<path style=" stroke:none;fill-rule:nonzero;fill:rgb(80%,45.490196%,0%);fill-opacity:1;" d="M 1071.875 503.125 L 1115.625 503.125 L 1115.625 546.875 L 1071.875 546.875 Z M 1071.875 503.125 "/>
<path style=" stroke:none;fill-rule:nonzero;fill:rgb(65.490196%,66.27451%,67.45098%);fill-opacity:1;" d="M 1331.09375 360.28125 C 1317.429688 338.660156 1302.53125 317.84375 1286.46875 297.9375 C 1284.492188 306.566406 1281.710938 314.988281 1278.15625 323.09375 C 1275.105469 330.539062 1271.292969 337.652344 1266.78125 344.3125 C 1305.0625 395.71875 1322.78125 433.34375 1322.34375 447.34375 C 1307.90625 447.5625 1270.71875 430.0625 1219.3125 391.78125 C 1179.390625 361.785156 1141.734375 328.882812 1106.65625 293.34375 C 1071.1875 258.199219 1038.289062 220.550781 1008.21875 180.6875 C 969.9375 129.28125 952.21875 91.65625 952.65625 77.65625 C 967.3125 77.4375 1004.5 94.9375 1055.6875 133.21875 C 1062.347656 128.707031 1069.460938 124.894531 1076.90625 121.84375 C 1085.011719 118.289062 1093.433594 115.507812 1102.0625 113.53125 C 1036.21875 61.03125 955.71875 11.15625 920.9375 45.9375 C 899.71875 67.15625 907.15625 106.09375 943.90625 164.71875 C 957.570312 186.339844 972.46875 207.15625 988.53125 227.0625 C 1015.617188 261.191406 1044.6875 293.695312 1075.59375 324.40625 C 1106.527344 355.078125 1139.015625 384.136719 1172.9375 411.46875 C 1223.46875 451.71875 1282.75 490.65625 1323.21875 490.65625 C 1334.65625 491.1875 1345.808594 486.996094 1354.0625 479.0625 C 1375.28125 457.84375 1367.84375 418.90625 1331.09375 360.28125 Z M 1331.09375 360.28125 "/>
<path style=" stroke:none;fill-rule:nonzero;fill:rgb(100%,59.607843%,6.666667%);fill-opacity:1;" d="M 240.625 87.5 L 284.375 87.5 L 284.375 131.25 L 240.625 131.25 Z M 240.625 87.5 "/>
<path style=" stroke:none;fill-rule:nonzero;fill:rgb(100%,59.607843%,6.666667%);fill-opacity:1;" d="M 43.75 284.375 L 87.5 284.375 L 87.5 328.125 L 43.75 328.125 Z M 43.75 284.375 "/>
<path style=" stroke:none;fill-rule:nonzero;fill:rgb(100%,65.490196%,20%);fill-opacity:1;" d="M 1115.625 1181.25 L 1071.875 1181.25 L 1071.875 1137.5 L 1028.125 1137.5 L 1028.125 1181.25 L 984.375 1181.25 L 984.375 1225 L 1028.125 1225 L 1028.125 1268.75 L 1071.875 1268.75 L 1071.875 1225 L 1115.625 1225 Z M 1115.625 1181.25 "/>
<path style=" stroke:none;fill-rule:nonzero;fill:rgb(100%,59.607843%,6.666667%);fill-opacity:1;" d="M 1203.125 1050 L 1246.875 1050 L 1246.875 1093.75 L 1203.125 1093.75 Z M 1203.125 1050 "/>
<path style=" stroke:none;fill-rule:nonzero;fill:rgb(93.333333%,52.941176%,0%);fill-opacity:1;" d="M 525 940.625 L 678.125 940.625 C 702.257812 940.695312 721.804688 960.242188 721.875 984.375 C 721.695312 1008.464844 702.214844 1027.945312 678.125 1028.125 L 371.875 1028.125 C 347.742188 1028.054688 328.195312 1008.507812 328.125 984.375 C 328.304688 960.285156 347.785156 940.804688 371.875 940.625 Z M 525 940.625 "/>
<path style=" stroke:none;fill-rule:nonzero;fill:rgb(0%,80%,70.196078%);fill-opacity:1;" d="M 555.84375 669.15625 L 525 700 L 494.15625 669.15625 C 477.671875 652.773438 468.402344 630.492188 468.402344 607.25 C 468.402344 584.007812 477.671875 561.726562 494.15625 545.34375 L 525 514.28125 L 555.84375 545.34375 C 572.328125 561.726562 581.597656 584.007812 581.597656 607.25 C 581.597656 630.492188 572.328125 652.773438 555.84375 669.15625 Z M 555.84375 669.15625 "/>
</g>
</svg>
