<?xml version="1.0" encoding="UTF-8"?>
<svg xmlns="http://www.w3.org/2000/svg" xmlns:xlink="http://www.w3.org/1999/xlink" width="1200pt" height="1200pt" viewBox="0 0 1200 1200" version="1.1">
<g id="surface1">
<path style=" stroke:none;fill-rule:nonzero;fill:rgb(61.176471%,15.294118%,69.019608%);fill-opacity:1;" d="M 589.21875 1.78125 C 583.96875 4.125 578.625 9.65625 573.375 18.09375 C 564.5625 32.25 556.21875 55.125 539.53125 111.5625 C 525.5625 158.4375 517.78125 178.59375 508.21875 192.375 C 498.65625 206.25 490.6875 209.53125 477.09375 205.3125 C 460.78125 200.34375 443.4375 187.125 397.6875 145.03125 C 367.6875 117.46875 358.40625 109.3125 345.5625 99.5625 C 319.5 79.78125 303.375 75.375 293.4375 85.3125 C 288.65625 90.09375 286.78125 96 286.21875 108.28125 C 285.375 125.8125 288.375 143.53125 301.875 200.625 C 314.0625 252.375 316.875 268.03125 316.875 285.1875 C 316.875 309.46875 310.5 318.09375 290.625 320.71875 C 282.1875 321.75 274.125 321.375 257.34375 319.125 C 243.375 317.25 237.84375 316.125 194.53125 306.5625 C 139.3125 294.28125 132.46875 293.15625 111.5625 293.0625 C 95.53125 292.96875 93.84375 293.15625 88.875 295.125 C 79.40625 298.96875 75 306.9375 76.875 317.0625 C 78.1875 324.1875 85.125 337.40625 93.1875 348 C 102.9375 360.9375 113.25 372.65625 141.9375 403.03125 C 178.03125 441.28125 189.75 455.25 198.375 470.25 C 212.0625 494.34375 206.71875 507.09375 176.71875 521.71875 C 160.59375 529.59375 146.4375 534.75 102.65625 548.4375 C 40.875 567.75 19.3125 576.9375 7.40625 588.84375 C -5.15625 601.40625 -1.5 614.4375 18.09375 626.625 C 31.96875 635.25 55.875 644.0625 106.875 659.0625 C 139.03125 668.53125 150.28125 672.1875 164.53125 677.8125 C 178.6875 683.34375 182.34375 685.21875 191.71875 691.40625 C 206.15625 701.0625 209.625 709.125 205.3125 722.90625 C 200.34375 739.21875 186.9375 756.75 144.84375 802.5 C 117.46875 832.3125 109.3125 841.59375 99.5625 854.4375 C 79.78125 880.5 75.375 896.625 85.3125 906.5625 C 90.09375 911.34375 96 913.21875 108.28125 913.78125 C 125.8125 914.625 143.53125 911.625 200.625 898.125 C 252.75 885.84375 268.03125 883.125 285.65625 883.125 C 309.28125 883.125 318.09375 889.6875 320.71875 909.375 C 321.75 917.8125 321.375 925.875 319.125 942.65625 C 317.25 956.625 316.125 962.15625 306.5625 1005.46875 C 294.375 1060.125 293.15625 1067.53125 293.0625 1087.96875 C 292.96875 1102.21875 293.25 1105.59375 294.75 1109.8125 C 297.1875 1116.9375 301.03125 1120.96875 306.9375 1122.65625 C 313.59375 1124.625 319.78125 1123.40625 330.46875 1117.96875 C 345.84375 1110.28125 360.375 1098.28125 404.0625 1057.125 C 444.1875 1019.25 459.375 1006.875 474.75 999.375 C 496.3125 988.78125 508.125 994.96875 522.28125 1024.21875 C 529.6875 1039.6875 535.125 1054.78125 548.4375 1097.25 C 567.65625 1158.84375 576.9375 1180.6875 588.84375 1192.59375 C 601.40625 1205.15625 614.4375 1201.5 626.625 1181.90625 C 635.4375 1167.75 643.78125 1144.875 660.46875 1088.4375 C 674.4375 1041.5625 682.21875 1021.40625 691.78125 1007.625 C 701.34375 993.75 709.3125 990.46875 722.90625 994.6875 C 739.21875 999.65625 756.5625 1012.875 802.3125 1054.96875 C 832.3125 1082.53125 841.59375 1090.6875 854.4375 1100.4375 C 880.5 1120.21875 896.625 1124.625 906.5625 1114.6875 C 911.34375 1109.90625 913.21875 1104 913.78125 1091.71875 C 914.625 1074.1875 911.625 1056.46875 898.125 999.375 C 885.9375 947.625 883.125 931.96875 883.125 914.8125 C 883.125 890.53125 889.5 881.90625 909.375 879.28125 C 917.8125 878.25 925.875 878.625 942.65625 880.875 C 956.625 882.75 962.15625 883.875 1005.46875 893.4375 C 1060.6875 905.71875 1067.53125 906.84375 1088.4375 906.9375 C 1104.46875 907.03125 1106.15625 906.84375 1111.125 904.875 C 1120.59375 901.03125 1125 893.0625 1123.125 882.9375 C 1121.8125 875.8125 1114.875 862.59375 1106.8125 852 C 1097.0625 839.0625 1086.75 827.34375 1058.0625 796.96875 C 1021.96875 758.71875 1010.25 744.75 1001.625 729.75 C 987.9375 705.65625 993.28125 692.90625 1023.28125 678.28125 C 1039.40625 670.40625 1053.5625 665.25 1097.34375 651.5625 C 1159.125 632.25 1180.6875 623.0625 1192.59375 611.15625 C 1205.15625 598.59375 1201.5 585.5625 1181.90625 573.375 C 1168.03125 564.75 1144.125 555.9375 1093.125 540.9375 C 1060.96875 531.46875 1049.71875 527.8125 1035.46875 522.1875 C 1021.3125 516.65625 1017.65625 514.78125 1008.28125 508.59375 C 993.84375 498.9375 990.375 490.875 994.6875 477.09375 C 999.65625 460.78125 1013.0625 443.25 1055.15625 397.5 C 1082.53125 367.6875 1090.6875 358.40625 1100.4375 345.5625 C 1120.21875 319.5 1124.625 303.375 1114.6875 293.4375 C 1109.90625 288.65625 1104 286.78125 1091.71875 286.21875 C 1074.1875 285.375 1056.46875 288.375 999.375 301.875 C 947.25 314.15625 931.96875 316.875 914.34375 316.875 C 890.71875 316.875 881.90625 310.3125 879.28125 290.625 C 878.25 282.1875 878.625 274.125 880.875 257.34375 C 882.75 243.375 883.875 237.84375 893.4375 194.53125 C 905.625 139.875 906.84375 132.46875 906.9375 112.03125 C 907.03125 97.78125 906.75 94.40625 905.25 90.1875 C 902.8125 83.0625 898.96875 79.03125 893.0625 77.34375 C 886.40625 75.375 880.21875 76.59375 869.53125 82.03125 C 854.15625 89.71875 839.625 101.71875 795.9375 142.875 C 755.8125 180.75 740.625 193.125 725.25 200.625 C 703.6875 211.21875 691.875 205.03125 677.71875 175.78125 C 670.3125 160.3125 664.875 145.21875 651.5625 102.75 C 635.71875 51.9375 627.65625 31.03125 618.46875 16.6875 C 609.46875 2.53125 599.0625 -2.71875 589.21875 1.78125 Z M 589.21875 1.78125 "/>
</g>
</svg>
