<?xml version="1.0" encoding="UTF-8"?>
<svg xmlns="http://www.w3.org/2000/svg" xmlns:xlink="http://www.w3.org/1999/xlink" width="100pt" height="100pt" viewBox="0 0 100 100" version="1.1">
<g id="surface1">
<path style=" stroke:none;fill-rule:nonzero;fill:rgb(100%,59.607843%,6.666667%);fill-opacity:1;" d="M 95.3125 54.6875 L 95.3125 60.9375 L 4.6875 60.9375 L 4.6875 54.6875 C 4.6875 49.511719 8.886719 45.3125 14.0625 45.3125 L 85.9375 45.3125 C 91.113281 45.3125 95.3125 49.511719 95.3125 54.6875 Z M 95.3125 54.6875 "/>
<path style=" stroke:none;fill-rule:nonzero;fill:rgb(35.294118%,66.666667%,90.588235%);fill-opacity:1;" d="M 84.375 39.0625 L 84.375 45.3125 L 15.625 45.3125 L 15.625 39.0625 C 15.625 20.078125 31.015625 4.6875 50 4.6875 C 68.984375 4.6875 84.375 20.078125 84.375 39.0625 Z M 84.375 39.0625 "/>
<path style=" stroke:none;fill-rule:nonzero;fill:rgb(100%,59.607843%,6.666667%);fill-opacity:1;" d="M 84.21875 89.8125 C 83.34375 89.34375 75.84375 89.390625 74.890625 89.96875 L 69.71875 73.4375 L 68.75 70.3125 L 78.125 70.3125 L 79.109375 73.4375 Z M 84.21875 89.8125 "/>
<path style=" stroke:none;fill-rule:nonzero;fill:rgb(100%,59.607843%,6.666667%);fill-opacity:1;" d="M 54.6875 70.3125 L 54.6875 89.90625 C 51.585938 89.375 48.414062 89.375 45.3125 89.90625 L 45.3125 70.3125 Z M 54.6875 70.3125 "/>
<path style=" stroke:none;fill-rule:nonzero;fill:rgb(100%,59.607843%,6.666667%);fill-opacity:1;" d="M 31.25 70.3125 L 30.28125 73.4375 L 25.109375 89.96875 C 24.15625 89.390625 16.65625 89.34375 15.78125 89.8125 L 20.90625 73.4375 L 21.875 70.3125 Z M 31.25 70.3125 "/>
<path style=" stroke:none;fill-rule:nonzero;fill:rgb(100%,59.607843%,6.666667%);fill-opacity:1;" d="M 84.375 60.9375 L 82.296875 64.0625 L 78.125 70.3125 L 21.875 70.3125 L 17.703125 64.0625 L 15.625 60.9375 Z M 84.375 60.9375 "/>
<path style=" stroke:none;fill-rule:nonzero;fill:rgb(90.196078%,90.588235%,90.980392%);fill-opacity:1;" d="M 32.8125 53.125 C 32.8125 54.851562 31.414062 56.25 29.6875 56.25 C 27.960938 56.25 26.5625 54.851562 26.5625 53.125 C 26.5625 51.398438 27.960938 50 29.6875 50 C 31.414062 50 32.8125 51.398438 32.8125 53.125 Z M 32.8125 53.125 "/>
<path style=" stroke:none;fill-rule:nonzero;fill:rgb(90.196078%,90.588235%,90.980392%);fill-opacity:1;" d="M 53.125 53.125 C 53.125 54.851562 51.726562 56.25 50 56.25 C 48.273438 56.25 46.875 54.851562 46.875 53.125 C 46.875 51.398438 48.273438 50 50 50 C 51.726562 50 53.125 51.398438 53.125 53.125 Z M 53.125 53.125 "/>
<path style=" stroke:none;fill-rule:nonzero;fill:rgb(90.196078%,90.588235%,90.980392%);fill-opacity:1;" d="M 73.4375 53.125 C 73.4375 54.851562 72.039062 56.25 70.3125 56.25 C 68.585938 56.25 67.1875 54.851562 67.1875 53.125 C 67.1875 51.398438 68.585938 50 70.3125 50 C 72.039062 50 73.4375 51.398438 73.4375 53.125 Z M 73.4375 53.125 "/>
<path style=" stroke:none;fill-rule:nonzero;fill:rgb(53.72549%,53.333333%,56.470588%);fill-opacity:1;" d="M 59.375 42.1875 L 59.375 45.3125 L 40.625 45.3125 L 40.625 42.1875 L 43.75 35.9375 L 56.25 35.9375 Z M 59.375 42.1875 "/>
<path style=" stroke:none;fill-rule:nonzero;fill:rgb(53.72549%,53.333333%,56.470588%);fill-opacity:1;" d="M 45.3125 19.53125 L 45.3125 26.5625 L 40.625 26.5625 L 40.625 19.53125 C 40.625 18.238281 41.675781 17.1875 42.96875 17.1875 C 44.261719 17.1875 45.3125 18.238281 45.3125 19.53125 Z M 45.3125 19.53125 "/>
<path style=" stroke:none;fill-rule:nonzero;fill:rgb(67.45098%,67.058824%,69.411765%);fill-opacity:1;" d="M 56.25 35.9375 L 40.625 35.9375 C 38.902344 35.933594 37.503906 34.535156 37.5 32.8125 L 37.5 29.6875 C 37.503906 27.964844 38.902344 26.566406 40.625 26.5625 L 59.375 26.5625 C 61.097656 26.566406 62.496094 27.964844 62.5 29.6875 L 62.5 32.8125 C 62.496094 34.535156 61.097656 35.933594 59.375 35.9375 Z M 56.25 35.9375 "/>
<path style=" stroke:none;fill-rule:nonzero;fill:rgb(53.72549%,53.333333%,56.470588%);fill-opacity:1;" d="M 59.375 19.53125 L 59.375 26.5625 L 54.6875 26.5625 L 54.6875 19.53125 C 54.6875 18.238281 55.738281 17.1875 57.03125 17.1875 C 58.324219 17.1875 59.375 18.238281 59.375 19.53125 Z M 59.375 19.53125 "/>
<path style=" stroke:none;fill-rule:nonzero;fill:rgb(93.333333%,52.941176%,0%);fill-opacity:1;" d="M 84.375 60.9375 L 82.296875 64.0625 L 17.703125 64.0625 L 15.625 60.9375 Z M 84.375 60.9375 "/>
<path style=" stroke:none;fill-rule:nonzero;fill:rgb(93.333333%,52.941176%,0%);fill-opacity:1;" d="M 21.875 70.3125 L 31.25 70.3125 L 30.28125 73.4375 L 20.90625 73.4375 Z M 21.875 70.3125 "/>
<path style=" stroke:none;fill-rule:nonzero;fill:rgb(93.333333%,52.941176%,0%);fill-opacity:1;" d="M 45.3125 70.3125 L 54.6875 70.3125 L 54.6875 73.4375 L 45.3125 73.4375 Z M 45.3125 70.3125 "/>
<path style=" stroke:none;fill-rule:nonzero;fill:rgb(93.333333%,52.941176%,0%);fill-opacity:1;" d="M 79.109375 73.4375 L 69.71875 73.4375 L 68.75 70.3125 L 78.125 70.3125 Z M 79.109375 73.4375 "/>
<path style=" stroke:none;fill-rule:nonzero;fill:rgb(93.333333%,52.941176%,0%);fill-opacity:1;" d="M 28.125 95.3125 L 12.5 95.3125 C 12.5 91.859375 15.296875 89.0625 18.75 89.0625 L 21.875 89.0625 C 23.53125 89.070312 25.117188 89.726562 26.296875 90.890625 C 27.464844 92.066406 28.121094 93.65625 28.125 95.3125 Z M 28.125 95.3125 "/>
<path style=" stroke:none;fill-rule:nonzero;fill:rgb(93.333333%,52.941176%,0%);fill-opacity:1;" d="M 57.8125 95.3125 L 42.1875 95.3125 C 42.195312 91.863281 44.988281 89.070312 48.4375 89.0625 L 51.5625 89.0625 C 52.660156 89.0625 53.738281 89.355469 54.6875 89.90625 C 55.160156 90.179688 55.59375 90.511719 55.984375 90.890625 C 57.152344 92.066406 57.808594 93.65625 57.8125 95.3125 Z M 57.8125 95.3125 "/>
<path style=" stroke:none;fill-rule:nonzero;fill:rgb(93.333333%,52.941176%,0%);fill-opacity:1;" d="M 87.5 95.3125 L 71.875 95.3125 C 71.878906 93.65625 72.535156 92.066406 73.703125 90.890625 C 74.882812 89.726562 76.46875 89.070312 78.125 89.0625 L 81.25 89.0625 C 84.703125 89.0625 87.5 91.859375 87.5 95.3125 Z M 87.5 95.3125 "/>
<path style=" stroke:none;fill-rule:nonzero;fill:rgb(47.058824%,46.27451%,50.196078%);fill-opacity:1;" d="M 42.1875 29.6875 L 45.3125 29.6875 L 45.3125 32.8125 L 42.1875 32.8125 Z M 42.1875 29.6875 "/>
<path style=" stroke:none;fill-rule:nonzero;fill:rgb(47.058824%,46.27451%,50.196078%);fill-opacity:1;" d="M 54.6875 29.6875 L 57.8125 29.6875 L 57.8125 32.8125 L 54.6875 32.8125 Z M 54.6875 29.6875 "/>
</g>
</svg>
