<?xml version="1.0" encoding="UTF-8"?>
<svg xmlns="http://www.w3.org/2000/svg" xmlns:xlink="http://www.w3.org/1999/xlink" width="600pt" height="600pt" viewBox="0 0 600 600" version="1.1">
<g id="surface1">
<path style=" stroke:none;fill-rule:nonzero;fill:rgb(73.72549%,74.509804%,75.294118%);fill-opacity:1;" d="M 512.25 472.40625 L 472.40625 512.25 L 454.96875 508.6875 L 439.3125 505.59375 L 505.59375 439.3125 L 508.6875 454.96875 Z M 512.25 472.40625 "/>
<path style=" stroke:none;fill-rule:nonzero;fill:rgb(100%,31.372549%,13.72549%);fill-opacity:1;" d="M 558.65625 518.8125 C 569.625 529.78125 582.84375 560.90625 571.875 571.875 C 560.90625 582.84375 529.78125 569.625 518.8125 558.65625 C 507.808594 547.652344 507.808594 529.816406 518.8125 518.8125 C 529.816406 507.808594 547.652344 507.808594 558.65625 518.8125 Z M 558.65625 518.8125 "/>
<path style=" stroke:none;fill-rule:nonzero;fill:rgb(73.72549%,74.509804%,75.294118%);fill-opacity:1;" d="M 533.0625 393.9375 C 535.847656 395.234375 537.824219 397.804688 538.363281 400.824219 C 538.90625 403.847656 537.941406 406.945312 535.78125 409.125 L 505.59375 439.3125 L 452.53125 386.25 L 454.03125 384.75 C 465.109375 373.699219 481.882812 370.671875 496.125 377.15625 Z M 533.0625 393.9375 "/>
<path style=" stroke:none;fill-rule:nonzero;fill:rgb(73.72549%,74.509804%,75.294118%);fill-opacity:1;" d="M 439.3125 505.59375 L 409.125 535.78125 C 406.945312 537.941406 403.847656 538.90625 400.824219 538.363281 C 397.804688 537.824219 395.234375 535.847656 393.9375 533.0625 L 377.15625 496.125 C 370.671875 481.882812 373.699219 465.109375 384.75 454.03125 L 386.25 452.53125 Z M 439.3125 505.59375 "/>
<path style=" stroke:none;fill-rule:nonzero;fill:rgb(81.960784%,82.745098%,83.137255%);fill-opacity:1;" d="M 505.59375 439.3125 L 439.3125 505.59375 L 354.375 420.65625 C 349.039062 415.390625 345.441406 408.621094 344.0625 401.25 C 340.96875 384.84375 337.125 355.78125 346.5 346.5 C 355.875 337.21875 384.84375 340.96875 401.25 344.0625 C 408.621094 345.441406 415.390625 349.039062 420.65625 354.375 Z M 505.59375 439.3125 "/>
<path style=" stroke:none;fill-rule:nonzero;fill:rgb(65.490196%,66.27451%,67.45098%);fill-opacity:1;" d="M 508.6875 454.96875 L 454.96875 508.6875 L 439.3125 505.59375 L 505.59375 439.3125 Z M 508.6875 454.96875 "/>
<path style=" stroke:none;fill-rule:nonzero;fill:rgb(90.196078%,90.588235%,90.980392%);fill-opacity:1;" d="M 399.5625 373.03125 C 406.878906 380.355469 406.875 392.222656 399.550781 399.542969 C 392.230469 406.863281 380.363281 406.863281 373.042969 399.542969 C 365.71875 392.222656 365.714844 380.355469 373.03125 373.03125 C 376.546875 369.511719 381.320312 367.53125 386.296875 367.53125 C 391.273438 367.53125 396.046875 369.511719 399.5625 373.03125 Z M 399.5625 373.03125 "/>
<path style=" stroke:none;fill-rule:nonzero;fill:rgb(81.960784%,82.745098%,83.137255%);fill-opacity:1;" d="M 65.625 450 C 65.625 460.355469 57.230469 468.75 46.875 468.75 C 36.519531 468.75 28.125 460.355469 28.125 450 C 28.125 439.644531 36.519531 431.25 46.875 431.25 C 57.230469 431.25 65.625 439.644531 65.625 450 Z M 65.625 450 "/>
<path style=" stroke:none;fill-rule:nonzero;fill:rgb(81.960784%,82.745098%,83.137255%);fill-opacity:1;" d="M 478.125 140.625 C 478.125 150.980469 469.730469 159.375 459.375 159.375 C 449.019531 159.375 440.625 150.980469 440.625 140.625 C 440.625 130.269531 449.019531 121.875 459.375 121.875 C 469.730469 121.875 478.125 130.269531 478.125 140.625 Z M 478.125 140.625 "/>
<path style=" stroke:none;fill-rule:nonzero;fill:rgb(93.333333%,52.941176%,0%);fill-opacity:1;" d="M 75.09375 203.71875 C 90.230469 201.039062 104.886719 196.140625 118.59375 189.1875 C 149.105469 173.863281 173.863281 149.105469 189.1875 118.59375 C 196.140625 104.886719 201.039062 90.230469 203.71875 75.09375 C 133.226562 76.398438 76.398438 133.226562 75.09375 203.71875 Z M 75.09375 203.71875 "/>
<path style=" stroke:none;fill-rule:nonzero;fill:rgb(100%,59.607843%,6.666667%);fill-opacity:1;" d="M 83.53125 252.75 C 81.40625 247.289062 79.683594 241.679688 78.375 235.96875 C 89.53125 221.90625 102.75 206.34375 118.59375 189.1875 C 149.105469 173.863281 173.863281 149.105469 189.1875 118.59375 C 206.34375 102.75 221.90625 89.53125 235.96875 78.375 C 241.679688 79.683594 247.289062 81.40625 252.75 83.53125 C 253.03125 86.90625 253.125 90.28125 253.125 93.75 C 253.132812 100.742188 252.664062 107.726562 251.71875 114.65625 C 201.523438 155.601562 155.601562 201.523438 114.65625 251.71875 C 107.726562 252.664062 100.742188 253.132812 93.75 253.125 C 90.28125 253.125 86.90625 253.03125 83.53125 252.75 Z M 83.53125 252.75 "/>
<path style=" stroke:none;fill-rule:nonzero;fill:rgb(100%,59.607843%,6.666667%);fill-opacity:1;" d="M 337.5 206.25 C 337.5 208.96875 337.40625 211.6875 337.21875 214.40625 C 333.128906 280.464844 280.464844 333.128906 214.40625 337.21875 C 211.6875 337.40625 208.96875 337.5 206.25 337.5 C 196.25 337.484375 186.28125 336.351562 176.53125 334.125 C 205.5625 310.824219 233.203125 285.84375 259.3125 259.3125 C 285.84375 233.203125 310.824219 205.5625 334.125 176.53125 C 336.351562 186.28125 337.484375 196.25 337.5 206.25 Z M 337.5 206.25 "/>
<path style=" stroke:none;fill-rule:nonzero;fill:rgb(100%,59.607843%,6.666667%);fill-opacity:1;" d="M 252.75 83.53125 C 247.289062 81.40625 241.679688 79.683594 235.96875 78.375 C 226.21875 76.148438 216.25 75.015625 206.25 75 C 205.40625 74.984375 204.558594 75.015625 203.71875 75.09375 C 201.039062 90.230469 196.140625 104.886719 189.1875 118.59375 C 173.863281 149.105469 149.105469 173.863281 118.59375 189.1875 C 104.886719 196.140625 90.230469 201.039062 75.09375 203.71875 C 75.015625 204.558594 74.984375 205.40625 75 206.25 C 75.015625 216.25 76.148438 226.21875 78.375 235.96875 C 79.683594 241.679688 81.40625 247.289062 83.53125 252.75 C 86.90625 253.03125 90.28125 253.125 93.75 253.125 C 100.742188 253.132812 107.726562 252.664062 114.65625 251.71875 C 186.105469 242.332031 242.332031 186.105469 251.71875 114.65625 C 252.664062 107.726562 253.132812 100.742188 253.125 93.75 C 253.125 90.28125 253.03125 86.90625 252.75 83.53125 Z M 252.75 83.53125 "/>
<path style=" stroke:none;fill-rule:nonzero;fill:rgb(100%,65.490196%,20%);fill-opacity:1;" d="M 316.96875 135.84375 C 306.648438 119.613281 292.886719 105.851562 276.65625 95.53125 C 269.121094 90.71875 261.109375 86.695312 252.75 83.53125 C 253.03125 86.90625 253.125 90.28125 253.125 93.75 C 253.132812 100.742188 252.664062 107.726562 251.71875 114.65625 C 242.332031 186.105469 186.105469 242.332031 114.65625 251.71875 C 107.726562 252.664062 100.742188 253.132812 93.75 253.125 C 90.28125 253.125 86.90625 253.03125 83.53125 252.75 C 86.675781 261.121094 90.699219 269.132812 95.53125 276.65625 C 114.003906 305.644531 143.070312 326.265625 176.53125 334.125 C 205.5625 310.824219 233.203125 285.84375 259.3125 259.3125 C 285.84375 233.203125 310.824219 205.5625 334.125 176.53125 C 330.738281 162.101562 324.9375 148.34375 316.96875 135.84375 Z M 316.96875 135.84375 "/>
<path style=" stroke:none;fill-rule:nonzero;fill:rgb(93.333333%,52.941176%,0%);fill-opacity:1;" d="M 337.5 206.25 C 337.5 208.96875 337.40625 211.6875 337.21875 214.40625 C 321.28125 233.25 301.78125 254.34375 278.0625 278.0625 C 254.34375 301.78125 233.25 321.28125 214.40625 337.21875 C 211.6875 337.40625 208.96875 337.5 206.25 337.5 C 196.25 337.484375 186.28125 336.351562 176.53125 334.125 C 205.5625 310.824219 233.203125 285.84375 259.3125 259.3125 C 285.84375 233.203125 310.824219 205.5625 334.125 176.53125 C 336.351562 186.28125 337.484375 196.25 337.5 206.25 Z M 337.5 206.25 "/>
<path style=" stroke:none;fill-rule:nonzero;fill:rgb(90.196078%,90.588235%,90.980392%);fill-opacity:1;" d="M 372 40.5 C 361.40625 29.90625 333.375 1.96875 235.96875 78.375 C 241.679688 79.683594 247.289062 81.40625 252.75 83.53125 C 261.109375 86.695312 269.121094 90.71875 276.65625 95.53125 C 311.34375 70.59375 337.40625 58.96875 345.46875 67.03125 C 353.53125 75.09375 341.90625 101.15625 316.96875 135.84375 C 291.472656 170.300781 263.324219 202.710938 232.78125 232.78125 C 202.710938 263.324219 170.300781 291.472656 135.84375 316.96875 C 101.15625 341.90625 75.09375 353.53125 67.03125 345.46875 C 58.96875 337.40625 70.59375 311.34375 95.53125 276.65625 C 90.699219 269.132812 86.675781 261.121094 83.53125 252.75 C 81.40625 247.289062 79.683594 241.679688 78.375 235.96875 C 1.96875 333.375 29.90625 361.40625 40.5 372 C 51.09375 382.59375 79.125 410.53125 176.53125 334.125 C 205.5625 310.824219 233.203125 285.84375 259.3125 259.3125 C 285.84375 233.203125 310.824219 205.5625 334.125 176.53125 C 410.53125 79.125 382.59375 51.09375 372 40.5 Z M 372 40.5 "/>
<path style=" stroke:none;fill-rule:nonzero;fill:rgb(93.333333%,52.941176%,0%);fill-opacity:1;" d="M 478.125 234.375 L 459.375 234.375 L 459.375 215.625 L 440.625 215.625 L 440.625 234.375 L 421.875 234.375 L 421.875 253.125 L 440.625 253.125 L 440.625 271.875 L 459.375 271.875 L 459.375 253.125 L 478.125 253.125 Z M 478.125 234.375 "/>
<path style=" stroke:none;fill-rule:nonzero;fill:rgb(100%,59.607843%,6.666667%);fill-opacity:1;" d="M 562.5 37.5 L 543.75 37.5 L 543.75 18.75 L 525 18.75 L 525 37.5 L 506.25 37.5 L 506.25 56.25 L 525 56.25 L 525 75 L 543.75 75 L 543.75 56.25 L 562.5 56.25 Z M 562.5 37.5 "/>
<path style=" stroke:none;fill-rule:nonzero;fill:rgb(100%,59.607843%,6.666667%);fill-opacity:1;" d="M 271.875 450 L 253.125 450 L 253.125 468.75 L 234.375 468.75 L 234.375 487.5 L 253.125 487.5 L 253.125 506.25 L 271.875 506.25 L 271.875 487.5 L 290.625 487.5 L 290.625 468.75 L 271.875 468.75 Z M 271.875 450 "/>
<path style=" stroke:none;fill-rule:nonzero;fill:rgb(100%,65.490196%,20%);fill-opacity:1;" d="M 140.625 37.5 L 159.375 37.5 L 159.375 56.25 L 140.625 56.25 Z M 140.625 37.5 "/>
<path style=" stroke:none;fill-rule:nonzero;fill:rgb(80%,45.490196%,0%);fill-opacity:1;" d="M 18.75 84.375 L 37.5 84.375 L 37.5 103.125 L 18.75 103.125 Z M 18.75 84.375 "/>
<path style=" stroke:none;fill-rule:nonzero;fill:rgb(100%,65.490196%,20%);fill-opacity:1;" d="M 234.375 562.5 L 253.125 562.5 L 253.125 581.25 L 234.375 581.25 Z M 234.375 562.5 "/>
<path style=" stroke:none;fill-rule:nonzero;fill:rgb(80%,45.490196%,0%);fill-opacity:1;" d="M 168.75 393.75 L 187.5 393.75 L 187.5 412.5 L 168.75 412.5 Z M 168.75 393.75 "/>
<path style=" stroke:none;fill-rule:nonzero;fill:rgb(100%,65.490196%,20%);fill-opacity:1;" d="M 103.125 534.375 L 121.875 534.375 L 121.875 553.125 L 103.125 553.125 Z M 103.125 534.375 "/>
</g>
</svg>
