<?xml version="1.0" encoding="UTF-8"?>
<svg xmlns="http://www.w3.org/2000/svg" xmlns:xlink="http://www.w3.org/1999/xlink" width="700pt" height="500pt" viewBox="0 0 700 500" version="1.1">
<g id="surface1">
<path style=" stroke:none;fill-rule:nonzero;fill:rgb(67.45098%,67.058824%,69.411765%);fill-opacity:1;" d="M 426.5625 351.5625 L 481.25 429.6875 L 218.75 429.6875 L 273.4375 351.5625 Z M 426.5625 351.5625 "/>
<path style=" stroke:none;fill-rule:nonzero;fill:rgb(77.647059%,77.254902%,79.215686%);fill-opacity:1;" d="M 295.3125 382.8125 L 404.6875 382.8125 L 404.6875 429.6875 L 295.3125 429.6875 Z M 295.3125 382.8125 "/>
<path style=" stroke:none;fill-rule:nonzero;fill:rgb(53.72549%,53.333333%,56.470588%);fill-opacity:1;" d="M 481.25 429.6875 L 481.25 460.9375 C 481.214844 469.554688 471.441406 476.535156 459.375 476.5625 L 240.625 476.5625 C 228.558594 476.535156 218.785156 469.554688 218.75 460.9375 L 218.75 429.6875 Z M 481.25 429.6875 "/>
<path style=" stroke:none;fill-rule:nonzero;fill:rgb(84.705882%,84.313725%,85.490196%);fill-opacity:1;" d="M 328.125 320.3125 L 371.875 320.3125 L 371.875 351.5625 L 328.125 351.5625 Z M 328.125 320.3125 "/>
<path style=" stroke:none;fill-rule:nonzero;fill:rgb(77.647059%,77.254902%,79.215686%);fill-opacity:1;" d="M 328.125 320.3125 L 328.125 351.5625 L 284.375 351.5625 L 284.375 320.3125 Z M 328.125 320.3125 "/>
<path style=" stroke:none;fill-rule:nonzero;fill:rgb(77.647059%,77.254902%,79.215686%);fill-opacity:1;" d="M 393.75 320.3125 L 415.625 320.3125 L 415.625 351.5625 L 371.875 351.5625 L 371.875 320.3125 Z M 393.75 320.3125 "/>
<path style=" stroke:none;fill-rule:nonzero;fill:rgb(81.960784%,82.745098%,83.137255%);fill-opacity:1;" d="M 393.75 179.6875 L 371.875 320.3125 L 328.125 320.3125 L 306.25 179.6875 C 306.25 162.429688 325.835938 148.4375 350 148.4375 C 374.164062 148.4375 393.75 162.429688 393.75 179.6875 Z M 393.75 179.6875 "/>
<path style=" stroke:none;fill-rule:nonzero;fill:rgb(90.196078%,90.588235%,90.980392%);fill-opacity:1;" d="M 481.25 179.6875 L 393.75 320.3125 L 371.875 320.3125 L 393.75 179.6875 C 393.75 162.429688 413.335938 148.4375 437.5 148.4375 C 461.664062 148.4375 481.25 162.429688 481.25 179.6875 Z M 481.25 179.6875 "/>
<path style=" stroke:none;fill-rule:nonzero;fill:rgb(81.960784%,82.745098%,83.137255%);fill-opacity:1;" d="M 393.75 320.3125 L 481.25 179.6875 C 481.25 162.429688 500.835938 148.4375 525 148.4375 C 549.164062 148.4375 568.75 162.429688 568.75 179.6875 L 415.625 320.3125 Z M 393.75 320.3125 "/>
<path style=" stroke:none;fill-rule:nonzero;fill:rgb(90.196078%,90.588235%,90.980392%);fill-opacity:1;" d="M 306.25 179.6875 L 328.125 320.3125 L 306.25 320.3125 L 218.75 179.6875 C 218.75 162.429688 238.335938 148.4375 262.5 148.4375 C 286.664062 148.4375 306.25 162.429688 306.25 179.6875 Z M 306.25 179.6875 "/>
<path style=" stroke:none;fill-rule:nonzero;fill:rgb(81.960784%,82.745098%,83.137255%);fill-opacity:1;" d="M 218.75 179.6875 L 306.25 320.3125 L 284.375 320.3125 L 131.25 179.6875 C 131.25 162.429688 150.835938 148.4375 175 148.4375 C 199.164062 148.4375 218.75 162.429688 218.75 179.6875 Z M 218.75 179.6875 "/>
<path style=" stroke:none;fill-rule:nonzero;fill:rgb(100%,31.372549%,13.72549%);fill-opacity:1;" d="M 437.5 148.4375 C 413.335938 148.4375 393.75 162.429688 393.75 179.6875 C 393.75 162.429688 374.164062 148.4375 350 148.4375 C 325.835938 148.4375 306.25 162.429688 306.25 179.6875 C 306.25 162.429688 286.664062 148.4375 262.5 148.4375 C 238.335938 148.4375 218.75 162.429688 218.75 179.6875 C 218.75 162.429688 199.164062 148.4375 175 148.4375 C 150.835938 148.4375 131.25 162.429688 131.25 179.6875 C 131.25 93.394531 229.1875 23.4375 350 23.4375 C 470.8125 23.4375 568.75 93.394531 568.75 179.6875 C 568.75 162.429688 549.164062 148.4375 525 148.4375 C 500.835938 148.4375 481.25 162.429688 481.25 179.6875 C 481.25 162.429688 461.664062 148.4375 437.5 148.4375 Z M 437.5 148.4375 "/>
<path style=" stroke:none;fill-rule:nonzero;fill:rgb(100%,65.490196%,20%);fill-opacity:1;" d="M 590.625 281.25 L 612.5 281.25 L 612.5 390.625 L 590.625 390.625 Z M 590.625 281.25 "/>
<path style=" stroke:none;fill-rule:nonzero;fill:rgb(100%,65.490196%,20%);fill-opacity:1;" d="M 590.625 250 L 612.5 250 L 612.5 265.625 L 590.625 265.625 Z M 590.625 250 "/>
<path style=" stroke:none;fill-rule:nonzero;fill:rgb(100%,65.490196%,20%);fill-opacity:1;" d="M 590.625 218.75 L 612.5 218.75 L 612.5 234.375 L 590.625 234.375 Z M 590.625 218.75 "/>
<path style=" stroke:none;fill-rule:nonzero;fill:rgb(100%,65.490196%,20%);fill-opacity:1;" d="M 656.25 187.5 L 678.125 187.5 L 678.125 343.75 L 656.25 343.75 Z M 656.25 187.5 "/>
<path style=" stroke:none;fill-rule:nonzero;fill:rgb(100%,65.490196%,20%);fill-opacity:1;" d="M 656.25 156.25 L 678.125 156.25 L 678.125 171.875 L 656.25 171.875 Z M 656.25 156.25 "/>
<path style=" stroke:none;fill-rule:nonzero;fill:rgb(100%,65.490196%,20%);fill-opacity:1;" d="M 656.25 125 L 678.125 125 L 678.125 140.625 L 656.25 140.625 Z M 656.25 125 "/>
<path style=" stroke:none;fill-rule:nonzero;fill:rgb(100%,65.490196%,20%);fill-opacity:1;" d="M 656.25 93.75 L 678.125 93.75 L 678.125 109.375 L 656.25 109.375 Z M 656.25 93.75 "/>
<path style=" stroke:none;fill-rule:nonzero;fill:rgb(100%,65.490196%,20%);fill-opacity:1;" d="M 87.5 281.25 L 109.375 281.25 L 109.375 390.625 L 87.5 390.625 Z M 87.5 281.25 "/>
<path style=" stroke:none;fill-rule:nonzero;fill:rgb(100%,65.490196%,20%);fill-opacity:1;" d="M 87.5 250 L 109.375 250 L 109.375 265.625 L 87.5 265.625 Z M 87.5 250 "/>
<path style=" stroke:none;fill-rule:nonzero;fill:rgb(100%,65.490196%,20%);fill-opacity:1;" d="M 87.5 218.75 L 109.375 218.75 L 109.375 234.375 L 87.5 234.375 Z M 87.5 218.75 "/>
<path style=" stroke:none;fill-rule:nonzero;fill:rgb(100%,65.490196%,20%);fill-opacity:1;" d="M 21.875 187.5 L 43.75 187.5 L 43.75 343.75 L 21.875 343.75 Z M 21.875 187.5 "/>
<path style=" stroke:none;fill-rule:nonzero;fill:rgb(100%,65.490196%,20%);fill-opacity:1;" d="M 21.875 156.25 L 43.75 156.25 L 43.75 171.875 L 21.875 171.875 Z M 21.875 156.25 "/>
<path style=" stroke:none;fill-rule:nonzero;fill:rgb(100%,65.490196%,20%);fill-opacity:1;" d="M 21.875 125 L 43.75 125 L 43.75 140.625 L 21.875 140.625 Z M 21.875 125 "/>
<path style=" stroke:none;fill-rule:nonzero;fill:rgb(100%,65.490196%,20%);fill-opacity:1;" d="M 21.875 93.75 L 43.75 93.75 L 43.75 109.375 L 21.875 109.375 Z M 21.875 93.75 "/>
</g>
</svg>
