<?xml version="1.0" encoding="UTF-8"?>
<svg xmlns="http://www.w3.org/2000/svg" xmlns:xlink="http://www.w3.org/1999/xlink" width="512pt" height="512pt" viewBox="0 0 512 512" version="1.1">
<g id="surface1">
<path style=" stroke:none;fill-rule:nonzero;fill:rgb(93.333333%,52.941176%,0%);fill-opacity:1;" d="M 224.078125 333.839844 C 236.996094 331.554688 249.503906 327.375 261.199219 321.441406 C 287.238281 308.363281 308.363281 287.238281 321.441406 261.199219 C 327.375 249.503906 331.554688 236.996094 333.839844 224.078125 C 273.6875 225.191406 225.191406 273.6875 224.078125 333.839844 Z M 224.078125 333.839844 "/>
<path style=" stroke:none;fill-rule:nonzero;fill:rgb(100%,59.607843%,6.666667%);fill-opacity:1;" d="M 231.28125 375.679688 C 229.464844 371.019531 227.996094 366.234375 226.878906 361.359375 C 236.398438 349.359375 247.679688 336.078125 261.199219 321.441406 C 287.238281 308.363281 308.363281 287.238281 321.441406 261.199219 C 336.078125 247.679688 349.359375 236.398438 361.359375 226.878906 C 366.234375 227.996094 371.019531 229.464844 375.679688 231.28125 C 375.921875 234.160156 376 237.039062 376 240 C 376.007812 245.96875 375.605469 251.925781 374.800781 257.839844 C 331.964844 292.78125 292.78125 331.964844 257.839844 374.800781 C 251.925781 375.605469 245.96875 376.007812 240 376 C 237.039062 376 234.160156 375.921875 231.28125 375.679688 Z M 231.28125 375.679688 "/>
<path style=" stroke:none;fill-rule:nonzero;fill:rgb(100%,59.607843%,6.666667%);fill-opacity:1;" d="M 448 336 C 448 338.320312 447.921875 340.640625 447.761719 342.960938 C 444.269531 399.332031 399.332031 444.269531 342.960938 447.761719 C 340.640625 447.921875 338.320312 448 336 448 C 327.464844 447.988281 318.960938 447.019531 310.640625 445.121094 C 335.414062 425.238281 359 403.921875 381.28125 381.28125 C 403.921875 359 425.238281 335.414062 445.121094 310.640625 C 447.019531 318.960938 447.988281 327.464844 448 336 Z M 448 336 "/>
<path style=" stroke:none;fill-rule:nonzero;fill:rgb(100%,59.607843%,6.666667%);fill-opacity:1;" d="M 375.679688 231.28125 C 371.019531 229.464844 366.234375 227.996094 361.359375 226.878906 C 353.039062 224.980469 344.535156 224.011719 336 224 C 335.277344 223.988281 334.558594 224.011719 333.839844 224.078125 C 331.554688 236.996094 327.375 249.503906 321.441406 261.199219 C 308.363281 287.238281 287.238281 308.363281 261.199219 321.441406 C 249.503906 327.375 236.996094 331.554688 224.078125 333.839844 C 224.011719 334.558594 223.988281 335.277344 224 336 C 224.011719 344.535156 224.980469 353.039062 226.878906 361.359375 C 227.996094 366.234375 229.464844 371.019531 231.28125 375.679688 C 234.160156 375.921875 237.039062 376 240 376 C 245.96875 376.007812 251.925781 375.605469 257.839844 374.800781 C 318.808594 366.789062 366.789062 318.808594 374.800781 257.839844 C 375.605469 251.925781 376.007812 245.96875 376 240 C 376 237.039062 375.921875 234.160156 375.679688 231.28125 Z M 375.679688 231.28125 "/>
<path style=" stroke:none;fill-rule:nonzero;fill:rgb(100%,65.490196%,20%);fill-opacity:1;" d="M 430.480469 275.921875 C 421.671875 262.070312 409.929688 250.328125 396.078125 241.519531 C 389.652344 237.414062 382.816406 233.980469 375.679688 231.28125 C 375.921875 234.160156 376 237.039062 376 240 C 376.007812 245.96875 375.605469 251.925781 374.800781 257.839844 C 366.789062 318.808594 318.808594 366.789062 257.839844 374.800781 C 251.925781 375.605469 245.96875 376.007812 240 376 C 237.039062 376 234.160156 375.921875 231.28125 375.679688 C 233.964844 382.820312 237.398438 389.660156 241.519531 396.078125 C 257.28125 420.816406 282.085938 438.414062 310.640625 445.121094 C 335.414062 425.238281 359 403.921875 381.28125 381.28125 C 403.921875 359 425.238281 335.414062 445.121094 310.640625 C 442.230469 298.324219 437.28125 286.585938 430.480469 275.921875 Z M 430.480469 275.921875 "/>
<path style=" stroke:none;fill-rule:nonzero;fill:rgb(73.72549%,74.509804%,75.294118%);fill-opacity:1;" d="M 56 384 C 56 392.835938 48.835938 400 40 400 C 31.164062 400 24 392.835938 24 384 C 24 375.164062 31.164062 368 40 368 C 48.835938 368 56 375.164062 56 384 Z M 56 384 "/>
<path style=" stroke:none;fill-rule:nonzero;fill:rgb(73.72549%,74.509804%,75.294118%);fill-opacity:1;" d="M 344 104 C 344 112.835938 336.835938 120 328 120 C 319.164062 120 312 112.835938 312 104 C 312 95.164062 319.164062 88 328 88 C 336.835938 88 344 95.164062 344 104 Z M 344 104 "/>
<path style=" stroke:none;fill-rule:nonzero;fill:rgb(81.960784%,82.745098%,83.137255%);fill-opacity:1;" d="M 152 96 C 152 126.929688 126.929688 152 96 152 C 65.070312 152 40 126.929688 40 96 C 40 65.070312 65.070312 40 96 40 C 126.929688 40 152 65.070312 152 96 Z M 152 96 "/>
<path style=" stroke:none;fill-rule:nonzero;fill:rgb(93.333333%,52.941176%,0%);fill-opacity:1;" d="M 448 336 C 448 338.320312 447.921875 340.640625 447.761719 342.960938 C 434.160156 359.039062 417.519531 377.039062 397.28125 397.28125 C 377.039062 417.519531 359.039062 434.160156 342.960938 447.761719 C 340.640625 447.921875 338.320312 448 336 448 C 327.464844 447.988281 318.960938 447.019531 310.640625 445.121094 C 335.414062 425.238281 359 403.921875 381.28125 381.28125 C 403.921875 359 425.238281 335.414062 445.121094 310.640625 C 447.019531 318.960938 447.988281 327.464844 448 336 Z M 448 336 "/>
<path style=" stroke:none;fill-rule:nonzero;fill:rgb(90.196078%,90.588235%,90.980392%);fill-opacity:1;" d="M 477.441406 194.558594 C 468.398438 185.519531 444.480469 161.679688 361.359375 226.878906 C 366.234375 227.996094 371.019531 229.464844 375.679688 231.28125 C 382.816406 233.980469 389.652344 237.414062 396.078125 241.519531 C 425.679688 220.238281 447.921875 210.320312 454.800781 217.199219 C 461.679688 224.078125 451.761719 246.320312 430.480469 275.921875 C 408.722656 305.320312 384.703125 332.980469 358.640625 358.640625 C 332.980469 384.703125 305.320312 408.722656 275.921875 430.480469 C 246.320312 451.761719 224.078125 461.679688 217.199219 454.800781 C 210.320312 447.921875 220.238281 425.679688 241.519531 396.078125 C 237.398438 389.660156 233.964844 382.820312 231.28125 375.679688 C 229.464844 371.019531 227.996094 366.234375 226.878906 361.359375 C 161.679688 444.480469 185.519531 468.398438 194.558594 477.441406 C 203.601562 486.480469 227.519531 510.320312 310.640625 445.121094 C 335.414062 425.238281 359 403.921875 381.28125 381.28125 C 403.921875 359 425.238281 335.414062 445.121094 310.640625 C 510.320312 227.519531 486.480469 203.601562 477.441406 194.558594 Z M 477.441406 194.558594 "/>
<path style=" stroke:none;fill-rule:nonzero;fill:rgb(100%,71.372549%,33.333333%);fill-opacity:1;" d="M 480 416 L 496 416 L 496 432 L 480 432 Z M 480 416 "/>
<path style=" stroke:none;fill-rule:nonzero;fill:rgb(100%,59.607843%,6.666667%);fill-opacity:1;" d="M 424 480 L 440 480 L 440 496 L 424 496 Z M 424 480 "/>
<path style=" stroke:none;fill-rule:nonzero;fill:rgb(100%,59.607843%,6.666667%);fill-opacity:1;" d="M 472 320 L 488 320 L 488 336 L 472 336 Z M 472 320 "/>
<path style=" stroke:none;fill-rule:nonzero;fill:rgb(100%,59.607843%,6.666667%);fill-opacity:1;" d="M 480 32 L 464 32 L 464 16 L 448 16 L 448 32 L 432 32 L 432 48 L 448 48 L 448 64 L 464 64 L 464 48 L 480 48 Z M 480 32 "/>
<path style=" stroke:none;fill-rule:nonzero;fill:rgb(100%,59.607843%,6.666667%);fill-opacity:1;" d="M 64 232 L 48 232 L 48 248 L 32 248 L 32 264 L 48 264 L 48 280 L 64 280 L 64 264 L 80 264 L 80 248 L 64 248 Z M 64 232 "/>
<path style=" stroke:none;fill-rule:nonzero;fill:rgb(100%,71.372549%,33.333333%);fill-opacity:1;" d="M 120 296 L 136 296 L 136 312 L 120 312 Z M 120 296 "/>
<path style=" stroke:none;fill-rule:nonzero;fill:rgb(100%,59.607843%,6.666667%);fill-opacity:1;" d="M 208 72 L 224 72 L 224 88 L 208 88 Z M 208 72 "/>
<path style=" stroke:none;fill-rule:nonzero;fill:rgb(100%,71.372549%,33.333333%);fill-opacity:1;" d="M 240 168 L 256 168 L 256 184 L 240 184 Z M 240 168 "/>
<path style=" stroke:none;fill-rule:nonzero;fill:rgb(100%,71.372549%,33.333333%);fill-opacity:1;" d="M 296 24 L 312 24 L 312 40 L 296 40 Z M 296 24 "/>
<path style=" stroke:none;fill-rule:nonzero;fill:rgb(100%,59.607843%,6.666667%);fill-opacity:1;" d="M 152 240 L 168 240 L 168 256 L 152 256 Z M 152 240 "/>
<path style=" stroke:none;fill-rule:nonzero;fill:rgb(100%,59.607843%,6.666667%);fill-opacity:1;" d="M 88 456 L 104 456 L 104 472 L 88 472 Z M 88 456 "/>
<path style=" stroke:none;fill-rule:nonzero;fill:rgb(65.490196%,66.27451%,67.45098%);fill-opacity:1;" d="M 166.800781 131.761719 C 161.804688 123.851562 156.355469 116.238281 150.480469 108.960938 C 149.085938 114.988281 146.648438 120.726562 143.28125 125.921875 C 157.28125 144.71875 163.761719 158.480469 163.601562 163.601562 L 163.359375 163.601562 C 158.078125 163.601562 144.480469 157.121094 125.921875 143.28125 C 111.324219 132.308594 97.550781 120.273438 84.71875 107.28125 C 71.75 94.425781 59.71875 80.660156 48.71875 66.078125 C 34.71875 47.28125 28.238281 33.519531 28.398438 28.398438 C 33.761719 28.398438 47.359375 34.800781 66.078125 48.71875 C 71.273438 45.351562 77.011719 42.914062 83.039062 41.519531 C 58.960938 22.320312 29.519531 4.078125 16.800781 16.800781 C 9.039062 24.558594 11.761719 38.800781 25.199219 60.238281 C 30.195312 68.148438 35.644531 75.761719 41.519531 83.039062 C 51.425781 95.523438 62.058594 107.410156 73.359375 118.640625 C 84.671875 129.855469 96.554688 140.484375 108.960938 150.480469 C 127.441406 165.199219 149.121094 179.441406 163.921875 179.441406 C 168.101562 179.632812 172.179688 178.101562 175.199219 175.199219 C 182.960938 167.441406 180.238281 153.199219 166.800781 131.761719 Z M 166.800781 131.761719 "/>
</g>
</svg>
