<?xml version="1.0" encoding="UTF-8"?>
<svg xmlns="http://www.w3.org/2000/svg" xmlns:xlink="http://www.w3.org/1999/xlink" width="1500pt" height="1500pt" viewBox="0 0 1500 1500" version="1.1">
<g id="surface1">
<path style=" stroke:none;fill-rule:nonzero;fill:rgb(100%,65.490196%,20%);fill-opacity:1;" d="M 1277.8125 321.5625 L 1277.578125 321.5625 C 1249.738281 318.214844 1222.222656 312.570312 1195.3125 304.6875 C 1031.25 257.8125 937.5 210.9375 679.6875 304.6875 C 523.59375 361.40625 324.609375 366.5625 191.953125 361.875 C 164.960938 400.464844 142.097656 441.785156 123.75 485.15625 C 247.03125 476.953125 493.828125 471.5625 679.6875 539.0625 C 937.5 632.8125 1031.25 585.9375 1195.3125 539.0625 C 1258.40625 520.660156 1324.414062 514.378906 1389.84375 520.546875 C 1364.050781 448.347656 1326.167969 381.058594 1277.8125 321.5625 Z M 1277.8125 321.5625 "/>
<path style=" stroke:none;fill-rule:nonzero;fill:rgb(100%,65.490196%,20%);fill-opacity:1;" d="M 1335.9375 750 C 914.0625 726.5625 703.125 1012.03125 146.25 1012.03125 C 138.28125 1012.03125 130.3125 1012.03125 122.578125 1011.796875 C 139.328125 1052.074219 159.972656 1090.617188 184.21875 1126.875 C 309.128906 1102.488281 435.488281 1086.203125 562.5 1078.125 C 914.0625 1054.6875 1078.125 1101.5625 1242.1875 1101.5625 C 1271.25 1101.5625 1302.1875 1100.15625 1334.0625 1097.8125 L 1334.296875 1097.8125 C 1356.105469 1061.023438 1374.386719 1022.257812 1388.90625 982.03125 C 1404.730469 938.78125 1416.039062 894.011719 1422.65625 848.4375 C 1427.050781 818.164062 1429.324219 787.621094 1429.453125 757.03125 C 1400.390625 754.21875 1369.21875 751.875 1335.9375 750 Z M 1335.9375 750 "/>
<path style=" stroke:none;fill-rule:nonzero;fill:rgb(93.333333%,52.941176%,0%);fill-opacity:1;" d="M 1389.84375 520.546875 C 1324.414062 514.378906 1258.40625 520.660156 1195.3125 539.0625 C 1031.25 585.9375 937.5 632.8125 679.6875 539.0625 C 493.828125 471.5625 247.03125 476.953125 123.75 485.15625 C 109.738281 518.246094 98.453125 552.421875 90 587.34375 C 63.75 694.191406 63.75 805.808594 90 912.65625 C 98.167969 946.527344 109.0625 979.683594 122.578125 1011.796875 C 130.3125 1012.03125 138.28125 1012.03125 146.25 1012.03125 C 703.125 1012.03125 914.0625 726.5625 1335.9375 750 C 1369.21875 751.875 1400.390625 754.21875 1429.453125 757.03125 C 1429.6875 754.6875 1429.6875 752.34375 1429.6875 750 C 1429.773438 671.789062 1416.292969 594.152344 1389.84375 520.546875 Z M 1389.84375 520.546875 "/>
<path style=" stroke:none;fill-rule:nonzero;fill:rgb(100%,59.607843%,6.666667%);fill-opacity:1;" d="M 1422.65625 848.4375 C 1416.039062 894.011719 1404.730469 938.78125 1388.90625 982.03125 C 1364.53125 983.671875 1338.984375 984.375 1312.5 984.375 C 1144.21875 984.375 1007.8125 952.96875 1007.8125 914.0625 C 1007.8125 875.15625 1144.21875 843.75 1312.5 843.75 C 1351.40625 843.75 1388.4375 845.390625 1422.65625 848.4375 Z M 1422.65625 848.4375 "/>
<path style=" stroke:none;fill-rule:nonzero;fill:rgb(100%,59.607843%,6.666667%);fill-opacity:1;" d="M 164.0625 585.9375 C 474.609375 585.9375 726.5625 659.296875 726.5625 750 C 726.5625 840.703125 474.609375 914.0625 164.0625 914.0625 C 138.984375 914.0625 114.140625 913.59375 90 912.65625 C 63.75 805.808594 63.75 694.191406 90 587.34375 C 114.140625 586.40625 138.984375 585.9375 164.0625 585.9375 Z M 164.0625 585.9375 "/>
<path style=" stroke:none;fill-rule:nonzero;fill:rgb(93.333333%,52.941176%,0%);fill-opacity:1;" d="M 1242.1875 1101.5625 C 1271.25 1101.5625 1302.1875 1100.15625 1334.0625 1097.8125 C 1281.054688 1186.910156 1208.335938 1262.679688 1121.484375 1319.296875 C 1000.601562 1284.921875 875.667969 1266.871094 750 1265.625 C 625.085938 1266.398438 500.925781 1285.105469 381.328125 1321.171875 C 303.050781 1270.539062 235.96875 1204.417969 184.21875 1126.875 C 309.128906 1102.488281 435.488281 1086.203125 562.5 1078.125 C 914.0625 1054.6875 1078.125 1101.5625 1242.1875 1101.5625 Z M 1242.1875 1101.5625 "/>
<path style=" stroke:none;fill-rule:nonzero;fill:rgb(100%,65.490196%,20%);fill-opacity:1;" d="M 750 1265.625 C 875.667969 1266.871094 1000.601562 1284.921875 1121.484375 1319.296875 C 896.714844 1465.800781 606.835938 1466.535156 381.328125 1321.171875 C 500.925781 1285.105469 625.085938 1266.398438 750 1265.625 Z M 750 1265.625 "/>
<path style=" stroke:none;fill-rule:nonzero;fill:rgb(100%,59.607843%,6.666667%);fill-opacity:1;" d="M 1148.4375 421.875 C 1148.4375 370.097656 1053.996094 328.125 937.5 328.125 C 821.003906 328.125 726.5625 370.097656 726.5625 421.875 C 726.5625 473.652344 821.003906 515.625 937.5 515.625 C 1053.996094 515.625 1148.4375 473.652344 1148.4375 421.875 Z M 1148.4375 421.875 "/>
<path style=" stroke:none;fill-rule:nonzero;fill:rgb(93.333333%,52.941176%,0%);fill-opacity:1;" d="M 750 70.3125 C 954.78125 70.070312 1148.699219 162.421875 1277.578125 321.5625 C 1249.738281 318.214844 1222.222656 312.570312 1195.3125 304.6875 C 1031.25 257.8125 937.5 210.9375 679.6875 304.6875 C 523.59375 361.40625 324.609375 366.5625 191.953125 361.875 C 318.929688 179.089844 527.4375 70.152344 750 70.3125 Z M 750 70.3125 "/>
</g>
</svg>
