<?xml version="1.0" encoding="UTF-8"?>
<svg xmlns="http://www.w3.org/2000/svg" xmlns:xlink="http://www.w3.org/1999/xlink" width="128pt" height="128pt" viewBox="0 0 128 128" version="1.1">
<g id="surface1">
<path style=" stroke:none;fill-rule:nonzero;fill:rgb(81.960784%,82.745098%,83.137255%);fill-opacity:1;" d="M 112 64 C 111.992188 90.140625 91.074219 111.46875 64.941406 111.980469 C 64.640625 112 64.320312 112 64 112 C 59.34375 112.007812 54.714844 111.328125 50.261719 109.980469 C 28.472656 103.480469 14.238281 82.578125 16.167969 59.925781 C 18.101562 37.269531 35.667969 19.078125 58.238281 16.359375 C 62.066406 15.878906 65.933594 15.878906 69.761719 16.359375 C 86.453125 18.367188 100.875 28.980469 107.761719 44.320312 C 109.984375 49.203125 111.359375 54.433594 111.820312 59.78125 C 111.941406 61.160156 112 62.578125 112 64 Z M 112 64 "/>
<path style=" stroke:none;fill-rule:nonzero;fill:rgb(81.960784%,82.745098%,83.137255%);fill-opacity:1;" d="M 122 96 C 122 97.105469 121.105469 98 120 98 C 118.894531 98 118 97.105469 118 96 C 118 94.894531 118.894531 94 120 94 C 121.105469 94 122 94.894531 122 96 Z M 122 96 "/>
<path style=" stroke:none;fill-rule:nonzero;fill:rgb(81.960784%,82.745098%,83.137255%);fill-opacity:1;" d="M 10 34 C 10 35.105469 9.105469 36 8 36 C 6.894531 36 6 35.105469 6 34 C 6 32.894531 6.894531 32 8 32 C 9.105469 32 10 32.894531 10 34 Z M 10 34 "/>
<path style=" stroke:none;fill-rule:nonzero;fill:rgb(90.196078%,90.588235%,90.980392%);fill-opacity:1;" d="M 92 34 C 92 37.3125 89.3125 40 86 40 C 82.6875 40 80 37.3125 80 34 C 80 30.6875 82.6875 28 86 28 C 89.3125 28 92 30.6875 92 34 Z M 92 34 "/>
<path style=" stroke:none;fill-rule:nonzero;fill:rgb(90.196078%,90.588235%,90.980392%);fill-opacity:1;" d="M 100 86 C 100 94.835938 92.835938 102 84 102 C 75.164062 102 68 94.835938 68 86 C 68 77.164062 75.164062 70 84 70 C 92.835938 70 100 77.164062 100 86 Z M 100 86 "/>
<path style=" stroke:none;fill-rule:nonzero;fill:rgb(90.196078%,90.588235%,90.980392%);fill-opacity:1;" d="M 64 16 C 65.925781 15.996094 67.847656 16.117188 69.761719 16.359375 C 69.921875 16.890625 70.003906 17.445312 70 18 C 70 21.3125 67.3125 24 64 24 C 60.6875 24 58 21.3125 58 18 C 57.996094 17.445312 58.078125 16.890625 58.238281 16.359375 C 60.152344 16.117188 62.074219 15.996094 64 16 Z M 64 16 "/>
<path style=" stroke:none;fill-rule:nonzero;fill:rgb(90.196078%,90.588235%,90.980392%);fill-opacity:1;" d="M 111.820312 59.78125 C 111.222656 59.925781 110.613281 60 110 60 C 106.019531 60 102.644531 57.074219 102.082031 53.132812 C 101.515625 49.191406 103.9375 45.433594 107.761719 44.320312 C 109.984375 49.203125 111.359375 54.433594 111.820312 59.78125 Z M 111.820312 59.78125 "/>
<path style=" stroke:none;fill-rule:nonzero;fill:rgb(90.196078%,90.588235%,90.980392%);fill-opacity:1;" d="M 64.941406 111.980469 C 64.640625 112 64.320312 112 64 112 C 59.34375 112.007812 54.714844 111.328125 50.261719 109.980469 C 50.082031 109.335938 49.996094 108.667969 50 108 C 50 104.640625 52.101562 101.636719 55.257812 100.484375 C 58.414062 99.332031 61.953125 100.277344 64.117188 102.847656 C 66.285156 105.417969 66.613281 109.066406 64.941406 111.980469 Z M 64.941406 111.980469 "/>
<path style=" stroke:none;fill-rule:nonzero;fill:rgb(90.196078%,90.588235%,90.980392%);fill-opacity:1;" d="M 76 52 C 76 53.105469 75.105469 54 74 54 C 72.894531 54 72 53.105469 72 52 C 72 50.894531 72.894531 50 74 50 C 75.105469 50 76 50.894531 76 52 Z M 76 52 "/>
<path style=" stroke:none;fill-rule:nonzero;fill:rgb(90.196078%,90.588235%,90.980392%);fill-opacity:1;" d="M 56 84 C 56 85.105469 55.105469 86 54 86 C 52.894531 86 52 85.105469 52 84 C 52 82.894531 52.894531 82 54 82 C 55.105469 82 56 82.894531 56 84 Z M 56 84 "/>
<path style=" stroke:none;fill-rule:nonzero;fill:rgb(90.196078%,90.588235%,90.980392%);fill-opacity:1;" d="M 50 68 C 50 70.210938 48.210938 72 46 72 C 43.789062 72 42 70.210938 42 68 C 42 65.789062 43.789062 64 46 64 C 48.210938 64 50 65.789062 50 68 Z M 50 68 "/>
<path style=" stroke:none;fill-rule:nonzero;fill:rgb(90.196078%,90.588235%,90.980392%);fill-opacity:1;" d="M 56 44 C 56 49.523438 51.523438 54 46 54 C 40.476562 54 36 49.523438 36 44 C 36 38.476562 40.476562 34 46 34 C 51.523438 34 56 38.476562 56 44 Z M 56 44 "/>
<path style=" stroke:none;fill-rule:nonzero;fill:rgb(90.196078%,90.588235%,90.980392%);fill-opacity:1;" d="M 24 58 C 24 59.105469 23.105469 60 22 60 C 20.894531 60 20 59.105469 20 58 C 20 56.894531 20.894531 56 22 56 C 23.105469 56 24 56.894531 24 58 Z M 24 58 "/>
<path style=" stroke:none;fill-rule:nonzero;fill:rgb(90.196078%,90.588235%,90.980392%);fill-opacity:1;" d="M 36 88 C 36.003906 92.332031 32.550781 95.875 28.21875 95.980469 C 25.203125 92.605469 22.675781 88.820312 20.71875 84.738281 C 22.253906 81.292969 25.992188 79.386719 29.683594 80.175781 C 33.371094 80.960938 36.007812 84.226562 36 88 Z M 36 88 "/>
<path style=" stroke:none;fill-rule:nonzero;fill:rgb(73.72549%,74.509804%,75.294118%);fill-opacity:1;" d="M 90.273438 14.511719 L 92.273438 11.046875 L 95.738281 13.046875 L 93.738281 16.511719 Z M 90.273438 14.511719 "/>
<path style=" stroke:none;fill-rule:nonzero;fill:rgb(73.72549%,74.509804%,75.294118%);fill-opacity:1;" d="M 102.171875 22.996094 L 104.996094 20.167969 L 107.824219 22.996094 L 104.996094 25.824219 Z M 102.171875 22.996094 "/>
<path style=" stroke:none;fill-rule:nonzero;fill:rgb(73.72549%,74.509804%,75.294118%);fill-opacity:1;" d="M 111.5 34.285156 L 114.960938 32.285156 L 116.960938 35.75 L 113.5 37.746094 Z M 111.5 34.285156 "/>
<path style=" stroke:none;fill-rule:nonzero;fill:rgb(73.72549%,74.509804%,75.294118%);fill-opacity:1;" d="M 117.589844 47.554688 L 121.453125 46.519531 L 122.492188 50.382812 L 118.628906 51.421875 Z M 117.589844 47.554688 "/>
<path style=" stroke:none;fill-rule:nonzero;fill:rgb(73.72549%,74.509804%,75.294118%);fill-opacity:1;" d="M 32.261719 114.972656 L 34.261719 111.507812 L 37.726562 113.507812 L 35.726562 116.972656 Z M 32.261719 114.972656 "/>
<path style=" stroke:none;fill-rule:nonzero;fill:rgb(73.72549%,74.509804%,75.294118%);fill-opacity:1;" d="M 20.144531 105.003906 L 22.972656 102.175781 L 25.800781 105.003906 L 22.972656 107.832031 Z M 20.144531 105.003906 "/>
<path style=" stroke:none;fill-rule:nonzero;fill:rgb(73.72549%,74.509804%,75.294118%);fill-opacity:1;" d="M 11.027344 92.273438 L 14.492188 90.273438 L 16.488281 93.738281 L 13.027344 95.734375 Z M 11.027344 92.273438 "/>
<path style=" stroke:none;fill-rule:nonzero;fill:rgb(73.72549%,74.509804%,75.294118%);fill-opacity:1;" d="M 5.539062 77.601562 L 9.40625 76.566406 L 10.441406 80.429688 L 6.578125 81.464844 Z M 5.539062 77.601562 "/>
<path style=" stroke:none;fill-rule:nonzero;fill:rgb(100%,59.607843%,6.666667%);fill-opacity:1;" d="M 16 8 L 12 8 L 12 4 L 8 4 L 8 8 L 4 8 L 4 12 L 8 12 L 8 16 L 12 16 L 12 12 L 16 12 Z M 16 8 "/>
<path style=" stroke:none;fill-rule:nonzero;fill:rgb(93.333333%,52.941176%,0%);fill-opacity:1;" d="M 118 110 L 114 110 L 114 106 L 110 106 L 110 110 L 106 110 L 106 114 L 110 114 L 110 118 L 114 118 L 114 114 L 118 114 Z M 118 110 "/>
<path style=" stroke:none;fill-rule:nonzero;fill:rgb(100%,65.490196%,20%);fill-opacity:1;" d="M 118 6 L 122 6 L 122 10 L 118 10 Z M 118 6 "/>
<path style=" stroke:none;fill-rule:nonzero;fill:rgb(93.333333%,52.941176%,0%);fill-opacity:1;" d="M 32 8 L 36 8 L 36 12 L 32 12 Z M 32 8 "/>
<path style=" stroke:none;fill-rule:nonzero;fill:rgb(93.333333%,52.941176%,0%);fill-opacity:1;" d="M 62 4 L 66 4 L 66 8 L 62 8 Z M 62 4 "/>
<path style=" stroke:none;fill-rule:nonzero;fill:rgb(93.333333%,52.941176%,0%);fill-opacity:1;" d="M 90 120 L 94 120 L 94 124 L 90 124 Z M 90 120 "/>
<path style=" stroke:none;fill-rule:nonzero;fill:rgb(100%,65.490196%,20%);fill-opacity:1;" d="M 120 100 C 117.789062 100 116 98.210938 116 96 C 116 93.789062 117.789062 92 120 92 C 122.210938 92 124 93.789062 124 96 C 124 98.210938 122.210938 100 120 100 Z M 120 100 "/>
<path style=" stroke:none;fill-rule:nonzero;fill:rgb(100%,65.490196%,20%);fill-opacity:1;" d="M 8 38 C 5.789062 38 4 36.210938 4 34 C 4 31.789062 5.789062 30 8 30 C 10.210938 30 12 31.789062 12 34 C 12 36.210938 10.210938 38 8 38 Z M 8 38 "/>
</g>
</svg>
