<?xml version="1.0" encoding="UTF-8"?>
<svg xmlns="http://www.w3.org/2000/svg" xmlns:xlink="http://www.w3.org/1999/xlink" width="1500pt" height="1000pt" viewBox="0 0 1500 1000" version="1.1">
<g id="surface1">
<path style=" stroke:none;fill-rule:nonzero;fill:rgb(0%,80%,70.196078%);fill-opacity:1;" d="M 562.5 187.5 L 562.5 250 L 468.75 312.5 L 468.75 375 L 375 437.5 L 304.6875 437.5 L 304.6875 484.375 L 421.875 562.5 L 421.875 609.375 L 351.5625 656.25 L 351.5625 703.125 L 254.53125 767.8125 C 144.339844 672.945312 97.445312 552.0625 124.832031 433.472656 C 152.21875 314.882812 251.480469 209.003906 399.375 140.625 L 492.1875 140.625 Z M 562.5 187.5 "/>
<path style=" stroke:none;fill-rule:nonzero;fill:rgb(0%,80%,70.196078%);fill-opacity:1;" d="M 914.0625 656.25 L 914.0625 718.75 L 867.1875 750 L 867.1875 812.5 L 796.875 859.375 L 796.875 937.03125 C 789.140625 937.34375 781.40625 937.5 773.4375 937.5 C 749.949219 937.535156 726.476562 936.703125 703.125 935 L 703.125 812.5 L 656.25 781.25 L 656.25 718.75 L 562.5 718.75 L 515.625 687.5 L 515.625 640.625 L 609.375 578.125 L 796.875 578.125 Z M 914.0625 656.25 "/>
<path style=" stroke:none;fill-rule:nonzero;fill:rgb(23.921569%,60.392157%,88.627451%);fill-opacity:1;" d="M 1195.3125 734.375 L 1195.3125 835.15625 C 1083.355469 897.898438 943.050781 933.773438 796.875 937.03125 L 796.875 859.375 L 867.1875 812.5 L 867.1875 750 L 914.0625 718.75 L 914.0625 656.25 L 796.875 578.125 L 609.375 578.125 L 515.625 640.625 L 515.625 687.5 L 562.5 718.75 L 656.25 718.75 L 656.25 781.25 L 703.125 812.5 L 703.125 935 C 525.699219 922.285156 363.707031 861.914062 254.53125 767.8125 L 351.5625 703.125 L 351.5625 656.25 L 421.875 609.375 L 421.875 562.5 L 304.6875 484.375 L 304.6875 437.5 L 375 437.5 L 468.75 375 L 468.75 312.5 L 562.5 250 L 562.5 187.5 L 492.1875 140.625 L 399.375 140.625 C 489.46875 98.78125 593.941406 72.769531 703.125 65 L 703.125 187.5 L 796.875 250 L 914.0625 250 L 1031.25 328.125 L 1031.25 421.875 L 984.375 453.125 L 984.375 515.625 L 1078.125 578.125 L 1078.125 656.25 Z M 1195.3125 734.375 "/>
<path style=" stroke:none;fill-rule:nonzero;fill:rgb(0%,80%,70.196078%);fill-opacity:1;" d="M 914.0625 390.625 L 914.0625 437.5 L 867.1875 468.75 L 820.3125 468.75 L 820.3125 406.25 L 773.4375 375 L 773.4375 343.75 L 914.0625 343.75 Z M 914.0625 390.625 "/>
<path style=" stroke:none;fill-rule:nonzero;fill:rgb(0%,80%,70.196078%);fill-opacity:1;" d="M 773.4375 62.5 C 1049.339844 62.480469 1295.796875 177.511719 1390.171875 350.355469 C 1484.542969 523.195312 1406.675781 716.929688 1195.3125 835.15625 L 1195.3125 734.375 L 1078.125 656.25 L 1078.125 578.125 L 984.375 515.625 L 984.375 453.125 L 1031.25 421.875 L 1031.25 328.125 L 914.0625 250 L 796.875 250 L 703.125 187.5 L 703.125 65 C 726.476562 63.296875 749.949219 62.464844 773.4375 62.5 Z M 773.4375 62.5 "/>
<path style=" stroke:none;fill-rule:nonzero;fill:rgb(23.921569%,60.392157%,88.627451%);fill-opacity:1;" d="M 366.410156 61.273438 L 407.003906 45.648438 L 430.441406 72.710938 L 389.847656 88.335938 Z M 366.410156 61.273438 "/>
<path style=" stroke:none;fill-rule:nonzero;fill:rgb(23.921569%,60.392157%,88.627451%);fill-opacity:1;" d="M 209.941406 146.453125 L 243.082031 124.359375 L 276.222656 146.453125 L 243.082031 168.546875 Z M 209.941406 146.453125 "/>
<path style=" stroke:none;fill-rule:nonzero;fill:rgb(23.921569%,60.392157%,88.627451%);fill-opacity:1;" d="M 91.886719 255.710938 L 115.324219 228.648438 L 155.917969 244.273438 L 132.480469 271.335938 Z M 91.886719 255.710938 "/>
<path style=" stroke:none;fill-rule:nonzero;fill:rgb(23.921569%,60.392157%,88.627451%);fill-opacity:1;" d="M 91.980469 744.226562 L 132.574219 728.601562 L 156.011719 755.664062 L 115.417969 771.289062 Z M 91.980469 744.226562 "/>
<path style=" stroke:none;fill-rule:nonzero;fill:rgb(23.921569%,60.392157%,88.627451%);fill-opacity:1;" d="M 209.828125 853.488281 L 242.96875 831.394531 L 276.109375 853.488281 L 242.96875 875.582031 Z M 209.828125 853.488281 "/>
<path style=" stroke:none;fill-rule:nonzero;fill:rgb(23.921569%,60.392157%,88.627451%);fill-opacity:1;" d="M 366.34375 938.8125 L 389.78125 911.75 L 430.375 927.375 L 406.9375 954.4375 Z M 366.34375 938.8125 "/>
<path style=" stroke:none;fill-rule:nonzero;fill:rgb(23.921569%,60.392157%,88.627451%);fill-opacity:1;" d="M 1116.386719 927.304688 L 1156.980469 911.679688 L 1180.417969 938.742188 L 1139.824219 954.367188 Z M 1116.386719 927.304688 "/>
<path style=" stroke:none;fill-rule:nonzero;fill:rgb(23.921569%,60.392157%,88.627451%);fill-opacity:1;" d="M 1270.359375 853.5625 L 1303.5 831.46875 L 1336.640625 853.5625 L 1303.5 875.65625 Z M 1270.359375 853.5625 "/>
<path style=" stroke:none;fill-rule:nonzero;fill:rgb(23.921569%,60.392157%,88.627451%);fill-opacity:1;" d="M 1390.875 755.726562 L 1414.3125 728.664062 L 1454.90625 744.289062 L 1431.46875 771.351562 Z M 1390.875 755.726562 "/>
<path style=" stroke:none;fill-rule:nonzero;fill:rgb(23.921569%,60.392157%,88.627451%);fill-opacity:1;" d="M 1390.863281 244.179688 L 1431.457031 228.554688 L 1454.894531 255.617188 L 1414.300781 271.242188 Z M 1390.863281 244.179688 "/>
<path style=" stroke:none;fill-rule:nonzero;fill:rgb(23.921569%,60.392157%,88.627451%);fill-opacity:1;" d="M 1270.492188 146.527344 L 1303.632812 124.433594 L 1336.773438 146.527344 L 1303.632812 168.621094 Z M 1270.492188 146.527344 "/>
<path style=" stroke:none;fill-rule:nonzero;fill:rgb(23.921569%,60.392157%,88.627451%);fill-opacity:1;" d="M 1116.503906 72.773438 L 1139.941406 45.710938 L 1180.535156 61.335938 L 1157.097656 88.398438 Z M 1116.503906 72.773438 "/>
</g>
</svg>
