<?xml version="1.0" encoding="UTF-8"?>
<svg xmlns="http://www.w3.org/2000/svg" xmlns:xlink="http://www.w3.org/1999/xlink" width="800pt" height="800pt" viewBox="0 0 800 800" version="1.1">
<g id="surface1">
<path style=" stroke:none;fill-rule:nonzero;fill:rgb(81.960784%,82.745098%,83.137255%);fill-opacity:1;" d="M 687.5 462.5 C 687.464844 625.871094 556.714844 759.175781 393.375 762.375 C 391.5 762.5 389.5 762.5 387.5 762.5 C 358.410156 762.550781 329.46875 758.296875 301.625 749.875 C 165.453125 709.242188 76.492188 578.617188 88.5625 437.027344 C 100.628906 295.433594 210.414062 181.75 351.5 164.75 C 375.40625 161.75 399.59375 161.75 423.5 164.75 C 449.761719 167.839844 475.492188 174.4375 500 184.375 C 508.5 187.875 516.875 191.625 525 195.875 C 533.5 200.25 541.875 205.125 550 210.375 C 558.625 216 567 222 575 228.375 C 612.046875 258.097656 641.519531 296.183594 661 339.5 C 674.90625 370.027344 683.488281 402.707031 686.375 436.125 C 687.125 444.75 687.5 453.625 687.5 462.5 Z M 687.5 462.5 "/>
<path style=" stroke:none;fill-rule:nonzero;fill:rgb(90.196078%,90.588235%,90.980392%);fill-opacity:1;" d="M 686.375 436.125 C 682.648438 437.027344 678.832031 437.488281 675 437.5 C 650.117188 437.5 629.019531 419.203125 625.503906 394.570312 C 621.984375 369.9375 637.113281 346.46875 661 339.5 C 674.90625 370.027344 683.488281 402.707031 686.375 436.125 Z M 686.375 436.125 "/>
<path style=" stroke:none;fill-rule:nonzero;fill:rgb(90.196078%,90.588235%,90.980392%);fill-opacity:1;" d="M 212.5 612.5 C 212.527344 639.574219 190.9375 661.714844 163.875 662.375 C 145.011719 641.289062 129.230469 617.636719 117 592.125 C 126.578125 570.570312 149.941406 558.664062 173.011719 563.585938 C 196.082031 568.507812 212.550781 588.910156 212.5 612.5 Z M 212.5 612.5 "/>
<path style=" stroke:none;fill-rule:nonzero;fill:rgb(90.196078%,90.588235%,90.980392%);fill-opacity:1;" d="M 612.5 600 C 612.5 655.226562 567.726562 700 512.5 700 C 457.273438 700 412.5 655.226562 412.5 600 C 412.5 544.773438 457.273438 500 512.5 500 C 567.726562 500 612.5 544.773438 612.5 600 Z M 612.5 600 "/>
<path style=" stroke:none;fill-rule:nonzero;fill:rgb(90.196078%,90.588235%,90.980392%);fill-opacity:1;" d="M 325 325 C 325 359.519531 297.019531 387.5 262.5 387.5 C 227.980469 387.5 200 359.519531 200 325 C 200 290.480469 227.980469 262.5 262.5 262.5 C 297.019531 262.5 325 290.480469 325 325 Z M 325 325 "/>
<path style=" stroke:none;fill-rule:nonzero;fill:rgb(90.196078%,90.588235%,90.980392%);fill-opacity:1;" d="M 393.375 762.375 C 391.5 762.5 389.5 762.5 387.5 762.5 C 358.410156 762.550781 329.46875 758.296875 301.625 749.875 C 300.515625 745.84375 299.96875 741.679688 300 737.5 C 300 716.5 313.125 697.734375 332.855469 690.535156 C 352.582031 683.332031 374.707031 689.226562 388.238281 705.289062 C 401.769531 721.351562 403.820312 744.15625 393.375 762.375 Z M 393.375 762.375 "/>
<path style=" stroke:none;fill-rule:nonzero;fill:rgb(90.196078%,90.588235%,90.980392%);fill-opacity:1;" d="M 300 487.5 C 300 501.308594 288.808594 512.5 275 512.5 C 261.191406 512.5 250 501.308594 250 487.5 C 250 473.691406 261.191406 462.5 275 462.5 C 288.808594 462.5 300 473.691406 300 487.5 Z M 300 487.5 "/>
<path style=" stroke:none;fill-rule:nonzero;fill:rgb(90.196078%,90.588235%,90.980392%);fill-opacity:1;" d="M 437.5 412.5 C 437.5 419.402344 431.902344 425 425 425 C 418.097656 425 412.5 419.402344 412.5 412.5 C 412.5 405.597656 418.097656 400 425 400 C 431.902344 400 437.5 405.597656 437.5 412.5 Z M 437.5 412.5 "/>
<path style=" stroke:none;fill-rule:nonzero;fill:rgb(90.196078%,90.588235%,90.980392%);fill-opacity:1;" d="M 450 225 C 450 245.710938 433.210938 262.5 412.5 262.5 C 391.789062 262.5 375 245.710938 375 225 C 375 204.289062 391.789062 187.5 412.5 187.5 C 433.210938 187.5 450 204.289062 450 225 Z M 450 225 "/>
<path style=" stroke:none;fill-rule:nonzero;fill:rgb(90.196078%,90.588235%,90.980392%);fill-opacity:1;" d="M 337.5 587.5 C 337.5 594.402344 331.902344 600 325 600 C 318.097656 600 312.5 594.402344 312.5 587.5 C 312.5 580.597656 318.097656 575 325 575 C 331.902344 575 337.5 580.597656 337.5 587.5 Z M 337.5 587.5 "/>
<path style=" stroke:none;fill-rule:nonzero;fill:rgb(90.196078%,90.588235%,90.980392%);fill-opacity:1;" d="M 137.5 425 C 137.5 431.902344 131.902344 437.5 125 437.5 C 118.097656 437.5 112.5 431.902344 112.5 425 C 112.5 418.097656 118.097656 412.5 125 412.5 C 131.902344 412.5 137.5 418.097656 137.5 425 Z M 137.5 425 "/>
<path style=" stroke:none;fill-rule:nonzero;fill:rgb(73.72549%,74.509804%,75.294118%);fill-opacity:1;" d="M 575 228.375 L 575 412.5 L 525 412.5 L 525 195.875 C 533.5 200.25 541.875 205.125 550 210.375 C 558.625 216 567 222 575 228.375 Z M 575 228.375 "/>
<path style=" stroke:none;fill-rule:nonzero;fill:rgb(93.333333%,52.941176%,0%);fill-opacity:1;" d="M 500 37.5 L 500 412.5 L 550 412.5 L 550 37.5 Z M 500 37.5 "/>
<path style=" stroke:none;fill-rule:nonzero;fill:rgb(100%,31.372549%,13.72549%);fill-opacity:1;" d="M 750 37.5 L 700 112.5 L 750 187.5 L 550 187.5 L 550 37.5 Z M 750 37.5 "/>
<path style=" stroke:none;fill-rule:nonzero;fill:rgb(93.333333%,52.941176%,0%);fill-opacity:1;" d="M 575 750 L 600 750 L 600 775 L 575 775 Z M 575 750 "/>
<path style=" stroke:none;fill-rule:nonzero;fill:rgb(93.333333%,52.941176%,0%);fill-opacity:1;" d="M 750 687.5 L 725 687.5 L 725 662.5 L 700 662.5 L 700 687.5 L 675 687.5 L 675 712.5 L 700 712.5 L 700 737.5 L 725 737.5 L 725 712.5 L 750 712.5 Z M 750 687.5 "/>
<path style=" stroke:none;fill-rule:nonzero;fill:rgb(93.333333%,52.941176%,0%);fill-opacity:1;" d="M 75 25 L 50 25 L 50 50 L 25 50 L 25 75 L 50 75 L 50 100 L 75 100 L 75 75 L 100 75 L 100 50 L 75 50 Z M 75 25 "/>
<path style=" stroke:none;fill-rule:nonzero;fill:rgb(100%,65.490196%,20%);fill-opacity:1;" d="M 200 50 L 225 50 L 225 75 L 200 75 Z M 200 50 "/>
<path style=" stroke:none;fill-rule:nonzero;fill:rgb(93.333333%,52.941176%,0%);fill-opacity:1;" d="M 100 175 L 125 175 L 125 200 L 100 200 Z M 100 175 "/>
<path style=" stroke:none;fill-rule:nonzero;fill:rgb(93.333333%,52.941176%,0%);fill-opacity:1;" d="M 312.5 100 L 337.5 100 L 337.5 125 L 312.5 125 Z M 312.5 100 "/>
<path style=" stroke:none;fill-rule:nonzero;fill:rgb(100%,65.490196%,20%);fill-opacity:1;" d="M 25 662.5 L 50 662.5 L 50 687.5 L 25 687.5 Z M 25 662.5 "/>
<path style=" stroke:none;fill-rule:nonzero;fill:rgb(100%,71.372549%,33.333333%);fill-opacity:1;" d="M 100 725 L 125 725 L 125 750 L 100 750 Z M 100 725 "/>
<path style=" stroke:none;fill-rule:nonzero;fill:rgb(100%,71.372549%,33.333333%);fill-opacity:1;" d="M 725 287.5 L 750 287.5 L 750 312.5 L 725 312.5 Z M 725 287.5 "/>
<path style=" stroke:none;fill-rule:nonzero;fill:rgb(100%,65.490196%,20%);fill-opacity:1;" d="M 750 462.5 L 775 462.5 L 775 487.5 L 750 487.5 Z M 750 462.5 "/>
</g>
</svg>
