<?xml version="1.0" encoding="UTF-8"?>
<svg xmlns="http://www.w3.org/2000/svg" xmlns:xlink="http://www.w3.org/1999/xlink" width="1200pt" height="800pt" viewBox="0 0 1200 800" version="1.1">
<g id="surface1">
<path style=" stroke:none;fill-rule:nonzero;fill:rgb(23.921569%,60.392157%,88.627451%);fill-opacity:1;" d="M 956.25 600 L 956.25 680.625 C 866.683594 730.816406 754.441406 759.515625 637.5 762.125 L 637.5 700 L 693.75 662.5 L 693.75 612.5 L 731.25 587.5 L 731.25 537.5 L 637.5 475 L 487.5 475 L 412.5 525 L 412.5 562.5 L 450 587.5 L 525 587.5 L 525 637.5 L 562.5 662.5 L 562.5 760.5 C 420.558594 750.328125 290.96875 702.03125 203.625 626.75 L 281.25 575 L 281.25 537.5 L 337.5 500 L 337.5 462.5 L 243.75 400 L 243.75 362.5 L 300 362.5 L 338.4375 337 L 347.4375 330.875 L 375 312.5 L 375 262.5 L 450 212.5 L 450 162.5 L 393.75 125 L 319.5 125 C 357.425781 107.253906 398.808594 93.039062 442.5 82.75 C 451.6875 80.5 461.0625 78.5 470.4375 76.625 C 500.53125 70.789062 531.335938 66.730469 562.5 64.5 L 562.5 162.5 L 637.5 212.5 L 731.25 212.5 L 825 275 L 825 350 L 787.5 375 L 787.5 425 L 862.5 475 L 862.5 537.5 Z M 956.25 600 "/>
<path style=" stroke:none;fill-rule:nonzero;fill:rgb(0%,80%,70.196078%);fill-opacity:1;" d="M 450 162.5 L 450 212.5 L 375 262.5 L 375 312.5 L 347.4375 330.875 L 338.4375 337 L 300 362.5 L 243.75 362.5 L 243.75 400 L 337.5 462.5 L 337.5 500 L 281.25 537.5 L 281.25 575 L 203.625 626.75 C 94.125 532.402344 64.167969 407.394531 124.125 295 C 127.6875 288.25 131.625 281.625 135.9375 275 C 152.152344 249.574219 172.859375 225.527344 197.625 203.375 L 199.875 201.5 C 233.492188 171.976562 273.859375 146.164062 319.5 125 L 393.75 125 Z M 450 162.5 "/>
<path style=" stroke:none;fill-rule:nonzero;fill:rgb(11.764706%,50.588235%,80.784314%);fill-opacity:1;" d="M 543.75 187.5 C 543.832031 253.367188 479.386719 311.546875 384.9375 330.875 C 369.808594 334.015625 354.222656 336.070312 338.4375 337 L 347.4375 330.875 C 441.886719 311.546875 506.332031 253.367188 506.25 187.5 C 506.121094 148.402344 483.273438 110.855469 442.5 82.75 C 451.6875 80.5 461.0625 78.5 470.4375 76.625 C 473.625 78.625 476.8125 80.625 480 82.75 C 520.773438 110.855469 543.621094 148.402344 543.75 187.5 Z M 543.75 187.5 "/>
<path style=" stroke:none;fill-rule:nonzero;fill:rgb(0%,80%,70.196078%);fill-opacity:1;" d="M 731.25 537.5 L 731.25 587.5 L 693.75 612.5 L 693.75 662.5 L 637.5 700 L 637.5 762.125 C 631.3125 762.375 625.125 762.5 618.75 762.5 C 599.957031 762.53125 581.179688 761.863281 562.5 760.5 L 562.5 662.5 L 525 637.5 L 525 587.5 L 450 587.5 L 412.5 562.5 L 412.5 525 L 487.5 475 L 637.5 475 Z M 731.25 537.5 "/>
<path style=" stroke:none;fill-rule:nonzero;fill:rgb(0%,80%,70.196078%);fill-opacity:1;" d="M 731.25 325 L 731.25 362.5 L 693.75 387.5 L 656.25 387.5 L 656.25 337.5 L 618.75 312.5 L 618.75 287.5 L 731.25 287.5 Z M 731.25 325 "/>
<path style=" stroke:none;fill-rule:nonzero;fill:rgb(0%,80%,70.196078%);fill-opacity:1;" d="M 618.75 62.5 C 839.472656 62.484375 1036.640625 154.511719 1112.136719 292.78125 C 1187.632812 431.054688 1125.339844 586.042969 956.25 680.625 L 956.25 600 L 862.5 537.5 L 862.5 475 L 787.5 425 L 787.5 375 L 825 350 L 825 275 L 731.25 212.5 L 637.5 212.5 L 562.5 162.5 L 562.5 64.5 C 581.179688 63.136719 599.957031 62.46875 618.75 62.5 Z M 618.75 62.5 "/>
<path style=" stroke:none;fill-rule:nonzero;fill:rgb(0%,70.196078%,61.568627%);fill-opacity:1;" d="M 347.4375 330.875 L 338.4375 337 C 331.875 337.375 325.3125 337.5 318.75 337.5 C 312.5625 337.5 306.375 337.375 300.1875 337 C 316.230469 336.128906 332.074219 334.078125 347.4375 330.875 Z M 347.4375 330.875 "/>
<path style=" stroke:none;fill-rule:nonzero;fill:rgb(81.960784%,82.745098%,83.137255%);fill-opacity:1;" d="M 506.25 187.5 C 506.25 191.75 506.0625 195.875 505.5 200 C 497.84375 261.050781 435.269531 312.863281 347.4375 330.875 C 326.011719 335.320312 303.691406 337.554688 281.25 337.5 C 222.5625 337.546875 166.171875 322.292969 124.125 295 C 120.5625 292.625 117 290.125 113.625 287.5 C 108.203125 283.535156 103.132812 279.359375 98.4375 275 C 94.085938 271.015625 90.136719 266.839844 86.625 262.5 C 46.125 216.144531 46.125 158.855469 86.625 112.5 C 90.136719 108.160156 94.085938 103.984375 98.4375 100 C 103.125 95.625 108.1875 91.5 113.4375 87.5 C 163.882812 49.609375 239.664062 31.3125 314.804688 38.882812 C 389.941406 46.453125 454.230469 78.863281 485.625 125 C 488.570312 129.058594 491.140625 133.230469 493.3125 137.5 C 495.5625 141.625 497.4375 145.75 499.125 150 C 502.324219 158.195312 504.457031 166.558594 505.5 175 C 506.0625 179.125 506.25 183.25 506.25 187.5 Z M 506.25 187.5 "/>
<path style=" stroke:none;fill-rule:nonzero;fill:rgb(90.196078%,90.588235%,90.980392%);fill-opacity:1;" d="M 409.125 239.75 C 404.316406 238.242188 399.0625 237.472656 393.75 237.5 C 374.449219 237.425781 358.171875 247.074219 356.035156 259.863281 C 353.894531 272.652344 366.585938 284.457031 385.4375 287.214844 C 404.292969 289.972656 423.230469 282.800781 429.324219 270.589844 C 435.417969 258.378906 426.699219 245.070312 409.125 239.75 Z M 409.125 239.75 "/>
<path style=" stroke:none;fill-rule:nonzero;fill:rgb(90.196078%,90.588235%,90.980392%);fill-opacity:1;" d="M 206.25 187.5 C 206.296875 192.488281 204.074219 197.371094 199.875 201.5 L 197.625 203.375 C 190.554688 209.164062 179.945312 212.515625 168.75 212.5 C 148.039062 212.5 131.25 201.308594 131.25 187.5 C 131.25 173.691406 148.039062 162.5 168.75 162.5 C 189.460938 162.5 206.25 173.691406 206.25 187.5 Z M 206.25 187.5 "/>
<path style=" stroke:none;fill-rule:nonzero;fill:rgb(50.196078%,50.980392%,52.156863%);fill-opacity:1;" d="M 206.25 87.5 L 206.25 112.5 L 86.625 112.5 C 90.136719 108.160156 94.085938 103.984375 98.4375 100 C 103.125 95.625 108.1875 91.5 113.4375 87.5 Z M 206.25 87.5 "/>
<path style=" stroke:none;fill-rule:nonzero;fill:rgb(50.196078%,50.980392%,52.156863%);fill-opacity:1;" d="M 499.125 150 L 375 150 L 375 125 L 485.625 125 C 488.570312 129.058594 491.140625 133.230469 493.3125 137.5 C 495.5625 141.625 497.4375 145.75 499.125 150 Z M 499.125 150 "/>
<path style=" stroke:none;fill-rule:nonzero;fill:rgb(50.196078%,50.980392%,52.156863%);fill-opacity:1;" d="M 506.25 187.5 C 506.25 191.75 506.0625 195.875 505.5 200 L 337.5 200 L 337.5 175 L 505.5 175 C 506.0625 179.125 506.25 183.25 506.25 187.5 Z M 506.25 187.5 "/>
<path style=" stroke:none;fill-rule:nonzero;fill:rgb(50.196078%,50.980392%,52.156863%);fill-opacity:1;" d="M 262.5 262.5 L 262.5 287.5 L 113.625 287.5 C 108.203125 283.535156 103.132812 279.359375 98.4375 275 C 94.085938 271.015625 90.136719 266.839844 86.625 262.5 Z M 262.5 262.5 "/>
<path style=" stroke:none;fill-rule:nonzero;fill:rgb(57.647059%,58.431373%,59.607843%);fill-opacity:1;" d="M 168.75 225 C 137.683594 225 112.5 208.210938 112.5 187.5 C 112.5 166.789062 137.683594 150 168.75 150 C 199.816406 150 225 166.789062 225 187.5 C 225 208.210938 199.816406 225 168.75 225 Z M 168.75 175 C 158.394531 175 150 180.597656 150 187.5 C 150 194.402344 158.394531 200 168.75 200 C 179.105469 200 187.5 194.402344 187.5 187.5 C 187.5 180.597656 179.105469 175 168.75 175 Z M 168.75 175 "/>
<path style=" stroke:none;fill-rule:nonzero;fill:rgb(65.490196%,66.27451%,67.45098%);fill-opacity:1;" d="M 393.75 300 C 362.683594 300 337.5 283.210938 337.5 262.5 C 337.5 241.789062 362.683594 225 393.75 225 C 424.816406 225 450 241.789062 450 262.5 L 412.5 262.5 C 412.5 255.597656 404.105469 250 393.75 250 C 383.394531 250 375 255.597656 375 262.5 C 375 269.402344 383.394531 275 393.75 275 Z M 393.75 300 "/>
<path style=" stroke:none;fill-rule:nonzero;fill:rgb(50.196078%,50.980392%,52.156863%);fill-opacity:1;" d="M 281.25 87.5 L 356.25 87.5 L 356.25 112.5 L 281.25 112.5 Z M 281.25 87.5 "/>
<path style=" stroke:none;fill-rule:nonzero;fill:rgb(93.333333%,52.941176%,0%);fill-opacity:1;" d="M 1162.5 50 L 1125 50 L 1125 25 L 1087.5 25 L 1087.5 50 L 1050 50 L 1050 75 L 1087.5 75 L 1087.5 100 L 1125 100 L 1125 75 L 1162.5 75 Z M 1162.5 50 "/>
<path style=" stroke:none;fill-rule:nonzero;fill:rgb(93.333333%,52.941176%,0%);fill-opacity:1;" d="M 900 25 L 937.5 25 L 937.5 50 L 900 50 Z M 900 25 "/>
<path style=" stroke:none;fill-rule:nonzero;fill:rgb(100%,59.607843%,6.666667%);fill-opacity:1;" d="M 1087.5 162.5 L 1125 162.5 L 1125 187.5 L 1087.5 187.5 Z M 1087.5 162.5 "/>
<path style=" stroke:none;fill-rule:nonzero;fill:rgb(100%,59.607843%,6.666667%);fill-opacity:1;" d="M 1087.5 725 L 1125 725 L 1125 750 L 1087.5 750 Z M 1087.5 725 "/>
<path style=" stroke:none;fill-rule:nonzero;fill:rgb(100%,65.490196%,20%);fill-opacity:1;" d="M 1125 637.5 L 1162.5 637.5 L 1162.5 662.5 L 1125 662.5 Z M 1125 637.5 "/>
<path style=" stroke:none;fill-rule:nonzero;fill:rgb(100%,65.490196%,20%);fill-opacity:1;" d="M 918.75 750 L 956.25 750 L 956.25 775 L 918.75 775 Z M 918.75 750 "/>
<path style=" stroke:none;fill-rule:nonzero;fill:rgb(100%,65.490196%,20%);fill-opacity:1;" d="M 75 700 L 112.5 700 L 112.5 725 L 75 725 Z M 75 700 "/>
<path style=" stroke:none;fill-rule:nonzero;fill:rgb(93.333333%,52.941176%,0%);fill-opacity:1;" d="M 225 750 L 262.5 750 L 262.5 775 L 225 775 Z M 225 750 "/>
<path style=" stroke:none;fill-rule:nonzero;fill:rgb(93.333333%,52.941176%,0%);fill-opacity:1;" d="M 37.5 600 L 75 600 L 75 625 L 37.5 625 Z M 37.5 600 "/>
</g>
</svg>
