<?xml version="1.0" encoding="UTF-8"?>
<svg xmlns="http://www.w3.org/2000/svg" xmlns:xlink="http://www.w3.org/1999/xlink" width="500pt" height="500pt" viewBox="0 0 500 500" version="1.1">
<g id="surface1">
<path style=" stroke:none;fill-rule:nonzero;fill:rgb(93.333333%,52.941176%,0%);fill-opacity:1;" d="M 445.3125 250 C 445.335938 295.222656 415.414062 334.996094 371.953125 347.5 L 371.953125 347.578125 C 362.785156 350.21875 353.292969 351.558594 343.75 351.5625 C 340.382812 351.578125 337.015625 351.398438 333.671875 351.015625 C 281.757812 345.839844 242.210938 302.171875 242.1875 250 C 242.1875 249.0625 242.1875 248.203125 242.265625 247.265625 C 242.710938 229.257812 247.972656 211.695312 257.5 196.40625 L 257.578125 196.40625 C 281.496094 157.878906 328.070312 139.890625 371.675781 152.339844 C 415.28125 164.789062 445.339844 204.652344 445.3125 250 Z M 445.3125 250 "/>
<path style=" stroke:none;fill-rule:nonzero;fill:rgb(100%,71.372549%,33.333333%);fill-opacity:1;" d="M 414.0625 218.75 C 414.0625 236.007812 400.070312 250 382.8125 250 C 365.554688 250 351.5625 236.007812 351.5625 218.75 C 351.5625 201.492188 365.554688 187.5 382.8125 187.5 C 400.070312 187.5 414.0625 201.492188 414.0625 218.75 Z M 414.0625 218.75 "/>
<path style=" stroke:none;fill-rule:nonzero;fill:rgb(100%,71.372549%,33.333333%);fill-opacity:1;" d="M 375 335.9375 C 374.972656 339.988281 373.925781 343.964844 371.953125 347.5 L 371.953125 347.578125 C 362.785156 350.21875 353.292969 351.558594 343.75 351.5625 C 340.382812 351.578125 337.015625 351.398438 333.671875 351.015625 C 326.96875 343.097656 326.273438 331.710938 331.957031 323.035156 C 337.640625 314.355469 348.355469 310.445312 358.292969 313.425781 C 368.230469 316.402344 375.027344 325.5625 375 335.9375 Z M 375 335.9375 "/>
<path style=" stroke:none;fill-rule:nonzero;fill:rgb(100%,71.372549%,33.333333%);fill-opacity:1;" d="M 265.625 195.3125 C 280.011719 195.289062 292.554688 205.09375 296.011719 219.0625 C 299.464844 233.027344 292.933594 247.546875 280.195312 254.234375 C 267.457031 260.917969 251.796875 258.042969 242.265625 247.265625 C 242.710938 229.257812 247.972656 211.695312 257.5 196.40625 L 257.578125 196.40625 C 260.199219 195.683594 262.90625 195.316406 265.625 195.3125 Z M 265.625 195.3125 "/>
<path style=" stroke:none;fill-rule:nonzero;fill:rgb(80%,45.490196%,0%);fill-opacity:1;" d="M 343.75 390.625 L 15.625 390.625 L 15.625 375 L 343.75 375 C 412.785156 375 468.75 319.035156 468.75 250 C 468.75 180.964844 412.785156 125 343.75 125 L 93.75 125 L 93.75 109.375 L 343.75 109.375 C 421.414062 109.375 484.375 172.335938 484.375 250 C 484.375 327.664062 421.414062 390.625 343.75 390.625 Z M 343.75 390.625 "/>
<path style=" stroke:none;fill-rule:nonzero;fill:rgb(100%,59.607843%,6.666667%);fill-opacity:1;" d="M 375 273.4375 L 390.625 273.4375 L 390.625 289.0625 L 375 289.0625 Z M 375 273.4375 "/>
<path style=" stroke:none;fill-rule:nonzero;fill:rgb(100%,59.607843%,6.666667%);fill-opacity:1;" d="M 296.875 281.25 L 312.5 281.25 L 312.5 296.875 L 296.875 296.875 Z M 296.875 281.25 "/>
<path style=" stroke:none;fill-rule:nonzero;fill:rgb(100%,59.607843%,6.666667%);fill-opacity:1;" d="M 312.5 171.875 L 328.125 171.875 L 328.125 187.5 L 312.5 187.5 Z M 312.5 171.875 "/>
<path style=" stroke:none;fill-rule:nonzero;fill:rgb(100%,59.607843%,6.666667%);fill-opacity:1;" d="M 320.3125 250 L 335.9375 250 L 335.9375 265.625 L 320.3125 265.625 Z M 320.3125 250 "/>
<path style=" stroke:none;fill-rule:nonzero;fill:rgb(93.333333%,52.941176%,0%);fill-opacity:1;" d="M 234.375 187.5 C 223.394531 187.574219 212.613281 184.535156 203.289062 178.734375 C 188.882812 169.589844 170.492188 169.589844 156.085938 178.734375 C 137.011719 190.421875 112.988281 190.421875 93.914062 178.734375 C 86.878906 174.207031 78.679688 171.820312 70.3125 171.875 L 70.3125 156.25 C 81.292969 156.175781 92.074219 159.214844 101.398438 165.015625 C 115.804688 174.160156 134.195312 174.160156 148.601562 165.015625 C 167.675781 153.328125 191.699219 153.328125 210.773438 165.015625 C 217.808594 169.542969 226.007812 171.925781 234.375 171.875 Z M 234.375 187.5 "/>
<path style=" stroke:none;fill-rule:nonzero;fill:rgb(93.333333%,52.941176%,0%);fill-opacity:1;" d="M 39.0625 156.25 L 54.6875 156.25 L 54.6875 171.875 L 39.0625 171.875 Z M 39.0625 156.25 "/>
<path style=" stroke:none;fill-rule:nonzero;fill:rgb(93.333333%,52.941176%,0%);fill-opacity:1;" d="M 210.9375 296.875 C 199.957031 296.949219 189.175781 293.910156 179.851562 288.109375 C 165.445312 278.964844 147.054688 278.964844 132.648438 288.109375 C 113.574219 299.796875 89.550781 299.796875 70.476562 288.109375 C 63.441406 283.582031 55.242188 281.195312 46.875 281.25 L 46.875 265.625 C 57.855469 265.550781 68.636719 268.589844 77.960938 274.390625 C 92.367188 283.535156 110.757812 283.535156 125.164062 274.390625 C 144.238281 262.703125 168.261719 262.703125 187.335938 274.390625 C 194.371094 278.917969 202.570312 281.300781 210.9375 281.25 Z M 210.9375 296.875 "/>
<path style=" stroke:none;fill-rule:nonzero;fill:rgb(93.333333%,52.941176%,0%);fill-opacity:1;" d="M 15.625 265.625 L 31.25 265.625 L 31.25 281.25 L 15.625 281.25 Z M 15.625 265.625 "/>
<path style=" stroke:none;fill-rule:nonzero;fill:rgb(93.333333%,52.941176%,0%);fill-opacity:1;" d="M 218.75 242.1875 C 207.769531 242.261719 196.988281 239.222656 187.664062 233.421875 C 173.257812 224.277344 154.867188 224.277344 140.460938 233.421875 C 131.136719 239.222656 120.355469 242.261719 109.375 242.1875 L 109.375 226.5625 C 117.742188 226.617188 125.941406 224.230469 132.976562 219.703125 C 152.050781 208.015625 176.074219 208.015625 195.148438 219.703125 C 202.183594 224.230469 210.382812 226.613281 218.75 226.5625 Z M 218.75 242.1875 "/>
<path style=" stroke:none;fill-rule:nonzero;fill:rgb(93.333333%,52.941176%,0%);fill-opacity:1;" d="M 78.125 226.5625 L 93.75 226.5625 L 93.75 242.1875 L 78.125 242.1875 Z M 78.125 226.5625 "/>
<path style=" stroke:none;fill-rule:nonzero;fill:rgb(93.333333%,52.941176%,0%);fill-opacity:1;" d="M 242.1875 351.5625 C 231.207031 351.636719 220.425781 348.597656 211.101562 342.796875 C 196.695312 333.652344 178.304688 333.652344 163.898438 342.796875 C 154.574219 348.597656 143.792969 351.636719 132.8125 351.5625 L 132.8125 335.9375 C 141.179688 335.992188 149.378906 333.605469 156.414062 329.078125 C 175.488281 317.390625 199.511719 317.390625 218.585938 329.078125 C 225.621094 333.605469 233.820312 335.988281 242.1875 335.9375 Z M 242.1875 351.5625 "/>
<path style=" stroke:none;fill-rule:nonzero;fill:rgb(93.333333%,52.941176%,0%);fill-opacity:1;" d="M 101.5625 335.9375 L 117.1875 335.9375 L 117.1875 351.5625 L 101.5625 351.5625 Z M 101.5625 335.9375 "/>
<path style=" stroke:none;fill-rule:nonzero;fill:rgb(93.333333%,52.941176%,0%);fill-opacity:1;" d="M 54.6875 335.9375 L 85.9375 335.9375 L 85.9375 351.5625 L 54.6875 351.5625 Z M 54.6875 335.9375 "/>
<path style=" stroke:none;fill-rule:nonzero;fill:rgb(93.333333%,52.941176%,0%);fill-opacity:1;" d="M 23.4375 335.9375 L 39.0625 335.9375 L 39.0625 351.5625 L 23.4375 351.5625 Z M 23.4375 335.9375 "/>
<path style=" stroke:none;fill-rule:nonzero;fill:rgb(80%,45.490196%,0%);fill-opacity:1;" d="M 62.5 109.375 L 78.125 109.375 L 78.125 125 L 62.5 125 Z M 62.5 109.375 "/>
</g>
</svg>
